<svg width="23" height="23" viewBox="0 0 23 23" fill="none" xmlns="http://www.w3.org/2000/svg">
<g id="airplane 1" clip-path="url(#clip0_635_374)">
<g id="Group">
<g id="Group_2">
<path id="Vector" d="M19.5436 10.3854C19.2912 10.3854 19.0865 10.1807 19.0865 9.92829V7.1633C19.0865 7.09071 19.0258 7.02941 18.954 7.02941H17.6878C17.616 7.02941 17.5553 7.09075 17.5553 7.1633V8.95826C17.5553 9.21067 17.3506 9.41534 17.0982 9.41534C16.8458 9.41534 16.6411 9.21071 16.6411 8.95826V7.1633C16.6411 6.58539 17.1107 6.11523 17.6878 6.11523H18.954C19.5311 6.11523 20.0007 6.58539 20.0007 7.1633V9.92829C20.0007 10.1807 19.796 10.3854 19.5436 10.3854Z" fill="#00A1DE"/>
</g>
<g id="Group_3">
<path id="Vector_2" d="M3.45611 10.8391C3.2037 10.8391 2.99902 10.6345 2.99902 10.382V7.1633C2.99902 6.58539 3.46859 6.11523 4.04573 6.11523H5.31186C5.88905 6.11523 6.35857 6.58539 6.35857 7.1633V9.41199C6.35857 9.6644 6.1539 9.86907 5.90149 9.86907C5.64908 9.86907 5.4444 9.66444 5.4444 9.41199V7.1633C5.4444 7.09071 5.38369 7.02941 5.31186 7.02941H4.04573C3.97391 7.02941 3.9132 7.09075 3.9132 7.1633V10.382C3.9132 10.6345 3.70852 10.8391 3.45611 10.8391Z" fill="#00A1DE"/>
</g>
<g id="Group_4">
<path id="Vector_3" fill-rule="evenodd" clip-rule="evenodd" d="M9.34072 13.4912L8.70894 7.39062L5.90158 8.50412L3.45612 9.47415L0.338135 10.7101V13.4912H9.34072Z" fill="#C7E9F6"/>
</g>
<g id="Group_5">
<path id="Vector_4" fill-rule="evenodd" clip-rule="evenodd" d="M22.6615 13.4913V10.7102L19.5435 9.4743L17.0981 8.50427L14.2907 7.39209L13.6589 13.4913H22.6615Z" fill="#C7E9F6"/>
</g>
<g id="Group_6">
<path id="Vector_5" d="M16.4664 23H6.53326C6.28085 23 6.07617 22.7954 6.07617 22.5429V19.9408C6.07617 19.8152 6.12781 19.6953 6.21891 19.6089L9.22079 16.7655L8.09232 5.86636C7.87879 3.80693 8.29051 2.0333 9.22192 1.00029C9.812 0.345923 10.5994 0 11.4991 0C12.3995 0 13.1874 0.346014 13.7777 1.00075C14.7091 2.03371 15.1209 3.80715 14.9073 5.8664L13.7789 16.768L16.7806 19.6088C16.8718 19.6951 16.9235 19.8152 16.9235 19.9408V22.5429C16.9235 22.7954 16.7188 23 16.4664 23ZM6.99035 22.0859H16.0093V20.1376L12.9868 17.2772C12.8837 17.1795 12.8317 17.0394 12.8463 16.8981L13.998 5.77226C14.1849 3.96995 13.8571 2.454 13.0988 1.61296C12.6807 1.1493 12.1425 0.914219 11.4991 0.914219C10.8564 0.914219 10.3186 1.14916 9.90084 1.61255C9.14248 2.45368 8.8147 3.96982 9.00164 5.77221L10.1533 16.8955C10.1679 17.0367 10.1161 17.1767 10.013 17.2744L6.99035 20.1375V22.0859Z" fill="#00A1DE"/>
</g>
<g id="Group_7">
<path id="Vector_6" d="M12.6525 4.83634C12.5138 4.83634 12.3769 4.77355 12.2871 4.65426C12.1001 4.40607 11.8131 4.26378 11.4998 4.26378C11.1864 4.26378 10.8996 4.40612 10.7125 4.65426C10.5605 4.85585 10.2741 4.89619 10.0724 4.74428C9.87082 4.59237 9.83052 4.30575 9.98243 4.10416C10.3437 3.62461 10.8968 3.34961 11.4998 3.34961C12.1028 3.34961 12.6559 3.62466 13.0172 4.10416C13.1691 4.30575 13.1288 4.59237 12.9272 4.74428C12.8449 4.80635 12.7483 4.83634 12.6525 4.83634Z" fill="#00A1DE"/>
</g>
<g id="Group_8">
<path id="Vector_7" d="M18.2762 18.4274C18.0238 18.4274 17.8191 18.2227 17.8191 17.9703V15.5274C17.8191 15.275 18.0238 15.0703 18.2762 15.0703C18.5286 15.0703 18.7333 15.2749 18.7333 15.5274V17.9703C18.7333 18.2227 18.5286 18.4274 18.2762 18.4274ZM20.3741 17.2717C20.1217 17.2717 19.917 17.0671 19.917 16.8146V15.5274C19.917 15.275 20.1217 15.0703 20.3741 15.0703C20.6265 15.0703 20.8312 15.2749 20.8312 15.5274V16.8146C20.8312 17.0671 20.6266 17.2717 20.3741 17.2717Z" fill="#00A1DE"/>
</g>
<g id="Group_9">
<path id="Vector_8" d="M4.72355 18.4274C4.47114 18.4274 4.26646 18.2227 4.26646 17.9703V15.5274C4.26646 15.275 4.47114 15.0703 4.72355 15.0703C4.97596 15.0703 5.18064 15.2749 5.18064 15.5274V17.9703C5.18068 18.2227 4.976 18.4274 4.72355 18.4274ZM2.62432 17.2717C2.37191 17.2717 2.16724 17.0671 2.16724 16.8146V15.5274C2.16724 15.275 2.37191 15.0703 2.62432 15.0703C2.87673 15.0703 3.08141 15.2749 3.08141 15.5274V16.8146C3.08141 17.0671 2.87673 17.2717 2.62432 17.2717Z" fill="#00A1DE"/>
</g>
<g id="Group_10">
<path id="Vector_9" d="M11.4991 21.1613C11.2467 21.1613 11.042 20.9566 11.042 20.7042V18.3482C11.042 18.0958 11.2467 17.8911 11.4991 17.8911C11.7515 17.8911 11.9562 18.0957 11.9562 18.3482V20.7042C11.9562 20.9566 11.7515 21.1613 11.4991 21.1613Z" fill="#00A1DE"/>
</g>
</g>
</g>
<defs>
<clipPath id="clip0_635_374">
<rect width="23" height="23" fill="white"/>
</clipPath>
</defs>
</svg>
