<svg width="348" height="16" viewBox="0 0 348 16" fill="none" xmlns="http://www.w3.org/2000/svg">
<path d="M347.354 8.35352C347.549 8.15826 347.549 7.84168 347.354 7.64642L344.172 4.46444C343.976 4.26917 343.66 4.26917 343.464 4.46444C343.269 4.6597 343.269 4.97628 343.464 5.17154L346.293 7.99997L343.464 10.8284C343.269 11.0237 343.269 11.3402 343.464 11.5355C343.66 11.7308 343.976 11.7308 344.172 11.5355L347.354 8.35352ZM4.37114e-08 8.5L2.47857 8.5L2.47857 7.5L-4.37114e-08 7.5L4.37114e-08 8.5ZM7.43571 8.5L12.3929 8.5L12.3929 7.5L7.43571 7.5L7.43571 8.5ZM17.35 8.5L22.3071 8.5L22.3071 7.5L17.35 7.5L17.35 8.5ZM27.2643 8.5L32.2214 8.5L32.2214 7.5L27.2643 7.5L27.2643 8.5ZM37.1786 8.5L42.1357 8.5L42.1357 7.5L37.1786 7.5L37.1786 8.5ZM47.0928 8.5L52.05 8.5L52.05 7.5L47.0928 7.5L47.0928 8.5ZM57.0071 8.5L61.9643 8.49999L61.9643 7.49999L57.0071 7.5L57.0071 8.5ZM66.9214 8.49999L71.8786 8.49999L71.8786 7.49999L66.9214 7.49999L66.9214 8.49999ZM76.8357 8.49999L81.7929 8.49999L81.7929 7.49999L76.8357 7.49999L76.8357 8.49999ZM86.75 8.49999L91.7071 8.49999L91.7071 7.49999L86.75 7.49999L86.75 8.49999ZM96.6643 8.49999L101.621 8.49999L101.621 7.49999L96.6643 7.49999L96.6643 8.49999ZM106.579 8.49999L111.536 8.49999L111.536 7.49999L106.579 7.49999L106.579 8.49999ZM116.493 8.49999L121.45 8.49999L121.45 7.49999L116.493 7.49999L116.493 8.49999ZM126.407 8.49999L131.364 8.49999L131.364 7.49999L126.407 7.49999L126.407 8.49999ZM136.321 8.49999L141.279 8.49999L141.279 7.49999L136.321 7.49999L136.321 8.49999ZM146.236 8.49999L151.193 8.49999L151.193 7.49999L146.236 7.49999L146.236 8.49999ZM156.15 8.49999L161.107 8.49999L161.107 7.49999L156.15 7.49999L156.15 8.49999ZM166.064 8.49999L171.021 8.49999L171.021 7.49999L166.064 7.49999L166.064 8.49999ZM175.979 8.49998L180.936 8.49998L180.936 7.49998L175.979 7.49998L175.979 8.49998ZM185.893 8.49998L190.85 8.49998L190.85 7.49998L185.893 7.49998L185.893 8.49998ZM195.807 8.49998L200.764 8.49998L200.764 7.49998L195.807 7.49998L195.807 8.49998ZM205.721 8.49998L210.679 8.49998L210.679 7.49998L205.721 7.49998L205.721 8.49998ZM215.636 8.49998L220.593 8.49998L220.593 7.49998L215.636 7.49998L215.636 8.49998ZM225.55 8.49998L230.507 8.49998L230.507 7.49998L225.55 7.49998L225.55 8.49998ZM235.464 8.49998L240.421 8.49998L240.421 7.49998L235.464 7.49998L235.464 8.49998ZM245.378 8.49998L250.336 8.49998L250.336 7.49998L245.378 7.49998L245.378 8.49998ZM255.293 8.49998L260.25 8.49998L260.25 7.49998L255.293 7.49998L255.293 8.49998ZM265.207 8.49998L270.164 8.49998L270.164 7.49998L265.207 7.49998L265.207 8.49998ZM275.121 8.49998L280.079 8.49998L280.079 7.49998L275.121 7.49998L275.121 8.49998ZM285.036 8.49998L289.993 8.49997L289.993 7.49997L285.036 7.49998L285.036 8.49998ZM294.95 8.49997L299.907 8.49997L299.907 7.49997L294.95 7.49997L294.95 8.49997ZM304.864 8.49997L309.821 8.49997L309.821 7.49997L304.864 7.49997L304.864 8.49997ZM314.779 8.49997L319.736 8.49997L319.736 7.49997L314.779 7.49997L314.779 8.49997ZM324.693 8.49997L329.65 8.49997L329.65 7.49997L324.693 7.49997L324.693 8.49997ZM334.607 8.49997L339.564 8.49997L339.564 7.49997L334.607 7.49997L334.607 8.49997ZM344.522 8.49997L347 8.49997L347 7.49997L344.522 7.49997L344.522 8.49997ZM347.707 8.70708C348.098 8.31655 348.098 7.68339 347.707 7.29286L341.343 0.928902C340.953 0.538378 340.319 0.538378 339.929 0.928902C339.538 1.31943 339.538 1.95259 339.929 2.34312L345.586 7.99997L339.929 13.6568C339.538 14.0473 339.538 14.6805 339.929 15.071C340.319 15.4616 340.953 15.4616 341.343 15.071L347.707 8.70708ZM8.74228e-08 9L2.47857 9L2.47857 7L-8.74228e-08 7L8.74228e-08 9ZM7.43571 9L12.3929 9L12.3929 7L7.43571 7L7.43571 9ZM17.35 9L22.3071 9L22.3071 7L17.35 7L17.35 9ZM27.2643 9L32.2214 9L32.2214 7L27.2643 7L27.2643 9ZM37.1786 9L42.1357 9L42.1357 7L37.1786 7L37.1786 9ZM47.0928 9L52.05 9L52.05 7L47.0928 7L47.0928 9ZM57.0071 9L61.9643 8.99999L61.9643 6.99999L57.0071 7L57.0071 9ZM66.9214 8.99999L71.8786 8.99999L71.8786 6.99999L66.9214 6.99999L66.9214 8.99999ZM76.8357 8.99999L81.7929 8.99999L81.7929 6.99999L76.8357 6.99999L76.8357 8.99999ZM86.75 8.99999L91.7071 8.99999L91.7071 6.99999L86.75 6.99999L86.75 8.99999ZM96.6643 8.99999L101.621 8.99999L101.621 6.99999L96.6643 6.99999L96.6643 8.99999ZM106.579 8.99999L111.536 8.99999L111.536 6.99999L106.579 6.99999L106.579 8.99999ZM116.493 8.99999L121.45 8.99999L121.45 6.99999L116.493 6.99999L116.493 8.99999ZM126.407 8.99999L131.364 8.99999L131.364 6.99999L126.407 6.99999L126.407 8.99999ZM136.321 8.99999L141.279 8.99999L141.279 6.99999L136.321 6.99999L136.321 8.99999ZM146.236 8.99999L151.193 8.99999L151.193 6.99999L146.236 6.99999L146.236 8.99999ZM156.15 8.99999L161.107 8.99999L161.107 6.99999L156.15 6.99999L156.15 8.99999ZM166.064 8.99999L171.021 8.99999L171.021 6.99999L166.064 6.99999L166.064 8.99999ZM175.979 8.99998L180.936 8.99998L180.936 6.99998L175.979 6.99998L175.979 8.99998ZM185.893 8.99998L190.85 8.99998L190.85 6.99998L185.893 6.99998L185.893 8.99998ZM195.807 8.99998L200.764 8.99998L200.764 6.99998L195.807 6.99998L195.807 8.99998ZM205.721 8.99998L210.679 8.99998L210.679 6.99998L205.721 6.99998L205.721 8.99998ZM215.636 8.99998L220.593 8.99998L220.593 6.99998L215.636 6.99998L215.636 8.99998ZM225.55 8.99998L230.507 8.99998L230.507 6.99998L225.55 6.99998L225.55 8.99998ZM235.464 8.99998L240.421 8.99998L240.421 6.99998L235.464 6.99998L235.464 8.99998ZM245.378 8.99998L250.336 8.99998L250.336 6.99998L245.378 6.99998L245.378 8.99998ZM255.293 8.99998L260.25 8.99998L260.25 6.99998L255.293 6.99998L255.293 8.99998ZM265.207 8.99998L270.164 8.99998L270.164 6.99998L265.207 6.99998L265.207 8.99998ZM275.121 8.99998L280.079 8.99998L280.079 6.99998L275.121 6.99998L275.121 8.99998ZM285.036 8.99998L289.993 8.99997L289.993 6.99997L285.036 6.99998L285.036 8.99998ZM294.95 8.99997L299.907 8.99997L299.907 6.99997L294.95 6.99997L294.95 8.99997ZM304.864 8.99997L309.821 8.99997L309.821 6.99997L304.864 6.99997L304.864 8.99997ZM314.779 8.99997L319.736 8.99997L319.736 6.99997L314.779 6.99997L314.779 8.99997ZM324.693 8.99997L329.65 8.99997L329.65 6.99997L324.693 6.99997L324.693 8.99997ZM334.607 8.99997L339.564 8.99997L339.564 6.99997L334.607 6.99997L334.607 8.99997ZM344.522 8.99997L347 8.99997L347 6.99997L344.522 6.99997L344.522 8.99997Z" fill="#00A1DE"/>
</svg>
