<svg width="189" height="105" viewBox="0 0 189 110" fill="none" xmlns="http://www.w3.org/2000/svg">
<path d="M168.83 67.0633C169.242 102.16 134.412 101.666 92.6823 101.666C50.9526 101.666 17.7227 102.16 17.7227 67.0633C17.7227 31.9669 58.1972 0 89.9679 0C146.777 0 168.5 38.8819 168.83 67.0633Z" fill="#F3F7FF"/>
<mask id="mask0_100_4558" style="mask-type:luminance" maskUnits="userSpaceOnUse" x="17" y="0" width="152" height="102">
<path d="M168.831 67.2282C169.243 102.411 134.457 101.916 92.7812 101.916C51.1052 101.916 17.918 102.411 17.918 67.2282C17.918 32.0455 58.3405 0 90.0703 0C146.807 0 168.501 38.9775 168.831 67.2282Z" fill="white"/>
</mask>
<g mask="url(#mask0_100_4558)">
<path opacity="0.3" d="M121.618 -26.9312C146.394 -8.89075 157.753 23.8536 157.753 53.5251C157.753 97.8264 121.618 97.2029 77.813 97.2029C56.6746 97.2029 37.6278 97.3439 23.5615 92.523C37.2199 105.141 62.2893 104.889 91.26 104.889C135.068 104.889 171.2 105.512 171.2 61.2148C171.2 26.6148 155.765 -12.1529 121.618 -26.9312Z" fill="white"/>
<path d="M152.665 32.0592V55.6479H140.642V33.6364H138.621V29.8324H137.253V25.2527H135.495V23.1521L132.777 20.0273L130.284 23.1521V25.2527H128.527V29.8324H127.158V33.6364H125.137V42.9331H111.675V33.6364L96.1663 44.117V66.7557H86.3648V24.2544H82.7935V20.5134H77.4755V13.8332H75.7474V-3.82126C75.7474 -3.91969 75.7083 -4.01408 75.6388 -4.08368C75.5692 -4.15328 75.4749 -4.19238 75.3765 -4.19238C75.2782 -4.19238 75.1839 -4.15328 75.1143 -4.08368C75.0448 -4.01408 75.0057 -3.91969 75.0057 -3.82126V13.8332H73.2775V20.5134H67.9596V24.2544H64.6701V55.6479H59.3744V33.6364H43.8766V42.9331H39.3411V34.3787H35.9108V30.6377H32.2023V23.9575H24.7853V30.6377H21.0768V34.3787H17.6465V104.414H152.665V108.496H171.208V32.0443L152.665 32.0592Z" fill="#D2E4F9"/>
</g>
<path d="M134.184 90.8064H115.764V98.7375H134.184V90.8064Z" fill="#122323"/>
<path d="M114.888 101.58C114.888 97.5034 118.706 94.1951 123.414 94.1951C128.122 94.1951 131.938 97.5013 131.938 101.58C131.938 105.658 128.122 108.964 123.414 108.964C118.706 108.964 114.888 105.658 114.888 101.58Z" fill="#3A4756"/>
<path d="M119.428 101.58C119.428 99.6806 121.213 98.1299 123.415 98.1299C125.616 98.1299 127.399 99.6743 127.399 101.58C127.399 103.485 125.616 105.031 123.415 105.031C121.213 105.031 119.428 103.487 119.428 101.58Z" fill="#657475"/>
<path d="M109.611 100.06C109.611 100.06 116.166 100.432 116.607 100.187C116.607 100.187 116.088 95.8618 118.209 94.1295C121.192 91.6926 125.314 92.391 127.517 93.2856C129.164 93.9544 130.011 95.7668 130.159 98.2902C130.302 100.058 130.395 100.499 130.395 100.499C131.27 100.877 140.582 100.377 141.63 100.309C145.299 100.073 141.816 88.9519 142.4 85.9221C142.836 83.2721 139.469 77.1006 138.605 74.4506C137.587 70.9166 133.891 59.1012 131.917 58.1581C128.264 56.4111 113.997 55.6262 111.224 57.0229L109.611 100.06Z" fill="#00719B"/>
<path d="M138.595 74.459C140.644 74.5961 142.326 74.2965 143.699 76.398C145.556 79.2273 145.386 83.1053 145.386 86.3398C145.386 88.6817 145.708 91.5913 145.061 93.9354C144.656 95.5536 142.558 95.6233 141.024 95.7161C139.489 95.8089 139.248 95.1485 138.915 93.775L138.595 74.459Z" fill="#00719B"/>
<path d="M138.758 74.459C138.216 74.4295 137.691 74.5751 137.153 74.6342L137.187 74.6046C136.966 75.8578 136.909 77.1345 137.018 78.4024C137.1 79.6671 137.347 80.9156 137.754 82.1158C137.953 82.7093 138.264 83.2593 138.669 83.7362C139.084 84.2095 139.585 84.5997 140.145 84.8861C140.709 85.1692 141.311 85.3703 141.933 85.4832C142.244 85.5422 142.559 85.5845 142.875 85.6098C143.194 85.6278 143.511 85.6679 143.824 85.7301C143.508 85.6889 143.191 85.6657 142.873 85.6604C142.553 85.6505 142.234 85.6217 141.918 85.5739C141.28 85.4821 140.66 85.2951 140.077 85.019C139.49 84.7405 138.966 84.3458 138.536 83.8586C138.109 83.3664 137.78 82.797 137.566 82.1812C137.15 80.9659 136.907 79.6981 136.843 78.4151C136.801 77.7758 136.801 77.1344 136.843 76.4951C136.878 75.8552 136.97 75.2198 137.117 74.5962V74.5666H137.145C137.678 74.5308 138.218 74.3957 138.758 74.459Z" fill="#00A1DE"/>
<path d="M118.143 94.0324C117.551 94.0493 116.961 94.0852 116.37 94.1147C115.78 94.1443 115.19 94.1822 114.595 94.1886H114.536V94.1274C114.671 91.8065 114.747 89.4856 114.836 87.1648L115.046 80.1916L115.223 73.229L115.36 66.2537C115.396 68.5745 115.39 70.8954 115.36 73.2311C115.331 75.5667 115.295 77.8728 115.24 80.2085C115.185 82.5441 115.107 84.8502 115.017 87.1711C114.926 89.492 114.806 91.8128 114.644 94.1337L114.587 94.0725C115.769 94.0789 116.954 94.0198 118.143 94.0324Z" fill="#00A1DE"/>
<path d="M129.374 94.4334L131.286 94.4524L133.196 94.4756L133.137 94.5263C133.378 92.7561 133.586 90.9817 133.77 89.2072C133.953 87.4328 134.088 85.6521 134.192 83.8692C134.215 83.424 134.236 82.9789 134.251 82.5337C134.265 82.0885 134.284 81.6454 134.282 81.196C134.282 80.3056 134.259 79.4131 134.232 78.5207C134.17 76.7357 134.09 74.9507 134.006 73.1658C134.162 74.9465 134.285 76.7294 134.375 78.5143C134.419 79.4068 134.461 80.2993 134.466 81.196C134.466 81.6412 134.466 82.0969 134.44 82.5379C134.415 82.9789 134.411 83.4325 134.392 83.8798C134.314 85.6669 134.158 87.4497 133.97 89.2283C133.783 91.007 133.53 92.7772 133.26 94.5432V94.5938H133.209L131.299 94.5199L129.374 94.4334Z" fill="#00A1DE"/>
<path d="M141.809 100.318C138.338 100.352 139.186 97.3535 139.186 95.7753C139.331 93.3152 140.131 92.1885 143.12 92.1885C146.034 92.1885 146.108 93.6401 146.108 95.847C146.108 97.113 146.399 100.36 145.119 100.36L141.809 100.318Z" fill="#3A4756"/>
<path d="M132.312 67.3573C131.593 65.3044 130.703 63.184 129.731 61.6838C129.037 60.6099 128.304 59.8567 127.568 59.6773C125.091 59.0444 122.249 58.6034 119.698 58.6667C118.896 58.73 117.659 58.6667 116.929 58.9199C116.335 59.1309 116.162 63.4329 116.086 67.2645C116.038 70.0073 116.04 72.5118 115.979 73.1173L118.264 73.2059L134.047 73.8115C134.121 73.5182 133.421 70.5221 132.312 67.3573Z" fill="#C7E9F6"/>
<mask id="mask1_100_4558" style="mask-type:luminance" maskUnits="userSpaceOnUse" x="115" y="58" width="20" height="16">
<path d="M132.312 67.3573C131.593 65.3044 130.703 63.184 129.731 61.6838C129.037 60.6099 128.304 59.8567 127.568 59.6773C125.091 59.0444 122.249 58.6034 119.698 58.6667C118.896 58.73 117.659 58.6667 116.929 58.9199C116.335 59.1309 116.162 63.4329 116.086 67.2645C116.038 70.0073 116.04 72.5118 115.979 73.1173L118.264 73.2059L134.047 73.8115C134.121 73.5182 133.421 70.5221 132.312 67.3573Z" fill="white"/>
</mask>
<g mask="url(#mask1_100_4558)">
<path d="M117.859 73.8157C117.859 73.8157 119.198 64.4626 115.713 64.7074V74.5964L117.859 73.8157Z" fill="#3A4756"/>
<path d="M128.685 71.2162C125.902 71.7669 123.773 72.8493 123.929 73.6362C124.085 74.4232 126.459 74.6152 129.248 74.0582C132.038 73.5012 134.159 72.4231 134.005 71.6361C133.851 70.8491 131.458 70.6655 128.685 71.2162ZM129.196 73.8008C126.929 74.2481 124.989 74.092 124.863 73.4506C124.736 72.8092 126.472 71.9293 128.738 71.4799C131.004 71.0305 132.942 71.1867 133.069 71.8281C133.195 72.4695 131.451 73.3514 129.187 73.8008H129.196Z" fill="#3A4756"/>
<path d="M121.574 66.5344C121.641 66.1124 121.696 65.7938 121.696 65.7938C121.673 65.8466 122.54 65.8276 122.71 65.7938C123.02 65.7368 123.098 65.0997 123.117 64.8085C123.28 64.8123 123.442 64.8257 123.602 64.8486C123.545 64.5954 123.311 64.3422 123.273 64.07C123.621 64.051 124.475 63.7599 123.815 63.4497C123.351 63.2387 123.155 63.1016 122.982 62.5572C122.866 62.169 122.885 61.7133 122.632 61.3546C122.379 60.9959 121.878 60.7913 121.431 60.6942C119.394 60.2279 118.114 62.8041 119.063 64.4393C119.354 64.9245 119.955 65.0026 120.033 65.6039C120.044 66.008 120 66.4118 119.904 66.8044C119.904 66.8044 119.816 66.9669 119.272 67.0998C119.272 67.0998 119.449 67.9438 120.769 67.9438C120.769 67.9438 121.703 67.8763 121.838 67.1716C121.846 67.161 121.492 67.0365 121.574 66.5344Z" fill="#F1CCB9"/>
<path d="M123.602 64.8424C123.339 64.8878 123.07 64.8878 122.807 64.8424C122.67 64.8176 122.54 64.7652 122.424 64.6884C122.308 64.6114 122.217 64.5021 122.162 64.374C122.358 64.5318 122.591 64.6364 122.839 64.6778C123.097 64.7134 123.352 64.7684 123.602 64.8424Z" fill="#B76363"/>
<path d="M122.337 61.7449C122.295 61.785 122.278 61.8145 122.255 61.8356C122.236 61.8563 122.215 61.8754 122.194 61.8926C122.174 61.9067 122.153 61.9187 122.13 61.9285C122.095 61.9459 122.062 61.9671 122.031 61.9917C122.011 61.9743 121.997 61.9516 121.989 61.9263C121.981 61.9009 121.98 61.8739 121.987 61.8483C121.998 61.7981 122.027 61.7539 122.069 61.7238C122.108 61.6949 122.156 61.6793 122.204 61.6795C122.23 61.6789 122.255 61.6845 122.278 61.6959C122.302 61.7073 122.322 61.7241 122.337 61.7449Z" fill="black"/>
<path d="M122.453 62.9266C122.453 63.0764 122.489 63.1967 122.535 63.1967C122.582 63.1967 122.618 63.0764 122.618 62.9266C122.618 62.7768 122.582 62.6587 122.535 62.6587C122.489 62.6587 122.453 62.7832 122.453 62.9266Z" fill="black"/>
<path d="M119.927 64.1671C119.965 64.4287 120.096 64.3633 120.115 64.6439C120.137 64.7782 120.118 64.916 120.061 65.0397C120.005 65.1633 119.912 65.2672 119.796 65.3381C119.585 65.4499 119.141 65.433 119.44 65.1271C119.383 65.1461 119.141 65.222 119.084 65.1651C118.934 65.0701 119.065 64.9541 119.195 64.9013C119.031 64.8548 118.877 64.7745 118.745 64.6655C118.613 64.5566 118.505 64.4213 118.428 64.2684C118.252 63.8911 118.119 63.4946 118.034 63.0868C117.884 62.3357 118.11 61.1879 118.744 61.1732C118.745 60.8811 118.846 60.5982 119.032 60.3725C119.217 60.1468 119.474 59.9921 119.76 59.9347C120.096 59.8798 120.515 59.9769 120.855 59.9558C121.085 59.9431 121.127 59.787 121.293 59.673C121.681 59.4051 122.409 59.462 122.64 59.903C122.872 60.344 122.64 61.1373 122.13 61.2576C121.62 61.3778 120.882 61.3588 120.939 61.6395C120.977 61.9097 120.958 62.1849 120.884 62.4475C120.836 62.5368 120.769 62.6148 120.689 62.6762C120.608 62.7377 120.515 62.7813 120.416 62.8041C120.452 63.1607 120.64 63.5173 120.659 63.8738L119.927 64.1671Z" fill="#7C5B3E"/>
<path d="M120.326 64.5617C120.434 64.1081 120.387 63.378 119.848 63.2198C118.888 62.9666 118.867 64.7769 119.831 64.8908C119.918 64.9029 120.008 64.8897 120.088 64.8529L120.326 64.5617Z" fill="#F1CCB9"/>
<path d="M128.649 70.9251C127.796 70.9175 126.947 70.8113 126.119 70.6086C125.05 69.8638 123.77 68.5662 122.921 67.6716L122.312 68.7793C123.098 69.9271 124.995 71.4082 125.79 71.6846C126.509 71.9315 127.875 71.8344 128.792 71.7268C128.687 71.4732 128.638 71.1996 128.649 70.9251Z" fill="#F1CCB9"/>
<path d="M130.57 71.2057C131.272 70.655 131.715 70.8428 132.135 70.6254C131.173 70.3237 130.265 70.7352 129.383 70.885C129.187 70.9166 127.894 70.888 127.612 70.8859C127.613 71.2448 127.342 71.4731 127.457 71.8128C127.62 71.7938 128.538 71.8128 129.225 71.6635C129.571 71.5833 129.82 71.788 130.197 71.7416C130.543 71.6614 131.217 71.9251 131.437 71.7774C131.62 71.6086 130.547 71.4799 130.57 71.2057Z" fill="#F1CCB9"/>
<path d="M121.755 67.2729C122.809 67.0261 122.562 67.4692 122.731 67.2434L123.977 68.5304C123.977 68.5304 125.803 70.1846 126.176 70.4483L127.677 70.7332C127.571 71.1855 127.501 71.6454 127.466 72.1088C126.826 72.1458 126.186 72.0361 125.594 71.7881C125.046 71.5265 123.614 70.7057 123.184 70.1318C122.824 69.8976 122.246 69.1507 122.212 69.214C121.837 68.8153 122.276 67.7645 122.088 67.1843L121.755 67.2729Z" fill="#0082B4"/>
<path d="M122.782 73.5435C122.571 73.227 122.521 71.9105 122.529 70.8682C122.545 70.3487 122.593 69.8307 122.674 69.3174C122.733 68.8654 122.763 68.4102 122.765 67.9544C122.765 67.7434 122.852 67.4354 122.725 67.2434C122.681 67.178 122.263 67.0451 121.808 66.9586C121.643 67.5198 121.35 67.7287 120.621 67.6886C120.02 67.6527 119.649 67.2666 119.385 66.8066C119.202 66.8552 118.239 66.967 118.055 67.0324C116.704 67.5135 116.845 70.0833 116.849 70.7437C116.849 71.4716 116.974 72.2016 116.906 72.9316C116.872 73.2903 116.695 73.5857 116.651 73.9191C116.605 74.2925 117.03 74.801 116.984 75.185C116.959 75.396 116.818 75.5374 116.824 75.78C116.834 76.1176 116.674 77.1662 116.803 77.3666C116.866 77.3666 122.613 77.7886 124.053 75.6133C124.06 75.607 123.119 74.0478 122.782 73.5435Z" fill="#00A1DE"/>
<path d="M122.108 72.4443C121.526 72.3951 120.943 72.3494 120.358 72.3072C120.012 72.2693 119.664 72.2517 119.316 72.2544C119.219 71.7966 119.118 71.1995 119.023 70.5981C118.494 70.7416 117.897 71.0201 117.566 71.4421C117.838 72.9443 117.988 73.0709 118.178 73.2102L118.222 73.2418C118.254 73.2653 118.287 73.2872 118.321 73.3072L118.393 73.3473C118.546 73.4312 118.713 73.4876 118.886 73.514C119.426 73.602 119.974 73.6303 120.52 73.5984C121.085 73.5562 121.65 73.495 122.207 73.4191C122.08 73.1107 122.045 72.7719 122.108 72.4443Z" fill="#F5DED6"/>
<path d="M125.82 72.2776C125.639 72.1746 125.437 72.114 125.23 72.1003C124.556 72.1296 123.893 72.279 123.271 72.5413C122.883 72.5075 122.442 72.4709 122.054 72.4308C121.996 72.8114 122.06 73.1001 122.187 73.4633C122.244 73.4633 123.09 73.1869 123.202 73.2523C123.358 73.3515 123.364 73.4802 123.585 73.4844C123.874 73.5034 124.496 73.3114 124.831 73.2334C124.941 73.2792 125.048 73.3306 125.152 73.3874C125.275 73.4952 125.418 73.577 125.573 73.6279C125.729 73.6427 125.573 73.4338 125.451 73.3304C125.26 73.1948 125.096 73.0253 124.966 72.8304C125.101 72.746 125.883 73.6954 126.02 73.4633C126.098 73.4127 125.788 73.1279 125.67 73.0118C125.51 72.8747 125.386 72.7059 125.238 72.5666C125.561 72.6447 126.124 73.4106 126.244 73.2587C126.332 73.1363 125.736 72.5708 125.489 72.3767C125.866 72.5075 126.094 72.9337 126.385 72.9633C126.501 72.9063 126.029 72.3831 125.82 72.2776Z" fill="#F5DED6"/>
<path d="M118.588 67.3869C118.299 67.2392 117.987 67.0978 117.633 67.3869C117.325 67.6126 117.258 68.1907 117.193 68.5431C117.009 69.7162 117.256 71.1319 117.572 72.2755C117.739 72.881 117.859 73.3642 118.46 73.5773C118.801 73.6954 119.683 73.8051 120.043 73.7018C119.973 73.1279 120.043 72.6637 120.011 72.0898C119.899 72.0921 119.787 72.0857 119.676 72.0708C119.763 71.9041 119.602 71.8957 119.402 71.9843C119.43 71.672 119.284 71.1214 119.248 70.8154C119.2 70.4251 119.056 69.9462 118.999 69.5706C118.909 68.8511 118.824 67.7688 118.7 67.5514L118.588 67.3869Z" fill="#46B2DC"/>
<path d="M119.301 72.1172C119.186 72.282 119.081 72.454 118.987 72.632C118.888 72.805 118.802 72.9822 118.711 73.1658C118.741 72.8539 118.867 72.559 119.071 72.3218C119.136 72.2412 119.214 72.172 119.301 72.1172Z" fill="#85A52E"/>
<path d="M119.409 72.3872C119.402 72.4856 119.385 72.583 119.36 72.6784C119.348 72.726 119.332 72.7726 119.312 72.8176C119.291 72.8644 119.265 72.9084 119.234 72.9484C119.225 72.8486 119.234 72.7479 119.259 72.6509C119.273 72.6022 119.291 72.5549 119.314 72.5096C119.338 72.4633 119.37 72.4218 119.409 72.3872Z" fill="#85A52E"/>
</g>
<path d="M115.384 73.8663L115.403 71.2627C115.403 70.0242 115.417 68.7857 115.434 67.5451C115.457 65.7538 115.504 63.9583 115.628 62.1691C115.696 61.1943 115.753 60.1794 116.023 59.2363C116.122 58.8945 116.271 58.5021 116.588 58.3249C116.659 58.2866 116.734 58.2555 116.811 58.232C117.36 58.0794 117.928 58.0034 118.498 58.0063C119.071 57.9852 119.645 57.9535 120.218 57.9535C120.851 57.9535 121.483 57.9809 122.126 58.0295C123.301 58.1251 124.469 58.2864 125.626 58.5126C126.122 58.6083 126.614 58.7138 127.102 58.8291C127.514 58.9006 127.914 59.0269 128.293 59.2047C129.183 59.6857 129.828 60.5677 130.355 61.4074C130.846 62.1999 131.28 63.0262 131.654 63.8802C132.501 65.8075 133.218 67.7896 133.8 69.8132C134.053 70.674 134.295 71.5391 134.489 72.4126C134.563 72.7375 134.631 73.0624 134.673 73.3916C134.709 73.5807 134.714 73.7745 134.69 73.9655C134.649 74.1764 134.595 74.3727 134.548 74.5773L134.633 74.5499L134.112 74.5309L132.706 74.476L130.618 74.3959L128.088 74.2967L125.297 74.1891L122.493 74.0815L119.866 73.9802L117.644 73.8979L116.048 73.8368L115.293 73.8072H115.259C115.118 73.8072 115.209 73.8937 115.301 73.8979L115.82 73.9169L117.226 73.9718L119.316 74.052L121.846 74.149L124.637 74.2587L127.441 74.3663L130.068 74.4676L132.278 74.552L133.876 74.6153L134.628 74.6427H134.662C134.683 74.6427 134.738 74.6427 134.746 74.6174C134.793 74.4064 134.852 74.1954 134.89 73.9844C134.912 73.7846 134.903 73.5825 134.865 73.3852C134.748 72.6326 134.585 71.8878 134.378 71.1551C133.847 69.1564 133.2 67.1907 132.438 65.2685C132.054 64.2878 131.615 63.3297 131.122 62.3991C130.672 61.5018 130.098 60.6723 129.417 59.9347C129.114 59.6107 128.76 59.3384 128.369 59.1287C127.998 58.9634 127.609 58.8423 127.209 58.7679C126.155 58.519 125.101 58.3122 124.047 58.1582C122.821 57.978 121.585 57.8793 120.347 57.8628C119.75 57.8628 119.155 57.8923 118.559 57.9113C118.008 57.9129 117.459 57.9687 116.919 58.078C116.686 58.1173 116.465 58.2097 116.273 58.3481C116.145 58.4657 116.042 58.6096 115.974 58.77C115.858 59.0336 115.773 59.3097 115.721 59.5929C115.627 60.0573 115.556 60.5264 115.51 60.9981C115.329 62.7514 115.285 64.5216 115.245 66.2728C115.215 67.5387 115.207 68.8258 115.196 70.1023C115.188 71.2754 115.18 72.4484 115.173 73.6215C115.173 73.6891 115.173 73.7587 115.173 73.8325C115.173 73.9064 115.384 73.919 115.384 73.8663Z" fill="#00A1DE"/>
<path d="M145.448 91.1737C143.884 91.9185 142.598 89.8192 142.374 88.8317C142.022 87.3548 142.275 84.2005 144.127 83.979C147.498 83.5612 145.448 91.1737 145.448 91.1737Z" fill="#C7E9F6"/>
<path d="M135.51 78.6746C132.084 80.1262 131.865 75.4549 131.938 73.7522C131.938 72.3639 131.793 70.0304 132.666 68.8299C133.832 67.2517 136.02 68.1969 136.528 69.7139C137.038 71.3554 136.674 73.3007 136.528 74.9506C136.457 76.0246 136.674 77.8539 135.727 78.6113L135.51 78.6746Z" fill="#3A4756"/>
<path d="M116.128 78.5397C116.064 78.1209 116.039 77.6971 116.054 77.2738C117.074 77.086 118.314 77.1472 119.406 77.2105C119.842 77.2738 121.008 77.2738 121.303 77.5269C121.514 77.8413 121.158 78.5988 121.158 78.5988L116.128 78.5397Z" fill="#3A4756"/>
<path d="M123.101 99.033C123.092 98.9686 123.102 98.9029 123.131 98.8447C123.16 98.7865 123.206 98.7385 123.263 98.7072C123.32 98.676 123.385 98.6629 123.45 98.6698C123.514 98.6766 123.575 98.7031 123.624 98.7457C123.674 98.7883 123.708 98.8449 123.725 98.9079C123.741 98.9709 123.737 99.0373 123.714 99.0982C123.691 99.1591 123.651 99.2116 123.597 99.2486C123.544 99.2856 123.48 99.3053 123.415 99.3052C123.338 99.3104 123.261 99.2847 123.202 99.2338C123.143 99.1828 123.107 99.1106 123.101 99.033Z" fill="#3A4756"/>
<path d="M123.101 104.335C123.092 104.271 123.102 104.205 123.131 104.147C123.16 104.088 123.206 104.041 123.263 104.009C123.32 103.978 123.385 103.965 123.45 103.972C123.514 103.979 123.575 104.005 123.624 104.048C123.674 104.09 123.708 104.147 123.725 104.21C123.741 104.273 123.737 104.339 123.714 104.4C123.691 104.461 123.651 104.514 123.597 104.551C123.544 104.588 123.48 104.607 123.415 104.607C123.338 104.612 123.261 104.587 123.202 104.536C123.143 104.485 123.107 104.413 123.101 104.335Z" fill="#3A4756"/>
<path d="M125.356 99.6153C125.418 99.5631 125.497 99.5344 125.578 99.5344C125.659 99.5344 125.737 99.5631 125.799 99.6153C125.828 99.6384 125.851 99.6678 125.868 99.7012C125.884 99.7346 125.892 99.7712 125.892 99.8083C125.892 99.8454 125.884 99.8821 125.868 99.9155C125.851 99.9489 125.828 99.9783 125.799 100.001C125.737 100.052 125.658 100.08 125.578 100.08C125.497 100.08 125.419 100.052 125.356 100.001C125.328 99.978 125.305 99.9486 125.289 99.9152C125.273 99.8818 125.265 99.8453 125.265 99.8083C125.265 99.7714 125.273 99.7349 125.289 99.7015C125.305 99.6681 125.328 99.6386 125.356 99.6153Z" fill="#3A4756"/>
<path d="M121.027 103.364C121.09 103.313 121.169 103.285 121.25 103.285C121.331 103.285 121.409 103.313 121.472 103.364C121.501 103.388 121.524 103.417 121.54 103.45C121.555 103.483 121.564 103.52 121.564 103.556C121.564 103.593 121.555 103.63 121.54 103.663C121.524 103.696 121.501 103.725 121.472 103.748C121.41 103.8 121.331 103.829 121.25 103.829C121.168 103.829 121.09 103.8 121.027 103.748C120.999 103.725 120.975 103.696 120.96 103.663C120.944 103.63 120.936 103.593 120.936 103.556C120.936 103.52 120.944 103.483 120.96 103.45C120.975 103.417 120.999 103.388 121.027 103.364Z" fill="#3A4756"/>
<path d="M126.473 101.411C126.526 101.418 126.575 101.44 126.615 101.475C126.656 101.51 126.685 101.555 126.7 101.606C126.715 101.657 126.715 101.711 126.7 101.762C126.686 101.813 126.656 101.859 126.616 101.894C126.576 101.928 126.527 101.951 126.474 101.958C126.422 101.966 126.368 101.958 126.32 101.936C126.272 101.913 126.231 101.878 126.202 101.833C126.174 101.788 126.159 101.736 126.159 101.683C126.165 101.605 126.201 101.533 126.26 101.482C126.319 101.431 126.396 101.406 126.473 101.411Z" fill="#3A4756"/>
<path d="M120.353 101.411C120.406 101.418 120.455 101.44 120.495 101.475C120.536 101.51 120.565 101.555 120.58 101.606C120.595 101.657 120.595 101.711 120.58 101.762C120.565 101.813 120.536 101.859 120.496 101.894C120.456 101.928 120.407 101.951 120.354 101.958C120.302 101.966 120.248 101.958 120.2 101.936C120.152 101.913 120.111 101.878 120.082 101.833C120.054 101.788 120.039 101.736 120.039 101.683C120.045 101.605 120.081 101.533 120.14 101.482C120.199 101.431 120.276 101.406 120.353 101.411Z" fill="#3A4756"/>
<path d="M125.799 103.365C125.828 103.388 125.851 103.417 125.867 103.45C125.883 103.483 125.892 103.52 125.892 103.557C125.892 103.594 125.883 103.63 125.867 103.663C125.851 103.697 125.828 103.726 125.799 103.749C125.736 103.801 125.658 103.829 125.577 103.829C125.495 103.829 125.417 103.801 125.354 103.749C125.326 103.725 125.303 103.696 125.287 103.663C125.272 103.63 125.264 103.593 125.264 103.557C125.264 103.52 125.272 103.484 125.287 103.45C125.303 103.417 125.326 103.388 125.354 103.365C125.417 103.313 125.495 103.285 125.577 103.285C125.658 103.285 125.736 103.313 125.799 103.365Z" fill="#3A4756"/>
<path d="M121.473 99.6151C121.502 99.6385 121.525 99.6679 121.541 99.7013C121.557 99.7347 121.565 99.7712 121.565 99.8082C121.565 99.8452 121.557 99.8817 121.541 99.9151C121.525 99.9485 121.502 99.9779 121.473 100.001C121.411 100.052 121.332 100.08 121.251 100.08C121.17 100.08 121.091 100.052 121.028 100.001C120.999 99.9781 120.976 99.9488 120.96 99.9153C120.944 99.8819 120.936 99.8453 120.936 99.8082C120.936 99.7711 120.944 99.7345 120.96 99.701C120.976 99.6676 120.999 99.6382 121.028 99.6151C121.091 99.5631 121.17 99.5347 121.251 99.5347C121.332 99.5347 121.411 99.5631 121.473 99.6151Z" fill="#3A4756"/>
<path d="M123.101 99.033C123.092 98.9686 123.102 98.9029 123.131 98.8447C123.16 98.7865 123.206 98.7385 123.263 98.7072C123.32 98.676 123.385 98.6629 123.45 98.6698C123.514 98.6766 123.575 98.7031 123.624 98.7457C123.674 98.7883 123.708 98.8449 123.725 98.9079C123.741 98.9709 123.737 99.0373 123.714 99.0982C123.691 99.1591 123.651 99.2116 123.597 99.2486C123.544 99.2856 123.48 99.3053 123.415 99.3052C123.338 99.3104 123.261 99.2847 123.202 99.2338C123.143 99.1828 123.107 99.1106 123.101 99.033Z" fill="#122323"/>
<path d="M123.101 104.335C123.092 104.271 123.102 104.205 123.131 104.147C123.16 104.088 123.206 104.041 123.263 104.009C123.32 103.978 123.385 103.965 123.45 103.972C123.514 103.979 123.575 104.005 123.624 104.048C123.674 104.09 123.708 104.147 123.725 104.21C123.741 104.273 123.737 104.339 123.714 104.4C123.691 104.461 123.651 104.514 123.597 104.551C123.544 104.588 123.48 104.607 123.415 104.607C123.338 104.612 123.261 104.587 123.202 104.536C123.143 104.485 123.107 104.413 123.101 104.335Z" fill="#122323"/>
<path d="M125.356 99.6153C125.418 99.5631 125.497 99.5344 125.578 99.5344C125.659 99.5344 125.737 99.5631 125.799 99.6153C125.828 99.6384 125.851 99.6678 125.868 99.7012C125.884 99.7346 125.892 99.7712 125.892 99.8083C125.892 99.8454 125.884 99.8821 125.868 99.9155C125.851 99.9489 125.828 99.9783 125.799 100.001C125.737 100.052 125.658 100.08 125.578 100.08C125.497 100.08 125.419 100.052 125.356 100.001C125.328 99.978 125.305 99.9486 125.289 99.9152C125.273 99.8818 125.265 99.8453 125.265 99.8083C125.265 99.7714 125.273 99.7349 125.289 99.7015C125.305 99.6681 125.328 99.6386 125.356 99.6153Z" fill="#122323"/>
<path d="M121.027 103.364C121.09 103.313 121.169 103.285 121.25 103.285C121.331 103.285 121.409 103.313 121.472 103.364C121.501 103.388 121.524 103.417 121.54 103.45C121.555 103.483 121.564 103.52 121.564 103.556C121.564 103.593 121.555 103.63 121.54 103.663C121.524 103.696 121.501 103.725 121.472 103.748C121.41 103.8 121.331 103.829 121.25 103.829C121.168 103.829 121.09 103.8 121.027 103.748C120.999 103.725 120.975 103.696 120.96 103.663C120.944 103.63 120.936 103.593 120.936 103.556C120.936 103.52 120.944 103.483 120.96 103.45C120.975 103.417 120.999 103.388 121.027 103.364Z" fill="#122323"/>
<path d="M126.473 101.411C126.526 101.418 126.575 101.44 126.615 101.475C126.656 101.51 126.685 101.555 126.7 101.606C126.715 101.657 126.715 101.711 126.7 101.762C126.686 101.813 126.656 101.859 126.616 101.894C126.576 101.928 126.527 101.951 126.474 101.958C126.422 101.966 126.368 101.958 126.32 101.936C126.272 101.913 126.231 101.878 126.202 101.833C126.174 101.788 126.159 101.736 126.159 101.683C126.165 101.605 126.201 101.533 126.26 101.482C126.319 101.431 126.396 101.406 126.473 101.411Z" fill="#122323"/>
<path d="M120.353 101.411C120.406 101.418 120.455 101.44 120.495 101.475C120.536 101.51 120.565 101.555 120.58 101.606C120.595 101.657 120.595 101.711 120.58 101.762C120.565 101.813 120.536 101.859 120.496 101.894C120.456 101.928 120.407 101.951 120.354 101.958C120.302 101.966 120.248 101.958 120.2 101.936C120.152 101.913 120.111 101.878 120.082 101.833C120.054 101.788 120.039 101.736 120.039 101.683C120.045 101.605 120.081 101.533 120.14 101.482C120.199 101.431 120.276 101.406 120.353 101.411Z" fill="#122323"/>
<path d="M125.799 103.365C125.828 103.388 125.851 103.417 125.867 103.45C125.883 103.483 125.892 103.52 125.892 103.557C125.892 103.594 125.883 103.63 125.867 103.663C125.851 103.697 125.828 103.726 125.799 103.749C125.736 103.801 125.658 103.829 125.577 103.829C125.495 103.829 125.417 103.801 125.354 103.749C125.326 103.725 125.303 103.696 125.287 103.663C125.272 103.63 125.264 103.593 125.264 103.557C125.264 103.52 125.272 103.484 125.287 103.45C125.303 103.417 125.326 103.388 125.354 103.365C125.417 103.313 125.495 103.285 125.577 103.285C125.658 103.285 125.736 103.313 125.799 103.365Z" fill="#122323"/>
<path d="M121.473 99.6151C121.502 99.6385 121.525 99.6679 121.541 99.7013C121.557 99.7347 121.565 99.7712 121.565 99.8082C121.565 99.8452 121.557 99.8817 121.541 99.9151C121.525 99.9485 121.502 99.9779 121.473 100.001C121.411 100.052 121.332 100.08 121.251 100.08C121.17 100.08 121.091 100.052 121.028 100.001C120.999 99.9781 120.976 99.9488 120.96 99.9153C120.944 99.8819 120.936 99.8453 120.936 99.8082C120.936 99.7711 120.944 99.7345 120.96 99.701C120.976 99.6676 120.999 99.6382 121.028 99.6151C121.091 99.5631 121.17 99.5347 121.251 99.5347C121.332 99.5347 121.411 99.5631 121.473 99.6151Z" fill="#122323"/>
<path d="M70.021 93.4207H54.2529V100.208H70.021V93.4207Z" fill="#122323"/>
<path d="M53.2939 101.573C53.2939 97.4949 57.1142 94.1887 61.8263 94.1887C66.5384 94.1887 70.3565 97.497 70.3565 101.573C70.3565 105.65 66.5384 108.958 61.8263 108.958C57.1142 108.958 53.2939 105.656 53.2939 101.573Z" fill="#3A4756"/>
<path d="M57.8467 101.573C57.8467 99.6745 59.6324 98.1216 61.8356 98.1216C64.0388 98.1216 65.8224 99.666 65.8224 101.573C65.8224 103.481 64.0388 105.029 61.8356 105.029C59.6324 105.029 57.8467 103.483 57.8467 101.573Z" fill="#657475"/>
<path d="M61.5122 99.0244C61.5027 98.9601 61.5132 98.8944 61.5421 98.8362C61.571 98.7779 61.6171 98.73 61.674 98.6987C61.731 98.6674 61.7962 98.6543 61.8608 98.6612C61.9254 98.6681 61.9864 98.6946 62.0355 98.7372C62.0847 98.7797 62.1196 98.8363 62.1356 98.8993C62.1517 98.9623 62.1481 99.0288 62.1253 99.0897C62.1025 99.1506 62.0617 99.2031 62.0082 99.24C61.9548 99.277 61.8913 99.2968 61.8263 99.2966C61.7487 99.3018 61.6721 99.2762 61.6133 99.2252C61.5545 99.1742 61.5181 99.1021 61.5122 99.0244Z" fill="#3A4756"/>
<path d="M61.5122 104.331C61.5027 104.266 61.5132 104.201 61.5421 104.143C61.571 104.084 61.6171 104.036 61.674 104.005C61.731 103.974 61.7962 103.961 61.8608 103.968C61.9254 103.974 61.9864 104.001 62.0355 104.044C62.0847 104.086 62.1196 104.143 62.1356 104.206C62.1517 104.269 62.1481 104.335 62.1253 104.396C62.1025 104.457 62.0617 104.509 62.0082 104.546C61.9548 104.583 61.8913 104.603 61.8263 104.603C61.7487 104.608 61.6721 104.583 61.6133 104.532C61.5545 104.481 61.5181 104.408 61.5122 104.331Z" fill="#3A4756"/>
<path d="M63.7684 99.609C63.8309 99.557 63.9096 99.5286 63.9909 99.5286C64.0721 99.5286 64.1508 99.557 64.2133 99.609C64.2419 99.6324 64.265 99.6618 64.2809 99.6952C64.2968 99.7286 64.305 99.7651 64.305 99.8021C64.305 99.8391 64.2968 99.8756 64.2809 99.909C64.265 99.9423 64.2419 99.9718 64.2133 99.9951C64.1505 100.046 64.0719 100.074 63.9909 100.074C63.9098 100.074 63.8313 100.046 63.7684 99.9951C63.7398 99.9718 63.7167 99.9423 63.7008 99.909C63.685 99.8756 63.6768 99.8391 63.6768 99.8021C63.6768 99.7651 63.685 99.7286 63.7008 99.6952C63.7167 99.6618 63.7398 99.6324 63.7684 99.609Z" fill="#3A4756"/>
<path d="M59.4373 103.36C59.5002 103.309 59.5787 103.281 59.6598 103.281C59.7408 103.281 59.8194 103.309 59.8822 103.36C59.9111 103.383 59.9346 103.413 59.9506 103.446C59.9667 103.479 59.9751 103.516 59.9751 103.552C59.9751 103.589 59.9667 103.626 59.9506 103.659C59.9346 103.692 59.9111 103.722 59.8822 103.744C59.8197 103.796 59.741 103.825 59.6598 103.825C59.5785 103.825 59.4998 103.796 59.4373 103.744C59.4087 103.721 59.3856 103.692 59.3698 103.659C59.3539 103.626 59.3457 103.589 59.3457 103.552C59.3457 103.516 59.3539 103.479 59.3698 103.446C59.3856 103.413 59.4087 103.384 59.4373 103.36Z" fill="#3A4756"/>
<path d="M64.8882 101.405C64.9275 101.399 64.9677 101.401 65.0059 101.412C65.0442 101.423 65.0796 101.442 65.1098 101.468C65.14 101.494 65.1642 101.526 65.1808 101.562C65.1974 101.599 65.206 101.638 65.206 101.678C65.206 101.718 65.1974 101.757 65.1808 101.793C65.1642 101.829 65.14 101.861 65.1098 101.887C65.0796 101.913 65.0442 101.932 65.0059 101.943C64.9677 101.954 64.9275 101.957 64.8882 101.951C64.8488 101.957 64.8087 101.954 64.7704 101.943C64.7322 101.932 64.6967 101.913 64.6665 101.887C64.6364 101.861 64.6121 101.829 64.5955 101.793C64.5789 101.757 64.5703 101.718 64.5703 101.678C64.5703 101.638 64.5789 101.599 64.5955 101.562C64.6121 101.526 64.6364 101.494 64.6665 101.468C64.6967 101.442 64.7322 101.423 64.7704 101.412C64.8087 101.401 64.8488 101.399 64.8882 101.405Z" fill="#3A4756"/>
<path d="M58.7635 101.405C58.8159 101.412 58.865 101.435 58.9049 101.47C58.9449 101.505 58.9739 101.55 58.9887 101.601C59.0035 101.652 59.0033 101.706 58.9882 101.757C58.9731 101.808 58.9437 101.853 58.9035 101.888C58.8634 101.922 58.8141 101.945 58.7617 101.952C58.7092 101.959 58.6558 101.951 58.6077 101.929C58.5596 101.907 58.5189 101.871 58.4904 101.826C58.462 101.782 58.447 101.73 58.4473 101.677C58.4532 101.599 58.4898 101.526 58.5491 101.475C58.6084 101.424 58.6855 101.399 58.7635 101.405Z" fill="#3A4756"/>
<path d="M64.2132 103.36C64.2419 103.384 64.2649 103.413 64.2808 103.446C64.2966 103.479 64.3049 103.516 64.3049 103.552C64.3049 103.589 64.2966 103.626 64.2808 103.659C64.2649 103.692 64.2419 103.721 64.2132 103.744C64.1508 103.796 64.0721 103.825 63.9908 103.825C63.9096 103.825 63.8309 103.796 63.7684 103.744C63.7398 103.721 63.7167 103.692 63.7008 103.659C63.685 103.626 63.6768 103.589 63.6768 103.552C63.6768 103.516 63.685 103.479 63.7008 103.446C63.7167 103.413 63.7398 103.384 63.7684 103.36C63.8312 103.309 63.9098 103.281 63.9908 103.281C64.0719 103.281 64.1504 103.309 64.2132 103.36Z" fill="#3A4756"/>
<path d="M59.8822 99.609C59.9112 99.6321 59.9347 99.6615 59.9507 99.6949C59.9668 99.7284 59.9752 99.765 59.9752 99.8021C59.9752 99.8392 59.9668 99.8758 59.9507 99.9092C59.9347 99.9427 59.9112 99.972 59.8822 99.9951C59.8194 100.046 59.7409 100.074 59.6598 100.074C59.5788 100.074 59.5002 100.046 59.4374 99.9951C59.4087 99.9718 59.3857 99.9423 59.3698 99.909C59.3539 99.8756 59.3457 99.8391 59.3457 99.8021C59.3457 99.7651 59.3539 99.7286 59.3698 99.6952C59.3857 99.6618 59.4087 99.6324 59.4374 99.609C59.4999 99.557 59.5786 99.5286 59.6598 99.5286C59.7411 99.5286 59.8198 99.557 59.8822 99.609Z" fill="#3A4756"/>
<path d="M61.5122 99.0244C61.5027 98.9601 61.5132 98.8944 61.5421 98.8362C61.571 98.7779 61.6171 98.73 61.674 98.6987C61.731 98.6674 61.7962 98.6543 61.8608 98.6612C61.9254 98.6681 61.9864 98.6946 62.0355 98.7372C62.0847 98.7797 62.1196 98.8363 62.1356 98.8993C62.1517 98.9623 62.1481 99.0288 62.1253 99.0897C62.1025 99.1506 62.0617 99.2031 62.0082 99.24C61.9548 99.277 61.8913 99.2968 61.8263 99.2966C61.7487 99.3018 61.6721 99.2762 61.6133 99.2252C61.5545 99.1742 61.5181 99.1021 61.5122 99.0244Z" fill="#122323"/>
<path d="M61.5122 104.331C61.5027 104.266 61.5132 104.201 61.5421 104.143C61.571 104.084 61.6171 104.036 61.674 104.005C61.731 103.974 61.7962 103.961 61.8608 103.968C61.9254 103.974 61.9864 104.001 62.0355 104.044C62.0847 104.086 62.1196 104.143 62.1356 104.206C62.1517 104.269 62.1481 104.335 62.1253 104.396C62.1025 104.457 62.0617 104.509 62.0082 104.546C61.9548 104.583 61.8913 104.603 61.8263 104.603C61.7487 104.608 61.6721 104.583 61.6133 104.532C61.5545 104.481 61.5181 104.408 61.5122 104.331Z" fill="#122323"/>
<path d="M63.7684 99.609C63.8309 99.557 63.9096 99.5286 63.9909 99.5286C64.0721 99.5286 64.1508 99.557 64.2133 99.609C64.2419 99.6324 64.265 99.6618 64.2809 99.6952C64.2968 99.7286 64.305 99.7651 64.305 99.8021C64.305 99.8391 64.2968 99.8756 64.2809 99.909C64.265 99.9423 64.2419 99.9718 64.2133 99.9951C64.1505 100.046 64.0719 100.074 63.9909 100.074C63.9098 100.074 63.8313 100.046 63.7684 99.9951C63.7398 99.9718 63.7167 99.9423 63.7008 99.909C63.685 99.8756 63.6768 99.8391 63.6768 99.8021C63.6768 99.7651 63.685 99.7286 63.7008 99.6952C63.7167 99.6618 63.7398 99.6324 63.7684 99.609Z" fill="#122323"/>
<path d="M59.4373 103.36C59.5002 103.309 59.5787 103.281 59.6598 103.281C59.7408 103.281 59.8194 103.309 59.8822 103.36C59.9111 103.383 59.9346 103.413 59.9506 103.446C59.9667 103.479 59.9751 103.516 59.9751 103.552C59.9751 103.589 59.9667 103.626 59.9506 103.659C59.9346 103.692 59.9111 103.722 59.8822 103.744C59.8197 103.796 59.741 103.825 59.6598 103.825C59.5785 103.825 59.4998 103.796 59.4373 103.744C59.4087 103.721 59.3856 103.692 59.3698 103.659C59.3539 103.626 59.3457 103.589 59.3457 103.552C59.3457 103.516 59.3539 103.479 59.3698 103.446C59.3856 103.413 59.4087 103.384 59.4373 103.36Z" fill="#122323"/>
<path d="M64.8882 101.405C64.9275 101.399 64.9677 101.401 65.0059 101.412C65.0442 101.423 65.0796 101.442 65.1098 101.468C65.14 101.494 65.1642 101.526 65.1808 101.562C65.1974 101.599 65.206 101.638 65.206 101.678C65.206 101.718 65.1974 101.757 65.1808 101.793C65.1642 101.829 65.14 101.861 65.1098 101.887C65.0796 101.913 65.0442 101.932 65.0059 101.943C64.9677 101.954 64.9275 101.957 64.8882 101.951C64.8488 101.957 64.8087 101.954 64.7704 101.943C64.7322 101.932 64.6967 101.913 64.6665 101.887C64.6364 101.861 64.6121 101.829 64.5955 101.793C64.5789 101.757 64.5703 101.718 64.5703 101.678C64.5703 101.638 64.5789 101.599 64.5955 101.562C64.6121 101.526 64.6364 101.494 64.6665 101.468C64.6967 101.442 64.7322 101.423 64.7704 101.412C64.8087 101.401 64.8488 101.399 64.8882 101.405Z" fill="#122323"/>
<path d="M58.7635 101.405C58.8159 101.412 58.865 101.435 58.9049 101.47C58.9449 101.505 58.9739 101.55 58.9887 101.601C59.0035 101.652 59.0033 101.706 58.9882 101.757C58.9731 101.808 58.9437 101.853 58.9035 101.888C58.8634 101.922 58.8141 101.945 58.7617 101.952C58.7092 101.959 58.6558 101.951 58.6077 101.929C58.5596 101.907 58.5189 101.871 58.4904 101.826C58.462 101.782 58.447 101.73 58.4473 101.677C58.4532 101.599 58.4898 101.526 58.5491 101.475C58.6084 101.424 58.6855 101.399 58.7635 101.405Z" fill="#122323"/>
<path d="M64.2132 103.36C64.2419 103.384 64.2649 103.413 64.2808 103.446C64.2966 103.479 64.3049 103.516 64.3049 103.552C64.3049 103.589 64.2966 103.626 64.2808 103.659C64.2649 103.692 64.2419 103.721 64.2132 103.744C64.1508 103.796 64.0721 103.825 63.9908 103.825C63.9096 103.825 63.8309 103.796 63.7684 103.744C63.7398 103.721 63.7167 103.692 63.7008 103.659C63.685 103.626 63.6768 103.589 63.6768 103.552C63.6768 103.516 63.685 103.479 63.7008 103.446C63.7167 103.413 63.7398 103.384 63.7684 103.36C63.8312 103.309 63.9098 103.281 63.9908 103.281C64.0719 103.281 64.1504 103.309 64.2132 103.36Z" fill="#122323"/>
<path d="M59.8822 99.609C59.9112 99.6321 59.9347 99.6615 59.9507 99.6949C59.9668 99.7284 59.9752 99.765 59.9752 99.8021C59.9752 99.8392 59.9668 99.8758 59.9507 99.9092C59.9347 99.9427 59.9112 99.972 59.8822 99.9951C59.8194 100.046 59.7409 100.074 59.6598 100.074C59.5788 100.074 59.5002 100.046 59.4374 99.9951C59.4087 99.9718 59.3857 99.9423 59.3698 99.909C59.3539 99.8756 59.3457 99.8391 59.3457 99.8021C59.3457 99.7651 59.3539 99.7286 59.3698 99.6952C59.3857 99.6618 59.4087 99.6324 59.4374 99.609C59.4999 99.557 59.5786 99.5286 59.6598 99.5286C59.7411 99.5286 59.8198 99.557 59.8822 99.609Z" fill="#122323"/>
<path d="M113.505 54.3519C113.505 52.5627 111.831 51.1111 109.763 51.1111H47.0196C44.9535 51.1111 43.2773 52.5627 43.2773 54.3519L45.4067 85.9643H111.907L113.505 54.3519Z" fill="#00A1DE"/>
<path d="M109.8 57.8247C109.8 56.198 108.301 54.8708 106.452 54.8708H50.3324C48.4834 54.8708 46.9844 56.1895 46.9844 57.8247L48.8819 86.5508H108.37L109.8 57.8247Z" stroke="#00719B" stroke-width="2" stroke-miterlimit="10"/>
<path d="M50.0139 101.995H56.0142C56.0331 100.7 56.2102 98.7482 56.2629 98.381C56.6235 95.9146 59.1513 94.6634 61.7973 94.5959C64.0426 94.5263 66.4904 95.3576 67.1714 97.4084C67.6183 98.841 67.6162 100.478 67.5551 101.995H107.518C109.584 101.995 111.26 100.544 111.26 98.7545L111.908 85.9644H45.4072L46.2695 98.7545C46.2716 100.544 47.9372 101.995 50.0139 101.995Z" fill="#00719B"/>
<path d="M106.849 87.9329H51.4742C51.2064 87.9329 50.9893 88.1501 50.9893 88.4181V90.2474C50.9893 90.5154 51.2064 90.7327 51.4742 90.7327H106.849C107.117 90.7327 107.334 90.5154 107.334 90.2474V88.4181C107.334 88.1501 107.117 87.9329 106.849 87.9329Z" fill="#00A1DE"/>
<path d="M45.7886 91.9311C47.2644 91.9311 47.9833 91.3488 48.0613 90.0512C48.1119 89.4014 47.958 88.7979 47.218 88.5068C46.8554 88.3949 45.953 88.2156 45.5904 88.3949C44.9958 88.6861 45.2277 89.8951 45.253 90.3635C45.2805 90.6989 45.253 91.8193 45.719 91.8847L45.7886 91.9311Z" fill="#C7E9F6"/>
<path d="M50.568 101.058C49.6888 101.058 48.837 101.124 47.9579 101.103C47.338 101.08 46.6929 101.17 46.1236 101.08C45.3225 100.945 45.2972 100.236 45.2445 99.6258C45.1686 98.3282 45.0126 97.0307 44.9092 95.7331C44.8839 95.174 44.6984 94.5241 44.7806 93.9882C44.8839 93.273 45.7884 93.427 46.4083 93.4502C47.1061 93.4734 47.8019 93.4502 48.4744 93.4734C48.9909 93.4945 49.7394 93.4945 50.2053 93.697C50.9285 94.0093 50.8779 94.4355 50.8779 95.0389C50.8779 95.5094 50.9538 95.9567 50.9538 96.4272C51.0112 97.6118 51.0028 98.7987 50.9285 99.9824L50.568 101.058Z" fill="#4C5E60"/>
<path d="M44.713 55.483C44.726 55.3113 44.8061 55.1516 44.936 55.0386C45.0658 54.9256 45.235 54.8685 45.4067 54.8795C45.5786 54.8685 45.748 54.9256 45.8782 55.0385C46.0084 55.1514 46.0889 55.3111 46.1024 55.483C46.0889 55.6547 46.0083 55.8141 45.8781 55.9267C45.7478 56.0393 45.5784 56.0959 45.4067 56.0843C45.235 56.0959 45.0656 56.0393 44.9353 55.9267C44.8051 55.8141 44.7244 55.6547 44.7109 55.483H44.713Z" fill="#C7E9F6"/>
<path d="M110.575 55.4828C110.589 55.311 110.669 55.1513 110.799 55.0384C110.93 54.9255 111.099 54.8684 111.271 54.8794C111.443 54.8678 111.613 54.9246 111.744 55.0376C111.874 55.1506 111.955 55.3106 111.969 55.4828C111.955 55.6547 111.874 55.8142 111.743 55.9267C111.613 56.0393 111.443 56.0958 111.271 56.0842C111.099 56.0958 110.93 56.0392 110.8 55.9266C110.669 55.814 110.589 55.6546 110.575 55.4828Z" fill="#C7E9F6"/>
</svg>
