<svg width="17" height="17" viewBox="0 0 17 17" fill="none" xmlns="http://www.w3.org/2000/svg">
<path id="Vector" d="M14.6739 6.37797H10.1333V1.83695C10.1224 1.34602 9.9197 0.878895 9.56867 0.535568C9.21764 0.192241 8.74617 0 8.25518 0C7.76419 0 7.29271 0.192241 6.94168 0.535568C6.59065 0.878895 6.38795 1.34602 6.377 1.83695V6.37797H1.8365C1.34563 6.38892 0.87856 6.59163 0.535272 6.9427C0.191983 7.29377 -0.000244141 7.7653 -0.000244141 8.25635C-0.000244141 8.74739 0.191983 9.21893 0.535272 9.57C0.87856 9.92107 1.34563 10.1238 1.8365 10.1347H6.377V14.6739C6.37142 14.9241 6.41588 15.1729 6.50776 15.4057C6.59964 15.6384 6.73709 15.8505 6.91205 16.0294C7.08701 16.2084 7.29594 16.3505 7.52659 16.4476C7.75723 16.5446 8.00495 16.5946 8.25518 16.5946C8.50541 16.5946 8.75312 16.5446 8.98376 16.4476C9.21441 16.3505 9.42334 16.2084 9.5983 16.0294C9.77326 15.8505 9.91072 15.6384 10.0026 15.4057C10.0945 15.1729 10.1389 14.9241 10.1333 14.6739V10.1347H14.6739C14.924 10.1403 15.1728 10.0959 15.4055 10.004C15.6383 9.91208 15.8504 9.77461 16.0293 9.59963C16.2082 9.42466 16.3503 9.2157 16.4474 8.98502C16.5444 8.75435 16.5944 8.50661 16.5944 8.25635C16.5944 8.00609 16.5444 7.75835 16.4474 7.52768C16.3503 7.297 16.2082 7.08804 16.0293 6.91307C15.8504 6.73809 15.6383 6.60062 15.4055 6.50873C15.1728 6.41684 14.924 6.37238 14.6739 6.37797Z" fill="#FF9494"/>
</svg>
