<svg width="28" height="20" viewBox="0 0 28 20" fill="none" xmlns="http://www.w3.org/2000/svg">
<path d="M16.5049 12.2536C16.0074 12.5853 15.4294 12.7606 14.8335 12.7606C14.2376 12.7606 13.6597 12.5853 13.1621 12.2536L4.96666 6.78977C4.92119 6.75945 4.87689 6.72785 4.8335 6.69535V15.6484C4.8335 16.6748 5.6665 17.4895 6.67463 17.4895H22.9923C24.0188 17.4895 24.8335 16.6565 24.8335 15.6484V6.69531C24.79 6.72789 24.7456 6.75957 24.7 6.78992L16.5049 12.2536Z" fill="#525F64"/>
<path d="M5.6167 5.81414L13.8121 11.278C14.1224 11.4848 14.4779 11.5882 14.8335 11.5882C15.189 11.5882 15.5446 11.4848 15.8549 11.278L24.0503 5.81414C24.5407 5.48738 24.8335 4.94051 24.8335 4.35027C24.8335 3.33539 24.0078 2.50977 22.993 2.50977H6.674C5.65916 2.5098 4.8335 3.33543 4.8335 4.35125C4.8335 4.94051 5.12631 5.48738 5.6167 5.81414Z" fill="#525F64"/>
</svg>
