<svg width="202" height="191" viewBox="0 0 202 191" fill="none" xmlns="http://www.w3.org/2000/svg">
<g clip-path="url(#clip0_202_7298)">
<path d="M73.81 20.3012L75.8555 20.7964L81.8118 15.6637L82.7985 11.6116C82.7985 11.6116 86.0019 12.1834 84.3394 17.4286C82.6768 22.6739 83.4067 21.4133 83.4067 21.4133C83.4067 21.4133 90.1064 23.0341 90.5119 23.7545C90.8183 24.2723 89.39 30.9583 88.5835 34.5962C88.178 36.4242 86.6552 37.8424 84.862 37.865C84.6105 37.8693 84.3594 37.8436 84.1141 37.7884C82.4425 37.3832 74.229 33.9569 74.229 33.9569L70.7012 33.1059L73.81 20.3012Z" fill="#EBEBEB"/>
<path d="M68.2315 17.7709L66.1094 32.0344L69.6057 32.8809L72.9172 19.1981L68.2315 17.7709Z" fill="#EBEBEB"/>
<path d="M98.7207 8.2393L100.072 7.78906L101.6 2.74639L100.699 0.0899894C100.699 0.0899894 102.717 -0.738449 103.663 2.82293C104.609 6.38432 104.564 5.4118 104.564 5.4118C104.564 5.4118 108.944 3.93952 109.439 4.19616C109.795 4.38076 111.399 8.69854 112.246 11.0263C112.467 11.585 112.495 12.2013 112.326 12.7777C112.157 13.3542 111.801 13.858 111.314 14.2095C111.174 14.3034 111.022 14.379 110.863 14.4346C109.768 14.8038 103.893 15.8168 103.893 15.8168L101.573 16.6047L98.7207 8.2393Z" fill="#E0E0E0"/>
<path d="M94.6523 8.81108L98.5811 17.6448L100.865 16.8658L97.8197 7.93762L94.6523 8.81108Z" fill="#E0E0E0"/>
<path d="M141.626 167.948L134.237 189.127H137.932L150.863 167.948H141.626Z" fill="#EBEBEB"/>
<path d="M184.015 167.948L191.404 189.127H187.709L174.778 167.948H184.015Z" fill="#EBEBEB"/>
<path d="M201.59 109.484H142.55V168.484H201.59V109.484Z" fill="#EBEBEB"/>
<path d="M183.091 109.484H124.051V168.484H183.091V109.484Z" fill="#F5F5F5"/>
<path d="M179.035 164.693H128.123V113.816H179.035V164.693ZM128.574 164.242H178.585V114.266H128.574V164.242Z" fill="#E0E0E0"/>
<path d="M128.628 129.826C136.977 130.069 145.366 129.826 153.719 129.853C162.073 129.88 170.453 129.979 178.811 129.853C178.842 129.853 178.871 129.841 178.893 129.819C178.915 129.797 178.928 129.767 178.928 129.736C178.928 129.705 178.915 129.675 178.893 129.653C178.871 129.631 178.842 129.619 178.811 129.619C170.453 129.479 162.082 129.619 153.719 129.619C145.357 129.619 136.977 129.407 128.628 129.651C128.604 129.656 128.582 129.669 128.566 129.688C128.551 129.707 128.542 129.732 128.542 129.756C128.542 129.781 128.551 129.805 128.566 129.825C128.582 129.844 128.604 129.857 128.628 129.862V129.826Z" fill="#E0E0E0"/>
<path d="M155.007 122.298C155.007 122.582 154.923 122.86 154.765 123.096C154.607 123.332 154.383 123.516 154.12 123.625C153.857 123.734 153.568 123.762 153.29 123.707C153.011 123.651 152.755 123.515 152.554 123.314C152.353 123.113 152.216 122.857 152.16 122.578C152.105 122.3 152.133 122.011 152.242 121.748C152.351 121.486 152.535 121.262 152.772 121.104C153.008 120.946 153.286 120.862 153.57 120.862C153.951 120.862 154.317 121.013 154.586 121.282C154.856 121.552 155.007 121.917 155.007 122.298Z" fill="#EBEBEB"/>
<path d="M134.309 145.341C134.309 145.625 134.225 145.903 134.067 146.139C133.909 146.375 133.684 146.56 133.422 146.668C133.159 146.777 132.87 146.805 132.591 146.75C132.313 146.695 132.057 146.558 131.856 146.357C131.655 146.156 131.518 145.9 131.462 145.621C131.407 145.343 131.435 145.054 131.544 144.792C131.653 144.529 131.837 144.305 132.073 144.147C132.31 143.989 132.588 143.905 132.872 143.905C133.253 143.905 133.619 144.056 133.888 144.326C134.158 144.595 134.309 144.96 134.309 145.341Z" fill="#EBEBEB"/>
<path d="M180.577 94.1672L186.749 109.939L182.911 109.921L179.838 100.227L180.577 94.1672Z" fill="#E0E0E0"/>
<path d="M159.509 79.593L157.387 109.813L179.283 110.272L181.748 79.593H159.509Z" fill="#EBEBEB"/>
<path d="M161.699 82.0243L159.933 107.179L176.211 107.945L178.486 81.8757L161.699 82.0243Z" fill="#FAFAFA"/>
<path d="M165.271 85.5812L163.951 103.267H172.931L174.512 85.5812H165.271Z" fill="#E0E0E0"/>
<path d="M48.1331 4.58789H9.4668V44.8662H48.1331V4.58789Z" fill="#E0E0E0"/>
<path d="M45.5149 4.58789H6.84863V44.8662H45.5149V4.58789Z" fill="#EBEBEB"/>
<path d="M40.3199 10.0043H12.0479V39.4543H40.3199V10.0043Z" fill="#FAFAFA"/>
<path d="M12.0485 39.6479C11.8411 39.9444 11.6041 40.2189 11.3411 40.4674C10.8905 40.9176 10.2508 41.584 9.53889 42.2683C8.82702 42.9527 8.18723 43.5965 7.69613 44.0423C7.45026 44.2974 7.18016 44.5282 6.88965 44.7311C7.09989 44.4385 7.34163 44.1697 7.61053 43.9297C8.06108 43.457 8.70086 42.8086 9.41273 42.1288C10.1246 41.4489 10.7644 40.778 11.26 40.3548C11.499 40.094 11.7631 39.8572 12.0485 39.6479Z" fill="#E0E0E0"/>
<path d="M40.3154 39.5669C40.6058 39.7751 40.8745 40.0119 41.1174 40.2738C41.568 40.724 42.2348 41.3633 42.9196 42.0747C43.6045 42.7861 44.2442 43.4254 44.6903 43.9162C44.9485 44.1591 45.1797 44.4294 45.3796 44.7221C45.0903 44.516 44.8231 44.2806 44.5821 44.0197C44.1316 43.5695 43.4648 42.9302 42.7799 42.2188C42.0951 41.5074 41.4283 40.8681 41.0048 40.3773C40.7505 40.129 40.5197 39.8577 40.3154 39.5669Z" fill="#E0E0E0"/>
<path d="M40.2393 10.0808C40.4504 9.79156 40.6888 9.52319 40.9511 9.27938C41.4017 8.82914 42.0415 8.16279 42.7533 7.47843C43.4652 6.79407 44.105 6.15473 44.5961 5.70899C44.8441 5.45469 45.1139 5.22267 45.4026 5.01562C45.1948 5.30074 44.9577 5.56332 44.6952 5.79904C44.2447 6.27179 43.6049 6.91563 42.893 7.59999C42.1811 8.28435 41.5414 8.95071 41.0457 9.37393C40.8035 9.6382 40.533 9.87523 40.2393 10.0808Z" fill="#E0E0E0"/>
<path d="M11.9714 10.1528C11.6811 9.94458 11.4124 9.70777 11.1694 9.4459C10.7189 8.99566 10.0521 8.36082 9.36724 7.64494C8.6824 6.92907 8.04262 6.29423 7.59657 5.80347C7.33874 5.55846 7.10767 5.2868 6.90723 4.99304C7.19373 5.20262 7.46064 5.43771 7.7047 5.69541C8.15525 6.14565 8.82207 6.78949 9.50691 7.49637C10.1917 8.20324 10.836 8.84708 11.2821 9.34234C11.5387 9.58851 11.7696 9.86004 11.9714 10.1528Z" fill="#E0E0E0"/>
<path d="M40.2391 39.4542C40.2391 39.4542 40.2391 39.4047 40.2391 39.3102C40.2391 39.2156 40.2391 39.076 40.2391 38.9005C40.2391 38.5358 40.2391 38 40.2391 37.3111C40.2391 35.9199 40.2391 33.8893 40.2121 31.3139C40.2121 26.1542 40.185 18.8063 40.167 10.0042L40.2571 10.0942H12.0661L12.1698 9.99067C12.1698 20.7964 12.1698 30.9132 12.1698 39.4407L12.0797 39.3462L32.4986 39.3957H38.2296H39.7435H40.1355H40.2706H39.7345H38.2341H32.5257L12.0481 39.5668H11.958V39.4768C11.958 30.9493 11.958 20.8369 11.958 10.0267V9.89612H12.0661H40.2571H40.3517V9.99067C40.3517 18.8153 40.3157 26.1992 40.3022 31.359C40.3022 33.9253 40.3022 35.9469 40.3022 37.3381C40.3022 38.018 40.3022 38.5448 40.3022 38.905C40.3022 39.0806 40.3022 39.2111 40.3022 39.3057C40.3022 39.4002 40.2391 39.4542 40.2391 39.4542Z" fill="#E0E0E0"/>
<path d="M19.5089 22.3047C19.5089 22.3047 18.9006 29.5985 26.8033 29.5985C26.8033 25.7085 23.5909 22.6334 19.5089 22.3047Z" fill="#EBEBEB"/>
<path d="M33.9673 22.3092C33.9673 22.3092 26.6729 21.7059 26.6729 29.603C30.5881 29.603 33.6384 26.3928 33.9673 22.3092Z" fill="#EBEBEB"/>
<path d="M26.457 18.3201C26.457 18.3201 20.4963 23.6689 26.7814 29.576C29.6875 26.5099 29.4577 21.6473 26.457 18.3201Z" fill="#E0E0E0"/>
<path d="M202 190.018C202 190.086 158.162 190.135 104.096 190.135C50.0296 190.135 6.18652 190.086 6.18652 190.018C6.18652 189.951 50.0116 189.901 104.096 189.901C158.18 189.901 202 189.946 202 190.018Z" fill="#263238"/>
<path d="M35.769 96.7471C29.3396 86.9184 30.2767 72.8845 37.9541 64.0013C40.3376 61.2413 43.6671 58.8461 47.2986 59.1567C51.0201 59.4719 54.0163 62.6596 55.1472 66.2165C56.278 69.7733 55.8861 73.6229 55.2237 77.2923C54.2911 82.434 52.7322 87.6928 49.1638 91.5108C45.5955 95.3289 40.3556 99.2549 35.769 96.7471Z" fill="#00A1DE"/>
<path d="M39.3238 144.022C36.8998 138.376 38.6569 131.231 43.4193 127.363C44.8971 126.157 46.8299 125.225 48.6727 125.711C50.5154 126.197 51.8265 128.129 52.0744 130.06C52.3222 131.992 51.786 133.946 51.1102 135.774C50.164 138.34 48.8844 140.907 46.6993 142.55C44.5141 144.193 41.4594 145.742 39.3238 144.036" fill="#00A1DE"/>
<path d="M23.8299 140.668C25.6006 131.956 21.0049 122.348 13.1158 118.246C10.6648 116.972 7.65062 116.22 5.1816 117.454C2.71258 118.687 1.44203 121.798 1.64027 124.617C1.83851 127.435 3.19917 130.02 4.695 132.429C6.79006 135.787 9.35821 139.047 12.9401 140.735C16.522 142.424 21.3068 143.711 23.8299 140.668Z" fill="#00A1DE"/>
<path d="M24.9379 117.116C28.0151 107.188 22.7932 95.1578 14.0976 89.4622C11.3943 87.6973 7.97912 86.4637 4.96494 87.6118C1.87866 88.7869 0.10349 92.2312 0.00887446 95.5314C-0.0857412 98.8317 1.18481 102.015 2.6446 104.986C4.6901 109.133 7.29428 113.23 11.2636 115.612C15.233 117.994 21.6488 120.371 24.9424 117.125" fill="#00A1DE"/>
<path d="M31.115 165.634C31.0669 165.476 31.0337 165.315 31.0159 165.152C30.9618 164.792 30.8943 164.332 30.8087 163.765C30.7681 163.463 30.7231 163.126 30.669 162.766C30.6149 162.405 30.5248 162.005 30.4437 161.586C30.2815 160.739 30.1148 159.785 29.8355 158.722C29.7093 158.196 29.5742 157.642 29.4345 157.07C29.2948 156.498 29.0966 155.908 28.9163 155.296C28.5874 154.067 28.0963 152.793 27.6368 151.433C26.5365 148.524 25.256 145.687 23.8026 142.937C22.3156 140.208 20.6603 137.573 18.8465 135.049C17.9454 133.914 17.175 132.798 16.3325 131.848L15.134 130.425L13.9761 129.164C13.2507 128.354 12.5388 127.678 11.9216 127.08L11.0655 126.238L10.3131 125.562L9.26782 124.662C9.13697 124.561 9.02029 124.443 8.9209 124.311C9.06162 124.393 9.19436 124.488 9.31738 124.594L10.4122 125.495L11.2142 126.103L12.1153 126.922C12.7506 127.507 13.467 128.174 14.2194 128.975L15.4043 130.209L16.6208 131.614C17.4814 132.568 18.2879 133.676 19.1799 134.81C21.0291 137.336 22.7088 139.982 24.2081 142.73C25.6683 145.495 26.9461 148.353 28.0333 151.284C28.4838 152.635 28.9659 153.936 29.2813 155.183C29.457 155.796 29.6237 156.395 29.7814 156.984C29.9391 157.574 30.0382 158.124 30.1599 158.655C30.4167 159.717 30.5654 160.69 30.705 161.545C30.7771 161.969 30.8402 162.369 30.8988 162.738C30.9573 163.108 30.9709 163.436 31.0024 163.747C31.0565 164.314 31.097 164.778 31.1331 165.143C31.1478 165.306 31.1418 165.471 31.115 165.634Z" fill="#263238"/>
<path d="M30.89 167.407C30.8781 167.342 30.8781 167.275 30.89 167.209C30.89 167.052 30.9171 166.867 30.9306 166.633C30.9846 166.093 31.0522 165.359 31.1378 164.427C31.1829 163.945 31.2369 163.414 31.2955 162.838C31.3541 162.261 31.3541 161.617 31.3901 160.938C31.4397 159.587 31.5704 158.024 31.5208 156.305C31.5208 155.446 31.5208 154.546 31.5208 153.603C31.5208 152.667 31.4262 151.694 31.3766 150.69C31.309 148.669 31.0342 146.53 30.7909 144.27C30.1288 139.392 29.1108 134.569 27.7452 129.84C26.3067 125.137 24.5237 120.548 22.4107 116.107C21.3834 114.081 20.4463 112.136 19.401 110.407C18.8919 109.534 18.4368 108.674 17.9322 107.881C17.4276 107.089 16.941 106.337 16.4724 105.63C15.5713 104.162 14.6206 102.929 13.8367 101.817C13.4357 101.267 13.0752 100.741 12.7193 100.277L11.7191 98.9982L10.3674 97.2603L10.0205 96.8101C9.94391 96.7065 9.90336 96.648 9.91237 96.6435C9.92138 96.639 9.96193 96.684 10.052 96.7831L10.435 97.2333L11.8678 98.9217L12.8995 100.151C13.2645 100.601 13.6339 101.128 14.0484 101.673C14.8549 102.78 15.8281 104 16.7517 105.459C17.2293 106.18 17.7249 106.936 18.2386 107.71C18.7522 108.485 19.2162 109.363 19.7344 110.232C20.7977 111.961 21.7528 113.91 22.7936 115.936C24.9317 120.398 26.7285 125.016 28.1687 129.749C29.5426 134.5 30.5547 139.348 31.1964 144.252C31.4262 146.503 31.692 148.669 31.7416 150.695C31.7821 151.708 31.8632 152.685 31.8632 153.626C31.8632 154.567 31.8632 155.467 31.8632 156.327C31.8948 158.047 31.7416 159.605 31.6695 160.969C31.6199 161.653 31.5929 162.288 31.5388 162.874C31.4847 163.459 31.4037 163.981 31.3451 164.463C31.2234 165.39 31.1288 166.124 31.0612 166.66C31.0297 166.89 31.0027 167.079 30.9801 167.232C30.9598 167.295 30.9294 167.354 30.89 167.407Z" fill="#263238"/>
<path d="M47.6227 71.025C47.6227 71.025 47.6002 71.0926 47.5416 71.2096C47.4831 71.3267 47.3749 71.5158 47.2623 71.7229L46.1675 73.6859C45.9287 74.1092 45.6448 74.5864 45.3745 75.0997L44.5139 76.8286C44.2136 77.4499 43.8832 78.1103 43.5227 78.8096C43.1893 79.521 42.8694 80.2909 42.5135 81.0833C42.1575 81.8758 41.7836 82.7132 41.4277 83.5957L40.3599 86.3601C40.1751 86.8374 39.9904 87.3236 39.8012 87.8189L39.283 89.3497C38.9316 90.3808 38.5757 91.4478 38.2062 92.5374C36.8546 96.9407 35.5525 101.844 34.4621 107.049C33.3718 112.253 32.6599 117.282 32.1193 121.861C31.6687 126.445 31.3038 130.587 31.2182 134.072C31.1281 135.814 31.11 137.39 31.1055 138.777C31.101 140.164 31.0785 141.357 31.1055 142.329C31.1326 143.302 31.1326 144.031 31.1371 144.58V145.166C31.1478 145.233 31.1478 145.301 31.1371 145.368C31.1224 145.303 31.1134 145.237 31.11 145.17C31.11 145.013 31.11 144.824 31.0695 144.585C31.0695 144.04 31.0064 143.288 30.9614 142.334C30.9163 141.379 30.8848 140.164 30.8848 138.777C30.8848 137.39 30.8848 135.81 30.9343 134.063C30.9929 130.569 31.3083 126.409 31.7543 121.816C32.2815 117.228 33.0159 112.195 34.0702 106.959C35.1244 101.722 36.4716 96.8237 37.8593 92.4158L38.9541 89.2191C39.1344 88.7059 39.3101 88.1926 39.4813 87.6928C39.6525 87.1931 39.8687 86.7113 40.058 86.2341C40.4364 85.2751 40.7969 84.3521 41.1483 83.4651C41.4997 82.5781 41.9097 81.7587 42.2657 80.9573C42.6216 80.1559 42.9595 79.3995 43.3019 78.7061C43.6444 78.0127 44.0048 77.3554 44.3247 76.7295L45.2258 75.0141C45.5096 74.4919 45.8025 74.0326 46.0503 73.6139L47.2172 71.6869L47.5326 71.1961C47.5549 71.1353 47.5852 71.0778 47.6227 71.025Z" fill="#263238"/>
<path d="M45.4559 131.312C45.2625 131.729 45.0349 132.13 44.7756 132.51C44.325 133.261 43.6582 134.369 42.9013 135.76C42.1443 137.151 41.3108 138.84 40.4683 140.753C39.5722 142.837 38.7828 144.965 38.1029 147.129C37.44 149.298 36.8866 151.5 36.4449 153.725C36.0574 155.778 35.7871 157.646 35.6339 159.218C35.4807 160.789 35.3816 162.072 35.3455 162.959C35.346 163.419 35.3083 163.879 35.2329 164.332C35.181 163.875 35.1644 163.414 35.1833 162.955C35.1833 162.054 35.2149 160.775 35.341 159.191C35.4878 157.334 35.7284 155.485 36.0619 153.653C36.4796 151.407 37.0226 149.187 37.6884 147.003C38.3733 144.824 39.178 142.685 40.0988 140.596C40.8573 138.895 41.7009 137.233 42.6264 135.616C43.4239 134.238 44.1088 133.149 44.6224 132.419C44.8696 132.028 45.1483 131.658 45.4559 131.312Z" fill="#263238"/>
<path d="M18.4902 161.199H46.7263L43.3111 190.018H22.009L18.4902 161.199Z" fill="#455A64"/>
<path d="M19.5225 186.907L21.9194 190.018H43.3115L45.7761 187.006L19.5225 186.907Z" fill="#263238"/>
<path d="M45.6271 169.686C45.6271 169.803 39.7699 169.897 32.5611 169.897C25.3523 169.897 19.4951 169.803 19.4951 169.686C19.4951 169.569 25.3523 169.474 32.5836 169.474C39.815 169.474 45.6271 169.56 45.6271 169.686Z" fill="#FAFAFA"/>
<path d="M45.6271 171.595C45.6271 171.712 39.7699 171.806 32.5611 171.806C25.3523 171.806 19.4951 171.712 19.4951 171.595C19.4951 171.478 25.3523 171.383 32.5836 171.383C39.815 171.383 45.6271 171.487 45.6271 171.595Z" fill="#FAFAFA"/>
<path d="M45.2758 173.454C45.2758 173.571 39.6214 173.661 32.6603 173.661C25.6993 173.661 20.0449 173.571 20.0449 173.454C20.0449 173.337 25.6993 173.243 32.6603 173.243C39.6214 173.243 45.2758 173.337 45.2758 173.454Z" fill="#FAFAFA"/>
<path d="M138.04 50.2419L142.014 43.2407C139.55 39.2526 138.667 34.4877 139.54 29.8824C140.413 25.2772 142.977 21.1647 146.73 18.3534C150.483 15.542 155.153 14.2351 159.821 14.6896C164.49 15.144 168.819 17.327 171.958 20.8093C175.098 24.2917 176.82 28.8216 176.787 33.5086C176.754 38.1956 174.968 42.7007 171.779 46.1384C168.591 49.5761 164.231 51.6978 159.557 52.0863C154.883 52.4749 150.232 51.1023 146.519 48.2383L138.04 50.2419Z" fill="#FAFAFA"/>
<path d="M138.04 50.2421L146.506 48.1935L146.474 48.2836L146.204 47.9324L146.555 48.2025C147.743 49.1116 149.033 49.8792 150.399 50.4897C152.024 51.2058 153.743 51.6879 155.503 51.9215C156.478 52.0549 157.463 52.1016 158.445 52.0611C158.95 52.0296 159.468 52.0161 159.986 51.971L161.554 51.7279C166.219 50.8003 170.357 48.1349 173.129 44.272C174.667 42.1348 175.732 39.6942 176.251 37.1132C176.784 34.3851 176.707 31.5733 176.026 28.8783C175.329 26.06 173.97 23.4484 172.061 21.2603L171.304 20.4319C171.056 20.1482 170.759 19.9186 170.489 19.662C170.222 19.4045 169.943 19.161 169.651 18.9326L168.75 18.2662C168.463 18.0442 168.162 17.8411 167.848 17.6584L166.907 17.0866L165.907 16.6048C165.585 16.4364 165.254 16.2861 164.915 16.1546C162.278 15.112 159.441 14.675 156.612 14.8759C153.936 15.0574 151.333 15.826 148.988 17.1271C146.803 18.3352 144.882 19.9687 143.339 21.9312C141.924 23.7231 140.846 25.7566 140.158 27.9328C139.579 29.8922 139.301 31.9279 139.333 33.9705C139.381 35.7457 139.684 37.5047 140.234 39.1933C140.689 40.5993 141.308 41.9472 142.077 43.2094V43.2364V43.2679L138.054 50.2376L141.982 43.2094V43.2679C141.198 41.9955 140.566 40.6355 140.099 39.2158C139.548 37.5151 139.244 35.744 139.198 33.957C139.157 31.8956 139.43 29.8399 140.009 27.8608C141.465 23.2106 144.65 19.2951 148.907 16.92C151.281 15.603 153.916 14.8252 156.625 14.6418C159.487 14.4349 162.359 14.875 165.028 15.9295C165.373 16.0573 165.708 16.2077 166.033 16.3797L167.028 16.8615L167.979 17.4378C168.302 17.6303 168.612 17.8439 168.907 18.0771L169.808 18.748C170.103 18.981 170.386 19.2289 170.655 19.4909C170.943 19.7349 171.218 19.9934 171.48 20.2653L172.246 21.1072C174.181 23.3196 175.559 25.9625 176.265 28.8153C176.955 31.5426 177.031 34.3892 176.486 37.1492C175.963 39.7584 174.888 42.2255 173.332 44.3845C170.525 48.2874 166.336 50.9759 161.617 51.9035L160.031 52.1421C159.509 52.1871 158.986 52.1962 158.477 52.2277C157.485 52.2654 156.491 52.2157 155.508 52.0791C153.734 51.8344 152.003 51.3402 150.367 50.6113C148.995 49.99 147.701 49.2103 146.51 48.2881L146.596 48.207L146.65 48.2791H146.564L138.04 50.2421Z" fill="#263238"/>
<path d="M149.854 32.8584C149.854 30.7963 151.462 29.2565 153.656 29.2565C155.85 29.2565 157.454 30.7738 157.454 32.8584C157.454 34.943 155.837 36.4603 153.656 36.4603C151.475 36.4603 149.854 34.9205 149.854 32.8584ZM155.828 32.8584C155.818 32.4303 155.682 32.0147 155.437 31.6635C155.192 31.3124 154.848 31.0414 154.45 30.8845C154.051 30.7276 153.615 30.6918 153.196 30.7816C152.777 30.8714 152.394 31.0828 152.095 31.3892C151.795 31.6957 151.593 32.0836 151.514 32.5043C151.434 32.925 151.481 33.3599 151.648 33.7543C151.814 34.1487 152.094 34.4851 152.451 34.7214C152.809 34.9577 153.228 35.0833 153.656 35.0826C153.949 35.0923 154.241 35.0411 154.513 34.9322C154.786 34.8234 155.032 34.6592 155.238 34.4501C155.443 34.241 155.603 33.9916 155.707 33.7176C155.811 33.4436 155.856 33.151 155.841 32.8584H155.828Z" fill="#263238"/>
<path d="M161.194 33.6058L160.261 34.5738V36.3298H158.666V29.3916H160.261V32.6333L163.338 29.3916H165.14L162.266 32.4847L165.312 36.3298H163.437L161.194 33.6058Z" fill="#263238"/>
<path d="M125.104 61.3269C123.919 64.276 123.955 70.3722 125.924 72.862C126.951 74.1632 128.348 75.2032 129.078 76.6935C130.033 78.6476 129.623 81.0788 128.425 82.8933C127.226 84.7078 125.338 85.9774 123.351 86.8689C121.139 87.8684 118.431 88.4177 116.368 87.139C114.791 86.1665 113.958 84.3431 113.453 82.5601C112.038 77.5715 112.552 72.2046 114.021 67.216C115.489 62.2274 117.882 57.5764 120.247 52.975" fill="#263238"/>
<path d="M131.674 102.672L142.235 96.2294C142.235 96.2294 134.215 80.7907 133.007 80.2324C131.8 79.6741 115.612 77.2924 115.612 77.2924C110.687 85.0274 104.524 83.1184 98.3106 77.9587C97.7564 78.0713 87.9794 80.2954 85.4248 80.6286C82.8702 80.9618 75.5127 92.677 75.5127 92.677L83.8569 107.26L84.4877 122.37C84.4877 122.37 84.9382 133.117 83.1766 138.664L127.457 140.101C126.973 137.796 126.633 135.464 126.438 133.117C126.272 131.24 125.763 129.367 126.146 126.954C127.358 119.291 131.674 102.672 131.674 102.672Z" fill="#00A1DE"/>
<path d="M80.6982 85.1941C81.3651 87.4183 87.006 90.714 88.9884 89.4804C89.6146 89.0887 90.1553 88.5034 90.8807 88.3638C91.7818 88.1837 92.6514 88.76 93.5299 89.0527C95.5935 89.7325 98.2382 88.9716 99.725 90.5519C100.459 91.3309 100.923 92.6546 101.978 92.623C102.357 92.5601 102.728 92.4574 103.086 92.3169C104.28 92.0197 105.438 92.9337 106.668 93.0192C107.313 93.0252 107.953 92.9169 108.56 92.6996L117.391 90.1152C118.031 89.9261 118.743 89.665 119.018 89.0617C117.959 89.3938 116.818 89.346 115.792 88.9266C115.245 88.6252 114.67 88.3793 114.075 88.1927C112.516 87.873 111.097 89.0932 109.547 89.4759C107.916 89.8586 106.235 89.2508 104.672 88.6474L96.6658 85.5723C94.4581 84.7259 92.1963 83.8434 90.4437 82.2631C89.885 81.7633 87.7899 82.8169 87.1366 82.4567C86.3768 81.9433 85.6513 81.3808 84.965 80.7728C84.8298 80.6737 83.6133 81.7678 83.0772 82.3441C82.541 82.9204 80.6982 85.1941 80.6982 85.1941Z" fill="#FAFAFA"/>
<path d="M84.5096 122.37C86.474 121.542 89.8441 120.236 91.9392 119.844C93.482 119.508 95.0698 119.429 96.6384 119.61C97.4179 119.723 98.2243 119.934 98.9813 119.709C99.7382 119.484 100.247 118.935 100.914 118.606C102.829 117.665 105.118 118.836 107.222 118.561C107.754 118.525 108.253 118.293 108.623 117.908C108.797 117.711 108.891 117.455 108.886 117.192C108.881 116.928 108.778 116.676 108.596 116.486C108.347 116.31 108.049 116.216 107.744 116.216C106.736 116.146 105.723 116.159 104.717 116.252L103.09 116.355C102.416 116.436 101.732 116.405 101.067 116.265C100.432 116.037 99.8163 115.76 99.2246 115.437C97.0529 114.482 94.5614 114.91 92.214 115.238C91.0502 115.466 89.8544 115.479 88.6862 115.275C88.2976 115.146 87.8922 115.077 87.4832 115.067C86.7939 115.108 86.2126 115.617 85.5323 115.729C84.852 115.842 84.8114 114.541 84.1807 114.379L84.5096 122.37Z" fill="#FAFAFA"/>
<path d="M127.596 102.123C127.355 102.28 127.088 102.395 126.807 102.461C125.532 102.636 124.748 100.394 123.527 100.804C123.077 100.961 122.748 101.506 122.248 101.565C121.748 101.623 121.288 101.06 120.774 100.831C119.873 100.426 118.855 101.155 117.855 101.236C116.729 101.322 115.413 100.619 114.57 101.376C114.241 101.668 114.052 102.159 113.624 102.276C113.196 102.393 112.831 102.101 112.43 101.979C111.205 101.614 110.083 102.794 108.826 103.01C107.393 103.258 105.672 102.29 104.595 103.249C104.208 103.586 103.973 104.149 103.478 104.28C102.982 104.41 102.541 104.127 102.063 104.122C100.964 104.122 99.9545 105.572 99.0264 104.978C99.1046 105.234 99.2598 105.46 99.471 105.625C99.6822 105.79 99.9391 105.886 100.207 105.901C100.741 105.923 101.275 105.877 101.797 105.765C104.911 105.383 108.073 107.409 111.092 106.558C111.926 106.324 112.705 105.874 113.566 105.81C115.179 105.693 116.638 106.945 118.251 106.887C119.508 106.837 120.675 105.986 121.928 106.139C123.18 106.292 124.145 107.413 125.316 107.967C126.717 108.633 128.357 108.44 129.898 108.233L130.349 108.129C131.074 106.148 131.592 104.098 131.894 102.01C131.217 101.699 130.477 101.547 129.732 101.567C128.987 101.586 128.256 101.776 127.596 102.123Z" fill="#FAFAFA"/>
<path d="M123.969 129.07C123.356 129.136 122.775 129.372 122.288 129.75C121.803 130.13 121.203 130.337 120.585 130.335C119.477 130.218 118.486 128.858 117.517 129.408C117.274 129.593 117.047 129.798 116.837 130.02C116.161 130.574 115.084 130.421 114.44 131.01C114.106 131.312 113.926 131.789 113.516 131.983C112.746 132.343 112.016 131.452 111.236 131.105C110.02 130.56 108.637 131.407 107.303 131.38C106.627 131.38 105.911 131.132 105.298 131.411C104.982 131.601 104.68 131.814 104.397 132.05C103.379 132.73 102.009 132.415 100.869 131.96C99.7292 131.506 98.5398 130.934 97.3368 131.172C97.0034 131.24 96.6249 131.447 96.6339 131.789C96.6435 131.921 96.6904 132.048 96.7691 132.154C97.481 133.325 98.8416 133.928 100.162 134.311C101.608 134.729 103.135 134.972 104.424 135.756C105.239 136.247 106.096 136.98 107.015 136.728C107.745 136.53 108.191 135.774 108.893 135.504C109.885 135.121 111.061 135.814 112.047 135.405C112.376 135.27 112.651 135.017 112.984 134.896C113.854 134.581 114.823 135.216 115.724 135.013C116.031 134.891 116.352 134.806 116.679 134.761C117.54 134.761 118.098 135.945 118.932 135.832C119.454 135.76 119.81 135.207 120.333 135.112C121.022 134.981 121.802 135.679 122.36 135.256C122.487 135.162 122.586 135.008 122.748 134.995C122.91 134.981 123.104 135.216 123.234 135.396C123.843 136.197 125.699 135.679 126.636 135.315L126.028 129.912C126.059 129.227 124.586 129.07 123.969 129.07Z" fill="#FAFAFA"/>
<g opacity="0.3">
<path d="M86.006 85.3831C85.168 88.0305 84.8391 90.9301 85.6726 93.5775C86.116 94.7842 86.6321 95.9629 87.218 97.1073C89.0447 101.118 89.82 105.528 89.4708 109.921C89.4374 110.073 89.4565 110.232 89.5248 110.371C89.7005 110.664 90.1466 110.556 90.4575 110.416L92.4534 109.516C93.3185 110.218 93.4491 111.609 94.4043 112.177C95.3594 112.744 96.6886 112.109 97.6437 111.416C99.7388 109.881 101.726 108.098 102.942 105.801C103.712 104.193 104.283 102.497 104.641 100.75C105.015 99.2235 105.393 97.6971 105.627 96.1438C106.541 89.985 105.204 83.7034 101.861 78.4495" fill="black"/>
</g>
<path d="M128.317 87.7424C128.36 87.8153 128.392 87.8942 128.412 87.9766C128.475 88.1612 128.556 88.3863 128.651 88.6654C128.854 89.2958 129.133 90.1602 129.475 91.2093C129.818 92.2583 130.223 93.5775 130.674 94.9913C131.181 96.5364 131.561 98.1205 131.809 99.7278C132.002 101.351 131.921 102.994 131.57 104.59C131.291 105.889 130.911 107.164 130.435 108.404C130.038 109.462 129.678 110.304 129.426 110.885C129.306 111.149 129.206 111.369 129.128 111.547C129.098 111.627 129.057 111.702 129.007 111.772C129.021 111.687 129.046 111.606 129.083 111.529L129.34 110.849C129.57 110.259 129.903 109.408 130.282 108.35C130.73 107.11 131.089 105.84 131.359 104.55C131.69 102.974 131.763 101.354 131.575 99.7548C131.33 98.1612 130.96 96.5894 130.467 95.0543C130.016 93.6315 129.647 92.3529 129.318 91.2588C128.989 90.1647 128.75 89.3318 128.565 88.6924L128.367 87.9901C128.339 87.9103 128.322 87.8269 128.317 87.7424Z" fill="#263238"/>
<g opacity="0.3">
<path d="M132.214 101.069C132.849 98.8947 132.772 96.5741 131.994 94.4464C131.218 92.334 130.165 90.3339 128.862 88.4988C129.484 92.758 131.435 96.7652 131.822 101.056" fill="black"/>
</g>
<g opacity="0.3">
<path d="M96.2422 128.349C98.1458 125.804 100.699 123.816 103.636 122.595C106.561 121.384 109.638 120.577 112.782 120.196C114.021 120.016 115.368 119.889 116.454 120.515C117.54 121.141 118.053 122.839 117.107 123.667C116.587 124.031 115.962 124.217 115.328 124.198C110.993 124.513 106.416 124.527 102.667 126.733C101.185 127.602 99.8691 128.8 98.2336 129.326C97.4902 129.565 96.3909 129.43 96.3143 128.656" fill="black"/>
</g>
<path d="M118.338 119.615C118.251 119.624 118.163 119.624 118.076 119.615H117.328H116.783L116.143 119.655C115.693 119.691 115.157 119.709 114.58 119.795L113.679 119.907C113.363 119.952 113.044 120.02 112.706 120.078C112.03 120.187 111.322 120.371 110.575 120.529C108.966 120.963 107.39 121.509 105.857 122.163C104.329 122.831 102.844 123.593 101.41 124.446C100.752 124.847 100.126 125.225 99.5675 125.616C99.0089 126.008 98.4772 126.359 98.0041 126.701C97.5311 127.044 97.103 127.368 96.7516 127.647C96.4002 127.926 96.0713 128.178 95.8235 128.385L95.2378 128.836C95.1721 128.894 95.0994 128.944 95.0215 128.984C95.077 128.917 95.1388 128.855 95.2062 128.8L95.7604 128.295C96.0037 128.075 96.3056 127.814 96.6615 127.525C97.0174 127.237 97.4229 126.891 97.896 126.548C98.3691 126.206 98.8737 125.81 99.4459 125.432C100.018 125.054 100.635 124.648 101.289 124.239C102.724 123.37 104.216 122.597 105.754 121.924C107.297 121.264 108.887 120.721 110.511 120.299C111.268 120.128 111.98 119.943 112.661 119.849C113.003 119.795 113.327 119.727 113.643 119.687L114.544 119.592C115.125 119.516 115.652 119.507 116.116 119.484C116.351 119.484 116.567 119.462 116.765 119.462H117.31L118.063 119.489C118.161 119.515 118.254 119.558 118.338 119.615Z" fill="#263238"/>
<g opacity="0.3">
<path d="M81.7931 95.6351C80.6442 97.2244 80.5135 99.3676 80.9866 101.268C81.4597 103.168 82.4644 104.869 83.4646 106.571C83.5998 104.884 83.469 103.185 83.0771 101.538C82.6041 99.5657 81.757 97.6476 81.7615 95.6171" fill="black"/>
</g>
<path d="M113.886 34.7583C113.913 33.3221 115.553 32.3046 116.972 32.5477C118.391 32.7908 119.5 33.9389 120.162 35.2131C120.824 36.4873 121.144 37.9145 121.644 39.2652C122.996 42.8671 125.65 45.9693 126.6 49.7153C127.216 52.3747 127.132 55.1481 126.357 57.7655C125.586 60.3652 124.524 62.8694 123.19 65.2305C122.358 66.6482 121.656 68.1386 121.095 69.6833C120.531 71.2413 120.479 72.9383 120.946 74.5279C121.047 74.7285 121.07 74.9598 121.009 75.1762C120.869 75.4824 120.432 75.4959 120.108 75.4103C118.454 74.9871 117.31 73.3618 117.026 71.6779C116.742 69.994 117.175 68.2741 117.778 66.6757C118.382 65.0774 119.157 63.5241 119.603 61.8987C120.576 58.2968 119.901 54.4788 119.729 50.7463C119.635 48.6437 119.702 46.5186 119.279 44.443C118.855 42.3674 117.878 40.3278 116.125 39.1527C115.445 38.7024 114.661 38.3693 114.088 37.802C113.516 37.2347 113.228 36.2216 113.746 35.5823" fill="#263238"/>
<path d="M115.368 76.518C115.368 76.518 115.319 74.3388 115.319 74.3614C115.319 74.3839 121.775 73.1322 122.915 64.6542C123.483 60.44 123.109 53.5559 122.622 47.9369C122.172 42.8762 118.675 36.735 113.634 37.3878L97.9501 41.7461C96.4227 41.9442 95.9181 43.2544 95.9857 44.7987L95.873 45.5236L97.1796 69.6969L97.6302 73.749C97.86 78.346 101.856 83.204 106.785 83.3301C111.543 83.5642 115.431 81.6057 115.368 76.518Z" fill="#FFBE9D"/>
<path d="M119.738 53.3892C119.747 53.6718 119.645 53.9466 119.454 54.1552C119.263 54.3637 118.998 54.4895 118.716 54.5058C118.578 54.5201 118.439 54.5066 118.307 54.4663C118.174 54.426 118.051 54.3596 117.945 54.2711C117.839 54.1825 117.752 54.0736 117.688 53.9508C117.625 53.8279 117.586 53.6937 117.576 53.5558C117.567 53.274 117.668 52.9998 117.858 52.7914C118.049 52.5829 118.312 52.4566 118.594 52.4392C118.732 52.425 118.871 52.4384 119.004 52.4787C119.136 52.5189 119.259 52.5853 119.366 52.6737C119.473 52.7622 119.561 52.8711 119.624 52.994C119.688 53.1168 119.727 53.2512 119.738 53.3892Z" fill="#263238"/>
<path d="M121.149 51.7864C121.018 51.9305 120.185 51.3362 119.018 51.3722C117.851 51.4082 117.008 52.007 116.882 51.8675C116.815 51.8044 116.945 51.5478 117.333 51.2641C117.83 50.9047 118.426 50.7066 119.04 50.6968C119.646 50.6795 120.241 50.8562 120.739 51.2011C121.104 51.4667 121.235 51.7234 121.149 51.7864Z" fill="#263238"/>
<path d="M109.818 53.9746C109.687 54.1187 108.849 53.5244 107.682 53.5649C106.515 53.6054 105.677 54.1952 105.546 54.0557C105.483 53.9971 105.614 53.736 105.997 53.4568C106.494 53.0963 107.09 52.8967 107.705 52.885C108.312 52.8699 108.908 53.0481 109.408 53.3938C109.755 53.6504 109.885 53.9026 109.818 53.9746Z" fill="#263238"/>
<path d="M114.187 60.5885C114.187 60.521 114.904 60.3769 116.075 60.2013C116.372 60.1608 116.652 60.0978 116.697 59.8906C116.715 59.5823 116.638 59.2757 116.476 59.0127L115.543 56.7615C114.246 53.5603 113.291 50.9084 113.426 50.8769C113.561 50.8454 114.714 53.3757 116.012 56.5769C116.312 57.3663 116.613 58.1167 116.913 58.8281C117.11 59.1814 117.175 59.5928 117.098 59.9897C117.056 60.0959 116.991 60.1915 116.908 60.2694C116.824 60.3473 116.725 60.4055 116.616 60.4399C116.452 60.4879 116.282 60.5152 116.111 60.521C114.926 60.629 114.192 60.6516 114.187 60.5885Z" fill="#263238"/>
<path d="M115.319 74.3613C111.34 74.5154 107.397 73.563 103.929 71.6104C103.929 71.6104 106.925 77.5085 115.368 76.518L115.319 74.3613Z" fill="#EB996E"/>
<path d="M109.772 51.0165C109.641 51.3271 108.488 51.1065 107.109 51.1831C105.73 51.2596 104.604 51.5703 104.442 51.2731C104.37 51.1335 104.577 50.8454 105.045 50.5662C105.66 50.2236 106.347 50.0308 107.05 50.0034C107.755 49.9597 108.46 50.0864 109.105 50.3726C109.596 50.6067 109.83 50.8679 109.772 51.0165Z" fill="#263238"/>
<path d="M120.991 48.189C120.757 48.4591 119.797 48.189 118.658 48.225C117.518 48.261 116.549 48.4501 116.319 48.18C116.22 48.0449 116.364 47.7792 116.77 47.5181C117.345 47.1992 117.993 47.0319 118.651 47.0319C119.309 47.0319 119.956 47.1992 120.532 47.5181C120.955 47.7882 121.095 48.0584 120.991 48.189Z" fill="#263238"/>
<path d="M113.318 63.0333C113.143 62.8133 112.922 62.634 112.671 62.5081C112.42 62.3821 112.144 62.3124 111.863 62.304C111.544 62.3139 111.23 62.3903 110.942 62.5283C110.654 62.6663 110.399 62.8629 110.191 63.1054L110.16 63.1324L110.101 63.1954C109.939 63.3684 109.837 63.5898 109.813 63.8258C109.809 64.0904 109.871 64.3519 109.992 64.5873C110.112 64.8228 110.289 65.0251 110.506 65.1765C110.842 65.4321 111.249 65.5778 111.67 65.594C112.092 65.6101 112.509 65.4957 112.863 65.2665C113.208 65.021 113.446 64.654 113.531 64.2395C113.615 63.825 113.539 63.394 113.318 63.0333Z" fill="#EB996E"/>
<path d="M110.29 61.9032C110.358 61.9032 110.412 62.1733 110.597 62.556C110.834 63.0471 111.206 63.4609 111.669 63.7492C112.142 64.0208 112.683 64.1506 113.228 64.1229C113.651 64.1229 113.917 64.0238 113.949 64.0869C113.98 64.1499 113.737 64.33 113.268 64.438C112.642 64.5673 111.989 64.4581 111.439 64.1319C110.89 63.8046 110.484 63.282 110.304 62.6686C110.173 62.2049 110.236 61.9032 110.29 61.9032Z" fill="#263238"/>
<path d="M115.562 37.5274C115.515 37.9518 115.573 38.381 115.73 38.778C115.887 39.175 116.138 39.5277 116.463 39.8056C117.121 40.3521 117.832 40.8317 118.585 41.2374C120.837 42.6421 121.95 45.7127 123.005 48.1485C124.861 44.6142 122.009 40.0442 119.648 37.2753C119.245 36.7589 118.746 36.3248 118.179 35.9966C117.893 35.8352 117.574 35.7411 117.246 35.7216C116.918 35.7021 116.59 35.7576 116.287 35.884" fill="#263238"/>
<path d="M123.028 65.7167C123.052 65.6092 123.086 65.5038 123.127 65.4016L123.451 64.5281C123.708 63.7582 124.087 62.6461 124.425 61.2369C125.306 57.5525 125.515 53.7395 125.042 49.9809C124.805 47.919 124.315 45.8941 123.582 43.9522C122.988 42.365 122.023 40.9431 120.766 39.8055C119.911 39.0469 118.896 38.4899 117.797 38.1757C117.018 37.9731 116.562 37.9731 116.562 37.9461C116.672 37.9342 116.782 37.9342 116.891 37.9461C117.204 37.9697 117.514 38.0179 117.82 38.0901C118.949 38.3722 119.995 38.9168 120.874 39.6795C122.169 40.8216 123.167 42.2597 123.785 43.8712C124.539 45.8272 125.04 47.8713 125.276 49.9539C125.751 53.731 125.518 57.5635 124.587 61.2549C124.298 62.3689 123.947 63.4661 123.537 64.5416C123.384 64.9153 123.258 65.208 123.172 65.4016C123.136 65.5115 123.087 65.6172 123.028 65.7167Z" fill="#455A64"/>
<path d="M123.788 71.795C123.77 71.7644 123.756 71.7309 123.748 71.6959L123.649 71.3943C123.543 71.0058 123.478 70.6075 123.455 70.2056C123.423 68.7112 123.772 67.2332 124.469 65.9104C125.266 64.195 126.722 62.4751 128.118 60.4535C128.86 59.4069 129.455 58.263 129.884 57.0542C130.309 55.7481 130.471 54.371 130.362 53.002C130.258 51.6292 129.879 50.2912 129.249 49.067C128.632 47.9382 127.875 46.8915 126.996 45.9513C125.347 44.1504 123.689 42.6106 122.604 41.0662C121.696 39.885 121.057 38.5208 120.729 37.0681C120.612 36.5363 120.577 35.9897 120.626 35.4473C120.648 35.9858 120.712 36.5218 120.819 37.0501C121.175 38.4779 121.829 39.8143 122.739 40.9717C123.829 42.4845 125.483 43.9793 127.159 45.8072C128.05 46.7571 128.818 47.8161 129.443 48.9589C130.087 50.2099 130.475 51.5768 130.583 52.9795C130.693 54.3821 130.527 55.7927 130.092 57.1307C129.654 58.3582 129.047 59.5189 128.289 60.5796C126.87 62.6101 125.415 64.3075 124.608 65.9824C123.906 67.2762 123.539 68.7249 123.541 70.1966C123.568 70.7366 123.651 71.2722 123.788 71.795Z" fill="#263238"/>
<path d="M114.202 33.097C112.755 32.075 110.89 31.8409 109.119 31.8679C104.344 31.9354 99.4956 33.7589 96.3012 37.3067C93.5979 40.2963 89.6285 46.0504 88.8761 49.9945C87.0424 59.607 93.1203 62.2995 88.1687 77.3059C87.2676 80.0073 86.1503 82.6547 85.6006 85.4462C85.4028 86.4423 85.3107 87.4564 85.3258 88.4718C84.7446 90.2277 85.1005 92.2538 85.8169 94.0007C86.6594 96.0538 87.9435 97.8998 88.75 99.9664C89.5564 102.033 91.3316 105.423 90.1467 107.301C91.8182 106.851 91.8768 105.108 93.2014 103.996C93.5929 105.488 93.5805 107.058 93.1654 108.543C95.2427 108.399 97.215 107.576 98.7792 106.202C101.87 103.501 102.834 99.1109 103.316 95.0228C104.353 86.0855 103.339 77.513 100.969 68.8324L100.937 68.8729C99.2117 63.3215 95.9453 58.1978 98.8783 56.9731C103.988 54.8435 99.3289 52.6013 101.266 47.2345C101.875 45.5596 102.55 43.7857 103.97 42.7321C105.673 41.4624 107.975 41.53 110.097 41.4129C112.219 41.2959 114.625 40.7376 115.621 38.8646L115.751 37.7435C116.513 36.1361 115.648 34.1236 114.202 33.097Z" fill="#263238"/>
<path d="M91.1602 68.6343C91.3011 68.5254 91.4269 68.3983 91.5342 68.2561C91.792 67.8113 91.892 67.2926 91.818 66.7839C91.6738 65.4557 91.0025 63.6322 90.1239 61.381C89.6275 60.1615 89.2459 58.8983 88.984 57.608C88.6517 56.0271 88.7963 54.3832 89.3994 52.8844C90.0025 51.3857 91.0371 50.0994 92.3722 49.1886C93.8139 48.153 95.7738 47.9954 96.9768 46.5907C98.1798 45.1859 98.779 43.5021 99.3016 41.8722C99.5546 41.0567 99.8555 40.2569 100.203 39.4769C100.553 38.7332 100.975 38.0259 101.464 37.3653C102.37 36.1445 103.495 35.1019 104.78 34.2902C105.358 33.907 105.986 33.6041 106.646 33.3897C107.258 33.2041 107.899 33.1279 108.538 33.1646C109.625 33.254 110.69 33.5185 111.692 33.948C112.593 34.3127 113.332 34.6324 113.945 34.9565C114.41 35.196 114.815 35.5377 115.13 35.9561C115.236 36.1034 115.317 36.2678 115.368 36.4423C115.284 36.2871 115.19 36.1368 115.089 35.9921C114.767 35.5937 114.36 35.2709 113.899 35.0466C113.305 34.7404 112.548 34.4298 111.647 34.0786C110.654 33.6727 109.603 33.428 108.533 33.3537C107.913 33.3201 107.292 33.3979 106.7 33.5833C106.064 33.7959 105.458 34.0895 104.897 34.4568C102.951 35.701 101.399 37.4735 100.424 39.567C100.077 40.3397 99.7763 41.1319 99.5224 41.9397C98.9908 43.5651 98.4366 45.3525 97.1525 46.7438C96.5136 47.4152 95.7268 47.9285 94.8547 48.2431C94.0315 48.5305 93.2439 48.9112 92.5073 49.3777C91.1457 50.3118 90.102 51.6392 89.5157 53.1822C88.9978 54.587 88.8747 56.1067 89.1597 57.5765C89.414 58.8578 89.785 60.1132 90.2681 61.327C91.1242 63.5782 91.7775 65.4196 91.8946 66.7794C91.9625 67.3047 91.8429 67.8372 91.5567 68.2832C91.4754 68.3916 91.3781 68.4873 91.2683 68.5668L91.1602 68.6343Z" fill="#455A64"/>
<path d="M98.6213 57.7161C98.4907 55.9151 96.5082 54.7625 94.9674 55.6945C94.1203 56.2078 93.4896 57.2163 93.6157 59.1253C93.9356 64.2085 98.9773 62.8398 98.9773 62.6912C98.9773 62.5426 98.752 59.8277 98.6213 57.7161Z" fill="#FFBE9D"/>
<path d="M97.2693 60.8632C97.2693 60.8632 97.1837 60.9307 97.0395 61.0073C96.8343 61.1104 96.5974 61.1314 96.3772 61.0658C95.8276 60.8992 95.3229 60.0753 95.2418 59.1613C95.2003 58.7265 95.2573 58.2879 95.4085 57.8781C95.4457 57.7159 95.5223 57.5652 95.6315 57.4396C95.7407 57.314 95.8792 57.2171 96.0348 57.1577C96.1343 57.1244 96.2423 57.1269 96.3402 57.1647C96.4381 57.2025 96.5197 57.2733 96.571 57.3648C96.6476 57.5044 96.6205 57.608 96.6521 57.617C96.6836 57.626 96.7557 57.5224 96.7016 57.3153C96.6652 57.1911 96.5873 57.083 96.4809 57.0091C96.3331 56.913 96.154 56.8776 95.9807 56.9101C95.7749 56.9649 95.5865 57.0714 95.4335 57.2196C95.2805 57.3678 95.168 57.5526 95.1067 57.7565C94.9162 58.2099 94.8404 58.7032 94.8859 59.1928C94.985 60.2148 95.5707 61.1423 96.3187 61.3089C96.4577 61.3392 96.6017 61.3383 96.7403 61.3064C96.879 61.2745 97.0089 61.2123 97.1206 61.1243C97.2693 60.9892 97.2918 60.8722 97.2693 60.8632Z" fill="#EB996E"/>
<path d="M99.2161 64.3301C99.2161 64.3301 99.2522 64.4291 99.2161 64.6092C99.1437 64.864 98.9843 65.0854 98.7656 65.235C98.599 65.3443 98.4091 65.413 98.2112 65.4357C98.0132 65.4584 97.8127 65.4344 97.6257 65.3656C97.3972 65.2829 97.1893 65.152 97.0159 64.9819C96.8426 64.8117 96.7079 64.6063 96.621 64.3796C96.4697 63.9744 96.4318 63.5356 96.5111 63.1105C96.5905 62.6853 96.7842 62.2898 97.0715 61.9663C97.1795 61.8255 97.3152 61.7081 97.4701 61.6214C97.625 61.5347 97.796 61.4805 97.9726 61.462C97.6788 61.6168 97.4161 61.8244 97.1977 62.0744C96.977 62.3543 96.8229 62.6807 96.7471 63.0289C96.656 63.4494 96.6888 63.8873 96.8417 64.2895C96.9145 64.4873 97.0284 64.6675 97.176 64.818C97.3236 64.9686 97.5014 65.0862 97.6978 65.163C97.8552 65.2267 98.025 65.2538 98.1944 65.2421C98.3638 65.2304 98.5284 65.1802 98.6755 65.0955C98.8735 64.9731 99.0304 64.7944 99.126 64.5822C99.1846 64.4291 99.1936 64.3301 99.2161 64.3301Z" fill="white"/>
<path d="M114.571 38.3018C114.242 37.9671 113.881 37.6655 113.494 37.4013C112.384 36.7448 111.089 36.4725 109.808 36.6269C108.928 36.7142 108.072 36.971 107.29 37.3833C106.399 37.871 105.591 38.4971 104.897 39.2383C104.129 40.0668 103.448 40.972 102.865 41.9397C102.248 42.9347 101.685 44.0153 101.104 45.1229C100.556 46.2103 99.9547 47.2697 99.3014 48.2971C98.6806 49.2539 97.9553 50.1389 97.1387 50.9355C96.3638 51.6964 95.5888 52.3762 94.9265 53.0696C94.2956 53.6905 93.7529 54.3949 93.3135 55.1632C92.6641 56.279 92.4341 57.5896 92.6647 58.8596C92.7793 59.3165 92.968 59.7515 93.2234 60.1473C93.1416 60.0551 93.0663 59.9573 92.9981 59.8547C92.8082 59.5545 92.6668 59.2263 92.5791 58.8822C92.3026 57.588 92.5111 56.2374 93.1648 55.0866C93.6024 54.2972 94.1484 53.5728 94.7868 52.9345C95.4491 52.2276 96.2196 51.5433 96.9855 50.7824C97.7868 49.9913 98.4998 49.1157 99.1121 48.171C99.7564 47.1895 100.333 46.1179 100.914 45.0193C101.496 43.9207 102.059 42.8267 102.689 41.8226C103.282 40.8518 103.975 39.9463 104.758 39.1212C105.471 38.3667 106.301 37.7326 107.218 37.2437C108.025 36.8294 108.904 36.5742 109.808 36.4918C111.121 36.3489 112.444 36.6536 113.561 37.3563C113.855 37.5555 114.122 37.7899 114.359 38.0541C114.435 38.1317 114.506 38.2145 114.571 38.3018Z" fill="#455A64"/>
<path d="M76.2336 93.3389L77.1798 88.7735L68.4751 84.8069L68.2498 85.5498C67.0063 89.6875 60.8067 109.629 60.4283 111.119C59.0316 116.652 59.3425 127.602 61.5502 129.651C63.3163 131.289 66.709 132.496 68.9527 132.248C71.1964 132.001 77.3825 124.045 77.3825 124.045L83.0549 105.883L76.2336 93.3389Z" fill="#FFBE9D"/>
<path d="M76.6163 90.6239C76.6149 90.742 76.6014 90.8597 76.5758 90.9751C76.5307 91.2272 76.4767 91.5604 76.4046 91.9836C76.2469 92.8841 76.0171 94.1313 75.7423 95.6711C75.4674 97.2109 75.134 99.0839 74.8412 101.155C74.5222 103.393 74.3477 105.648 74.3185 107.909C74.2983 110.173 74.554 112.432 75.0799 114.635C75.571 116.657 76.0216 118.521 75.981 120.128C75.9883 121.39 75.6652 122.631 75.0439 123.73C74.821 124.135 74.5246 124.496 74.1698 124.792C75.3162 123.509 75.9075 121.824 75.8143 120.105C75.8414 118.53 75.3638 116.693 74.8727 114.667C74.3343 112.449 74.071 110.173 74.0887 107.891C74.1152 105.616 74.2974 103.346 74.6339 101.096C74.9268 99.0208 75.2737 97.1659 75.5756 95.6125C75.8774 94.0592 76.1342 92.8301 76.3099 91.9386C76.4001 91.5199 76.4721 91.1912 76.5217 90.9391C76.5474 90.8324 76.579 90.7271 76.6163 90.6239Z" fill="#EB996E"/>
<path d="M85.614 81.223L83.9289 79.359V77.1439L82.1808 74.6315L78.6935 75.1898L77.6257 75.2799L78.3466 70.1832C78.7465 68.8795 79.2716 67.6174 79.9145 66.4147C81.158 63.9294 79.1576 62.7903 79.1576 62.7903L75.418 69.3277L74.1745 73.6725L73.6428 70.1292C73.6428 70.1292 74.2736 66.6803 74.1835 64.9064C74.0934 63.1325 72.3137 63.3891 72.3137 63.3891L70.89 71.1917V75.0953L69.651 72.7901C69.651 72.7901 69.3851 70.836 69.2004 69.0621C69.0157 67.2882 67.6055 67.8194 67.6055 67.8194V73.587L69.2004 78.9088C69.2004 78.9088 68.1506 85.7749 67.9749 86.0406L76.1885 91.7946C76.1885 91.7946 77.9907 90.4439 78.3376 90.3494C78.6845 90.2548 83.1314 86.9771 83.1314 86.9771L86.2357 83.6948C86.2357 83.6948 86.7674 83.3437 86.7674 82.988C86.7674 82.6323 85.614 81.223 85.614 81.223ZM81.3563 83.3527L79.5811 82.5512L78.6034 80.156L79.3288 78.8458L79.5811 78.3955L79.9055 78.1704L81.0905 78.3955C81.0905 78.3955 81.6221 80.0839 81.541 80.8808C81.4599 81.6778 82.5187 82.4792 82.5187 82.4792L81.3563 83.3527Z" fill="#FFBE9D"/>
<path d="M79.905 78.1568C79.905 78.1838 79.7428 78.2018 79.4995 78.1253C79.1815 78.0155 78.9006 77.819 78.6885 77.558C78.4725 77.3021 78.3349 76.9895 78.292 76.6575C78.265 76.4054 78.292 76.2478 78.3371 76.2523C78.4106 76.679 78.5937 77.0792 78.8685 77.4139C79.1434 77.7485 79.5006 78.0061 79.905 78.1613V78.1568Z" fill="#EB996E"/>
<path d="M84.4742 82.7538C84.4412 81.8906 84.4804 81.0261 84.5913 80.1694C84.7278 80.5888 84.7694 81.0332 84.713 81.4706C84.7328 81.911 84.6511 82.35 84.4742 82.7538Z" fill="#EB996E"/>
<path d="M81.7341 86.1081C81.7341 86.1081 81.5088 85.964 81.2565 85.6218C80.9105 85.1647 80.7496 84.5939 80.806 84.0235C80.8327 83.8489 80.9076 83.6852 81.0222 83.5507C81.1259 83.4382 81.234 83.3346 81.3376 83.2401C81.5215 83.0796 81.714 82.9293 81.9143 82.7898C82.2567 82.5467 82.5 82.4386 82.5181 82.4747C82.362 82.6362 82.1949 82.7866 82.0179 82.9249C81.8603 83.06 81.68 83.2221 81.4863 83.4112C81.3917 83.5057 81.2926 83.6093 81.1979 83.7173C81.1129 83.8209 81.0569 83.9452 81.0357 84.0775C80.9998 84.3551 81.0291 84.6372 81.1214 84.9014C81.1881 85.1273 81.2835 85.3436 81.4052 85.5453C81.6034 85.8785 81.7656 86.0856 81.7341 86.1081Z" fill="#EB996E"/>
<path d="M83.9332 79.1339C83.9638 79.7945 83.7542 80.4438 83.3429 80.9619C83.1867 81.1786 82.9793 81.3534 82.7392 81.4706C82.5332 81.5591 82.3044 81.5796 82.0859 81.5292C81.7029 81.4346 81.6038 81.1735 81.6353 81.169C81.6669 81.1645 81.802 81.3311 82.1174 81.3671C82.3001 81.3889 82.4852 81.356 82.6491 81.2725C82.8513 81.1638 83.0256 81.0097 83.1582 80.8223C83.4815 80.2916 83.7416 79.725 83.9332 79.1339Z" fill="#EB996E"/>
<path d="M81.5406 80.7413C81.4866 80.7413 81.3559 79.9579 81.0901 78.9988C80.9868 78.5837 80.9086 78.1627 80.8558 77.7382C80.8243 77.4095 80.8558 77.2024 80.8558 77.2024C80.8558 77.2024 80.9279 77.396 81 77.7112C81.1036 78.1614 81.1982 78.5351 81.2974 78.9448C81.5857 79.9083 81.6172 80.7413 81.5406 80.7413Z" fill="#EB996E"/>
<path d="M84.4737 83.2851C83.753 83.2285 83.0599 82.9831 82.4642 82.5737C82.2154 82.4273 81.9931 82.2401 81.8064 82.0199C81.6598 81.8306 81.5581 81.6104 81.5091 81.376C81.442 81.1676 81.4532 80.942 81.5406 80.7412C81.5812 80.7412 81.5406 80.9843 81.6668 81.3355C81.8275 81.7808 82.1489 82.1501 82.5679 82.3711C83.5636 82.9924 84.4962 83.2085 84.4737 83.2851Z" fill="#EB996E"/>
<path d="M77.157 85.2571C76.6204 84.3607 75.959 83.5451 75.1926 82.8349C74.3704 82.1836 73.4603 81.6515 72.4893 81.2545C72.8016 81.2755 73.1073 81.3549 73.3904 81.4886C74.8127 82.0516 76.0044 83.0759 76.774 84.3972C76.9559 84.6565 77.0859 84.9485 77.157 85.2571Z" fill="#EB996E"/>
<path d="M74.1835 76.9772C74.1835 77.0448 73.5347 77.0988 72.7823 77.3644C72.0299 77.6301 71.4847 77.9768 71.4307 77.9227C71.7874 77.5704 72.2187 77.3025 72.6928 77.1389C73.1669 76.9752 73.6717 76.92 74.17 76.9772H74.1835Z" fill="#EB996E"/>
<path d="M88.4478 175.854C88.4478 175.854 62.1222 183.134 61.0679 183.508C59.4819 184.066 59.7477 189.874 62.2168 189.784C63.3837 189.739 82.433 190.491 84.8434 190.343C87.2539 190.194 93.7283 187.641 93.7283 187.641L88.4478 175.854Z" fill="#455A64"/>
<path d="M77.4816 185.894C77.3464 185.894 77.1707 184.521 76.3192 183.071C75.4676 181.622 74.3773 180.757 74.4584 180.649C74.5395 180.541 75.81 181.288 76.7111 182.851C77.6122 184.413 77.5897 185.894 77.4816 185.894Z" fill="#263238"/>
<path d="M80.225 184.647C80.0944 184.647 79.8285 183.427 79.1302 182.054C78.4318 180.681 77.5983 179.717 77.6929 179.627C77.7875 179.537 78.7968 180.401 79.5222 181.856C80.2476 183.31 80.3377 184.638 80.225 184.647Z" fill="#263238"/>
<path d="M82.7982 183.958C82.6675 183.958 82.7667 182.635 82.1854 181.18C81.6042 179.726 80.6581 178.817 80.7482 178.718C80.8383 178.618 81.9827 179.433 82.5954 181.018C83.2082 182.603 82.9063 183.994 82.7982 183.958Z" fill="#263238"/>
<path d="M82.3337 180.559C82.2841 180.559 82.0498 179.839 82.0498 178.605C82.0532 177.881 82.1425 177.16 82.3156 176.457C82.4181 176.042 82.5491 175.634 82.7076 175.237C82.7895 174.989 82.9356 174.767 83.1311 174.593C83.262 174.492 83.4248 174.441 83.59 174.449C83.7552 174.458 83.9121 174.525 84.0322 174.638C84.2381 174.833 84.3635 175.098 84.3837 175.381C84.4109 175.611 84.423 175.843 84.4197 176.075C84.4113 176.508 84.3569 176.94 84.2575 177.362C84.0823 178.068 83.8094 178.745 83.4465 179.375C82.8338 180.442 82.3021 180.987 82.2616 180.96C82.221 180.933 82.6445 180.302 83.1627 179.231C83.4687 178.609 83.7 177.953 83.852 177.277C83.9357 176.881 83.978 176.479 83.9782 176.075C83.9782 175.669 83.9782 175.174 83.7349 174.967C83.6916 174.919 83.6314 174.889 83.5668 174.884C83.5022 174.879 83.4382 174.899 83.3879 174.94C83.2559 175.064 83.1568 175.219 83.0996 175.39C82.942 175.769 82.8081 176.157 82.6986 176.552C82.5152 177.223 82.399 177.911 82.3517 178.605C82.2841 179.807 82.4012 180.55 82.3337 180.559Z" fill="#263238"/>
<path d="M82.3652 180.293C82.3652 180.244 82.987 180.028 84.0638 180.019C84.6927 180.018 85.3193 180.095 85.9291 180.248C86.305 180.329 86.6676 180.462 87.0059 180.645C87.2229 180.752 87.3986 180.928 87.506 181.145C87.6134 181.363 87.6467 181.609 87.6006 181.847C87.541 182.073 87.4218 182.279 87.2554 182.444C87.089 182.609 86.8815 182.726 86.6545 182.783C86.2655 182.88 85.8585 182.88 85.4695 182.783C84.8468 182.627 84.2646 182.34 83.7619 181.941C83.2832 181.619 82.8678 181.211 82.5364 180.739C82.586 180.681 83.0816 181.113 83.9377 181.685C84.4262 182.02 84.9756 182.257 85.5551 182.382C85.8763 182.461 86.2117 182.461 86.5328 182.382C86.6843 182.343 86.8229 182.265 86.9351 182.156C87.0472 182.047 87.1291 181.911 87.1726 181.761C87.1986 181.613 87.1742 181.46 87.1031 181.327C87.0321 181.194 86.9186 181.088 86.7806 181.027C86.4801 180.861 86.1589 180.736 85.8255 180.654C85.2455 180.492 84.6508 180.387 84.0503 180.343C83.023 180.257 82.3742 180.365 82.3652 180.293Z" fill="#263238"/>
<path d="M73.4351 186.173C73.3044 186.173 73.4351 185.034 72.917 183.801C72.3988 182.567 71.5653 181.842 71.6284 181.739C71.6915 181.635 72.7728 182.256 73.3225 183.634C73.8721 185.012 73.5432 186.218 73.4351 186.173Z" fill="#263238"/>
<path d="M91.8046 187.389C91.481 187.58 91.1401 187.74 90.7864 187.866C89.8321 188.234 88.8536 188.535 87.8578 188.767C85.3392 189.402 81.7483 189.762 77.806 189.721C73.8637 189.681 70.3043 189.496 67.7272 189.393L64.6769 189.231C64.3014 189.232 63.9268 189.192 63.5596 189.114C63.9306 189.056 64.3066 189.038 64.6814 189.06H67.7362L77.806 189.258C81.1586 189.352 84.5117 189.088 87.8082 188.47C90.3043 187.952 91.7731 187.304 91.8046 187.389Z" fill="#263238"/>
<path d="M92.5833 187.988C92.5472 188.046 91.8264 187.628 90.6099 187.087C89.0585 186.353 87.3322 186.068 85.6268 186.264C83.6444 186.565 82.2386 187.898 81.324 188.821C80.4094 189.744 79.8597 190.415 79.8057 190.37C80.1532 189.723 80.5867 189.126 81.0942 188.596C81.6093 187.986 82.1946 187.439 82.8379 186.966C83.6347 186.373 84.5613 185.978 85.5412 185.813C87.3283 185.596 89.1389 185.939 90.7225 186.795C91.4018 187.092 92.0298 187.495 92.5833 187.988Z" fill="#263238"/>
<path d="M66.181 189.122C66.1359 189.091 66.3612 188.744 66.5685 188.132C66.8379 187.337 66.9045 186.487 66.7622 185.66C66.6025 184.832 66.2351 184.057 65.6944 183.409C65.2844 182.909 64.951 182.662 64.9825 182.617C65.0141 182.572 65.397 182.756 65.8836 183.238C66.5176 183.88 66.9429 184.699 67.1037 185.586C67.2644 186.474 67.1533 187.389 66.7847 188.213C66.5099 188.848 66.2035 189.15 66.181 189.122Z" fill="#263238"/>
<path d="M85.884 138.696L81.1532 150.326C81.1532 150.326 57.6435 141.731 43.8837 144.234C38.6528 145.188 33.0704 157.052 40.6757 164.67C48.1143 172.104 61.4011 182.612 86.3706 186.011C86.9924 186.097 97.2154 188.29 96.5846 188.213C95.9538 188.137 110.917 190.505 110.917 190.505L114.431 177.236L142.325 181.622C158.752 180.501 166.789 162.946 156.9 157.309C147.673 152.036 130.317 151.618 130.317 151.618L126.06 140.006L85.884 138.696Z" fill="#263238"/>
<path d="M111.471 191C111.548 190.55 111.742 189.343 112.152 186.867C112.372 185.516 112.647 183.927 112.999 182.072C113.174 181.144 113.373 180.154 113.607 179.114C113.724 178.591 113.855 178.06 114.008 177.515C114.084 177.245 114.166 176.971 114.265 176.696C114.354 176.399 114.497 176.121 114.688 175.877L114.729 176.079C108.795 173.977 101.379 171.194 93.4718 167.862C88.6148 165.796 84.0102 163.711 79.9913 161.536C78.0655 160.534 76.2176 159.389 74.463 158.11C72.823 156.899 71.3632 155.692 69.9936 154.639C67.2902 152.5 64.8212 151.118 62.983 150.533C62.5808 150.386 62.17 150.264 61.753 150.168C61.457 150.083 61.156 150.017 60.8519 149.97L60.2797 149.866C60.2137 149.858 60.1487 149.843 60.0859 149.821C60.1518 149.814 60.2183 149.814 60.2842 149.821L60.8609 149.893C61.1738 149.929 61.4839 149.986 61.789 150.064C62.21 150.152 62.6253 150.264 63.0325 150.402C64.1557 150.765 65.2371 151.247 66.2585 151.838C67.6095 152.621 68.9055 153.495 70.1377 154.454C71.5164 155.499 72.9852 156.705 74.6432 157.894C76.3949 159.154 78.2366 160.284 80.1535 161.275C84.1859 163.427 88.768 165.503 93.6204 167.579C101.519 170.906 108.939 173.706 114.841 175.845L115.004 175.904L114.882 176.043C114.721 176.263 114.598 176.508 114.517 176.768C114.418 177.034 114.337 177.304 114.26 177.569C114.102 178.105 113.972 178.637 113.85 179.154C113.607 180.19 113.4 181.176 113.219 182.099C112.85 183.949 112.557 185.561 112.318 186.88C112.08 188.2 111.868 189.213 111.751 189.928C111.679 190.28 111.624 190.545 111.579 190.725C111.551 190.82 111.515 190.912 111.471 191Z" fill="#455A64"/>
<path d="M151.471 158.88C151.42 158.886 151.368 158.886 151.317 158.88L150.867 158.808C150.484 158.759 149.93 158.614 149.2 158.547C147.151 158.278 145.081 158.204 143.018 158.326C139.959 158.522 136.927 159.023 133.967 159.821C132.295 160.271 130.556 160.794 128.776 161.41C126.997 162.027 125.172 162.734 123.325 163.477C121.507 164.195 119.649 164.807 117.76 165.309C115.958 165.814 114.156 166.21 112.448 166.534C109.038 167.2 105.938 167.61 103.334 167.925C100.73 168.241 98.6165 168.457 97.1567 168.605L95.4762 168.772L95.0256 168.808C94.9265 168.808 94.877 168.808 94.877 168.808C94.9237 168.792 94.9721 168.782 95.0211 168.776L95.4717 168.713L97.1432 168.493L103.307 167.718C105.906 167.372 109.002 166.944 112.394 166.264C114.093 165.931 115.868 165.53 117.684 165.026C119.56 164.523 121.406 163.913 123.212 163.198C125.068 162.459 126.893 161.748 128.682 161.131C130.47 160.514 132.219 159.997 133.899 159.551C136.879 158.762 139.931 158.281 143.009 158.115C145.084 158.008 147.165 158.114 149.218 158.43C149.948 158.52 150.497 158.682 150.88 158.75L151.331 158.849C151.379 158.853 151.426 158.863 151.471 158.88Z" fill="#455A64"/>
<path d="M108.534 154.121C108.534 154.319 107.286 154.634 105.195 154.828C99.7349 155.272 94.2399 154.684 88.9978 153.095C87.0018 152.464 85.8439 151.883 85.889 151.694C86.0241 151.276 90.9577 152.595 97.1753 153.234C103.393 153.873 108.489 153.684 108.534 154.121Z" fill="#263238"/>
<path d="M130.56 151.789C130.268 151.897 129.966 151.98 129.659 152.036C129.357 152.099 128.997 152.19 128.582 152.316C128.168 152.442 127.681 152.563 127.177 152.766C125.965 153.17 124.777 153.641 123.617 154.175C122.311 154.792 120.914 155.526 119.477 156.386C117.046 157.867 114.715 159.505 112.498 161.289C111.646 161.969 110.961 162.531 110.493 162.928C110.258 163.143 110.007 163.339 109.74 163.513C109.946 163.269 110.172 163.043 110.416 162.838C110.867 162.419 111.524 161.829 112.367 161.127C114.555 159.286 116.88 157.615 119.323 156.129C120.675 155.321 122.07 154.586 123.5 153.927C124.672 153.403 125.876 152.952 127.104 152.577C127.627 152.406 128.109 152.289 128.537 152.185C128.897 152.089 129.26 152.011 129.628 151.951C129.934 151.873 130.246 151.819 130.56 151.789Z" fill="#455A64"/>
<path d="M104.429 163.495C103.862 163.407 103.308 163.248 102.78 163.022C101.489 162.53 100.228 161.961 99.0045 161.32L95.3505 159.407C94.8305 159.171 94.3277 158.898 93.8457 158.592C94.3987 158.742 94.9335 158.951 95.4407 159.218C96.4048 159.668 97.6934 160.321 99.1397 161.055C100.586 161.789 101.888 162.405 102.857 162.829C103.392 163.023 103.917 163.245 104.429 163.495Z" fill="#455A64"/>
<path d="M106.97 139.38C107.015 139.38 106.938 140.452 106.848 142.176C106.758 143.901 106.681 146.282 106.722 148.93C106.763 151.577 106.916 153.941 107.06 155.656C107.204 157.372 107.312 158.434 107.267 158.443C107.193 158.206 107.144 157.961 107.118 157.714C107.037 157.237 106.947 156.548 106.848 155.688C106.65 153.972 106.465 151.582 106.425 148.934C106.384 146.287 106.492 143.892 106.636 142.181C106.708 141.316 106.781 140.623 106.844 140.146C106.86 139.887 106.902 139.63 106.97 139.38Z" fill="#455A64"/>
<path d="M109.588 143.946C109.588 143.973 109.489 144.04 109.345 144.207C109.143 144.45 109.015 144.745 108.975 145.058C108.942 145.281 108.957 145.51 109.019 145.727C109.081 145.944 109.189 146.146 109.336 146.318C109.537 146.497 109.782 146.618 110.046 146.668C110.31 146.718 110.583 146.696 110.835 146.603C111.088 146.511 111.31 146.352 111.479 146.143C111.648 145.934 111.758 145.684 111.796 145.418C111.794 145.191 111.744 144.968 111.649 144.762C111.554 144.557 111.417 144.373 111.246 144.225C111.012 144.013 110.723 143.873 110.413 143.82C110.192 143.788 110.061 143.82 110.057 143.784C110.052 143.748 110.178 143.707 110.422 143.703C110.772 143.717 111.108 143.843 111.381 144.063C111.59 144.222 111.76 144.426 111.879 144.66C111.998 144.894 112.064 145.151 112.071 145.413C112.04 145.739 111.918 146.049 111.719 146.309C111.519 146.568 111.251 146.766 110.944 146.88C110.637 146.994 110.305 147.019 109.984 146.952C109.664 146.886 109.369 146.73 109.133 146.503C108.965 146.299 108.845 146.06 108.782 145.804C108.718 145.547 108.714 145.28 108.768 145.022C108.829 144.676 109.002 144.36 109.259 144.121C109.349 144.032 109.463 143.97 109.588 143.946Z" fill="#455A64"/>
<path d="M114.593 176.89C114.593 176.89 141.311 180.942 142.392 181.189C144.014 181.549 144.437 187.286 142 187.493C140.851 187.587 122.221 190.563 119.837 190.698C117.454 190.833 109.988 188.897 109.988 188.897L114.593 176.89Z" fill="#455A64"/>
<path d="M126.555 185.444C126.691 185.444 126.7 184.057 127.362 182.531C128.024 181.005 129.002 180.028 128.907 179.938C128.813 179.848 127.655 180.721 126.961 182.36C126.267 183.999 126.438 185.48 126.555 185.444Z" fill="#263238"/>
<path d="M123.704 184.544C123.834 184.544 123.951 183.296 124.478 181.865C125.006 180.433 125.704 179.393 125.6 179.316C125.497 179.24 124.609 180.217 124.068 181.716C123.528 183.215 123.595 184.566 123.704 184.544Z" fill="#263238"/>
<path d="M121.095 184.183C121.226 184.161 120.969 182.882 121.374 181.383C121.78 179.884 122.595 178.88 122.492 178.799C122.388 178.718 121.365 179.641 120.951 181.27C120.536 182.9 120.996 184.233 121.095 184.183Z" fill="#263238"/>
<path d="M121.149 180.793C121.198 180.793 121.338 180.05 121.198 178.835C121.106 178.125 120.932 177.429 120.68 176.759C120.533 176.362 120.357 175.977 120.153 175.606C120.044 175.371 119.874 175.169 119.662 175.021C119.518 174.934 119.348 174.902 119.183 174.93C119.017 174.958 118.867 175.045 118.761 175.174C118.584 175.391 118.492 175.665 118.504 175.944C118.506 176.174 118.523 176.404 118.553 176.633C118.61 177.058 118.714 177.474 118.864 177.876C119.121 178.547 119.468 179.18 119.896 179.758C120.254 180.311 120.712 180.792 121.248 181.176C121.302 181.126 120.797 180.577 120.153 179.582C119.779 179.009 119.476 178.392 119.252 177.745C119.124 177.366 119.035 176.975 118.986 176.579C118.95 176.178 118.887 175.678 119.094 175.467C119.131 175.414 119.186 175.377 119.249 175.364C119.312 175.351 119.377 175.362 119.432 175.395C119.579 175.503 119.695 175.647 119.77 175.813C119.97 176.166 120.146 176.531 120.297 176.908C120.559 177.545 120.755 178.207 120.883 178.884C121.113 180.041 121.081 180.789 121.149 180.793Z" fill="#263238"/>
<path d="M121.09 180.532C121.09 180.482 120.446 180.343 119.392 180.464C118.774 180.538 118.169 180.69 117.589 180.915C117.23 181.039 116.891 181.213 116.58 181.432C116.378 181.563 116.224 181.756 116.143 181.982C116.061 182.208 116.057 182.455 116.13 182.684C116.216 182.899 116.358 183.087 116.541 183.23C116.723 183.372 116.941 183.463 117.17 183.495C117.564 183.544 117.963 183.494 118.333 183.35C118.927 183.124 119.466 182.774 119.914 182.324C120.346 181.952 120.705 181.503 120.973 181C120.919 180.951 120.482 181.45 119.707 182.094C119.266 182.481 118.755 182.779 118.202 182.972C117.895 183.081 117.566 183.115 117.243 183.071C117.088 183.053 116.942 182.993 116.818 182.899C116.695 182.805 116.599 182.679 116.54 182.536C116.497 182.392 116.503 182.239 116.557 182.1C116.611 181.961 116.709 181.843 116.837 181.766C117.117 181.57 117.419 181.41 117.738 181.288C118.288 181.06 118.861 180.888 119.446 180.775C120.441 180.577 121.086 180.604 121.09 180.532Z" fill="#263238"/>
<path d="M130.556 185.259C130.682 185.228 130.421 184.138 130.786 182.869C131.151 181.599 131.903 180.784 131.809 180.694C131.714 180.604 130.745 181.333 130.362 182.752C129.979 184.17 130.457 185.318 130.556 185.259Z" fill="#263238"/>
<path d="M112.651 188.596C112.991 188.75 113.346 188.867 113.71 188.947C114.691 189.196 115.687 189.379 116.693 189.496C120.019 189.816 123.371 189.732 126.677 189.249C130.547 188.74 134.021 188.145 136.54 187.745L139.518 187.227C139.886 187.181 140.248 187.098 140.599 186.979C140.228 186.967 139.856 186.994 139.491 187.06L136.495 187.439L126.623 188.816C123.341 189.291 120.019 189.417 116.711 189.19C114.192 188.987 112.674 188.528 112.651 188.596Z" fill="#263238"/>
<path d="M111.957 189.289C112.002 189.348 112.66 188.839 113.791 188.182C115.229 187.279 116.891 186.799 118.589 186.795C120.572 186.862 122.108 188.006 123.117 188.807C123.644 189.294 124.202 189.746 124.789 190.158C124.372 189.568 123.878 189.037 123.32 188.578C122.738 188.042 122.097 187.574 121.41 187.182C120.553 186.69 119.59 186.412 118.603 186.372C116.828 186.372 115.097 186.92 113.647 187.943C113.017 188.302 112.448 188.756 111.957 189.289Z" fill="#263238"/>
<path d="M129.898 109.84C129.794 110.497 129.447 128.3 130.511 129.916C132.182 132.483 137.571 137.075 140.923 135.819C146.361 133.779 147.591 122.285 147.492 124.419L143.189 88.0981H134.904L134.214 101.124L131.799 102.6C131.635 104.115 131.326 105.611 130.876 107.067L129.898 109.84Z" fill="#FFBE9D"/>
<path d="M134.904 88.0982C134.904 88.0982 131.597 84.8294 131.597 84.1045C131.597 83.3797 130.304 82.9745 130.304 82.9745L128.205 81.9299C128.205 81.9299 126.853 80.6377 127.159 79.9128C127.333 79.4923 127.653 79.1486 128.061 78.9448C128.061 78.9448 128.164 77.1709 129.484 76.6936C129.484 76.6936 128.245 75.3429 129.484 74.3569C130.723 73.3709 131.021 73.7896 131.021 73.7896C131.021 73.7896 130.886 72.7405 131.611 72.664C132.336 72.5875 137.527 71.2908 137.527 71.2908C138.27 71.6639 138.966 72.125 139.599 72.664C140.243 73.3078 140.568 73.7086 140.568 73.7086C141.137 72.9844 141.575 72.1661 141.861 71.2908C142.181 70.0796 142.667 66.4507 146.299 66.6128V67.5133C145.585 68.5887 145.09 69.7944 144.844 71.0612C144.361 73.3123 143.492 78.3145 143.492 78.3145L143.222 88.1207L134.904 88.0982Z" fill="#FFBE9D"/>
<path d="M131.714 124.329C131.681 124.209 131.657 124.087 131.642 123.964C131.606 123.721 131.539 123.37 131.503 122.906C131.37 121.603 131.35 120.291 131.444 118.984C131.588 117.048 131.848 115.122 132.224 113.217C132.616 111.065 133.147 108.715 133.544 106.229C134.319 101.245 134.418 96.6661 134.544 93.3614C134.603 91.727 134.652 90.3943 134.684 89.4488L134.738 88.3818C134.737 88.2578 134.749 88.1341 134.774 88.0126C134.78 88.137 134.78 88.2618 134.774 88.3863C134.774 88.6519 134.774 89.0031 134.774 89.4488C134.774 90.3988 134.738 91.7315 134.711 93.3659C134.68 97.6818 134.364 101.991 133.764 106.265C133.363 108.764 132.823 111.11 132.413 113.257C132.029 115.152 131.754 117.067 131.588 118.993C131.487 120.293 131.487 121.598 131.588 122.897C131.611 123.347 131.665 123.716 131.687 123.96C131.708 124.082 131.717 124.205 131.714 124.329Z" fill="#EB996E"/>
<path d="M137.494 73.2538C137.494 73.2853 137.134 73.2763 136.557 73.3528C135.981 73.4294 135.179 73.5104 134.305 73.5915C133.229 73.7344 132.145 73.7991 131.061 73.7851C132.115 73.5696 133.184 73.4326 134.259 73.3754C135.161 73.2943 135.949 73.2358 136.512 73.2043C136.839 73.1435 137.175 73.1605 137.494 73.2538Z" fill="#EB996E"/>
<path d="M135.972 77.1259C135.659 77.1459 135.345 77.1353 135.035 77.0944C134.462 77.0583 133.683 77.0448 132.782 77.0223C132.028 77.0162 131.275 76.9606 130.529 76.8557C130.218 76.8286 129.914 76.7511 129.628 76.6261C129.94 76.6202 130.252 76.6413 130.561 76.6891C131.133 76.7387 131.912 76.7702 132.813 76.7882C133.714 76.8062 134.498 76.8512 135.066 76.9278C135.376 76.9489 135.681 77.0156 135.972 77.1259Z" fill="#EB996E"/>
<path d="M134.778 80.255C134.456 80.2565 134.135 80.2187 133.823 80.1424C133.237 80.0434 132.435 79.8903 131.547 79.6922C130.66 79.4941 129.862 79.332 129.295 79.1924C128.977 79.1388 128.667 79.0466 128.371 78.9178C128.694 78.916 129.017 78.9538 129.331 79.0303C129.912 79.1294 130.718 79.2825 131.584 79.4806C132.449 79.6787 133.264 79.8408 133.836 79.9849C134.16 80.0356 134.476 80.1263 134.778 80.255Z" fill="#EB996E"/>
</g>
<defs>
<clipPath id="clip0_202_7298">
<rect width="202" height="191" fill="white"/>
</clipPath>
</defs>
</svg>
