<svg width="101" height="100" viewBox="0 0 101 100" fill="none" xmlns="http://www.w3.org/2000/svg">
<g clip-path="url(#clip0_134_2731)">
<path d="M100.167 0H0.166748V100H100.167V0Z" fill="white"/>
<path d="M83.0066 68.8147L83.9566 69.3897C84.2475 69.5662 84.5813 69.6595 84.9216 69.6595C85.2619 69.6595 85.5957 69.5662 85.8866 69.3897L86.8366 68.8147L86.2603 69.7647C86.0838 70.0556 85.9905 70.3894 85.9905 70.7297C85.9905 71.07 86.0838 71.4038 86.2603 71.6947L86.8366 72.6447L85.8866 72.0684C85.5957 71.8919 85.2619 71.7986 84.9216 71.7986C84.5813 71.7986 84.2475 71.8919 83.9566 72.0684L83.0066 72.6447L83.5816 71.6947C83.7581 71.4038 83.8514 71.07 83.8514 70.7297C83.8514 70.3894 83.7581 70.0556 83.5816 69.7647L83.0066 68.8147Z" fill="#94E3FF"/>
<path d="M83.007 72.8947C82.9626 72.8948 82.919 72.883 82.8807 72.8607C82.8424 72.8383 82.8107 72.8061 82.7889 72.7675C82.7671 72.7288 82.756 72.685 82.7567 72.6407C82.7574 72.5963 82.77 72.5529 82.793 72.515L83.3692 71.565C83.5225 71.3133 83.6036 71.0244 83.6036 70.7297C83.6036 70.4351 83.5225 70.1461 83.3692 69.8945L82.793 68.9445C82.7639 68.8966 82.7517 68.8404 82.7584 68.7848C82.7651 68.7292 82.7902 68.6774 82.8298 68.6378C82.8694 68.5982 82.9212 68.573 82.9768 68.5664C83.0324 68.5597 83.0886 68.5719 83.1365 68.601L84.0865 69.1772C84.3381 69.3305 84.6271 69.4116 84.9217 69.4116C85.2164 69.4116 85.5054 69.3305 85.757 69.1772L86.707 68.601C86.7548 68.5719 86.8111 68.5597 86.8667 68.5664C86.9223 68.573 86.9741 68.5982 87.0137 68.6378C87.0533 68.6774 87.0784 68.7292 87.0851 68.7848C87.0918 68.8404 87.0796 68.8966 87.0505 68.9445L86.4742 69.8945C86.3209 70.1461 86.2399 70.4351 86.2399 70.7297C86.2399 71.0244 86.3209 71.3133 86.4742 71.565L87.0505 72.515C87.0796 72.5628 87.0918 72.6191 87.0851 72.6747C87.0784 72.7303 87.0533 72.782 87.0137 72.8216C86.9741 72.8612 86.9223 72.8864 86.8667 72.8931C86.8111 72.8998 86.7548 72.8876 86.707 72.8585L85.757 72.2822C85.5054 72.1289 85.2164 72.0478 84.9217 72.0478C84.6271 72.0478 84.3381 72.1289 84.0865 72.2822L83.1365 72.8585C83.0974 72.8822 83.0527 72.8947 83.007 72.8947ZM83.75 69.558L83.7967 69.6352C83.9976 69.965 84.1039 70.3437 84.1039 70.7298C84.1039 71.116 83.9976 71.4947 83.7967 71.8245L83.75 71.9015L83.8272 71.8547C84.157 71.6538 84.5357 71.5476 84.9219 71.5476C85.308 71.5476 85.6867 71.6538 86.0165 71.8547L86.0935 71.9015L86.0467 71.8245C85.8459 71.4947 85.7396 71.116 85.7396 70.7298C85.7396 70.3437 85.8459 69.965 86.0467 69.6352L86.0935 69.558L86.0165 69.6047C85.6867 69.8056 85.308 69.9118 84.9219 69.9118C84.5357 69.9118 84.157 69.8056 83.8272 69.6047L83.75 69.558Z" fill="#3B5C91"/>
<path d="M84.9207 15.4962L85.9997 15.232C86.3302 15.151 86.6322 14.981 86.8728 14.7404C87.1134 14.4997 87.2835 14.1977 87.3644 13.8672L87.6287 12.7882L87.8932 13.8672C87.9741 14.1977 88.1441 14.4997 88.3846 14.7403C88.6252 14.9809 88.9272 15.151 89.2577 15.232L90.3369 15.4962L89.2577 15.7605C88.9272 15.8414 88.6253 16.0114 88.3847 16.252C88.1441 16.4926 87.9741 16.7945 87.8932 17.125L87.6287 18.204L87.3644 17.125C87.2835 16.7944 87.1134 16.4924 86.8728 16.2518C86.6322 16.0112 86.3302 15.8411 85.9997 15.7602L84.9207 15.4962Z" fill="#FFD385"/>
<path d="M87.6296 18.4542C87.5736 18.4542 87.5193 18.4354 87.4753 18.4009C87.4313 18.3663 87.4002 18.318 87.3868 18.2637L87.1226 17.1847C87.0531 16.8984 86.9061 16.6368 86.6979 16.4285C86.4896 16.2201 86.2281 16.0731 85.9418 16.0035L84.8628 15.739C84.8086 15.7256 84.7603 15.6944 84.7258 15.6504C84.6913 15.6064 84.6726 15.5521 84.6726 15.4962C84.6726 15.4403 84.6913 15.386 84.7258 15.342C84.7603 15.298 84.8086 15.2668 84.8628 15.2535L85.9418 14.9892C86.2282 14.9196 86.4899 14.7726 86.6983 14.5642C86.9067 14.3558 87.0538 14.0941 87.1233 13.8077L87.3876 12.7287C87.4009 12.6743 87.432 12.6259 87.4761 12.5913C87.5201 12.5568 87.5745 12.538 87.6305 12.538C87.6865 12.538 87.7408 12.5568 87.7849 12.5913C87.8289 12.6259 87.8601 12.6743 87.8733 12.7287L88.1376 13.8077C88.2071 14.0941 88.3541 14.3558 88.5625 14.5642C88.7708 14.7726 89.0325 14.9196 89.3188 14.9892L90.3978 15.2535C90.4521 15.2668 90.5004 15.298 90.5348 15.342C90.5693 15.386 90.5881 15.4403 90.5881 15.4962C90.5881 15.5521 90.5693 15.6064 90.5348 15.6504C90.5004 15.6944 90.4521 15.7256 90.3978 15.739L89.3188 16.0035C89.0325 16.073 88.7708 16.22 88.5625 16.4283C88.3541 16.6367 88.2071 16.8984 88.1376 17.1847L87.8733 18.2637C87.86 18.3182 87.8287 18.3666 87.7845 18.4012C87.7403 18.4357 87.6857 18.4544 87.6296 18.4542ZM85.9726 15.4962L86.0601 15.5177C86.4353 15.6089 86.7782 15.8015 87.0513 16.0745C87.3243 16.3476 87.5169 16.6905 87.6081 17.0657L87.6296 17.1535L87.6511 17.0657C87.7423 16.6905 87.9349 16.3476 88.208 16.0746C88.481 15.8015 88.8239 15.6089 89.1991 15.5177L89.2868 15.4962L89.1991 15.4747C88.8239 15.3835 88.481 15.1909 88.2079 14.9179C87.9349 14.6448 87.7423 14.3019 87.6511 13.9267L87.6296 13.839L87.6081 13.9267C87.517 14.302 87.3244 14.645 87.0514 14.9181C86.7783 15.1912 86.4354 15.3838 86.0601 15.475L85.9726 15.4962Z" fill="#3B5C91"/>
<path d="M8.8171 31.2603L9.69735 34.5455C9.73113 34.6715 9.79746 34.7863 9.88968 34.8785C9.9819 34.9707 10.0968 35.0371 10.2227 35.0708C10.3487 35.1046 10.4813 35.1045 10.6073 35.0708C10.7333 35.037 10.8481 34.9707 10.9404 34.8785L13.3454 32.4735C13.4376 32.3813 13.5039 32.2664 13.5376 32.1405C13.5714 32.0145 13.5714 31.8819 13.5376 31.7559C13.5039 31.6299 13.4376 31.5151 13.3454 31.4229C13.2532 31.3306 13.1383 31.2643 13.0124 31.2305L9.7266 30.35C9.60063 30.3164 9.46801 30.3164 9.34207 30.3502C9.21614 30.3841 9.10132 30.4504 9.00915 30.5427C8.91698 30.6349 8.85072 30.7498 8.81701 30.8757C8.7833 31.0017 8.78333 31.1343 8.8171 31.2603Z" fill="#FFD385"/>
<path d="M10.4197 35.347C10.3314 35.3469 10.2434 35.3352 10.1582 35.3123C9.98933 35.2681 9.83531 35.1797 9.71189 35.0563C9.58848 34.9329 9.50014 34.7789 9.45592 34.61L8.57567 31.325C8.53047 31.1566 8.53044 30.9792 8.57558 30.8107C8.62072 30.6422 8.70944 30.4886 8.83281 30.3653C8.95618 30.242 9.10984 30.1534 9.27835 30.1084C9.44685 30.0633 9.62424 30.0635 9.79267 30.1088L13.0779 30.989C13.2463 31.0342 13.3998 31.1228 13.523 31.2461C13.6462 31.3693 13.7348 31.5229 13.7799 31.6912C13.825 31.8596 13.825 32.0368 13.7799 32.2052C13.7348 32.3735 13.6462 32.527 13.5229 32.6503L11.1179 35.0553C11.0266 35.1477 10.9179 35.221 10.798 35.2711C10.6782 35.3212 10.5496 35.347 10.4197 35.347ZM9.05867 31.1955L9.93892 34.4808C9.9613 34.5644 10.0053 34.6407 10.0665 34.7019C10.1277 34.7631 10.204 34.8071 10.2876 34.8295C10.3712 34.8519 10.4593 34.8519 10.5429 34.8295C10.6265 34.8071 10.7027 34.763 10.7639 34.7018L13.1689 32.2968C13.2302 32.2356 13.2742 32.1594 13.2966 32.0757C13.3191 31.9921 13.3191 31.9041 13.2967 31.8205C13.2743 31.7368 13.2303 31.6606 13.169 31.5994C13.1078 31.5382 13.0315 31.4942 12.9479 31.4718L9.66267 30.5915C9.57908 30.5691 9.49104 30.569 9.40743 30.5914C9.32381 30.6138 9.24756 30.6578 9.18636 30.719C9.12515 30.7802 9.08115 30.8564 9.05878 30.94C9.03641 31.0237 9.03646 31.1117 9.05892 31.1953L9.05867 31.1955Z" fill="#3B5C91"/>
<path d="M56.6218 91.0612L57.1796 87.7062C57.201 87.5775 57.1881 87.4455 57.1423 87.3234C57.0965 87.2012 57.0193 87.0933 56.9186 87.0105C56.8178 86.9276 56.6971 86.8727 56.5684 86.8514C56.4397 86.83 56.3077 86.8429 56.1856 86.8887L53.0013 88.0832C52.8792 88.129 52.7713 88.2061 52.6884 88.3069C52.6056 88.4076 52.5507 88.5284 52.5293 88.657C52.508 88.7857 52.5208 88.9177 52.5666 89.0398C52.6124 89.1619 52.6896 89.2698 52.7903 89.3527L55.4161 91.5132C55.5168 91.5962 55.6376 91.6513 55.7664 91.6728C55.8952 91.6943 56.0273 91.6815 56.1496 91.6357C56.2718 91.5898 56.3798 91.5126 56.4627 91.4118C56.5457 91.3109 56.6005 91.19 56.6218 91.0612Z" fill="#FF9494"/>
<path d="M55.8866 91.9338C55.6573 91.9333 55.4354 91.8529 55.2591 91.7063L52.6324 89.5458C52.4978 89.4351 52.3947 89.2909 52.3335 89.1277C52.2723 88.9645 52.2551 88.7881 52.2837 88.6161C52.3123 88.4442 52.3856 88.2829 52.4963 88.1482C52.607 88.0136 52.7512 87.9105 52.9144 87.8493L56.0989 86.6545C56.2621 86.5934 56.4385 86.5763 56.6104 86.6049C56.7823 86.6336 56.9437 86.7069 57.0783 86.8176C57.2129 86.9284 57.316 87.0726 57.3772 87.2358C57.4384 87.3989 57.4556 87.5754 57.4271 87.7473L56.8696 91.1023C56.842 91.2746 56.769 91.4364 56.6581 91.5711C56.5473 91.7059 56.4026 91.8087 56.2389 91.869C56.1263 91.9117 56.007 91.9336 55.8866 91.9338ZM56.4494 87.0908C56.3896 87.0909 56.3303 87.1017 56.2744 87.1228L53.0901 88.3173C53.009 88.3477 52.9374 88.3989 52.8824 88.4657C52.8274 88.5326 52.791 88.6127 52.7768 88.6981C52.7626 88.7835 52.7712 88.8711 52.8016 88.9522C52.832 89.0332 52.8832 89.1048 52.9501 89.1598L55.5769 91.32C55.6437 91.3751 55.7239 91.4117 55.8093 91.4259C55.8948 91.4402 55.9825 91.4317 56.0636 91.4013C56.1447 91.3708 56.2163 91.3196 56.2713 91.2527C56.3263 91.1857 56.3627 91.1055 56.3769 91.02L56.9344 87.665C56.9461 87.5945 56.9424 87.5223 56.9235 87.4533C56.9046 87.3843 56.871 87.3203 56.8249 87.2656C56.7788 87.2109 56.7214 87.1669 56.6567 87.1366C56.5919 87.1063 56.5214 87.0904 56.4499 87.09L56.4494 87.0908Z" fill="#3B5C91"/>
<path d="M11.1935 79.0232L12.1525 78.0644C12.2577 77.9592 12.3169 77.8166 12.3169 77.6678C12.3169 77.519 12.2578 77.3763 12.1526 77.2711C12.0474 77.1658 11.9048 77.1067 11.756 77.1067C11.6072 77.1067 11.4645 77.1657 11.3593 77.2709L10.4003 78.2299L9.44176 77.2709C9.33653 77.1657 9.19383 77.1067 9.04504 77.1067C8.89626 77.1067 8.75357 77.1658 8.64838 77.2711C8.54319 77.3763 8.48411 77.519 8.48413 77.6678C8.48415 77.8166 8.54328 77.9592 8.64851 78.0644L9.60751 79.0232L8.64851 79.9822C8.54865 80.0884 8.49409 80.2294 8.49637 80.3752C8.49866 80.521 8.55761 80.6601 8.66074 80.7632C8.76387 80.8663 8.90308 80.9251 9.04887 80.9273C9.19466 80.9295 9.33557 80.8749 9.44176 80.7749L10.4008 79.8162L11.3593 80.7749C11.4651 80.8771 11.6068 80.9336 11.7538 80.9323C11.9009 80.931 12.0416 80.872 12.1456 80.768C12.2496 80.664 12.3086 80.5233 12.3099 80.3763C12.3112 80.2292 12.2546 80.0875 12.1525 79.9817L11.1935 79.0232Z" fill="#FF9494"/>
<path d="M44.4189 11.2562H43.2044V10.0417C43.2015 9.91041 43.1473 9.78548 43.0534 9.69365C42.9595 9.60183 42.8334 9.55042 42.7021 9.55042C42.5707 9.55042 42.4446 9.60183 42.3507 9.69365C42.2568 9.78548 42.2026 9.91041 42.1997 10.0417V11.2562H40.9852C40.8539 11.2591 40.729 11.3134 40.6371 11.4072C40.5453 11.5011 40.4939 11.6273 40.4939 11.7586C40.4939 11.8899 40.5453 12.016 40.6371 12.1099C40.729 12.2038 40.8539 12.258 40.9852 12.261H42.1997V13.475C42.1982 13.5419 42.2101 13.6084 42.2347 13.6707C42.2592 13.7329 42.296 13.7896 42.3428 13.8375C42.3896 13.8854 42.4455 13.9234 42.5072 13.9493C42.5689 13.9753 42.6351 13.9887 42.7021 13.9887C42.769 13.9887 42.8353 13.9753 42.8969 13.9493C42.9586 13.9234 43.0145 13.8854 43.0613 13.8375C43.1081 13.7896 43.1449 13.7329 43.1695 13.6707C43.194 13.6084 43.2059 13.5419 43.2044 13.475V12.261H44.4189C44.4859 12.2625 44.5524 12.2506 44.6147 12.226C44.6769 12.2014 44.7336 12.1646 44.7815 12.1178C44.8293 12.071 44.8674 12.0152 44.8933 11.9535C44.9193 11.8918 44.9326 11.8255 44.9326 11.7586C44.9326 11.6916 44.9193 11.6254 44.8933 11.5637C44.8674 11.502 44.8293 11.4461 44.7815 11.3993C44.7336 11.3525 44.6769 11.3158 44.6147 11.2912C44.5524 11.2666 44.4859 11.2547 44.4189 11.2562Z" fill="#FF9494"/>
<path d="M53.6549 80.9091C49.9549 80.9091 46.3624 80.1841 42.9811 78.7539C36.4085 75.9676 31.1762 70.7357 28.3894 64.1633C26.9591 60.7821 26.2341 57.1908 26.2341 53.4896C26.2341 49.7883 26.9591 46.1971 28.3894 42.8158C31.1759 36.243 36.4083 31.0106 42.9811 28.2241C46.3624 26.7938 49.9536 26.0688 53.6561 26.0688C57.3586 26.0688 60.9486 26.7938 64.3299 28.2241C70.9028 31.0106 76.1351 36.243 78.9216 42.8158C80.3519 46.1971 81.0769 49.7883 81.0769 53.4908C81.0769 57.1933 80.3519 60.7834 78.9216 64.1646C76.1346 70.7365 70.9023 75.9679 64.3299 78.7539C60.9474 80.1841 57.3561 80.9091 53.6549 80.9091Z" fill="#E5F5FA"/>
<path d="M50.1672 23.0417C53.8062 23.0417 57.3367 23.7544 60.6609 25.1604C67.1229 27.9001 72.267 33.0442 75.0067 39.5062C76.4127 42.8312 77.1254 46.361 77.1254 50C77.1254 53.639 76.4127 57.1695 75.0067 60.4937C72.267 66.9557 67.1229 72.0998 60.6609 74.8395C57.3359 76.2455 53.8062 76.9582 50.1672 76.9582C46.5282 76.9582 42.9977 76.2455 39.6734 74.8395C33.2114 72.0998 28.0673 66.9557 25.3277 60.4937C23.9217 57.1687 23.2089 53.639 23.2089 50C23.2089 46.361 23.9217 42.8305 25.3277 39.5062C28.0673 33.0442 33.2114 27.9001 39.6734 25.1604C42.9984 23.7544 46.5282 23.0417 50.1672 23.0417ZM50.1672 22.1167C46.4037 22.1167 42.7519 22.8542 39.3132 24.3085C32.6297 27.142 27.3092 32.4624 24.4757 39.1459C23.0214 42.5847 22.2839 46.2365 22.2839 50C22.2839 53.7635 23.0214 57.4152 24.4757 60.854C27.3092 67.5375 32.6297 72.8579 39.3132 75.6914C42.7519 77.1457 46.4037 77.8832 50.1672 77.8832C53.9307 77.8832 57.5824 77.1457 61.0212 75.6912C67.7048 72.8579 73.0253 67.5375 75.8587 60.854C77.3129 57.4152 78.0504 53.7635 78.0504 50C78.0504 46.2365 77.3129 42.5847 75.8587 39.1459C73.0252 32.4624 67.7047 27.142 61.0212 24.3085C57.5824 22.8542 53.9307 22.1167 50.1672 22.1167Z" fill="#3B5C91"/>
<path d="M49.5063 69.7577C49.3441 69.7572 49.1841 69.7197 49.0386 69.6482C48.893 69.5766 48.7656 69.4729 48.666 69.3449L39.1854 57.0615C39.0473 56.8832 38.9697 56.6654 38.964 56.4399C38.9582 56.2144 39.0246 55.993 39.1535 55.8078C39.2535 55.6657 39.3866 55.5499 39.5412 55.4704C39.6959 55.3909 39.8675 55.3502 40.0413 55.3516H43.2002V39.3999C43.2005 39.1185 43.3125 38.8487 43.5115 38.6497C43.7104 38.4508 43.9802 38.3388 44.2616 38.3385H49.1017C49.3441 38.3398 49.5786 38.4251 49.7653 38.5798C49.9519 38.7346 50.0791 38.9492 50.1252 39.1872L50.1273 39.1975C50.1597 39.3512 50.1573 39.5102 50.1202 39.6628C50.0832 39.8154 50.0125 39.9578 49.9134 40.0796C49.8164 40.199 49.694 40.2953 49.5551 40.3613C49.4161 40.4274 49.2642 40.4615 49.1103 40.4613H45.3232V56.413C45.3229 56.6944 45.2109 56.9642 45.0119 57.1631C44.8129 57.3621 44.543 57.474 44.2616 57.4744H42.1857L49.5063 66.9591L56.827 57.4744H54.751C54.4696 57.474 54.1998 57.3621 54.0008 57.1631C53.8018 56.9641 53.6899 56.6944 53.6896 56.413V52.395C53.6902 52.1956 53.7479 52.0005 53.8557 51.8327C53.9635 51.6649 54.117 51.5314 54.2982 51.4479L54.3225 51.4366C54.481 51.3611 54.656 51.3269 54.8313 51.3371C55.0066 51.3473 55.1765 51.4017 55.3251 51.4952C55.4738 51.5887 55.5964 51.7182 55.6816 51.8717C55.7667 52.0253 55.8117 52.1978 55.8124 52.3734V55.3516H58.9871C59.1852 55.3519 59.3793 55.4077 59.5474 55.5126C59.7154 55.6174 59.8508 55.7672 59.9382 55.945C60.0256 56.1227 60.0616 56.3214 60.042 56.5186C60.0224 56.7157 59.9481 56.9034 59.8274 57.0605L50.3466 69.3439C50.2471 69.4721 50.1198 69.5761 49.9742 69.6478C49.8286 69.7195 49.6686 69.7571 49.5063 69.7577Z" fill="#FF9494"/>
<path d="M48.1441 37.7618C48.2984 37.7625 48.4476 37.8168 48.5662 37.9156C48.6847 38.0143 48.7652 38.1513 48.7937 38.3029C48.7937 38.3077 48.7956 38.3124 48.7966 38.3169C48.8825 38.7316 48.5755 39.1228 48.1519 39.1228H43.9847V55.4554C43.9847 55.6359 43.9129 55.809 43.7853 55.9366C43.6576 56.0642 43.4845 56.1359 43.304 56.1359H40.4529L48.5487 66.625L56.6445 56.1359H53.7934C53.704 56.1359 53.6155 56.1183 53.533 56.0841C53.4504 56.0499 53.3754 55.9998 53.3122 55.9366C53.249 55.8734 53.1989 55.7984 53.1647 55.7158C53.1305 55.6332 53.1129 55.5447 53.1129 55.4554V51.4375C53.1131 51.3107 53.1497 51.1867 53.2183 51.0802C53.2869 50.9737 53.3847 50.8891 53.5 50.8364L53.5271 50.8237C53.6168 50.781 53.7147 50.7588 53.814 50.7586C53.9004 50.7584 53.9861 50.7752 54.066 50.8081C54.146 50.841 54.2186 50.8894 54.2798 50.9505C54.341 51.0115 54.3896 51.0841 54.4227 51.1639C54.4558 51.2438 54.4729 51.3294 54.4728 51.4158V54.7749H58.0285C58.5925 54.7749 58.9118 55.4245 58.5671 55.8711L49.088 68.1544C49.0245 68.237 48.9429 68.3039 48.8495 68.3499C48.7561 68.3959 48.6533 68.4198 48.5492 68.4198C48.4451 68.4198 48.3423 68.3959 48.2489 68.3499C48.1555 68.3039 48.0739 68.237 48.0105 68.1544L38.5294 55.8711C38.441 55.7566 38.3913 55.617 38.3876 55.4723C38.3839 55.3277 38.4263 55.1857 38.5088 55.0668C38.574 54.9755 38.6602 54.9012 38.7603 54.8504C38.8603 54.7996 38.9711 54.7736 39.0833 54.7749H42.6227V38.4423C42.6227 38.262 42.6943 38.0891 42.8217 37.9615C42.9491 37.8339 43.1219 37.7621 43.3022 37.7618H48.1423M48.1423 37H43.304C42.9218 37.0007 42.5555 37.1529 42.2853 37.4233C42.0151 37.6937 41.8632 38.0601 41.8627 38.4423V54.0131H39.0837C38.8483 54.0117 38.616 54.0674 38.4069 54.1755C38.1977 54.2835 38.0178 54.4406 37.8827 54.6334C37.7076 54.8849 37.6174 55.1858 37.6252 55.4922C37.6331 55.7986 37.7386 56.0944 37.9264 56.3366L47.407 68.62C47.5417 68.7946 47.7147 68.9359 47.9127 69.0332C48.1106 69.1305 48.3282 69.1811 48.5488 69.1811C48.7694 69.1811 48.987 69.1305 49.1849 69.0332C49.3829 68.9359 49.5559 68.7946 49.6906 68.62L59.1713 56.3366C59.3358 56.1232 59.4372 55.868 59.4641 55.5998C59.4911 55.3317 59.4423 55.0614 59.3235 54.8195C59.2046 54.5777 59.0204 54.3739 58.7918 54.2314C58.5631 54.0889 58.299 54.0132 58.0295 54.0131H55.2357V51.4158C55.2367 51.2249 55.1986 51.0358 55.124 50.8601C55.0493 50.6844 54.9396 50.5258 54.8015 50.394C54.5927 50.1936 54.328 50.0615 54.0425 50.0152C53.7569 49.9688 53.464 50.0105 53.2026 50.1345L53.1821 50.1442C52.9348 50.2582 52.7252 50.4405 52.578 50.6696C52.4309 50.8987 52.3523 51.1652 52.3515 51.4375V55.4554C52.3519 55.8378 52.5041 56.2043 52.7744 56.4747C53.0448 56.7451 53.4114 56.8972 53.7938 56.8977H55.0947L48.5491 65.3781L42.0038 56.8977H43.3044C43.6869 56.8973 44.0535 56.7452 44.3239 56.4748C44.5943 56.2044 44.7465 55.8378 44.747 55.4554V39.8846H48.1523C48.3629 39.8851 48.5709 39.8385 48.7612 39.7481C48.9514 39.6578 49.119 39.526 49.2516 39.3625C49.3866 39.1968 49.4828 39.0031 49.5332 38.7955C49.5836 38.5879 49.587 38.3716 49.543 38.1625L49.5418 38.1565C49.4785 37.8337 49.3067 37.5423 49.0548 37.3307C48.7994 37.1173 48.4773 37.0003 48.1445 37H48.1423Z" fill="#3B5C91"/>
<path d="M52.0391 53.5278C51.9052 53.5278 51.7768 53.4814 51.6821 53.3989C51.5874 53.3164 51.5342 53.2044 51.5342 53.0877V51.4371C51.1587 51.3588 50.7939 51.2457 50.4462 51.0995C49.5727 50.7253 48.9176 50.1372 48.4994 49.3514C48.1004 48.6016 47.8989 47.62 47.8989 46.4343C47.8989 46.3182 47.9516 46.2067 48.0454 46.1243C48.1392 46.0419 48.2666 45.9951 48.3998 45.9942L51.6657 45.9704C51.7321 45.9703 51.7977 45.9817 51.859 46.0038C51.9203 46.0259 51.976 46.0583 52.0229 46.0992C52.0698 46.1401 52.107 46.1886 52.1323 46.242C52.1577 46.2954 52.1708 46.3527 52.1707 46.4105C52.1707 46.9546 52.2895 47.3557 52.5138 47.5705C52.7289 47.7768 53.1228 47.8812 53.6843 47.8812C54.1431 47.8812 54.4758 47.7908 54.7013 47.6052C54.9197 47.4263 55.0242 47.1727 55.0242 46.8299V45.6642C55.0242 45.4194 54.953 45.2188 54.8058 45.0513C54.6293 44.8518 54.4046 44.6885 54.1477 44.5729C53.8276 44.4242 53.3794 44.2413 52.8154 44.0296L52.7939 44.021C52.7857 44.0174 52.7767 44.0141 52.7666 44.0105C52.7322 43.9986 52.6992 43.9867 52.6683 43.9722C52.653 43.9658 52.6372 43.9602 52.6211 43.9556C52.5632 43.9387 52.5067 43.9186 52.4519 43.8954C51.6147 43.5699 50.899 43.2383 50.3244 42.9097C49.7037 42.5557 49.1731 42.049 48.7473 41.405C48.3168 40.7536 48.0985 39.93 48.0985 38.9546V38.2545C48.0985 37.2669 48.3264 36.4057 48.7759 35.6944C49.234 34.9697 49.9071 34.4097 50.7762 34.0291C51.0207 33.9223 51.2741 33.8317 51.5342 33.7581V32.0214C51.5342 31.9047 51.5874 31.7927 51.6821 31.7102C51.7768 31.6277 51.9052 31.5813 52.0391 31.5813H55.4211C55.555 31.5813 55.6835 31.6277 55.7782 31.7102C55.8729 31.7927 55.9261 31.9047 55.9261 32.0214V33.6963C56.2432 33.7728 56.5505 33.8771 56.8435 34.0077C57.6667 34.3797 58.2836 34.9631 58.6772 35.7415C59.0503 36.479 59.2504 37.4408 59.2682 38.5982C59.2691 38.6561 59.257 38.7136 59.2324 38.7673C59.2079 38.8211 59.1714 38.8701 59.1251 38.9116C59.0788 38.953 59.0235 38.9861 58.9625 39.0089C58.9015 39.0318 58.8359 39.0439 58.7695 39.0445L55.5543 39.0795C55.4214 39.0795 55.2939 39.0339 55.1993 38.9525C55.1048 38.871 55.0509 38.7604 55.0493 38.6446C55.04 37.9547 54.8711 37.6345 54.7311 37.4872C54.5495 37.2969 54.246 37.2037 53.803 37.2037C53.36 37.2037 53.0253 37.2888 52.8051 37.4563C52.6757 37.5548 52.5035 37.733 52.5035 38.1384V39.0355C52.5035 39.3053 52.5771 39.5215 52.7289 39.6969C52.9079 39.9027 53.1362 40.072 53.3979 40.1931C53.7159 40.3449 54.1592 40.5276 54.7152 40.7363C54.7985 40.7635 54.8797 40.7953 54.9584 40.8314C54.9947 40.8483 55.0322 40.8632 55.0706 40.8762C55.1265 40.8899 55.1809 40.908 55.233 40.9304L55.3127 40.9651C56.1496 41.2744 56.8446 41.588 57.3777 41.8949C57.9563 42.2279 58.4477 42.7094 58.838 43.3249C59.2302 43.9434 59.4292 44.7387 59.4292 45.6875V46.819C59.4292 47.8051 59.2018 48.6713 58.7534 49.3935C58.2951 50.131 57.619 50.6996 56.7438 51.081C56.4805 51.1949 56.2073 51.2903 55.9266 51.3665V53.0872C55.9266 53.2039 55.8734 53.3159 55.7787 53.3984C55.684 53.481 55.5556 53.5273 55.4216 53.5273L52.0391 53.5278Z" fill="#FFD385"/>
<path d="M57.8862 41.9722C57.4558 41.2935 56.9096 40.7606 56.2624 40.3875C55.7064 40.0676 54.9893 39.7438 54.13 39.425L54.0929 39.4088L54.0656 39.3967C53.9943 39.3658 53.9202 39.3401 53.844 39.3198C53.8254 39.3132 53.8137 39.3079 53.8074 39.3051L53.8033 39.3032C53.7092 39.2594 53.612 39.2208 53.5123 39.1876C52.9749 38.9856 52.5493 38.81 52.2469 38.6658C52.0486 38.5745 51.8755 38.4466 51.7398 38.2909C51.6852 38.2291 51.6156 38.1213 51.6156 37.8943V36.9972C51.6156 36.7448 51.7059 36.676 51.7444 36.6465C51.9008 36.5276 52.1929 36.5026 52.4101 36.5026C52.5674 36.5026 52.8469 36.5188 52.9495 36.627C52.9814 36.6608 53.1428 36.8625 53.1515 37.5087C53.1547 37.7403 53.2625 37.9615 53.4515 38.1243C53.6406 38.2872 53.8957 38.3785 54.1614 38.3785H54.174L57.3818 38.3435C57.5146 38.3421 57.6457 38.3178 57.7677 38.2722C57.8897 38.2265 58.0002 38.1603 58.0929 38.0774C58.1855 37.9945 58.2585 37.8965 58.3076 37.789C58.3567 37.6815 58.3811 37.5666 58.3792 37.4509C58.359 36.2169 58.1518 35.2265 57.7454 34.4228C57.3043 33.5502 56.6099 32.8953 55.6818 32.4759C55.4736 32.3821 55.2582 32.3011 55.0371 32.2334V30.8802C55.0371 30.6468 54.9307 30.4229 54.7413 30.2578C54.5519 30.0927 54.295 30 54.0271 30H50.6455C50.3776 30 50.1207 30.0927 49.9313 30.2578C49.7419 30.4229 49.6355 30.6468 49.6355 30.8802V32.3077C49.4703 32.3644 49.3104 32.4267 49.1559 32.4944C48.1938 32.916 47.4483 33.5376 46.9403 34.3415C46.449 35.1185 46.2001 36.0513 46.2001 37.1133V37.8125C46.2001 38.8654 46.4411 39.7633 46.9163 40.4832C46.9791 40.5783 47.0442 40.6706 47.1115 40.7601C47.1309 40.786 47.1508 40.812 47.1707 40.8377C47.1816 40.8519 47.1928 40.866 47.204 40.88C47.2152 40.894 47.2294 40.9114 47.2422 40.9276C47.263 40.9536 47.284 40.9793 47.3053 41.0047C47.3386 41.0444 47.3724 41.0836 47.4074 41.1222C47.4083 41.1237 47.4095 41.1251 47.4109 41.1262C47.4456 41.1652 47.4808 41.2038 47.5171 41.2414L47.5638 41.289C47.6001 41.3265 47.6369 41.3634 47.6749 41.3996C47.6978 41.4217 47.7213 41.4436 47.7445 41.4655L47.7581 41.4783L47.7718 41.4912C47.8342 41.5486 47.8979 41.6041 47.9628 41.6577C48.1767 41.835 48.4082 41.9952 48.6548 42.1366C49.2496 42.477 49.9865 42.8189 50.845 43.1532C50.915 43.1824 50.9869 43.2079 51.0604 43.2295C51.0991 43.2462 51.1398 43.2619 51.1818 43.2771L51.2217 43.293C51.7731 43.5 52.2087 43.6775 52.5166 43.8207C52.7092 43.9068 52.8779 44.0286 53.0106 44.1776C53.0595 44.2337 53.1247 44.3305 53.1247 44.5237V45.6894C53.1247 45.8945 53.0756 46.0085 53.0284 46.0737C53.0251 46.0783 53.0218 46.0825 53.0186 46.0865C53.0104 46.0975 53.0012 46.1079 52.9913 46.1177C52.9861 46.1231 52.9806 46.1282 52.9746 46.1329C52.9694 46.1376 52.9651 46.1412 52.961 46.1445C52.9333 46.1671 52.9025 46.1866 52.8693 46.2026C52.8553 46.2095 52.842 46.2162 52.8256 46.2221C52.8179 46.2254 52.8103 46.2283 52.8024 46.2311C52.6749 46.2773 52.5038 46.3006 52.2909 46.3006C51.9008 46.3006 51.6027 46.2383 51.4941 46.1341C51.4441 46.0865 51.2823 45.8838 51.2823 45.27C51.2823 45.0476 51.1858 44.8334 51.012 44.6705C51.0028 44.6619 50.9932 44.6534 50.9848 44.645L50.9768 44.6384L50.9673 44.631C50.9438 44.6115 50.9195 44.5932 50.8941 44.5758C50.8816 44.5673 50.8687 44.5589 50.8556 44.5508C50.83 44.5349 50.8035 44.5201 50.7765 44.5066H50.7751C50.762 44.4999 50.7478 44.4937 50.7353 44.4876C50.7324 44.4861 50.7295 44.4849 50.7265 44.4837C50.7145 44.4785 50.7025 44.4733 50.6902 44.4685C50.6613 44.4569 50.6317 44.4466 50.6015 44.4376C50.5922 44.4347 50.5827 44.4319 50.5742 44.4295L50.5573 44.425C50.5428 44.4212 50.5284 44.4178 50.5139 44.4148L50.4912 44.4102C50.4667 44.4055 50.4421 44.4014 50.4173 44.3983L50.39 44.3955L50.3698 44.3936C50.3548 44.3922 50.3398 44.3912 50.3245 44.3905C50.3092 44.3898 50.2895 44.3905 50.2718 44.3905H50.2636L47.0018 44.4143C46.7353 44.4162 46.4805 44.5097 46.2929 44.6746C46.1053 44.8395 46 45.0623 46 45.2945C46 46.5623 46.2121 47.5772 46.6485 48.397C46.6592 48.4168 46.6698 48.4365 46.6808 48.4562C46.6917 48.476 46.7026 48.4953 46.7138 48.5145C46.7411 48.5604 46.7667 48.6059 46.7957 48.6504L46.8134 48.6784L46.8232 48.6934C46.8396 48.7194 46.8565 48.7451 46.8735 48.7705L46.8751 48.7731C46.8792 48.7793 46.8833 48.7857 46.8877 48.7919L46.8961 48.8038C46.9158 48.8328 46.936 48.8616 46.9567 48.8899L46.96 48.8947L46.9676 48.9052C46.9966 48.9449 47.0263 48.9844 47.0566 49.0229C47.0621 49.0301 47.0678 49.0372 47.0735 49.0441C47.0976 49.075 47.1226 49.1056 47.1486 49.1359C47.2158 49.2152 47.286 49.2924 47.3593 49.3674C47.397 49.4056 47.4353 49.4432 47.4742 49.4802C47.5136 49.5168 47.5531 49.5527 47.5938 49.5882C47.614 49.6058 47.6345 49.6234 47.6552 49.6408C47.676 49.6581 47.6973 49.6757 47.7185 49.6929C47.7606 49.7268 47.8033 49.76 47.8468 49.7923C48.1463 50.015 48.477 50.2037 48.8308 50.354C49.0907 50.4643 49.36 50.5569 49.6363 50.6309V51.9468C49.6363 52.1281 49.7008 52.3049 49.8209 52.453C49.8878 52.5354 49.9703 52.6073 50.0649 52.6657C50.235 52.7704 50.4383 52.8265 50.6466 52.8263H54.0277C54.2955 52.8263 54.5524 52.7335 54.7418 52.5685C54.9312 52.4034 55.0376 52.1795 55.0376 51.946V50.5384C55.2208 50.4778 55.4003 50.4093 55.5756 50.3331C55.9932 50.1527 56.3812 49.9243 56.7291 49.6541C56.8007 49.5982 56.8705 49.5404 56.938 49.4811C57.2812 49.1792 57.5727 48.8357 57.8035 48.4612C58.2924 47.6738 58.5405 46.7372 58.5405 45.6778V44.5473C58.5402 43.5233 58.3202 42.6564 57.8862 41.9722ZM57.5303 45.6778C57.5303 46.5943 57.3253 47.3827 56.9153 48.043C56.731 48.3425 56.4981 48.6174 56.2239 48.859C56.1562 48.9185 56.0861 48.9757 56.0135 49.0308C55.7432 49.2348 55.4443 49.4079 55.1239 49.5461C54.7745 49.6967 54.4068 49.8125 54.0277 49.8915V51.9463H50.6455V49.94C50.1267 49.8582 49.6698 49.7326 49.2749 49.5632C48.5039 49.2333 47.9335 48.7207 47.5638 48.0254C47.194 47.3301 47.0092 46.4193 47.0094 45.2931L50.2712 45.2693C50.2712 45.9373 50.4295 46.4228 50.7459 46.7257C51.0624 47.0287 51.577 47.1801 52.2898 47.1801C52.8095 47.1801 53.2249 47.077 53.5361 46.8709C53.5769 46.8437 53.6161 46.8148 53.6535 46.784C53.6862 46.7569 53.7176 46.7288 53.7471 46.6996C54.0048 46.4444 54.1336 46.1076 54.1336 45.6892V44.5235C54.1336 44.1818 54.0267 43.8884 53.8129 43.6432C53.5921 43.3935 53.3115 43.1888 52.9907 43.0432C52.6563 42.888 52.1995 42.7015 51.6205 42.4839C51.6025 42.4763 51.5823 42.4685 51.5601 42.4601C51.538 42.4518 51.5178 42.4447 51.5001 42.4364C51.4634 42.4204 51.4254 42.4068 51.3865 42.3954C51.3475 42.3844 51.3094 42.3708 51.2727 42.3548C50.4528 42.0364 49.7644 41.718 49.2075 41.3993C48.6507 41.0807 48.1787 40.6289 47.7914 40.044C47.4038 39.4572 47.21 38.7135 47.21 37.813V37.1133C47.21 36.1969 47.415 35.4143 47.825 34.7657C48.235 34.117 48.8298 33.6217 49.6096 33.28C49.9405 33.1366 50.2883 33.025 50.6468 32.9469V30.8802H54.0277V32.9003C54.4737 32.9816 54.8703 33.1006 55.2175 33.2571C55.9396 33.5835 56.4743 34.0904 56.8217 34.7778C57.1691 35.4652 57.3518 36.3603 57.3698 37.4632L56.6746 37.4709L54.1609 37.4982C54.1518 36.8383 54.0069 36.3606 53.7263 36.0651C53.4457 35.7696 53.0068 35.622 52.4096 35.6224C51.8391 35.6224 51.3957 35.7428 51.0795 35.9837C50.7632 36.2246 50.6051 36.5625 50.6051 36.9972V37.8943C50.6051 38.2591 50.7143 38.5679 50.9326 38.8207C51.1548 39.0764 51.4375 39.2874 51.7616 39.4393C52.0957 39.5979 52.5524 39.7862 53.1318 40.0043C53.1983 40.0258 53.263 40.051 53.3256 40.0799C53.3881 40.1091 53.4529 40.1345 53.5194 40.1558C53.5517 40.1626 53.5831 40.1723 53.6131 40.1848L53.7067 40.2258C54.5256 40.5285 55.1918 40.8276 55.7053 41.1229C56.2188 41.4182 56.651 41.8434 57.0018 42.3985C57.3539 42.9536 57.53 43.6702 57.53 44.5482L57.5303 45.6778Z" fill="#3B5C91"/>
</g>
<defs>
<clipPath id="clip0_134_2731">
<rect width="100" height="100" fill="white" transform="translate(0.166748)"/>
</clipPath>
</defs>
</svg>
