<svg width="101" height="100" viewBox="0 0 101 100" fill="none" xmlns="http://www.w3.org/2000/svg">
<g clip-path="url(#clip0_706_1947)">
<path d="M83.1699 68.8152L84.121 69.3904C84.4118 69.5672 84.7456 69.6607 85.0859 69.6607C85.4262 69.6607 85.76 69.5672 86.0508 69.3904L87.0049 68.8152L86.4281 69.7647C86.252 70.0558 86.1589 70.3894 86.1589 70.7296C86.1589 71.0698 86.252 71.4035 86.4281 71.6945L87.0049 72.6441L86.0554 72.0688C85.7646 71.892 85.4308 71.7986 85.0905 71.7986C84.7502 71.7986 84.4164 71.892 84.1256 72.0688L83.1745 72.6441L83.7513 71.6945C83.9274 71.4035 84.0205 71.0698 84.0205 70.7296C84.0205 70.3894 83.9274 70.0558 83.7513 69.7647L83.1699 68.8152Z" fill="#94E3FF"/>
<path d="M83.1696 72.8941C83.1255 72.8939 83.0821 72.882 83.044 72.8597C83.0059 72.8373 82.9745 72.8052 82.9528 72.7667C82.9311 72.7282 82.92 72.6847 82.9207 72.6405C82.9213 72.5963 82.9336 72.5531 82.9564 72.5152L83.5332 71.5641C83.6859 71.3123 83.7667 71.0234 83.7667 70.7289C83.7667 70.4343 83.6859 70.1455 83.5332 69.8936L82.9564 68.9441C82.9273 68.8962 82.915 68.8399 82.9217 68.7843C82.9284 68.7286 82.9535 68.6768 82.9932 68.6372C83.0328 68.5976 83.0846 68.5724 83.1402 68.5657C83.1959 68.5591 83.2522 68.5713 83.3 68.6005L84.2496 69.1772C84.5018 69.3338 84.7925 69.4173 85.0893 69.4184C85.3862 69.4195 85.6775 69.3381 85.9308 69.1834L86.8804 68.6066C86.9283 68.5774 86.9845 68.5652 87.0402 68.5719C87.0958 68.5785 87.1476 68.6037 87.1873 68.6433C87.2269 68.683 87.2521 68.7348 87.2587 68.7904C87.2654 68.8461 87.2532 68.9023 87.224 68.9502L86.6488 69.8998C86.4952 70.1513 86.414 70.4403 86.414 70.735C86.414 71.0297 86.4952 71.3187 86.6488 71.5703L87.224 72.5214C87.2532 72.5692 87.2654 72.6255 87.2587 72.6812C87.2521 72.7368 87.2269 72.7886 87.1873 72.8282C87.1476 72.8679 87.0958 72.893 87.0402 72.8997C86.9845 72.9064 86.9283 72.8941 86.8804 72.865L85.9308 72.2821C85.6793 72.1285 85.3903 72.0473 85.0956 72.0473C84.8009 72.0473 84.5119 72.1285 84.2603 72.2821L83.3031 72.865C83.2619 72.8862 83.2159 72.8963 83.1696 72.8941ZM83.9136 69.5577L83.9597 69.6344C84.1606 69.9644 84.2668 70.3433 84.2668 70.7296C84.2668 71.116 84.1606 71.4949 83.9597 71.8249L83.9136 71.9016L83.9903 71.8541C84.32 71.6531 84.6987 71.5468 85.0848 71.5468C85.471 71.5468 85.8496 71.6531 86.1794 71.8541L86.2576 71.9016L86.21 71.8249C86.0091 71.4949 85.9028 71.116 85.9028 70.7296C85.9028 70.3433 86.0091 69.9644 86.21 69.6344L86.2576 69.5577L86.1794 69.6052C85.8496 69.8062 85.471 69.9125 85.0848 69.9125C84.6987 69.9125 84.32 69.8062 83.9903 69.6052L83.9136 69.5577Z" fill="#3B5C91"/>
<path d="M85.0889 15.4934L86.1627 15.2296C86.4931 15.1482 86.795 14.978 87.0357 14.7373C87.2763 14.4967 87.4466 14.1948 87.5279 13.8643L87.7918 12.7905L88.0556 13.8643C88.137 14.1948 88.3072 14.4967 88.5479 14.7373C88.7885 14.978 89.0904 15.1482 89.4209 15.2296L90.4947 15.4934L89.4209 15.7573C89.0904 15.8387 88.7885 16.0089 88.5479 16.2495C88.3072 16.4902 88.137 16.7921 88.0556 17.1225L87.7918 18.1963L87.5279 17.1225C87.4466 16.7921 87.2763 16.4902 87.0357 16.2495C86.795 16.0089 86.4931 15.8387 86.1627 15.7573L85.0889 15.4934Z" fill="#FFD385"/>
<path d="M87.797 18.4541C87.7412 18.454 87.687 18.4352 87.6431 18.4007C87.5991 18.3663 87.568 18.3181 87.5547 18.2639L87.2893 17.1901C87.2199 16.9035 87.073 16.6416 86.8647 16.4329C86.6563 16.2243 86.3946 16.0771 86.1081 16.0073L85.0343 15.7435C84.9804 15.7298 84.9326 15.6986 84.8984 15.6547C84.8642 15.6108 84.8457 15.5567 84.8457 15.5011C84.8457 15.4455 84.8642 15.3915 84.8984 15.3476C84.9326 15.3037 84.9804 15.2724 85.0343 15.2588L86.1081 14.9934C86.3946 14.9242 86.6565 14.7774 86.8649 14.569C87.0733 14.3606 87.2201 14.0987 87.2893 13.8122L87.5547 12.7384C87.5683 12.6845 87.5996 12.6367 87.6435 12.6025C87.6874 12.5683 87.7414 12.5498 87.797 12.5498C87.8526 12.5498 87.9067 12.5683 87.9506 12.6025C87.9945 12.6367 88.0257 12.6845 88.0394 12.7384L88.3048 13.8122C88.3739 14.0987 88.5208 14.3606 88.7292 14.569C88.9376 14.7774 89.1994 14.9242 89.486 14.9934L90.5598 15.2588C90.6137 15.2724 90.6615 15.3037 90.6956 15.3476C90.7298 15.3915 90.7483 15.4455 90.7483 15.5011C90.7483 15.5567 90.7298 15.6108 90.6956 15.6547C90.6615 15.6986 90.6137 15.7298 90.5598 15.7435L89.486 16.0073C89.1995 16.0771 88.9377 16.2243 88.7294 16.4329C88.521 16.6416 88.3741 16.9035 88.3048 17.1901L88.0394 18.2639C88.026 18.3181 87.9949 18.3663 87.951 18.4007C87.9071 18.4352 87.8529 18.454 87.797 18.4541ZM86.1403 15.4935L86.2277 15.5149C86.6028 15.6066 86.9455 15.7998 87.218 16.0734C87.4905 16.347 87.6823 16.6903 87.7725 17.0658L87.794 17.1532L87.8154 17.0658C87.9065 16.6906 88.0991 16.3477 88.3721 16.0747C88.6451 15.8016 88.988 15.6091 89.3632 15.518L89.4599 15.4935L89.3724 15.472C88.9966 15.3818 88.6529 15.1901 88.3788 14.9176C88.1047 14.6451 87.9109 14.3025 87.8185 13.9272L87.797 13.8398L87.7755 13.9272C87.6845 14.3025 87.4919 14.6454 87.2189 14.9184C86.9459 15.1914 86.603 15.384 86.2277 15.475L86.1403 15.4935Z" fill="#3B5C91"/>
<path d="M8.98441 31.2598L9.86339 34.5456C9.89734 34.6716 9.96381 34.7864 10.0561 34.8786C10.1485 34.9708 10.2634 35.037 10.3895 35.0708C10.5155 35.1045 10.6482 35.1045 10.7742 35.0707C10.9002 35.037 11.0151 34.9707 11.1075 34.8785L13.5112 32.4732C13.6035 32.381 13.6699 32.2662 13.7036 32.1403C13.7374 32.0143 13.7375 31.8817 13.7037 31.7558C13.67 31.6298 13.6037 31.515 13.5114 31.4228C13.4192 31.3306 13.3043 31.2643 13.1784 31.2306L9.89407 30.3501C9.76813 30.3163 9.63549 30.3162 9.50951 30.3499C9.38354 30.3837 9.26866 30.45 9.17644 30.5422C9.08423 30.6344 9.01793 30.7493 8.98422 30.8752C8.95051 31.0012 8.95057 31.1338 8.98441 31.2598Z" fill="#FFD385"/>
<path d="M10.5856 35.3466C10.4976 35.3467 10.4099 35.3353 10.3248 35.3128C10.156 35.2683 10.002 35.1799 9.87859 35.0564C9.75516 34.933 9.6667 34.779 9.62223 34.6102L8.74172 31.3244C8.69669 31.1561 8.69677 30.9788 8.74196 30.8106C8.78715 30.6423 8.87585 30.4888 8.99915 30.3657C9.12244 30.2426 9.27598 30.154 9.44433 30.1091C9.61268 30.0641 9.7899 30.0642 9.95818 30.1095L13.2425 30.9869C13.4107 31.0321 13.5642 31.1208 13.6874 31.244C13.8106 31.3672 13.8992 31.5207 13.9444 31.6889C13.9897 31.8572 13.9898 32.0344 13.945 32.2028C13.9001 32.3711 13.8118 32.5248 13.6889 32.6482L11.2836 35.0551C11.1923 35.1474 11.0836 35.2207 10.9638 35.2707C10.844 35.3208 10.7154 35.3465 10.5856 35.3466ZM9.23106 31.1955L10.1116 34.4814C10.1339 34.5649 10.1779 34.641 10.239 34.7021C10.3001 34.7633 10.3762 34.8072 10.4597 34.8296C10.5432 34.852 10.6311 34.852 10.7146 34.8297C10.7981 34.8073 10.8742 34.7634 10.9353 34.7023L13.3407 32.297C13.4017 32.2357 13.4456 32.1594 13.4679 32.0758C13.4902 31.9923 13.4901 31.9043 13.4678 31.8207C13.4454 31.7372 13.4015 31.6609 13.3404 31.5997C13.2793 31.5384 13.2032 31.4943 13.1198 31.4717L9.82932 30.5911C9.74607 30.5702 9.6588 30.5713 9.57611 30.5944C9.49342 30.6175 9.41817 30.6617 9.35778 30.7227C9.29739 30.7837 9.25394 30.8594 9.23172 30.9423C9.2095 31.0252 9.20927 31.1125 9.23106 31.1955Z" fill="#3B5C91"/>
<path d="M56.7849 91.0614L57.3418 87.7065C57.3632 87.578 57.3505 87.446 57.3048 87.324C57.2591 87.2019 57.1821 87.0941 57.0815 87.0112C56.981 86.9283 56.8603 86.8734 56.7318 86.8519C56.6033 86.8305 56.4713 86.8432 56.3493 86.8889L53.1647 88.0823C53.0426 88.1282 52.9347 88.2054 52.8519 88.3062C52.7691 88.407 52.7142 88.5277 52.6927 88.6564C52.6713 88.785 52.6841 88.9171 52.7297 89.0393C52.7754 89.1614 52.8524 89.2694 52.953 89.3525L55.5792 91.5124C55.6798 91.5956 55.8006 91.6508 55.9293 91.6724C56.0581 91.6941 56.1903 91.6814 56.3125 91.6356C56.4348 91.5899 56.5429 91.5127 56.6258 91.4119C56.7088 91.3111 56.7637 91.1902 56.7849 91.0614Z" fill="#FF9494"/>
<path d="M56.0533 91.9342C55.8239 91.9336 55.6019 91.8528 55.4259 91.7056L52.7967 89.5457C52.6619 89.4352 52.5586 89.2911 52.4972 89.1279C52.4358 88.9648 52.4184 88.7883 52.4469 88.6163C52.4754 88.4443 52.5486 88.2829 52.6593 88.1482C52.77 88.0135 52.9142 87.9104 53.0774 87.8491L56.262 86.6541C56.4252 86.5928 56.6016 86.5754 56.7736 86.6039C56.9456 86.6324 57.1071 86.7057 57.2418 86.8164C57.3764 86.9271 57.4796 87.0714 57.5408 87.2346C57.602 87.3979 57.6191 87.5744 57.5904 87.7463L57.0336 91.1027C57.0058 91.2752 56.9327 91.4372 56.8216 91.572C56.7105 91.7068 56.5655 91.8096 56.4016 91.8697C56.2904 91.9124 56.1724 91.9343 56.0533 91.9342ZM56.6163 87.0898C56.5566 87.0899 56.4973 87.1008 56.4415 87.122L53.2569 88.317C53.1758 88.3473 53.1041 88.3985 53.0491 88.4653C52.9941 88.5321 52.9577 88.6123 52.9435 88.6977C52.9294 88.7831 52.938 88.8707 52.9685 88.9518C52.999 89.0328 53.0503 89.1043 53.1173 89.1592L55.7435 91.3206C55.8109 91.3753 55.8915 91.4112 55.9772 91.4249C56.0629 91.4385 56.1507 91.4293 56.2318 91.3982C56.3128 91.3671 56.3842 91.3152 56.4388 91.2477C56.4934 91.1802 56.5292 91.0995 56.5427 91.0138L57.1011 87.6589C57.1155 87.5737 57.1071 87.4862 57.0766 87.4054C57.0462 87.3245 56.9948 87.2532 56.9277 87.1987C56.8395 87.1277 56.7296 87.0892 56.6163 87.0898Z" fill="#3B5C91"/>
<path d="M11.3606 79.0226L12.3193 78.0639C12.4078 77.9565 12.4533 77.82 12.4468 77.681C12.4404 77.5419 12.3826 77.4102 12.2845 77.3115C12.1865 77.2127 12.0553 77.1538 11.9163 77.1463C11.7773 77.1388 11.6405 77.1831 11.5324 77.2708L10.5675 78.2341L9.60876 77.2754C9.50199 77.1785 9.362 77.1263 9.21782 77.1298C9.07365 77.1333 8.93634 77.1921 8.83437 77.2941C8.73239 77.3961 8.67356 77.5334 8.67009 77.6775C8.66661 77.8217 8.71874 77.9617 8.81568 78.0685L9.77443 79.0272L8.81568 79.9875C8.71874 80.0943 8.66661 80.2343 8.67009 80.3784C8.67356 80.5226 8.73239 80.6599 8.83437 80.7619C8.93634 80.8639 9.07365 80.9227 9.21782 80.9262C9.362 80.9297 9.50199 80.8775 9.60876 80.7806L10.5675 79.8218L11.5324 80.776C11.6392 80.8729 11.7792 80.9251 11.9233 80.9216C12.0675 80.9181 12.2048 80.8593 12.3068 80.7573C12.4088 80.6553 12.4676 80.518 12.4711 80.3738C12.4746 80.2297 12.4224 80.0897 12.3255 79.9829L11.3606 79.0226Z" fill="#FF9494"/>
<path d="M44.5868 11.2565H43.3718V10.0415C43.3647 9.9131 43.3087 9.79226 43.2153 9.70385C43.1218 9.61543 42.9981 9.56616 42.8695 9.56616C42.7408 9.56616 42.6171 9.61543 42.5236 9.70385C42.4302 9.79226 42.3742 9.9131 42.3671 10.0415V11.2565H41.1521C41.0237 11.2636 40.9029 11.3196 40.8144 11.413C40.726 11.5065 40.6768 11.6302 40.6768 11.7589C40.6768 11.8875 40.726 12.0112 40.8144 12.1047C40.9029 12.1981 41.0237 12.2541 41.1521 12.2612H42.3655V13.4762C42.3726 13.6046 42.4287 13.7255 42.5221 13.8139C42.6155 13.9023 42.7393 13.9516 42.8679 13.9516C42.9966 13.9516 43.1203 13.9023 43.2137 13.8139C43.3072 13.7255 43.3632 13.6046 43.3703 13.4762V12.2612H44.5852C44.7137 12.2541 44.8345 12.1981 44.9229 12.1047C45.0113 12.0112 45.0606 11.8875 45.0606 11.7589C45.0606 11.6302 45.0113 11.5065 44.9229 11.413C44.8345 11.3196 44.7137 11.2636 44.5852 11.2565H44.5868Z" fill="#FF9494"/>
<path d="M46.7619 81.3019C45.6906 81.2999 44.6566 80.9083 43.8527 80.2002C43.0489 79.492 42.5301 78.5156 42.393 77.4531L42.123 75.3193H58.5445L58.2745 77.4439C58.1396 78.5081 57.6216 79.4867 56.8176 80.1967C56.0135 80.9068 54.9784 81.2997 53.9057 81.3019H46.7619Z" fill="white"/>
<path d="M45.1063 78.1922L44.502 73.426H62.166L61.56 78.1922H45.1063Z" fill="#FFD385"/>
<path d="M44.4855 73.2926L43.9226 68.8593C43.9206 68.8496 43.917 68.8402 43.9118 68.8317L38.414 60.5343C34.7324 54.9812 34.3934 48.1442 37.4936 42.2429C40.58 36.3768 46.3708 32.8072 52.987 32.6968C53.1005 32.6968 53.2171 32.6968 53.3321 32.6968C53.4472 32.6968 53.5653 32.6968 53.6788 32.6968C60.2904 32.8072 66.0812 36.3784 69.1722 42.2429C72.2786 48.1442 71.9334 54.9751 68.2518 60.5343L62.7555 68.8317C62.7503 68.8402 62.7467 68.8496 62.7448 68.8593L62.1818 73.2926H44.4855Z" fill="#E5F5FA"/>
<path d="M50.3335 30.1553H50.6725C57.1153 30.2642 62.7528 33.7403 65.7594 39.4544C68.786 45.2038 68.4516 51.866 64.8682 57.2749L59.3719 65.5723C59.3273 65.6402 59.2984 65.7173 59.2875 65.7978L58.7797 69.8292H41.8919L41.3811 65.8086C41.3701 65.728 41.3413 65.651 41.2967 65.5831L35.8004 57.278C32.217 51.8691 31.8826 45.2069 34.9091 39.4575C37.9173 33.7479 43.5563 30.2673 49.996 30.1584H50.3335M50.3335 29.238H49.9807C48.3239 29.2643 46.6778 29.5104 45.0857 29.9697C41.9714 30.8738 39.1612 32.6071 36.9555 34.9843C34.6871 37.4403 33.1052 40.4501 32.3688 43.7113C31.6551 46.8971 31.8216 50.2172 32.8505 53.3156C33.3755 54.8988 34.1097 56.4047 35.0334 57.7934L40.4791 66.0141L40.9746 69.9504L41.0774 70.7588H59.5912L59.7001 69.9504L60.2002 66.0141L65.6459 57.7934C66.57 56.403 67.3046 54.8956 67.8303 53.311C68.8592 50.2126 69.0258 46.8925 68.312 43.7067C67.5742 40.4431 65.9896 37.4315 63.7177 34.9751C61.5119 32.5979 58.7018 30.8646 55.5875 29.9605C53.9954 29.5012 52.3493 29.2551 50.6925 29.2288H50.3381L50.3335 29.238Z" fill="#3B5C91"/>
<path d="M58.6417 70.8877L58.1539 74.7227H42.5194L42.0315 70.8877H58.6417ZM59.691 69.9673H40.9854L41.1173 71.0089L41.6051 74.8439L41.7079 75.6523H58.9684L59.0712 74.8439L59.559 71.0089L59.691 69.9673Z" fill="#3B5C91"/>
<path d="M41.5986 74.8594L41.6953 75.6172V75.6509L41.726 75.901L41.93 77.504C42.0802 78.6798 42.6537 79.7607 43.543 80.5444C44.4323 81.3282 45.5767 81.7611 46.7621 81.7624H53.9059C55.0896 81.7602 56.2321 81.3276 57.1203 80.5452C58.0085 79.7628 58.5819 78.6841 58.7334 77.5101L58.9328 75.904L59.0663 74.8624L41.5986 74.8594ZM57.8161 77.3905C57.695 78.3426 57.2313 79.2181 56.5116 79.8533C55.792 80.4885 54.8658 80.84 53.9059 80.842H46.7621C45.8033 80.8405 44.8778 80.4903 44.1583 79.8566C43.4388 79.2229 42.9745 78.3491 42.8519 77.3981L42.6494 75.7951H58.0124L57.8161 77.3905Z" fill="#3B5C91"/>
<path d="M64.3075 46.4937H61.4941C61.3631 46.1195 61.2094 45.7538 61.0339 45.3984L63.0281 43.4042C63.1872 43.2451 63.2765 43.0293 63.2765 42.8044C63.2765 42.5794 63.1872 42.3637 63.0281 42.2046L59.7683 38.9448C59.6093 38.7858 59.3935 38.6964 59.1686 38.6964C58.9436 38.6964 58.7278 38.7858 58.5688 38.9448L56.5746 40.939C56.2197 40.7635 55.8544 40.6098 55.4808 40.4788V37.6685C55.4804 37.4457 55.3923 37.2319 55.2356 37.0735C55.0789 36.915 54.8661 36.8246 54.6432 36.8218H50.029C49.8043 36.8218 49.5887 36.9109 49.4297 37.0697C49.2706 37.2285 49.1811 37.4438 49.1807 37.6685V40.4865C48.8069 40.6172 48.4417 40.7709 48.0869 40.9467L46.0927 38.9525C45.9336 38.7934 45.7179 38.7041 45.4929 38.7041C45.268 38.7041 45.0522 38.7934 44.8931 38.9525L41.6349 42.2077C41.4759 42.3667 41.3865 42.5825 41.3865 42.8074C41.3865 43.0324 41.4759 43.2482 41.6349 43.4072L43.6291 45.4014C43.4536 45.7568 43.2999 46.1226 43.1689 46.4967H40.3571C40.2456 46.4965 40.1352 46.5183 40.0322 46.5609C39.9292 46.6034 39.8356 46.6659 39.7568 46.7447C39.678 46.8235 39.6155 46.9171 39.573 47.0202C39.5304 47.1232 39.5086 47.2336 39.5088 47.345V51.9547C39.5088 52.1797 39.5982 52.3955 39.7573 52.5545C39.9163 52.7136 40.1321 52.803 40.3571 52.803H43.1735C43.3045 53.1766 43.4582 53.5419 43.6337 53.8967L41.6395 55.8909C41.4805 56.05 41.3911 56.2658 41.3911 56.4907C41.3911 56.7157 41.4805 56.9314 41.6395 57.0905L44.8993 60.3503C45.0588 60.5086 45.2744 60.5974 45.4991 60.5974C45.7238 60.5974 45.9394 60.5086 46.0989 60.3503L48.0931 58.3561C48.4477 58.5299 48.813 58.6811 49.1868 58.8086V61.6266C49.1872 61.8514 49.2767 62.067 49.4357 62.226C49.5947 62.385 49.8102 62.4745 50.0351 62.4749H54.6432C54.8681 62.4745 55.0836 62.385 55.2426 62.226C55.4016 62.067 55.4911 61.8514 55.4915 61.6266V58.8055C55.8652 58.6777 56.2305 58.5266 56.5853 58.353L58.5795 60.3472C58.739 60.5055 58.9546 60.5944 59.1793 60.5944C59.404 60.5944 59.6196 60.5055 59.7791 60.3472L63.0388 57.0875C63.1979 56.9284 63.2873 56.7126 63.2873 56.4877C63.2873 56.2627 63.1979 56.047 63.0388 55.8879L61.0446 53.8937C61.2202 53.5388 61.3739 53.1735 61.5048 52.7999H64.3075C64.5324 52.7999 64.7482 52.7106 64.9073 52.5515C65.0664 52.3924 65.1558 52.1766 65.1558 51.9516V47.342C65.156 47.2305 65.1342 47.1201 65.0916 47.0171C65.049 46.9141 64.9866 46.8205 64.9077 46.7417C64.8289 46.6629 64.7353 46.6004 64.6323 46.5578C64.5293 46.5153 64.4189 46.4935 64.3075 46.4937Z" fill="#FF9494"/>
<path d="M52.6436 60.9337H48.0293C47.682 60.9333 47.349 60.7951 47.1035 60.5495C46.8579 60.3039 46.7197 59.971 46.7193 59.6236V57.1309C46.5383 57.0619 46.3604 56.9882 46.1839 56.9085L44.4214 58.6726C44.1755 58.918 43.8423 59.0558 43.4948 59.0558C43.1474 59.0558 42.8142 58.918 42.5683 58.6726L39.3086 55.4128C39.0631 55.1669 38.9253 54.8337 38.9253 54.4863C38.9253 54.1389 39.0631 53.8056 39.3086 53.5597L41.0711 51.7956C40.9929 51.6208 40.9177 51.4413 40.8502 51.2618H38.3575C38.01 51.2614 37.6769 51.1233 37.431 50.8777C37.1852 50.6322 37.0467 50.2992 37.0459 49.9518V45.3421C37.0467 44.9946 37.1852 44.6617 37.431 44.4161C37.6769 44.1706 38.01 44.0325 38.3575 44.0321H40.8502C40.9192 43.851 40.9929 43.6731 41.0711 43.4967L39.3086 41.7341C39.0631 41.4882 38.9253 41.155 38.9253 40.8076C38.9253 40.4602 39.0631 40.1269 39.3086 39.881L42.5683 36.6213C42.8142 36.3759 43.1474 36.238 43.4948 36.238C43.8423 36.238 44.1755 36.3759 44.4214 36.6213L46.1839 38.3839C46.3604 38.3056 46.5383 38.2305 46.7193 38.163V35.6687C46.7197 35.3214 46.8579 34.9884 47.1035 34.7428C47.349 34.4972 47.682 34.359 48.0293 34.3586H52.6436C52.9909 34.359 53.3239 34.4972 53.5695 34.7428C53.8151 34.9884 53.9533 35.3214 53.9537 35.6687V38.163C54.1347 38.232 54.3126 38.3056 54.489 38.3839L56.2516 36.6213C56.4975 36.3759 56.8307 36.238 57.1781 36.238C57.5255 36.238 57.8588 36.3759 58.1047 36.6213L61.3598 39.8841C61.6052 40.13 61.7431 40.4632 61.7431 40.8107C61.7431 41.1581 61.6052 41.4913 61.3598 41.7372L59.5972 43.4998C59.6755 43.6762 59.7506 43.8541 59.8181 44.0351H62.3078C62.6551 44.0355 62.9881 44.1737 63.2337 44.4193C63.4793 44.6649 63.6175 44.9978 63.6179 45.3452V49.9548C63.6175 50.3021 63.4793 50.6351 63.2337 50.8807C62.9881 51.1263 62.6551 51.2645 62.3078 51.2649H59.8181C59.7491 51.4459 59.6755 51.6238 59.5972 51.8002L61.3598 53.5628C61.6052 53.8087 61.7431 54.1419 61.7431 54.4893C61.7431 54.8368 61.6052 55.17 61.3598 55.4159L58.1001 58.6756C57.8542 58.9211 57.5209 59.0589 57.1735 59.0589C56.8261 59.0589 56.4929 58.9211 56.247 58.6756L54.4844 56.9115C54.308 56.9913 54.1301 57.0649 53.9491 57.134V59.6267C53.9478 59.9727 53.81 60.3042 53.5655 60.549C53.3209 60.7938 52.9896 60.9321 52.6436 60.9337ZM45.9922 55.7917L46.2898 55.9374C46.6277 56.1026 46.9756 56.2465 47.3314 56.3685L47.6382 56.4759V59.6236C47.6382 59.7258 47.6787 59.8237 47.7509 59.8959C47.8232 59.9681 47.9211 60.0087 48.0232 60.0087H52.6436C52.7457 60.0087 52.8437 59.9681 52.9159 59.8959C52.9881 59.8237 53.0287 59.7258 53.0287 59.6236V56.4759L53.3355 56.3685C53.6911 56.2463 54.039 56.1023 54.377 55.9374L54.6731 55.7917L56.8989 58.0175C56.9347 58.0533 56.9771 58.0817 57.0239 58.101C57.0706 58.1204 57.1207 58.1303 57.1712 58.1303C57.2218 58.1303 57.2719 58.1204 57.3186 58.101C57.3653 58.0817 57.4078 58.0533 57.4435 58.0175L60.7063 54.7639C60.742 54.7283 60.7702 54.686 60.7895 54.6394C60.8087 54.5928 60.8185 54.5428 60.8183 54.4924C60.8184 54.3902 60.7782 54.2921 60.7063 54.2194L58.4805 51.9874L58.6262 51.6959C58.7911 51.3579 58.935 51.01 59.0573 50.6543L59.1647 50.3475H62.3078C62.4099 50.3475 62.5079 50.307 62.5801 50.2348C62.6523 50.1626 62.6929 50.0646 62.6929 49.9625V45.3421C62.6929 45.24 62.6523 45.142 62.5801 45.0698C62.5079 44.9976 62.4099 44.9571 62.3078 44.9571H59.1631L59.0557 44.6503C58.9338 44.2945 58.7898 43.9466 58.6247 43.6087L58.4805 43.3111L60.7063 41.0852C60.742 41.0496 60.7702 41.0073 60.7895 40.9607C60.8087 40.9141 60.8185 40.8641 60.8183 40.8137C60.8184 40.7115 60.7782 40.6134 60.7063 40.5407L57.445 37.2763C57.4093 37.2406 57.3668 37.2122 57.3201 37.1928C57.2734 37.1735 57.2233 37.1635 57.1728 37.1635C57.1222 37.1635 57.0721 37.1735 57.0254 37.1928C56.9787 37.2122 56.9362 37.2406 56.9005 37.2763L54.6746 39.5006L54.3786 39.3564C54.0403 39.1917 53.6925 39.0472 53.337 38.9238L53.0302 38.8164V35.6687C53.0304 35.6179 53.0205 35.5675 53.0012 35.5205C52.9818 35.4735 52.9534 35.4308 52.9174 35.3949C52.8815 35.3589 52.8388 35.3305 52.7918 35.3111C52.7448 35.2918 52.6944 35.2819 52.6436 35.2821H48.0293C47.9272 35.2821 47.8293 35.3227 47.7571 35.3949C47.6849 35.4671 47.6443 35.565 47.6443 35.6671V38.8103L47.3375 38.9177C46.9819 39.0408 46.6341 39.1853 46.2959 39.3503L45.9983 39.4945L43.7679 37.2763C43.6954 37.204 43.5972 37.1634 43.4948 37.1634C43.3925 37.1634 43.2943 37.204 43.2218 37.2763L39.962 40.5361C39.8902 40.6088 39.85 40.7069 39.8501 40.8091C39.8499 40.8595 39.8597 40.9095 39.8789 40.9561C39.8981 41.0027 39.9264 41.045 39.962 41.0806L42.1879 43.3065L42.0437 43.6041C41.8787 43.9423 41.7342 44.2901 41.6111 44.6457L41.5037 44.9525H38.3575C38.3068 44.9523 38.2565 44.9621 38.2096 44.9813C38.1628 45.0006 38.1201 45.0289 38.0842 45.0647C38.0483 45.1005 38.0198 45.143 38.0004 45.1898C37.9809 45.2366 37.9709 45.2868 37.9709 45.3375V49.9472C37.9713 50.0494 38.0122 50.1474 38.0847 50.2195C38.1571 50.2917 38.2552 50.3322 38.3575 50.3322H41.5037L41.6111 50.639C41.7339 50.9997 41.8784 51.3526 42.0437 51.6959L42.1879 51.992L39.962 54.2178C39.9263 54.2536 39.8979 54.296 39.8786 54.3427C39.8592 54.3895 39.8492 54.4395 39.8492 54.4901C39.8492 54.5407 39.8592 54.5907 39.8786 54.6375C39.8979 54.6842 39.9263 54.7266 39.962 54.7624L43.2218 58.0221C43.2576 58.0581 43.3001 58.0867 43.347 58.1062C43.3938 58.1257 43.4441 58.1357 43.4948 58.1357C43.5456 58.1357 43.5958 58.1257 43.6427 58.1062C43.6896 58.0867 43.7321 58.0581 43.7679 58.0221L45.9922 55.7917Z" fill="#3B5C91"/>
<path d="M50.5531 53.5073C53.7879 53.3841 56.3105 50.6619 56.1873 47.4271C56.0642 44.1923 53.342 41.6698 50.1072 41.7929C46.8723 41.916 44.3498 44.6382 44.473 47.873C44.5961 51.1079 47.3183 53.6304 50.5531 53.5073Z" fill="white"/>
<path d="M50.3335 53.9707C49.0826 53.9707 47.8598 53.5997 46.8197 52.9048C45.7796 52.2098 44.9689 51.222 44.4902 50.0663C44.0115 48.9106 43.8863 47.639 44.1303 46.4121C44.3744 45.1852 44.9767 44.0583 45.8612 43.1737C46.7458 42.2892 47.8727 41.6869 49.0996 41.4428C50.3265 41.1988 51.5981 41.324 52.7538 41.8027C53.9095 42.2814 54.8973 43.0921 55.5923 44.1322C56.2872 45.1723 56.6582 46.3951 56.6582 47.646C56.6565 49.3229 55.9897 50.9307 54.8039 52.1164C53.6182 53.3022 52.0104 53.969 50.3335 53.9707ZM50.3335 42.2478C49.2655 42.2478 48.2214 42.5646 47.3334 43.1579C46.4454 43.7513 45.7533 44.5947 45.3447 45.5815C44.936 46.5682 44.8292 47.654 45.0377 48.7015C45.2461 49.749 45.7606 50.7111 46.5159 51.4662C47.2712 52.2213 48.2335 52.7355 49.281 52.9436C50.3285 53.1518 51.4143 53.0447 52.4009 52.6357C53.3875 52.2268 54.2308 51.5345 54.8239 50.6463C55.417 49.7581 55.7335 48.714 55.7332 47.646C55.7315 46.2145 55.1621 44.8422 54.1497 43.8302C53.1374 42.8181 51.7649 42.249 50.3335 42.2478Z" fill="#3B5C91"/>
<path d="M30.5302 49.1278C30.5298 48.5787 30.3115 48.0522 29.9232 47.6639C29.5349 47.2756 29.0084 47.0573 28.4593 47.0569H23.98C23.4446 47.0775 22.9379 47.3047 22.5664 47.6908C22.1948 48.0769 21.9873 48.5919 21.9873 49.1278C21.9873 49.6636 22.1948 50.1786 22.5664 50.5648C22.9379 50.9509 23.4446 51.1781 23.98 51.1987H28.4593C29.0083 51.1979 29.5346 50.9794 29.9228 50.5912C30.3109 50.203 30.5294 49.6768 30.5302 49.1278Z" fill="#FFD385"/>
<path d="M27.4601 50.662H22.9808C22.3311 50.63 21.7185 50.3493 21.27 49.8781C20.8215 49.407 20.5713 48.7814 20.5713 48.1308C20.5713 47.4803 20.8215 46.8547 21.27 46.3835C21.7185 45.9124 22.3311 45.6317 22.9808 45.5997H27.4601C27.803 45.5829 28.1457 45.6358 28.4675 45.7554C28.7893 45.875 29.0834 46.0587 29.332 46.2954C29.5807 46.5321 29.7786 46.8168 29.9139 47.1323C30.0492 47.4479 30.1189 47.7876 30.1189 48.1308C30.1189 48.4741 30.0492 48.8138 29.9139 49.1294C29.7786 49.4449 29.5807 49.7296 29.332 49.9663C29.0834 50.203 28.7893 50.3867 28.4675 50.5063C28.1457 50.6259 27.803 50.6788 27.4601 50.662ZM22.9808 46.5201C22.5536 46.5201 22.1439 46.6898 21.8419 46.9919C21.5398 47.294 21.3701 47.7037 21.3701 48.1308C21.3701 48.558 21.5398 48.9677 21.8419 49.2698C22.1439 49.5719 22.5536 49.7416 22.9808 49.7416H27.4601C27.8873 49.7416 28.297 49.5719 28.599 49.2698C28.9011 48.9677 29.0708 48.558 29.0708 48.1308C29.0708 47.7037 28.9011 47.294 28.599 46.9919C28.297 46.6898 27.8873 46.5201 27.4601 46.5201H22.9808Z" fill="#3B5C91"/>
<path d="M78.6878 47.0569H74.2085C73.6731 47.0775 73.1664 47.3047 72.7949 47.6908C72.4234 48.0769 72.2158 48.5919 72.2158 49.1278C72.2158 49.6636 72.4234 50.1786 72.7949 50.5648C73.1664 50.9509 73.6731 51.1781 74.2085 51.1987H78.6878C79.2233 51.1781 79.7299 50.9509 80.1015 50.5648C80.473 50.1786 80.6805 49.6636 80.6805 49.1278C80.6805 48.5919 80.473 48.0769 80.1015 47.6908C79.7299 47.3047 79.2233 47.0775 78.6878 47.0569Z" fill="#FFD385"/>
<path d="M77.6879 50.662H73.2086C72.8658 50.6788 72.523 50.6259 72.2012 50.5063C71.8795 50.3867 71.5853 50.203 71.3367 49.9663C71.088 49.7296 70.8901 49.4449 70.7548 49.1294C70.6195 48.8138 70.5498 48.4741 70.5498 48.1308C70.5498 47.7876 70.6195 47.4479 70.7548 47.1323C70.8901 46.8168 71.088 46.5321 71.3367 46.2954C71.5853 46.0587 71.8795 45.875 72.2012 45.7554C72.523 45.6358 72.8658 45.5829 73.2086 45.5997H77.6879C78.3377 45.6317 78.9502 45.9124 79.3987 46.3835C79.8473 46.8547 80.0974 47.4803 80.0974 48.1308C80.0974 48.7814 79.8473 49.407 79.3987 49.8781C78.9502 50.3493 78.3377 50.63 77.6879 50.662ZM73.2086 46.5201C72.7814 46.5201 72.3718 46.6898 72.0697 46.9919C71.7676 47.294 71.5979 47.7037 71.5979 48.1308C71.5979 48.558 71.7676 48.9677 72.0697 49.2698C72.3718 49.5719 72.7814 49.7416 73.2086 49.7416H77.6879C78.1151 49.7416 78.5248 49.5719 78.8269 49.2698C79.1289 48.9677 79.2986 48.558 79.2986 48.1308C79.2986 47.7037 79.1289 47.294 78.8269 46.9919C78.5248 46.6898 78.1151 46.5201 77.6879 46.5201H73.2086Z" fill="#3B5C91"/>
<path d="M31.5236 58.4929C31.1599 58.4933 30.8027 58.5896 30.4881 58.7721L26.6102 61.0102C26.1344 61.2848 25.7871 61.7372 25.6449 62.2678C25.5026 62.7985 25.577 63.3639 25.8516 63.8397C26.1262 64.3155 26.5786 64.6627 27.1092 64.805C27.6399 64.9472 28.2053 64.8729 28.6811 64.5982L32.5606 62.3601C32.9557 62.132 33.2645 61.7798 33.4391 61.3583C33.6137 60.9367 33.6442 60.4693 33.5261 60.0286C33.4079 59.5879 33.1476 59.1985 32.7855 58.9208C32.4234 58.6432 31.9798 58.4928 31.5236 58.4929Z" fill="#FFD385"/>
<path d="M26.6469 64.3392C26.0888 64.3397 25.5461 64.1559 25.103 63.8164C24.66 63.4769 24.3415 63.0007 24.1969 62.4616C24.0523 61.9225 24.0897 61.3507 24.3033 60.8351C24.5169 60.3194 24.8948 59.8887 25.3783 59.6098L29.2563 57.3717C29.6419 57.1503 30.0787 57.0334 30.5233 57.0327C31.0814 57.0325 31.6238 57.2165 32.0666 57.5561C32.5094 57.8958 32.8276 58.372 32.9721 58.9111C33.1165 59.4501 33.0789 60.0217 32.8653 60.5372C32.6516 61.0527 32.2738 61.4832 31.7904 61.762L27.9125 63.9986C27.5278 64.2212 27.0913 64.3387 26.6469 64.3392ZM30.5233 57.9562C30.2411 57.9564 29.9638 58.031 29.7195 58.1725L25.8416 60.4106C25.5343 60.5875 25.2941 60.861 25.1583 61.1886C25.0225 61.5161 24.9986 61.8793 25.0905 62.2217C25.1823 62.5642 25.3846 62.8668 25.6661 63.0824C25.9476 63.298 26.2924 63.4146 26.6469 63.4142C26.9292 63.4135 27.2063 63.3389 27.4507 63.1979L31.3287 60.9598C31.6359 60.7828 31.8761 60.5093 32.012 60.1818C32.1478 59.8543 32.1716 59.4911 32.0798 59.1486C31.988 58.8061 31.7856 58.5036 31.5042 58.288C31.2227 58.0723 30.8779 57.9557 30.5233 57.9562Z" fill="#3B5C91"/>
<path d="M71.1445 39.7626C71.5079 39.7621 71.8649 39.6663 72.1799 39.485L76.0579 37.2453C76.4523 37.0168 76.7603 36.6647 76.9344 36.2435C77.1084 35.8222 77.1388 35.3553 77.0207 34.9151C76.9026 34.4749 76.6426 34.0859 76.2811 33.8083C75.9196 33.5307 75.4767 33.3801 75.0209 33.3796C74.6578 33.3795 74.3011 33.4752 73.987 33.6573L70.1075 35.8969C69.6319 36.1716 69.2849 36.6239 69.1428 37.1544C69.0007 37.6848 69.0751 38.25 69.3497 38.7256C69.532 39.0404 69.7936 39.3018 70.1086 39.4838C70.4235 39.6658 70.7807 39.7619 71.1445 39.7626Z" fill="#FFD385"/>
<path d="M70.145 39.2244C69.7558 39.2254 69.3717 39.1367 69.0223 38.9653C68.6729 38.7939 68.3677 38.5443 68.1304 38.2359C67.893 37.9274 67.7299 37.5685 67.6536 37.1869C67.5774 36.8053 67.59 36.4112 67.6906 36.0353C67.7763 35.7142 67.9249 35.4133 68.1276 35.15C68.3304 34.8867 68.5833 34.6662 68.8718 34.5013L72.7497 32.2631C73.0381 32.0914 73.3578 31.9786 73.6901 31.9314C74.0225 31.8842 74.3609 31.9035 74.6857 31.9882C75.0105 32.0729 75.3153 32.2212 75.5823 32.4246C75.8493 32.6281 76.0732 32.8825 76.2411 33.1732C76.4089 33.4639 76.5173 33.7851 76.56 34.118C76.6028 34.4509 76.5789 34.7891 76.4898 35.1127C76.4008 35.4363 76.2483 35.7391 76.0413 36.0033C75.8343 36.2675 75.5768 36.488 75.2839 36.6519L71.406 38.8916C71.0218 39.1105 70.5872 39.2252 70.145 39.2244ZM74.0214 32.8415C73.7392 32.8421 73.4621 32.9167 73.2176 33.0578L69.3397 35.2974C69.1566 35.4031 68.9962 35.5437 68.8676 35.7114C68.7389 35.879 68.6445 36.0704 68.5898 36.2745C68.5351 36.4786 68.5212 36.6915 68.5488 36.9011C68.5764 37.1106 68.6449 37.3126 68.7506 37.4956C68.9643 37.8649 69.3158 38.1344 69.7279 38.2448C70.14 38.3553 70.5791 38.2977 70.9488 38.0847L74.8268 35.845C75.134 35.6681 75.3742 35.3946 75.5101 35.0671C75.6459 34.7396 75.6697 34.3763 75.5779 34.0339C75.4861 33.6914 75.2837 33.3889 75.0023 33.1732C74.7208 32.9576 74.376 32.841 74.0214 32.8415Z" fill="#3B5C91"/>
<path d="M66.0461 23.6448C65.7316 23.4635 65.3751 23.3678 65.0121 23.3672C64.6483 23.3676 64.291 23.4636 63.976 23.6456C63.661 23.8276 63.3994 24.0892 63.2174 24.4042L60.9777 28.2821C60.7031 28.758 60.6286 29.3234 60.7707 29.8541C60.9128 30.3848 61.2598 30.8374 61.7355 31.1124C61.9716 31.2482 62.2322 31.3361 62.5023 31.371C62.7725 31.406 63.0469 31.3873 63.3098 31.316C63.5727 31.2448 63.8189 31.1224 64.0344 30.9558C64.25 30.7893 64.4305 30.5818 64.5657 30.3454L66.8054 26.4674C66.9415 26.2317 67.0299 25.9716 67.0654 25.7018C67.1009 25.4319 67.0829 25.1578 67.0123 24.8949C66.9418 24.632 66.8202 24.3857 66.6544 24.1699C66.4886 23.9541 66.2819 23.773 66.0461 23.6372V23.6448Z" fill="#FFD385"/>
<path d="M61.7703 30.8518C61.2126 30.8521 60.6704 30.6682 60.2279 30.3287C59.7855 29.9891 59.4675 29.513 59.3235 28.9742C59.236 28.6528 59.2134 28.3172 59.2568 27.9869C59.3003 27.6567 59.409 27.3383 59.5767 27.0505L61.8148 23.1726C62.1508 22.5903 62.7042 22.1654 63.3534 21.991C64.0027 21.8167 64.6946 21.9073 65.277 22.243C65.5653 22.4093 65.818 22.6308 66.0207 22.8949C66.2234 23.1589 66.3721 23.4603 66.4583 23.7818C66.5444 24.1033 66.5664 24.4387 66.523 24.7687C66.4796 25.0987 66.3715 25.4169 66.2051 25.7052L63.9654 29.5832C63.7427 29.9683 63.4227 30.2883 63.0374 30.5109C62.6522 30.7335 62.2152 30.8511 61.7703 30.8518ZM64.0114 22.8305C63.729 22.8307 63.4516 22.9051 63.2069 23.0461C62.9622 23.1872 62.7588 23.39 62.617 23.6343L60.3774 27.5138C60.2667 27.697 60.1937 27.9005 60.1626 28.1123C60.1315 28.3241 60.143 28.54 60.1964 28.7473C60.2498 28.9546 60.344 29.1491 60.4736 29.3195C60.6031 29.49 60.7653 29.6329 60.9508 29.7398C61.1362 29.8468 61.3411 29.9156 61.5535 29.9424C61.7659 29.9692 61.9815 29.9533 62.1876 29.8957C62.3938 29.8381 62.5864 29.74 62.7542 29.607C62.922 29.4741 63.0615 29.309 63.1647 29.1214L65.4043 25.2435C65.6169 24.8737 65.6743 24.4347 65.5639 24.0227C65.4535 23.6107 65.1843 23.2592 64.8153 23.0452C64.5707 22.9046 64.2936 22.8306 64.0114 22.8305Z" fill="#3B5C91"/>
<path d="M51.3332 19.7026C50.7839 19.7034 50.2574 19.9221 49.8692 20.3106C49.4809 20.6992 49.2627 21.2258 49.2623 21.7751V26.2528C49.2515 26.5315 49.2972 26.8094 49.3964 27.0701C49.4956 27.3307 49.6465 27.5686 49.8398 27.7695C50.0332 27.9705 50.2651 28.1303 50.5217 28.2395C50.7783 28.3487 51.0543 28.405 51.3332 28.405C51.612 28.405 51.888 28.3487 52.1446 28.2395C52.4012 28.1303 52.6332 27.9705 52.8265 27.7695C53.0199 27.5686 53.1707 27.3307 53.2699 27.0701C53.3692 26.8094 53.4148 26.5315 53.4041 26.2528V21.7751C53.4037 21.2258 53.1854 20.6992 52.7972 20.3106C52.4089 19.9221 51.8824 19.7034 51.3332 19.7026Z" fill="#FFD385"/>
<path d="M50.3331 27.787C49.6613 27.7861 49.0172 27.5189 48.5421 27.0438C48.067 26.5687 47.7998 25.9246 47.799 25.2528V20.775C47.7821 20.4322 47.835 20.0894 47.9546 19.7676C48.0742 19.4459 48.2579 19.1517 48.4946 18.9031C48.7313 18.6544 49.016 18.4565 49.3315 18.3212C49.6471 18.186 49.9868 18.1162 50.3301 18.1162C50.6734 18.1162 51.0131 18.186 51.3286 18.3212C51.6441 18.4565 51.9288 18.6544 52.1655 18.9031C52.4022 19.1517 52.5859 19.4459 52.7055 19.7676C52.8251 20.0894 52.8781 20.4322 52.8612 20.775V25.2528C52.8604 25.9236 52.594 26.5668 52.1202 27.0417C51.6465 27.5166 51.0039 27.7845 50.3331 27.787ZM50.3331 19.1659C49.9065 19.1663 49.4974 19.3359 49.1957 19.6376C48.894 19.9393 48.7244 20.3484 48.724 20.775V25.2528C48.724 25.68 48.8937 26.0897 49.1957 26.3917C49.4978 26.6938 49.9075 26.8635 50.3347 26.8635C50.7619 26.8635 51.1715 26.6938 51.4736 26.3917C51.7757 26.0897 51.9454 25.68 51.9454 25.2528V20.775C51.9454 20.5635 51.9036 20.354 51.8226 20.1585C51.7415 19.9631 51.6227 19.7856 51.473 19.6361C51.3232 19.4866 51.1455 19.3682 50.9499 19.2875C50.7543 19.2068 50.5447 19.1655 50.3331 19.1659Z" fill="#3B5C91"/>
<path d="M39.4512 24.4026C39.2687 24.0881 39.0069 23.827 38.692 23.6453C38.3771 23.4636 38.02 23.3677 37.6564 23.3672C37.2929 23.3675 36.9358 23.4635 36.6211 23.6455C36.3063 23.8274 36.045 24.089 35.8633 24.4039C35.6816 24.7188 35.586 25.0759 35.5859 25.4395C35.5859 25.803 35.6815 26.1602 35.8631 26.4751L38.1028 30.353C38.2388 30.5886 38.4198 30.7951 38.6356 30.9608C38.8514 31.1264 39.0977 31.2479 39.3604 31.3183C39.6232 31.3888 39.8972 31.4068 40.1669 31.3713C40.4366 31.3358 40.6967 31.2476 40.9323 31.1116C41.1679 30.9756 41.3744 30.7946 41.54 30.5788C41.7056 30.363 41.8271 30.1167 41.8975 29.854C41.968 29.5912 41.986 29.3172 41.9505 29.0475C41.915 28.7778 41.8268 28.5177 41.6908 28.2821L39.4512 24.4026Z" fill="#FFD385"/>
<path d="M38.8972 30.8519C38.4523 30.8515 38.0154 30.7343 37.6301 30.5119C37.2449 30.2895 36.9248 29.9698 36.702 29.5848L34.4624 25.7069C34.2906 25.4185 34.1778 25.0988 34.1306 24.7665C34.0834 24.4342 34.1027 24.0957 34.1874 23.7709C34.2721 23.4461 34.4204 23.1414 34.6239 22.8743C34.8273 22.6073 35.0817 22.3834 35.3724 22.2156C35.6631 22.0477 35.9843 21.9393 36.3172 21.8966C36.6502 21.8539 36.9883 21.8777 37.3119 21.9668C37.6356 22.0558 37.9383 22.2083 38.2025 22.4153C38.4668 22.6223 38.6872 22.8798 38.8511 23.1727L41.0908 27.0507C41.3137 27.4357 41.4311 27.8728 41.4314 28.3177C41.4317 28.7626 41.3148 29.1998 41.0924 29.5851C40.87 29.9705 40.55 30.2905 40.1646 30.5129C39.7793 30.7353 39.3421 30.8522 38.8972 30.8519ZM36.656 22.8306C36.302 22.8302 35.9578 22.9469 35.677 23.1625C35.3962 23.3781 35.1946 23.6804 35.1036 24.0225C35.0462 24.227 35.0302 24.4409 35.0565 24.6516C35.0829 24.8623 35.151 25.0657 35.257 25.2497L37.4966 29.1292C37.6023 29.3123 37.7429 29.4727 37.9106 29.6013C38.0783 29.7299 38.2697 29.8242 38.4739 29.8788C38.6781 29.9333 38.891 29.9471 39.1005 29.9193C39.31 29.8915 39.512 29.8227 39.6948 29.7167C39.878 29.6114 40.0385 29.4709 40.1672 29.3034C40.296 29.1359 40.3904 28.9447 40.4452 28.7406C40.4999 28.5366 40.5138 28.3237 40.4861 28.1143C40.4584 27.9048 40.3897 27.7029 40.2839 27.5201L38.0443 23.6406C37.9037 23.3961 37.7016 23.1928 37.458 23.0507C37.2145 22.9086 36.938 22.8327 36.656 22.8306Z" fill="#3B5C91"/>
<path d="M76.0579 61.0102L72.1799 58.7706C71.865 58.5892 71.508 58.4935 71.1445 58.4929C70.6882 58.4928 70.2446 58.6432 69.8826 58.9208C69.5205 59.1985 69.2602 59.5879 69.142 60.0286C69.0238 60.4693 69.0544 60.9367 69.229 61.3583C69.4035 61.7798 69.7124 62.132 70.1075 62.3601L73.987 64.5982C74.4628 64.8729 75.0282 64.9472 75.5588 64.805C76.0895 64.6627 76.5418 64.3155 76.8165 63.8397C77.0911 63.3639 77.1654 62.7985 77.0232 62.2678C76.8809 61.7372 76.5337 61.2848 76.0579 61.0102Z" fill="#FFD385"/>
<path d="M74.0213 64.3392C73.5768 64.3387 73.1404 64.2212 72.7557 63.9986L68.8778 61.7605C68.5886 61.5942 68.3352 61.3724 68.132 61.1078C67.9288 60.8433 67.7798 60.5413 67.6935 60.219C67.6073 59.8968 67.5856 59.5607 67.6295 59.23C67.6735 58.8994 67.7823 58.5807 67.9497 58.2921C68.2872 57.7115 68.8414 57.2884 69.4905 57.1159C70.1396 56.9433 70.8306 57.0353 71.4119 57.3717L75.2899 59.6114C75.7734 59.8903 76.1513 60.321 76.3649 60.8366C76.5785 61.3523 76.6159 61.924 76.4713 62.4631C76.3267 63.0022 76.0082 63.4785 75.5651 63.818C75.1221 64.1575 74.5794 64.3412 74.0213 64.3407V64.3392ZM70.1448 57.9562C69.7903 57.9557 69.4455 58.0723 69.164 58.288C68.8826 58.5036 68.6802 58.8061 68.5884 59.1486C68.4966 59.4911 68.5204 59.8543 68.6562 60.1818C68.7921 60.5093 69.0323 60.7828 69.3395 60.9598L73.2174 63.2009C73.4004 63.3068 73.6025 63.3756 73.812 63.4032C74.0216 63.4309 74.2345 63.417 74.4387 63.3623C74.6429 63.3076 74.8343 63.2132 75.0019 63.0844C75.1696 62.9556 75.3102 62.7951 75.4157 62.6119C75.5213 62.4289 75.5899 62.2268 75.6175 62.0173C75.6451 61.8078 75.6311 61.5949 75.5764 61.3908C75.5217 61.1866 75.4274 60.9953 75.2987 60.8276C75.1701 60.66 75.0096 60.5193 74.8266 60.4137L70.9487 58.1756C70.7047 58.033 70.4274 57.9573 70.1448 57.9562Z" fill="#3B5C91"/>
<path d="M26.6102 37.2453L30.4881 39.485C30.9629 39.7434 31.5199 39.8061 32.0402 39.6597C32.5606 39.5133 33.0031 39.1693 33.2735 38.7012C33.5438 38.2332 33.6206 37.678 33.4874 37.1541C33.3543 36.6302 33.0216 36.1791 32.5606 35.8969L28.6811 33.6573C28.3669 33.4752 28.0102 33.3795 27.6472 33.3796C27.2834 33.3802 26.9261 33.4761 26.6109 33.6578C26.2957 33.8395 26.0337 34.1006 25.8508 34.4151C25.5774 34.8921 25.5046 35.4583 25.6484 35.989C25.7922 36.5197 26.1409 36.9716 26.6178 37.2453H26.6102Z" fill="#FFD385"/>
<path d="M30.5228 39.2245C30.078 39.2245 29.6411 39.1076 29.2557 38.8855L25.3778 36.6458C25.0848 36.4819 24.8274 36.2614 24.6204 35.9972C24.4134 35.733 24.2609 35.4302 24.1719 35.1066C24.0828 34.7829 24.0589 34.4448 24.1016 34.1119C24.1444 33.779 24.2528 33.4578 24.4206 33.1671C24.5885 32.8764 24.8124 32.622 25.0794 32.4185C25.3464 32.2151 25.6512 32.0668 25.976 31.9821C26.3008 31.8974 26.6392 31.8781 26.9716 31.9253C27.3039 31.9725 27.6236 32.0853 27.9119 32.257L31.7899 34.4951C32.2733 34.774 32.6511 35.2045 32.8647 35.72C33.0784 36.2355 33.1159 36.8071 32.9715 37.3461C32.8271 37.8851 32.5088 38.3614 32.0661 38.701C31.6233 39.0407 31.0808 39.2247 30.5228 39.2245ZM25.841 35.8497L29.719 38.0893C30.0886 38.3027 30.5279 38.3605 30.9401 38.2501C31.3524 38.1396 31.7038 37.8699 31.9172 37.5003C32.1306 37.1306 32.1884 36.6914 32.078 36.2791C31.9675 35.8669 31.6978 35.5154 31.3282 35.302L27.4502 33.0624C27.2673 32.9565 27.0652 32.8878 26.8556 32.8601C26.6461 32.8324 26.4331 32.8463 26.2289 32.901C26.0248 32.9557 25.8334 33.0502 25.6657 33.1789C25.4981 33.3077 25.3575 33.4683 25.252 33.6514C25.1463 33.8345 25.0777 34.0365 25.0502 34.246C25.0226 34.4555 25.0365 34.6684 25.0912 34.8726C25.1459 35.0767 25.2403 35.268 25.369 35.4357C25.4976 35.6033 25.658 35.744 25.841 35.8497Z" fill="#3B5C91"/>
</g>
<defs>
<clipPath id="clip0_706_1947">
<rect width="100" height="100" fill="white" transform="translate(0.333984)"/>
</clipPath>
</defs>
</svg>
