<svg width="198" height="110" viewBox="0 0 198 110" fill="none" xmlns="http://www.w3.org/2000/svg">
<g clip-path="url(#clip0_100_4271)">
<mask id="mask0_100_4271" style="mask-type:alpha" maskUnits="userSpaceOnUse" x="0" y="0" width="198" height="118">
<path d="M136.557 9.18864C118.574 21.499 103.698 27.946 82.4682 22.9929C60.1584 17.788 55.1915 2.17166 36.3929 5.9875C2.53461 12.8602 -17.6869 60.8082 25.6013 93.6826C68.8895 126.557 142.379 127.992 180.585 78.7795C193.062 62.7076 203.24 37.4569 192.597 17.9148C183.348 0.940144 161.397 -7.81664 136.557 9.18864Z" fill="white"/>
</mask>
<g mask="url(#mask0_100_4271)">
<path d="M136.557 9.18864C118.574 21.499 103.698 27.946 82.4682 22.9929C60.1584 17.788 55.1915 2.17166 36.3929 5.9875C2.53461 12.8602 -17.6869 60.8082 25.6013 93.6826C68.8895 126.557 142.379 127.992 180.585 78.7795C193.062 62.7076 203.24 37.4569 192.597 17.9148C183.348 0.940144 161.397 -7.81664 136.557 9.18864Z" fill="#F3F7FF"/>
<path opacity="0.4" d="M194.252 68.4393V97.6158H-6.07593V68.4393C-0.446716 69.4697 1.28412 71.9542 9.65782 71.9542C20.2111 71.9542 20.2111 68.0066 30.7684 68.0066C41.3256 68.0066 41.3216 71.9542 51.8749 71.9542C62.4282 71.9542 62.4282 68.0066 72.9855 68.0066C83.5427 68.0066 83.5387 71.9542 94.092 71.9542C104.645 71.9542 104.645 68.0066 115.203 68.0066C125.76 68.0066 125.756 71.9542 136.309 71.9542C146.862 71.9542 146.862 68.0066 157.416 68.0066C167.969 68.0066 167.973 71.9542 178.526 71.9542C186.896 71.9676 188.643 69.483 194.252 68.4393Z" fill="#D2E4F9"/>
<path d="M70.128 32.9318H-19.699C-19.699 32.9318 -15.6083 25.7296 -7.81152 25.7296C-0.0147629 25.7296 -7.32673 29.7308 -1.28484 29.7308C4.75705 29.7308 10.9912 16.7908 30.1827 16.7908C49.3741 16.7908 33.4961 26.5178 43.4323 26.5178C53.3686 26.5178 85.1807 17.8831 70.128 32.9318Z" fill="white"/>
<path d="M174.278 40.166H129.365C129.365 40.166 131.412 36.5648 135.31 36.5648C139.209 36.5648 135.551 38.5655 138.572 38.5655C141.593 38.5655 144.71 32.0955 154.306 32.0955C163.901 32.0955 155.964 36.961 160.932 36.961C165.901 36.961 181.807 32.6516 174.278 40.166Z" fill="white"/>
<path d="M106.697 16.1003C109.184 16.1003 106.852 17.3686 108.779 17.3686C110.705 17.3686 112.7 13.2523 118.828 13.2523C124.849 13.2523 120.305 16.7541 123.159 16.8718H123.314C126.174 16.877 129.126 10.7888 138.208 10.7888C147.289 10.7888 139.785 15.3759 144.477 15.3759C149.168 15.3759 164.235 11.3119 157.112 18.3912H102.901C102.901 18.3912 104.208 16.1003 106.697 16.1003Z" fill="white"/>
<path d="M33.8121 -1.17875C33.1964 -1.42704 32.5556 -1.60815 31.901 -1.71891C30.7384 -1.91692 29.5468 -1.86233 28.4073 -1.55886C28.0694 -1.95892 27.6996 -2.33092 27.3015 -2.67121C26.2544 -3.55707 25.0224 -4.1982 23.6955 -4.54779C23.0721 -4.71777 22.4304 -4.81182 21.7844 -4.82788C22.4071 -4.66467 23.0073 -4.42546 23.5713 -4.11566C24.1319 -3.81513 24.6596 -3.45709 25.1459 -3.04733C26.1124 -2.23159 26.8878 -1.21402 27.4176 -0.066401L27.7822 0.733848L28.4754 0.305715C29.4965 -0.338862 30.6603 -0.723544 31.8649 -0.814633C32.4813 -0.860315 33.101 -0.836153 33.7119 -0.74261C34.3415 -0.654477 34.9578 -0.48918 35.5469 -0.250458C35.0069 -0.626412 34.4247 -0.937961 33.8121 -1.17875Z" fill="white"/>
<path d="M109.207 36.1599C108.692 36.043 108.165 35.9839 107.637 35.9839C106.697 35.9814 105.769 36.1792 104.912 36.564C104.595 36.294 104.256 36.0504 103.898 35.8358C103.425 35.5502 102.919 35.3205 102.392 35.1516C101.886 34.9891 101.363 34.8818 100.833 34.8315C100.321 34.7767 99.8046 34.7861 99.2949 34.8595C99.8019 34.9083 100.301 35.0185 100.781 35.1876C101.262 35.349 101.724 35.5609 102.16 35.8198C103.025 36.3372 103.767 37.0362 104.335 37.8684L104.736 38.4326L105.225 38.0045C105.948 37.3792 106.813 36.9397 107.745 36.7241C108.224 36.6101 108.714 36.5484 109.207 36.54C109.712 36.5266 110.217 36.5749 110.71 36.6841C110.232 36.4501 109.727 36.2742 109.207 36.1599Z" fill="white"/>
<path d="M182.364 17.5228C181.636 17.7114 180.932 17.9798 180.264 18.323C179.083 18.9525 178.05 19.827 177.235 20.8878C176.655 20.7568 176.066 20.6738 175.472 20.6397C174.683 20.5971 173.891 20.6441 173.112 20.7798C172.366 20.9082 171.637 21.1189 170.937 21.408C170.254 21.6799 169.606 22.0347 169.01 22.4643C169.683 22.191 170.386 21.9989 171.105 21.8921C171.82 21.7776 172.545 21.7387 173.269 21.7761C174.704 21.8522 176.106 22.24 177.375 22.9125L178.241 23.3726L178.573 22.5083C179.051 21.2363 179.829 20.0983 180.841 19.1913C181.369 18.729 181.947 18.3264 182.564 17.9909C183.197 17.6442 183.87 17.3755 184.567 17.1907C183.822 17.2137 183.082 17.3252 182.364 17.5228Z" fill="white"/>
</g>
<path d="M146.327 88.4387H172.869V78.5082H146.327V88.4387Z" fill="white"/>
<path d="M171.73 87.6681H147.472V79.2864H171.73V87.6681ZM147.863 87.277H171.338V79.6775H147.863V87.277Z" fill="#C7E9F6"/>
<path d="M169.56 79.4819H169.168V87.4725H169.56V79.4819Z" fill="#C7E9F6"/>
<path d="M167.39 79.4819H166.998V87.4725H167.39V79.4819Z" fill="#C7E9F6"/>
<path d="M165.219 79.4819H164.828V87.4725H165.219V79.4819Z" fill="#C7E9F6"/>
<path d="M163.053 79.4819H162.661V87.4725H163.053V79.4819Z" fill="#C7E9F6"/>
<path d="M160.883 79.4819H160.492V87.4725H160.883V79.4819Z" fill="#C7E9F6"/>
<path d="M158.713 79.4819H158.322V87.4725H158.713V79.4819Z" fill="#C7E9F6"/>
<path d="M156.543 79.4819H156.151V87.4725H156.543V79.4819Z" fill="#C7E9F6"/>
<path d="M154.373 79.4819H153.981V87.4725H154.373V79.4819Z" fill="#C7E9F6"/>
<path d="M152.204 79.4819H151.812V87.4725H152.204V79.4819Z" fill="#C7E9F6"/>
<path d="M150.033 79.4819H149.642V87.4725H150.033V79.4819Z" fill="#C7E9F6"/>
<path d="M119.789 88.4387H146.331V78.5082H119.789V88.4387Z" fill="#7DB6F9"/>
<path d="M145.141 87.6174H120.98V79.3335H145.141V87.6174ZM121.274 87.3241H144.847V79.6268H121.274V87.3241Z" fill="#428FDB"/>
<path d="M142.972 79.4819H142.678V87.4725H142.972V79.4819Z" fill="#428FDB"/>
<path d="M140.801 79.4819H140.507V87.4725H140.801V79.4819Z" fill="#428FDB"/>
<path d="M138.631 79.4819H138.337V87.4725H138.631V79.4819Z" fill="#428FDB"/>
<path d="M136.46 79.4819H136.167V87.4725H136.46V79.4819Z" fill="#428FDB"/>
<path d="M134.29 79.4819H133.996V87.4725H134.29V79.4819Z" fill="#428FDB"/>
<path d="M132.12 79.4819H131.827V87.4725H132.12V79.4819Z" fill="#428FDB"/>
<path d="M129.951 79.4819H129.657V87.4725H129.951V79.4819Z" fill="#428FDB"/>
<path d="M127.78 79.4819H127.486V87.4725H127.78V79.4819Z" fill="#428FDB"/>
<path d="M125.61 79.4819H125.316V87.4725H125.61V79.4819Z" fill="#428FDB"/>
<path d="M123.441 79.4819H123.147V87.4725H123.441V79.4819Z" fill="#428FDB"/>
<path d="M40.1651 88.4387H66.7068V78.5082H40.1651V88.4387Z" fill="#7DB6F9"/>
<path d="M65.5112 87.6174H41.3511V79.3335H65.5112V87.6174ZM41.6449 87.3241H65.2174V79.6268H41.6449V87.3241Z" fill="#428FDB"/>
<path d="M63.3421 79.4819H63.0483V87.4725H63.3421V79.4819Z" fill="#428FDB"/>
<path d="M61.1715 79.4819H60.8777V87.4725H61.1715V79.4819Z" fill="#428FDB"/>
<path d="M59.005 79.4819H58.7112V87.4725H59.005V79.4819Z" fill="#428FDB"/>
<path d="M56.8353 79.4819H56.5415V87.4725H56.8353V79.4819Z" fill="#428FDB"/>
<path d="M54.6658 79.4819H54.3721V87.4725H54.6658V79.4819Z" fill="#428FDB"/>
<path d="M52.4952 79.4819H52.2014V87.4725H52.4952V79.4819Z" fill="#428FDB"/>
<path d="M50.3265 79.4819H50.0327V87.4725H50.3265V79.4819Z" fill="#428FDB"/>
<path d="M48.1558 79.4819H47.8621V87.4725H48.1558V79.4819Z" fill="#428FDB"/>
<path d="M45.9852 79.4819H45.6914V87.4725H45.9852V79.4819Z" fill="#428FDB"/>
<path d="M43.8155 79.4819H43.5217V87.4725H43.8155V79.4819Z" fill="#428FDB"/>
<path d="M93.2484 88.4387H119.79V78.5082H93.2484V88.4387Z" fill="#C7E9F6"/>
<path d="M118.595 87.6174H94.4346V79.3335H118.595V87.6174ZM94.7283 87.3241H118.301V79.6268H94.7283V87.3241Z" fill="#99BCC9"/>
<path d="M116.429 79.4819H116.135V87.4725H116.429V79.4819Z" fill="#99BCC9"/>
<path d="M114.259 79.4819H113.965V87.4725H114.259V79.4819Z" fill="#99BCC9"/>
<path d="M112.088 79.4819H111.794V87.4725H112.088V79.4819Z" fill="#99BCC9"/>
<path d="M109.919 79.4819H109.625V87.4725H109.919V79.4819Z" fill="#99BCC9"/>
<path d="M107.749 79.4819H107.456V87.4725H107.749V79.4819Z" fill="#99BCC9"/>
<path d="M105.578 79.4819H105.285V87.4725H105.578V79.4819Z" fill="#99BCC9"/>
<path d="M103.409 79.4819H103.115V87.4725H103.409V79.4819Z" fill="#99BCC9"/>
<path d="M101.239 79.4819H100.945V87.4725H101.239V79.4819Z" fill="#99BCC9"/>
<path d="M99.0687 79.4819H98.7749V87.4725H99.0687V79.4819Z" fill="#99BCC9"/>
<path d="M96.8978 79.4819H96.604V87.4725H96.8978V79.4819Z" fill="#99BCC9"/>
<path d="M66.7069 88.4387H93.2485V78.5082H66.7069V88.4387Z" fill="#476B9E"/>
<path d="M92.1248 87.6681H67.8394V79.2864H92.1248V87.6681ZM68.2585 87.277H91.7331V79.6775H68.2311L68.2585 87.277Z" fill="#2F4A7F"/>
<path d="M89.9347 79.4819H89.543V87.4725H89.9347V79.4819Z" fill="#2F4A7F"/>
<path d="M87.7638 79.4819H87.3721V87.4725H87.7638V79.4819Z" fill="#2F4A7F"/>
<path d="M85.5943 79.4819H85.2026V87.4725H85.5943V79.4819Z" fill="#2F4A7F"/>
<path d="M83.4234 79.4819H83.0317V87.4725H83.4234V79.4819Z" fill="#2F4A7F"/>
<path d="M81.255 79.4819H80.8633V87.4725H81.255V79.4819Z" fill="#2F4A7F"/>
<path d="M79.0843 79.4819H78.6926V87.4725H79.0843V79.4819Z" fill="#2F4A7F"/>
<path d="M76.9137 79.4819H76.522V87.4725H76.9137V79.4819Z" fill="#2F4A7F"/>
<path d="M74.7481 79.4819H74.3564V87.4725H74.7481V79.4819Z" fill="#2F4A7F"/>
<path d="M72.5775 79.4819H72.1858V87.4725H72.5775V79.4819Z" fill="#2F4A7F"/>
<path d="M70.4081 79.4819H70.0164V87.4725H70.4081V79.4819Z" fill="#2F4A7F"/>
<path d="M66.7026 68.7537H40.1609V78.6842H66.7026V68.7537Z" fill="white"/>
<path d="M65.563 77.9098H41.3049V69.5281H65.563V77.9098ZM41.6966 77.5187H65.1713V69.9192H41.6966V77.5187Z" fill="#C7E9F6"/>
<path d="M43.8673 69.7236H43.4756V77.7142H43.8673V69.7236Z" fill="#C7E9F6"/>
<path d="M46.036 69.7236H45.6443V77.7142H46.036V69.7236Z" fill="#C7E9F6"/>
<path d="M48.2066 69.7236H47.8149V77.7142H48.2066V69.7236Z" fill="#C7E9F6"/>
<path d="M50.3719 69.7236H49.9802V77.7142H50.3719V69.7236Z" fill="#C7E9F6"/>
<path d="M52.5426 69.7236H52.1509V77.7142H52.5426V69.7236Z" fill="#C7E9F6"/>
<path d="M54.7123 69.7236H54.3206V77.7142H54.7123V69.7236Z" fill="#C7E9F6"/>
<path d="M56.8829 69.7236H56.4912V77.7142H56.8829V69.7236Z" fill="#C7E9F6"/>
<path d="M59.0536 69.7236H58.6619V77.7142H59.0536V69.7236Z" fill="#C7E9F6"/>
<path d="M61.222 69.7236H60.8303V77.7142H61.222V69.7236Z" fill="#C7E9F6"/>
<path d="M63.3927 69.7236H63.001V77.7142H63.3927V69.7236Z" fill="#C7E9F6"/>
<path d="M159.602 58.8191H133.06V68.7496H159.602V58.8191Z" fill="white"/>
<path d="M158.459 67.9752H134.201V59.5974H158.459V67.9752ZM134.593 67.5841H158.068V59.9885H134.593V67.5841Z" fill="#C7E9F6"/>
<path d="M136.762 59.7932H136.371V67.7838H136.762V59.7932Z" fill="#C7E9F6"/>
<path d="M138.933 59.7932H138.541V67.7838H138.933V59.7932Z" fill="#C7E9F6"/>
<path d="M141.102 59.7932H140.71V67.7838H141.102V59.7932Z" fill="#C7E9F6"/>
<path d="M143.272 59.7932H142.88V67.7838H143.272V59.7932Z" fill="#C7E9F6"/>
<path d="M145.442 59.7932H145.05V67.7838H145.442V59.7932Z" fill="#C7E9F6"/>
<path d="M147.612 59.7932H147.221V67.7838H147.612V59.7932Z" fill="#C7E9F6"/>
<path d="M149.779 59.7932H149.387V67.7838H149.779V59.7932Z" fill="#C7E9F6"/>
<path d="M151.948 59.7932H151.557V67.7838H151.948V59.7932Z" fill="#C7E9F6"/>
<path d="M154.119 59.7932H153.728V67.7838H154.119V59.7932Z" fill="#C7E9F6"/>
<path d="M156.288 59.7932H155.896V67.7838H156.288V59.7932Z" fill="#C7E9F6"/>
<path d="M93.2441 48.8887H66.7024V58.8192H93.2441V48.8887Z" fill="white"/>
<path d="M92.1248 58.0445H67.8394V49.6628H92.1248V58.0445ZM68.2585 57.6534H91.7331V50.054H68.2311L68.2585 57.6534Z" fill="#C7E9F6"/>
<path d="M70.4081 49.8586H70.0164V57.8492H70.4081V49.8586Z" fill="#C7E9F6"/>
<path d="M72.5775 49.8586H72.1858V57.8492H72.5775V49.8586Z" fill="#C7E9F6"/>
<path d="M74.7481 49.8586H74.3564V57.8492H74.7481V49.8586Z" fill="#C7E9F6"/>
<path d="M76.9137 49.8586H76.522V57.8492H76.9137V49.8586Z" fill="#C7E9F6"/>
<path d="M79.0843 49.8586H78.6926V57.8492H79.0843V49.8586Z" fill="#C7E9F6"/>
<path d="M81.255 49.8586H80.8633V57.8492H81.255V49.8586Z" fill="#C7E9F6"/>
<path d="M83.4234 49.8586H83.0317V57.8492H83.4234V49.8586Z" fill="#C7E9F6"/>
<path d="M85.5943 49.8586H85.2026V57.8492H85.5943V49.8586Z" fill="#C7E9F6"/>
<path d="M87.7638 49.8586H87.3721V57.8492H87.7638V49.8586Z" fill="#C7E9F6"/>
<path d="M89.9347 49.8586H89.543V57.8492H89.9347V49.8586Z" fill="#C7E9F6"/>
<path d="M93.2441 68.7537H66.7024V78.6842H93.2441V68.7537Z" fill="#7DB6F9"/>
<path d="M92.053 77.8589H67.8928V69.5789H92.053V77.8589ZM68.1866 77.5655H91.7592V69.8722H68.1866V77.5655Z" fill="#428FDB"/>
<path d="M70.3573 69.7236H70.0635V77.7142H70.3573V69.7236Z" fill="#428FDB"/>
<path d="M72.5279 69.7236H72.2341V77.7142H72.5279V69.7236Z" fill="#428FDB"/>
<path d="M74.6966 69.7236H74.4028V77.7142H74.6966V69.7236Z" fill="#428FDB"/>
<path d="M76.8673 69.7236H76.5735V77.7142H76.8673V69.7236Z" fill="#428FDB"/>
<path d="M79.0369 69.7236H78.7432V77.7142H79.0369V69.7236Z" fill="#428FDB"/>
<path d="M81.2074 69.7236H80.9136V77.7142H81.2074V69.7236Z" fill="#428FDB"/>
<path d="M83.377 69.7236H83.0833V77.7142H83.377V69.7236Z" fill="#428FDB"/>
<path d="M85.5477 69.7236H85.2539V77.7142H85.5477V69.7236Z" fill="#428FDB"/>
<path d="M87.7171 69.7236H87.4233V77.7142H87.7171V69.7236Z" fill="#428FDB"/>
<path d="M89.887 69.7236H89.5933V77.7142H89.887V69.7236Z" fill="#428FDB"/>
<path d="M133.057 58.8191H106.515V68.7496H133.057V58.8191Z" fill="#7DB6F9"/>
<path d="M131.867 67.9282H107.707V59.6404H131.867V67.9282ZM108 67.6349H131.573V59.9376H108V67.6349Z" fill="#428FDB"/>
<path d="M110.169 59.7932H109.875V67.7838H110.169V59.7932Z" fill="#428FDB"/>
<path d="M112.34 59.7932H112.046V67.7838H112.34V59.7932Z" fill="#428FDB"/>
<path d="M114.509 59.7932H114.215V67.7838H114.509V59.7932Z" fill="#428FDB"/>
<path d="M116.68 59.7932H116.386V67.7838H116.68V59.7932Z" fill="#428FDB"/>
<path d="M118.849 59.7932H118.556V67.7838H118.849V59.7932Z" fill="#428FDB"/>
<path d="M121.02 59.7932H120.726V67.7838H121.02V59.7932Z" fill="#428FDB"/>
<path d="M123.191 59.7932H122.897V67.7838H123.191V59.7932Z" fill="#428FDB"/>
<path d="M125.359 59.7932H125.065V67.7838H125.359V59.7932Z" fill="#428FDB"/>
<path d="M127.53 59.7932H127.236V67.7838H127.53V59.7932Z" fill="#428FDB"/>
<path d="M129.7 59.7932H129.406V67.7838H129.7V59.7932Z" fill="#428FDB"/>
<path d="M172.872 68.7537H146.331V78.6842H172.872V68.7537Z" fill="#7DB6F9"/>
<path d="M171.683 77.8589H147.522V69.5789H171.683V77.8589ZM147.816 77.5655H171.389V69.8722H147.816V77.5655Z" fill="#428FDB"/>
<path d="M149.981 69.7236H149.688V77.7142H149.981V69.7236Z" fill="#428FDB"/>
<path d="M152.152 69.7236H151.858V77.7142H152.152V69.7236Z" fill="#428FDB"/>
<path d="M154.323 69.7236H154.029V77.7142H154.323V69.7236Z" fill="#428FDB"/>
<path d="M156.493 69.7236H156.199V77.7142H156.493V69.7236Z" fill="#428FDB"/>
<path d="M158.663 69.7236H158.369V77.7142H158.663V69.7236Z" fill="#428FDB"/>
<path d="M160.833 69.7236H160.539V77.7142H160.833V69.7236Z" fill="#428FDB"/>
<path d="M163.002 69.7236H162.708V77.7142H163.002V69.7236Z" fill="#428FDB"/>
<path d="M165.173 69.7236H164.879V77.7142H165.173V69.7236Z" fill="#428FDB"/>
<path d="M167.343 69.7236H167.049V77.7142H167.343V69.7236Z" fill="#428FDB"/>
<path d="M169.512 69.7236H169.218V77.7142H169.512V69.7236Z" fill="#428FDB"/>
<path d="M146.328 68.7537H119.786V78.6842H146.328V68.7537Z" fill="#C7E9F6"/>
<path d="M145.141 77.8589H120.98V69.5789H145.141V77.8589ZM121.274 77.5655H144.847V69.8722H121.274V77.5655Z" fill="#99BCC9"/>
<path d="M123.441 69.7236H123.147V77.7142H123.441V69.7236Z" fill="#99BCC9"/>
<path d="M125.61 69.7236H125.316V77.7142H125.61V69.7236Z" fill="#99BCC9"/>
<path d="M127.78 69.7236H127.486V77.7142H127.78V69.7236Z" fill="#99BCC9"/>
<path d="M129.951 69.7236H129.657V77.7142H129.951V69.7236Z" fill="#99BCC9"/>
<path d="M132.12 69.7236H131.827V77.7142H132.12V69.7236Z" fill="#99BCC9"/>
<path d="M134.29 69.7236H133.996V77.7142H134.29V69.7236Z" fill="#99BCC9"/>
<path d="M136.46 69.7236H136.167V77.7142H136.46V69.7236Z" fill="#99BCC9"/>
<path d="M138.631 69.7236H138.337V77.7142H138.631V69.7236Z" fill="#99BCC9"/>
<path d="M140.801 69.7236H140.507V77.7142H140.801V69.7236Z" fill="#99BCC9"/>
<path d="M142.972 69.7236H142.678V77.7142H142.972V69.7236Z" fill="#99BCC9"/>
<path d="M79.9733 58.8191H53.4316V68.7496H79.9733V58.8191Z" fill="#C7E9F6"/>
<path d="M78.7822 67.9282H54.6221V59.6404H78.7822V67.9282ZM54.9119 67.6349H78.4845V59.9376H54.9119V67.6349Z" fill="#99BCC9"/>
<path d="M57.0865 59.7932H56.7927V67.7838H57.0865V59.7932Z" fill="#99BCC9"/>
<path d="M59.2562 59.7932H58.9624V67.7838H59.2562V59.7932Z" fill="#99BCC9"/>
<path d="M61.4256 59.7932H61.1318V67.7838H61.4256V59.7932Z" fill="#99BCC9"/>
<path d="M63.5963 59.7932H63.3025V67.7838H63.5963V59.7932Z" fill="#99BCC9"/>
<path d="M65.7669 59.7932H65.4731V67.7838H65.7669V59.7932Z" fill="#99BCC9"/>
<path d="M67.9366 59.7932H67.6428V67.7838H67.9366V59.7932Z" fill="#99BCC9"/>
<path d="M70.1063 59.7932H69.8125V67.7838H70.1063V59.7932Z" fill="#99BCC9"/>
<path d="M72.2769 59.7932H71.9832V67.7838H72.2769V59.7932Z" fill="#99BCC9"/>
<path d="M74.4466 59.7932H74.1528V67.7838H74.4466V59.7932Z" fill="#99BCC9"/>
<path d="M76.6119 59.7932H76.3181V67.7838H76.6119V59.7932Z" fill="#99BCC9"/>
<path d="M119.786 48.8887H93.2441V58.8192H119.786V48.8887Z" fill="#C7E9F6"/>
<path d="M118.595 57.9939H94.4346V49.7139H118.595V57.9939ZM94.7283 57.6849H118.301V50.0072H94.7283V57.6849Z" fill="#99BCC9"/>
<path d="M96.8978 49.8586H96.604V57.8492H96.8978V49.8586Z" fill="#99BCC9"/>
<path d="M99.0687 49.8586H98.7749V57.8492H99.0687V49.8586Z" fill="#99BCC9"/>
<path d="M101.239 49.8586H100.945V57.8492H101.239V49.8586Z" fill="#99BCC9"/>
<path d="M103.409 49.8586H103.115V57.8492H103.409V49.8586Z" fill="#99BCC9"/>
<path d="M105.578 49.8586H105.285V57.8492H105.578V49.8586Z" fill="#99BCC9"/>
<path d="M107.749 49.8586H107.456V57.8492H107.749V49.8586Z" fill="#99BCC9"/>
<path d="M109.919 49.8586H109.625V57.8492H109.919V49.8586Z" fill="#99BCC9"/>
<path d="M112.088 49.8586H111.794V57.8492H112.088V49.8586Z" fill="#99BCC9"/>
<path d="M114.259 49.8586H113.965V57.8492H114.259V49.8586Z" fill="#99BCC9"/>
<path d="M116.429 49.8586H116.135V57.8492H116.429V49.8586Z" fill="#99BCC9"/>
<path d="M119.786 68.7537H93.2441V78.6842H119.786V68.7537Z" fill="#476B9E"/>
<path d="M118.646 77.9098H94.3882V69.5281H118.646V77.9098ZM94.7799 77.5187H118.255V69.9192H94.7799V77.5187Z" fill="#2F4A7F"/>
<path d="M96.9498 69.7236H96.5581V77.7142H96.9498V69.7236Z" fill="#2F4A7F"/>
<path d="M99.1202 69.7236H98.7285V77.7142H99.1202V69.7236Z" fill="#2F4A7F"/>
<path d="M101.29 69.7236H100.898V77.7142H101.29V69.7236Z" fill="#2F4A7F"/>
<path d="M103.46 69.7236H103.068V77.7142H103.46V69.7236Z" fill="#2F4A7F"/>
<path d="M105.626 69.7236H105.234V77.7142H105.626V69.7236Z" fill="#2F4A7F"/>
<path d="M107.796 69.7236H107.404V77.7142H107.796V69.7236Z" fill="#2F4A7F"/>
<path d="M109.966 69.7236H109.575V77.7142H109.966V69.7236Z" fill="#2F4A7F"/>
<path d="M112.136 69.7236H111.744V77.7142H112.136V69.7236Z" fill="#2F4A7F"/>
<path d="M114.307 69.7236H113.915V77.7142H114.307V69.7236Z" fill="#2F4A7F"/>
<path d="M116.476 69.7236H116.084V77.7142H116.476V69.7236Z" fill="#2F4A7F"/>
<path d="M106.515 58.8191H79.9734V68.7496H106.515V58.8191Z" fill="#476B9E"/>
<path d="M105.376 67.9752H81.1174V59.5974H105.376V67.9752ZM81.5091 67.5841H104.984V59.9885H81.5091V67.5841Z" fill="#2F4A7F"/>
<path d="M83.6788 59.7932H83.2871V67.7838H83.6788V59.7932Z" fill="#2F4A7F"/>
<path d="M85.8482 59.7932H85.4565V67.7838H85.8482V59.7932Z" fill="#2F4A7F"/>
<path d="M88.0191 59.7932H87.6274V67.7838H88.0191V59.7932Z" fill="#2F4A7F"/>
<path d="M90.1886 59.7932H89.7969V67.7838H90.1886V59.7932Z" fill="#2F4A7F"/>
<path d="M92.3551 59.7932H91.9634V67.7838H92.3551V59.7932Z" fill="#2F4A7F"/>
<path d="M94.526 59.7932H94.1343V67.7838H94.526V59.7932Z" fill="#2F4A7F"/>
<path d="M96.6954 59.7932H96.3037V67.7838H96.6954V59.7932Z" fill="#2F4A7F"/>
<path d="M98.8648 59.7932H98.4731V67.7838H98.8648V59.7932Z" fill="#2F4A7F"/>
<path d="M101.035 59.7932H100.643V67.7838H101.035V59.7932Z" fill="#2F4A7F"/>
<path d="M103.205 59.7932H102.813V67.7838H103.205V59.7932Z" fill="#2F4A7F"/>
<path d="M26.7849 88.4426H37.7996L33.7533 46.2212H26.7849V88.4426Z" fill="#C7E9F6"/>
<path d="M25.0105 46.2212H35.5747V41.8954H25.0105V46.2212Z" fill="#C7E9F6"/>
<path d="M24.1519 40.8862H36.4278L35.5543 42.2551H25.041L24.1519 40.8862Z" fill="#C7E9F6"/>
<path d="M25.0105 44.8796H35.5747V43.2408H25.0105V44.8796Z" fill="#7DB6F9"/>
<path d="M33.4863 44.5627H35.0178V43.5497H33.4863V44.5627Z" fill="#476B9E"/>
<path d="M30.8459 44.5627H32.3774V43.5497H30.8459V44.5627Z" fill="#476B9E"/>
<path d="M28.2058 44.5627H29.7373V43.5497H28.2058V44.5627Z" fill="#476B9E"/>
<path d="M25.5622 44.5627H27.0938V43.5497H25.5622V44.5627Z" fill="#476B9E"/>
<path d="M33.7494 46.0259H26.7849V46.417H33.7494V46.0259Z" fill="#DAE9F7"/>
<path d="M35.5697 42.0596H25.0408V42.4507H35.5697V42.0596Z" fill="#DAE9F7"/>
<path d="M32.4867 35H32.095V41.4144H32.4867V35Z" fill="#C7E9F6"/>
<path d="M27.9205 38.6143H27.5288V41.4147H27.9205V38.6143Z" fill="#C7E9F6"/>
<path d="M33.1765 36.1694H31.4099V36.5606H33.1765V36.1694Z" fill="#C7E9F6"/>
<path d="M33.1765 39.4392H31.4099V39.8303H33.1765V39.4392Z" fill="#C7E9F6"/>
<path d="M28.6093 38.5044H26.8428V38.8955H28.6093V38.5044Z" fill="#C7E9F6"/>
<path d="M28.6093 39.228H26.8428V39.6191H28.6093V39.228Z" fill="#C7E9F6"/>
<path d="M33.1765 37.155H31.4099V37.5461H33.1765V37.155Z" fill="#C7E9F6"/>
<path d="M34.4701 78.238H26.7849V77.8469H34.0353L31.4344 52.7644H26.7849V52.3733H31.7869L31.8065 52.5493L34.4701 78.238Z" fill="white"/>
<path d="M25.1985 88.4424C25.1985 88.4424 24.9791 86.1309 23.428 85.3135C21.8768 84.496 13.2124 82.6265 13.2124 82.6265V88.4424H25.1985Z" fill="#C7E9F6"/>
<path d="M113.127 80.7258C112.542 82.9376 111.24 84.8939 109.425 86.2898C107.609 87.6856 105.383 88.4426 103.092 88.4426H13.0002V95.5375C13.9247 102.765 17.7007 107.991 25.5856 110.291H158.541C158.541 110.291 176.794 103.419 185 80.7258H113.127Z" fill="#00A1DE"/>
<path d="M18.261 106.415C20.3785 108.242 22.8826 109.567 25.5858 110.291H158.541C160.995 109.257 163.328 107.957 165.498 106.415H18.261Z" fill="#197FA6"/>
<path d="M171.361 95.3418H13.0002V95.7329H171.361V95.3418Z" fill="#486C9E"/>
<path d="M140.06 88.2471H103.091V88.6382H140.06V88.2471Z" fill="#486C9E"/>
<path d="M176.199 80.7258H180.061L179.364 73.6035H176.892L176.199 80.7258Z" fill="#C7E9F6"/>
<path d="M176.426 73.7522H179.837V72.9348H176.426V73.7522Z" fill="#162E4C"/>
<path d="M157.93 103.118H150.072C149.821 103.129 149.57 103.09 149.335 103.002C149.099 102.914 148.884 102.779 148.702 102.605C148.52 102.432 148.375 102.223 148.276 101.992C148.177 101.762 148.126 101.513 148.126 101.262C148.126 101.011 148.177 100.762 148.276 100.531C148.375 100.3 148.52 100.092 148.702 99.9184C148.884 99.7449 149.099 99.6101 149.335 99.522C149.57 99.434 149.821 99.3945 150.072 99.406H157.93C158.181 99.3945 158.432 99.434 158.668 99.522C158.903 99.6101 159.118 99.7449 159.3 99.9184C159.482 100.092 159.627 100.3 159.726 100.531C159.825 100.762 159.876 101.011 159.876 101.262C159.876 101.513 159.825 101.762 159.726 101.992C159.627 102.223 159.482 102.432 159.3 102.605C159.118 102.779 158.903 102.914 158.668 103.002C158.432 103.09 158.181 103.129 157.93 103.118ZM150.065 99.7971C149.866 99.7869 149.667 99.8171 149.48 99.8861C149.293 99.9551 149.122 100.061 148.977 100.198C148.833 100.335 148.718 100.5 148.639 100.683C148.56 100.866 148.52 101.063 148.52 101.262C148.52 101.461 148.56 101.658 148.639 101.841C148.718 102.023 148.833 102.188 148.977 102.325C149.122 102.462 149.293 102.569 149.48 102.638C149.667 102.707 149.866 102.737 150.065 102.727H157.93C158.129 102.737 158.328 102.707 158.515 102.638C158.702 102.569 158.873 102.462 159.017 102.325C159.162 102.188 159.277 102.023 159.355 101.841C159.434 101.658 159.475 101.461 159.475 101.262C159.475 101.063 159.434 100.866 159.355 100.683C159.277 100.5 159.162 100.335 159.017 100.198C158.873 100.061 158.702 99.9551 158.515 99.8861C158.328 99.8171 158.129 99.7869 157.93 99.7971H150.065Z" fill="#486C9E"/>
</g>
<defs>
<clipPath id="clip0_100_4271">
<rect width="196.111" height="110" fill="white" transform="translate(0.94458)"/>
</clipPath>
</defs>
</svg>
