<svg width="21" height="21" viewBox="0 0 21 21" fill="none" xmlns="http://www.w3.org/2000/svg">
<path d="M0 10.1563L4.0468 9.16528C5.28644 8.8617 6.41909 8.224 7.32155 7.32154C8.22401 6.41909 8.8617 5.28643 9.16528 4.04679L10.1564 0L11.1484 4.04679C11.4519 5.28631 12.0894 6.41888 12.9917 7.32133C13.894 8.22378 15.0264 8.86155 16.2659 9.16528L20.3136 10.1563L16.2659 11.1474C15.0265 11.4511 13.8942 12.0887 12.9919 12.991C12.0896 13.8932 11.452 15.0256 11.1484 16.265L10.1564 20.3117L9.16528 16.265C8.8617 15.0253 8.22401 13.8927 7.32155 12.9902C6.41909 12.0877 5.28644 11.45 4.0468 11.1465L0 10.1563Z" fill="#FFD385"/>
</svg>
