<svg width="21" height="20" viewBox="0 0 21 20" fill="none" xmlns="http://www.w3.org/2000/svg">
<g clip-path="url(#clip0_188_10230)">
<path d="M21.6109 4.80286V16.1979C21.6109 19.6786 18.8942 22.4999 15.5424 22.4999H4.56942C1.21766 22.4999 -1.5 19.6786 -1.5 16.1979V4.80286C-1.5 1.32219 1.21766 -1.5 4.56942 -1.5H15.5424C18.8941 -1.5 21.6109 1.32219 21.6109 4.80286Z" fill="white"/>
<path d="M19.8326 2.40948C19.8326 2.52476 17.4817 13.814 16.5365 18.3245C16.3997 18.979 16.0467 19.1206 15.4975 18.724C14.1193 17.7289 12.7417 16.7333 11.3647 15.7371C10.7855 15.3182 10.5485 15.3319 9.98546 15.7946C9.29451 16.3625 8.60002 16.9261 7.902 17.4855C7.34009 17.9348 7.01077 17.8324 6.79944 17.1568C6.27952 15.4937 5.75186 13.8327 5.24678 12.1655C5.16683 11.9016 5.03613 11.7625 4.78342 11.6717C3.50084 11.2108 2.22381 10.7361 0.94486 10.2662C0.691806 10.1731 0.44265 10.0729 0.277344 9.84253C0.277344 9.43051 0.399152 9.23388 0.797131 9.08167C6.84194 6.7705 12.8853 4.4558 18.9273 2.13756C19.3289 1.98311 19.6171 2.03344 19.8326 2.40948ZM15.4201 5.52324C15.3674 5.55113 9.51095 9.13023 6.66012 10.8835C6.23075 11.1476 6.07509 11.4791 6.20189 11.9417C6.49311 13.0015 6.81182 14.0539 7.11487 15.1106C7.15659 15.2559 7.19749 15.3987 7.37668 15.401C7.59937 15.4039 7.60956 15.2115 7.6324 15.0647C7.70722 14.583 7.78806 14.1005 7.8252 13.6153C7.84081 13.3793 7.90329 13.1488 8.00904 12.9371C8.11479 12.7253 8.2617 12.5365 8.44128 12.3816C10.3852 10.5959 15.1073 6.22704 15.5283 5.83256C15.6665 5.70334 15.6554 5.50066 15.4201 5.52324Z" fill="#525F64"/>
</g>
<defs>
<clipPath id="clip0_188_10230">
<rect width="20" height="19" fill="white" transform="translate(0.5 0.5)"/>
</clipPath>
</defs>
</svg>
