<svg width="18" height="19" viewBox="0 0 18 19" fill="none" xmlns="http://www.w3.org/2000/svg">
<path d="M15.3865 15.8266L17.4784 3.2437C17.5586 2.76113 17.5104 2.26593 17.3386 1.8079C17.1667 1.34986 16.8774 0.945123 16.4996 0.63438C16.1217 0.323638 15.6687 0.117845 15.1862 0.0376751C14.7036 -0.042495 14.2084 0.00578957 13.7504 0.177678L1.80784 4.65765C1.34985 4.82946 0.945163 5.1188 0.634439 5.49659C0.323715 5.87438 0.117912 6.3273 0.0377107 6.80983C-0.0424901 7.29237 0.00574098 7.78751 0.177553 8.2455C0.349365 8.70349 0.638705 9.10818 1.01649 9.41891L10.8644 17.5218C11.2421 17.8334 11.6953 18.0398 12.1783 18.1205C12.6612 18.2011 13.1569 18.1531 13.6154 17.9812C14.0739 17.8094 14.479 17.5197 14.7899 17.1415C15.1009 16.7632 15.3066 16.3097 15.3865 15.8266Z" fill="#FF9494"/>
</svg>
