<svg width="8" height="129" viewBox="0 0 8 129" fill="none" xmlns="http://www.w3.org/2000/svg">
<g id="Group 123">
<path id="Arrow 3" d="M3.82322 128.177C3.92086 128.274 4.07915 128.274 4.17678 128.177L5.76777 126.586C5.8654 126.488 5.8654 126.33 5.76777 126.232C5.67014 126.135 5.51185 126.135 5.41421 126.232L4 127.646L2.58579 126.232C2.48816 126.135 2.32987 126.135 2.23223 126.232C2.1346 126.33 2.1346 126.488 2.23223 126.586L3.82322 128.177ZM3.75 97L3.75 99.5833L4.25 99.5833L4.25 97L3.75 97ZM3.75 104.75L3.75 109.917L4.25 109.917L4.25 104.75L3.75 104.75ZM3.75 115.083L3.75 120.25L4.25 120.25L4.25 115.083L3.75 115.083ZM3.75 125.417L3.75 128L4.25 128L4.25 125.417L3.75 125.417ZM3.64645 128.354C3.84171 128.549 4.15829 128.549 4.35355 128.354L7.53554 125.172C7.7308 124.976 7.7308 124.66 7.53554 124.464C7.34027 124.269 7.02369 124.269 6.82843 124.464L4 127.293L1.17157 124.464C0.976312 124.269 0.659729 124.269 0.464467 124.464C0.269205 124.66 0.269205 124.976 0.464467 125.172L3.64645 128.354ZM3.5 97L3.5 99.5833L4.5 99.5833L4.5 97L3.5 97ZM3.5 104.75L3.5 109.917L4.5 109.917L4.5 104.75L3.5 104.75ZM3.5 115.083L3.5 120.25L4.5 120.25L4.5 115.083L3.5 115.083ZM3.5 125.417L3.5 128L4.5 128L4.5 125.417L3.5 125.417Z" fill="#00A1DE"/>

</g>
</svg>
