<svg width="197" height="110" viewBox="0 0 197 110" fill="none" xmlns="http://www.w3.org/2000/svg">
<g clip-path="url(#clip0_100_4246)">
<path d="M195.174 81.8329C191.329 96.7574 180.35 110.004 180.35 110.004H16.6448C16.6448 110.004 12.0925 105.387 7.77565 97.2491C2.70292 87.6909 -2.03758 73.2834 1.28677 55.7961C2.16379 51.2421 3.49519 46.7882 5.26084 42.5018C8.51369 34.5368 13.5391 26.1002 20.9185 17.3248C38.8691 -4.01677 61.3079 -2.86671 81.5978 5.98352C88.2265 8.87451 94.627 12.5885 100.565 16.6084C121.034 30.4662 136.013 47.9619 136.013 47.9619C136.013 47.9619 157.335 22.8504 189.195 54.2926C197.182 62.1679 197.622 72.3401 195.174 81.8329Z" fill="#F3F7FF"/>
<path d="M195.175 81.833C193.838 87.0325 191.63 92.0274 189.326 96.3312C185.016 104.378 180.354 110.002 180.354 110.002H16.6455C16.6455 110.002 12.0932 105.385 7.77637 97.247C16.8316 96.9199 26.6942 102.016 35.7295 99.5788C42.8239 97.6648 48.0102 91.4545 54.8639 88.7903C57.4418 87.8047 60.1888 87.3411 62.9462 87.4264C65.7036 87.5117 68.4169 88.1442 70.9294 89.2873C74.0362 90.7212 76.7444 92.9073 79.7996 94.4478C85.1762 97.1594 91.3402 97.745 97.3465 98.1153C104.932 98.5827 112.794 98.7357 119.845 95.8796C129.141 92.1107 135.667 83.6699 141.194 75.2681C144.006 70.9918 146.824 66.4801 151.141 63.7421C159.175 58.646 170.033 61.2911 177.925 66.6099C184.288 70.9031 189.476 76.6788 195.175 81.833Z" fill="#E3EFFF"/>
<path d="M189.326 96.331C185.016 104.378 180.354 110.002 180.354 110.002H41.3467C49.6197 107.826 57.8401 105.418 66.2193 103.704C78.6746 101.157 91.7869 100.197 103.963 103.864C108.578 105.255 113.109 107.315 117.928 107.396C124.248 107.501 130.123 104.182 135.15 100.333C140.176 96.484 144.768 91.9734 150.369 89.0307C158.99 84.4937 169.745 84.1962 178.536 88.3976C182.62 90.3443 186.148 93.1171 189.326 96.331Z" fill="#D2E4F9"/>
<path d="M100.566 16.6083H56.8477C56.9875 13.9041 59.4077 11.8076 62.1044 11.9521C63.0296 12.0028 63.9516 12.3024 64.8683 12.1631C66.1489 11.9701 67.134 10.9804 68.1958 10.2355C71.2847 8.06723 75.6604 7.93112 78.8785 9.90417C79.2801 8.28669 80.2926 6.99524 81.5984 5.9834C88.2271 8.87439 94.6277 12.5884 100.566 16.6083Z" fill="white"/>
<path d="M30.2324 55.7961H1.28687C2.16389 51.2421 3.49529 46.7882 5.26094 42.5017C5.69872 42.4933 6.13645 42.5205 6.56986 42.583C8.92697 42.9248 11.0675 44.1941 12.8621 45.7662C14.7461 43.5801 18.1073 42.8351 20.7346 44.02C23.3619 45.2049 25.0377 48.2236 24.6593 51.0892C27.1141 50.5765 29.9538 53.2955 30.2324 55.7961Z" fill="white"/>
<path d="M174.794 48.1301C149.716 57.56 57.0983 91.5224 40.92 90.569L40.0696 90.5122C24.7005 89.3428 23.542 81.6103 23.542 81.6103C23.542 81.6103 42.7294 70.5921 66.9047 57.68C72.9186 54.4639 79.2407 51.1345 85.656 47.8312C112.491 33.9896 140.901 20.5582 154.864 17.8244C166.205 15.6055 174.696 16.9037 180.884 19.4019C183.905 20.6148 186.722 22.2914 189.232 24.3721C192.884 27.4136 194.699 30.3939 195.183 31.2623C195.274 31.4238 195.318 31.5132 195.318 31.5132C195.318 31.5132 199.878 38.6958 174.794 48.1301Z" fill="#C7E9F6"/>
<path d="M174.793 48.1302C149.715 57.56 57.0977 91.5225 40.9194 90.569L40.0689 90.5123C55.1624 82.6402 91.9666 66.4314 93.2748 65.6088C93.9495 65.1856 81.8543 61.771 66.904 57.68C44.1238 51.4444 14.7286 43.6421 13.7024 42.4487C11.9994 40.4676 26.0515 38.6479 29.0216 37.7926C30.8245 37.2755 61.3478 43.0988 85.6467 47.8291C101.552 50.9207 114.773 53.5586 115.615 53.6371C117.741 53.8553 169.228 36.5097 184.335 32.8726C189.733 31.5635 193.093 31.2035 195.183 31.2624C195.274 31.4238 195.317 31.5133 195.317 31.5133C195.317 31.5133 199.878 38.6959 174.793 48.1302Z" fill="#00A1DE"/>
<path d="M41.1173 71.7243C40.6834 72.0058 26.7224 81.0495 23.544 81.6015C20.3244 82.16 7.47633 76.4895 5.70599 75.4924C5.22435 75.2458 5.4413 74.6545 6.04443 73.9105C7.72583 71.8683 12.4988 68.6589 14.9526 67.7883C18.298 66.6014 41.1173 71.7243 41.1173 71.7243Z" fill="#00A1DE"/>
<path d="M189.232 24.372C183.133 25.4367 169.303 29.3902 166.799 29.4971C163.733 29.6281 157.604 26.4142 160.412 24.4789C162.551 23.0149 175.028 20.508 180.884 19.3931C183.906 20.6087 186.722 22.2883 189.232 24.372Z" fill="#3A4756"/>
<path d="M151.226 33.9265C153.287 33.9265 154.957 32.6341 154.957 31.0399C154.957 29.4457 153.287 28.1533 151.226 28.1533C149.165 28.1533 147.494 29.4457 147.494 31.0399C147.494 32.6341 149.165 33.9265 151.226 33.9265Z" fill="#00A1DE"/>
<path d="M141.591 37.6725C143.652 37.6725 145.323 36.3802 145.323 34.786C145.323 33.1918 143.652 31.8994 141.591 31.8994C139.53 31.8994 137.859 33.1918 137.859 34.786C137.859 36.3802 139.53 37.6725 141.591 37.6725Z" fill="#00A1DE"/>
<path d="M131.958 41.4186C134.019 41.4186 135.69 40.1263 135.69 38.5321C135.69 36.9379 134.019 35.6455 131.958 35.6455C129.898 35.6455 128.227 36.9379 128.227 38.5321C128.227 40.1263 129.898 41.4186 131.958 41.4186Z" fill="#00A1DE"/>
<path d="M122.325 45.165C124.386 45.165 126.057 43.8726 126.057 42.2784C126.057 40.6842 124.386 39.3918 122.325 39.3918C120.264 39.3918 118.594 40.6842 118.594 42.2784C118.594 43.8726 120.264 45.165 122.325 45.165Z" fill="#00A1DE"/>
<path d="M112.693 48.9111C114.754 48.9111 116.424 47.6187 116.424 46.0245C116.424 44.4303 114.754 43.1379 112.693 43.1379C110.632 43.1379 108.961 44.4303 108.961 46.0245C108.961 47.6187 110.632 48.9111 112.693 48.9111Z" fill="#00A1DE"/>
<path d="M117.576 52.2603C117.576 52.2603 97.0913 63.5251 96.9655 65.6174C96.8396 67.7098 97.3473 70.8102 101.997 69.5448C106.308 68.3797 122.952 61.0901 124.148 59.9643C125.343 58.8385 117.576 52.2603 117.576 52.2603Z" fill="#C7E9F6"/>
<path d="M125.345 58.8433C126.391 57.0202 125.179 54.3457 122.637 52.8696C120.094 51.3935 117.185 51.6747 116.138 53.4978C115.092 55.3209 116.304 57.9955 118.846 59.4716C121.389 60.9477 124.298 60.6664 125.345 58.8433Z" fill="#3A4756"/>
<path d="M115.765 54.9636C115.765 54.9636 120.846 54.3767 121.371 55.3171C121.896 56.2575 120.744 60.2437 120.744 60.2437C120.744 60.2437 116.175 59.1375 115.765 54.9636Z" fill="#00A1DE"/>
<path d="M41.1062 71.7332C40.6722 72.0146 26.7112 81.0583 23.5329 81.6103C20.3132 82.1689 7.46521 76.4983 5.69486 75.5012C5.22407 75.2459 5.44103 74.6546 6.04416 73.9106C9.81483 75.1979 21.5868 79.0467 25.0515 78.2219C29.1259 77.2532 40.7135 71.9099 41.1062 71.7332Z" fill="#79A6F7"/>
</g>
<defs>
<clipPath id="clip0_100_4246">
<rect width="196.308" height="110" fill="white" transform="translate(0.179688)"/>
</clipPath>
</defs>
</svg>
