<svg width="26" height="26" viewBox="0 0 26 26" fill="none" xmlns="http://www.w3.org/2000/svg">
<g clip-path="url(#clip0_115_1925)">
<path d="M3.04688 9.75H6.09375V12.7969H3.04688V9.75Z" fill="#C7E9F6"/>
<path d="M8.63281 9.75H11.6797V12.7969H8.63281V9.75Z" fill="#C7E9F6"/>
<path d="M14.3203 9.75H17.3672V12.7969H14.3203V9.75Z" fill="#C7E9F6"/>
<path d="M19.9062 9.75H22.9531V12.7969H19.9062V9.75Z" fill="#C7E9F6"/>
<path d="M3.04688 14.8281H6.09375V17.875H3.04688V14.8281Z" fill="#C7E9F6"/>
<path d="M8.63281 14.8281H11.6797V17.875H8.63281V14.8281Z" fill="#C7E9F6"/>
<path d="M14.3203 14.8281H17.3672V17.875H14.3203V14.8281Z" fill="#C7E9F6"/>
<path d="M19.9062 14.8281H22.9531V17.875H19.9062V14.8281Z" fill="#C7E9F6"/>
<path d="M3.04688 19.9062H6.09375V22.9531H3.04688V19.9062Z" fill="#C7E9F6"/>
<path d="M8.63281 19.9062H11.6797V22.9531H8.63281V19.9062Z" fill="#C7E9F6"/>
<path d="M14.3203 19.9062H17.3672V22.9531H14.3203V19.9062Z" fill="#C7E9F6"/>
<path d="M19.9062 19.9062H22.9531V22.9531H19.9062V19.9062Z" fill="#C7E9F6"/>
<path d="M25.4922 2.03125H22.1914V1.52344C22.1914 0.683414 21.508 0 20.668 0C19.8279 0 19.1445 0.683414 19.1445 1.52344V2.03125H17.1133V1.52344C17.1133 0.683414 16.4299 0 15.5898 0C14.7498 0 14.0664 0.683414 14.0664 1.52344V2.03125H11.9336V1.52344C11.9336 0.683414 11.2502 0 10.4102 0C9.57013 0 8.88672 0.683414 8.88672 1.52344V2.03125H6.85547V1.52344C6.85547 0.683414 6.17205 0 5.33203 0C4.49201 0 3.80859 0.683414 3.80859 1.52344V2.03125H0.507812C0.227348 2.03125 0 2.25865 0 2.53906V25.4922C0 25.7726 0.227348 26 0.507812 26H25.4922C25.7727 26 26 25.7726 26 25.4922V2.53906C26 2.25865 25.7727 2.03125 25.4922 2.03125ZM20.1602 1.52344C20.1602 1.24343 20.388 1.01562 20.668 1.01562C20.948 1.01562 21.1758 1.24343 21.1758 1.52344V3.55469C21.1758 3.8347 20.948 4.0625 20.668 4.0625C20.388 4.0625 20.1602 3.8347 20.1602 3.55469V1.52344ZM15.082 1.52344C15.082 1.24343 15.3098 1.01562 15.5898 1.01562C15.8699 1.01562 16.0977 1.24343 16.0977 1.52344V3.55469C16.0977 3.8347 15.8699 4.0625 15.5898 4.0625C15.3098 4.0625 15.082 3.8347 15.082 3.55469V1.52344ZM9.90234 1.52344C9.90234 1.24343 10.1301 1.01562 10.4102 1.01562C10.6902 1.01562 10.918 1.24343 10.918 1.52344V3.55469C10.918 3.8347 10.6902 4.0625 10.4102 4.0625C10.1301 4.0625 9.90234 3.8347 9.90234 3.55469V1.52344ZM4.82422 1.52344C4.82422 1.24343 5.05202 1.01562 5.33203 1.01562C5.61204 1.01562 5.83984 1.24343 5.83984 1.52344V3.55469C5.83984 3.8347 5.61204 4.0625 5.33203 4.0625C5.05202 4.0625 4.82422 3.8347 4.82422 3.55469V1.52344ZM3.80859 3.04688V3.55469C3.80859 4.39471 4.49201 5.07812 5.33203 5.07812C6.17205 5.07812 6.85547 4.39471 6.85547 3.55469V3.04688H8.88672V3.55469C8.88672 4.39471 9.57013 5.07812 10.4102 5.07812C11.2502 5.07812 11.9336 4.39471 11.9336 3.55469V3.04688H14.0664V3.55469C14.0664 4.39471 14.7498 5.07812 15.5898 5.07812C16.4299 5.07812 17.1133 4.39471 17.1133 3.55469V3.04688H19.1445V3.55469C19.1445 4.39471 19.8279 5.07812 20.668 5.07812C21.508 5.07812 22.1914 4.39471 22.1914 3.55469V3.04688H24.9844V6.70312H1.01562V3.04688H3.80859ZM1.01562 24.9844V7.71875H24.9844V24.9844H1.01562Z" fill="#00A1DE"/>
</g>
<defs>
<clipPath id="clip0_115_1925">
<rect width="26" height="26" fill="white"/>
</clipPath>
</defs>
</svg>
