<svg width="101" height="100" viewBox="0 0 101 100" fill="none" xmlns="http://www.w3.org/2000/svg">
<path d="M83.3389 68.8147L84.2889 69.3897C84.5798 69.5662 84.9136 69.6595 85.2539 69.6595C85.5942 69.6595 85.9279 69.5662 86.2189 69.3897L87.1689 68.8147L86.5926 69.7647C86.4161 70.0556 86.3228 70.3894 86.3228 70.7297C86.3228 71.07 86.4161 71.4038 86.5926 71.6947L87.1689 72.6447L86.2189 72.0684C85.9279 71.8919 85.5942 71.7986 85.2539 71.7986C84.9136 71.7986 84.5798 71.8919 84.2889 72.0684L83.3389 72.6447L83.9139 71.6947C84.0904 71.4038 84.1837 71.07 84.1837 70.7297C84.1837 70.3894 84.0904 70.0556 83.9139 69.7647L83.3389 68.8147Z" fill="#94E3FF"/>
<path d="M83.3402 72.8947C83.2959 72.8948 83.2523 72.883 83.2139 72.8607C83.1756 72.8383 83.1439 72.8061 83.1221 72.7675C83.1003 72.7288 83.0892 72.685 83.09 72.6407C83.0907 72.5963 83.1032 72.5529 83.1262 72.515L83.7025 71.565C83.8558 71.3133 83.9369 71.0244 83.9369 70.7297C83.9369 70.4351 83.8558 70.1461 83.7025 69.8945L83.1262 68.9445C83.0971 68.8966 83.0849 68.8404 83.0916 68.7848C83.0983 68.7292 83.1235 68.6774 83.1631 68.6378C83.2027 68.5982 83.2544 68.573 83.31 68.5664C83.3656 68.5597 83.4219 68.5719 83.4697 68.601L84.4197 69.1772C84.6714 69.3305 84.9603 69.4116 85.255 69.4116C85.5496 69.4116 85.8386 69.3305 86.0902 69.1772L87.0402 68.601C87.0881 68.5719 87.1443 68.5597 87.1999 68.5664C87.2555 68.573 87.3073 68.5982 87.3469 68.6378C87.3865 68.6774 87.4117 68.7292 87.4183 68.7848C87.425 68.8404 87.4128 68.8966 87.3837 68.9445L86.8075 69.8945C86.6542 70.1461 86.5731 70.4351 86.5731 70.7297C86.5731 71.0244 86.6542 71.3133 86.8075 71.565L87.3837 72.515C87.4128 72.5628 87.425 72.6191 87.4183 72.6747C87.4117 72.7303 87.3865 72.782 87.3469 72.8216C87.3073 72.8612 87.2555 72.8864 87.1999 72.8931C87.1443 72.8998 87.0881 72.8876 87.0402 72.8585L86.0902 72.2822C85.8386 72.1289 85.5496 72.0478 85.255 72.0478C84.9603 72.0478 84.6714 72.1289 84.4197 72.2822L83.4697 72.8585C83.4307 72.8822 83.3859 72.8947 83.3402 72.8947ZM84.0832 69.558L84.13 69.6352C84.3309 69.965 84.4371 70.3437 84.4371 70.7298C84.4371 71.116 84.3309 71.4947 84.13 71.8245L84.0832 71.9015L84.1605 71.8547C84.4903 71.6538 84.869 71.5476 85.2551 71.5476C85.6413 71.5476 86.02 71.6538 86.3497 71.8547L86.4267 71.9015L86.38 71.8245C86.1791 71.4947 86.0729 71.116 86.0729 70.7298C86.0729 70.3437 86.1791 69.965 86.38 69.6352L86.4267 69.558L86.3497 69.6047C86.02 69.8056 85.6413 69.9118 85.2551 69.9118C84.869 69.9118 84.4903 69.8056 84.1605 69.6047L84.0832 69.558Z" fill="#3B5C91"/>
<path d="M85.2549 15.4962L86.3339 15.232C86.6644 15.151 86.9664 14.981 87.207 14.7404C87.4477 14.4997 87.6177 14.1977 87.6986 13.8672L87.9629 12.7882L88.2274 13.8672C88.3083 14.1977 88.4783 14.4997 88.7189 14.7403C88.9595 14.9809 89.2614 15.151 89.5919 15.232L90.6711 15.4962L89.5919 15.7605C89.2614 15.8414 88.9595 16.0114 88.7189 16.252C88.4784 16.4926 88.3083 16.7945 88.2274 17.125L87.9629 18.204L87.6986 17.125C87.6177 16.7944 87.4477 16.4924 87.207 16.2518C86.9664 16.0112 86.6644 15.8411 86.3339 15.7602L85.2549 15.4962Z" fill="#FFD385"/>
<path d="M87.9628 18.4542C87.9069 18.4542 87.8526 18.4354 87.8086 18.4009C87.7646 18.3663 87.7334 18.318 87.7201 18.2637L87.4558 17.1847C87.3863 16.8984 87.2394 16.6368 87.0311 16.4285C86.8229 16.2201 86.5613 16.0731 86.2751 16.0035L85.1961 15.739C85.1418 15.7256 85.0936 15.6944 85.0591 15.6504C85.0246 15.6064 85.0059 15.5521 85.0059 15.4962C85.0059 15.4403 85.0246 15.386 85.0591 15.342C85.0936 15.298 85.1418 15.2668 85.1961 15.2535L86.2751 14.9892C86.5615 14.9196 86.8232 14.7726 87.0316 14.5642C87.24 14.3558 87.387 14.0941 87.4566 13.8077L87.7208 12.7287C87.7341 12.6743 87.7653 12.6259 87.8093 12.5913C87.8533 12.5568 87.9077 12.538 87.9637 12.538C88.0197 12.538 88.0741 12.5568 88.1181 12.5913C88.1622 12.6259 88.1933 12.6743 88.2066 12.7287L88.4708 13.8077C88.5404 14.0941 88.6874 14.3558 88.8957 14.5642C89.1041 14.7726 89.3657 14.9196 89.6521 14.9892L90.7311 15.2535C90.7854 15.2668 90.8336 15.298 90.8681 15.342C90.9026 15.386 90.9213 15.4403 90.9213 15.4962C90.9213 15.5521 90.9026 15.6064 90.8681 15.6504C90.8336 15.6944 90.7854 15.7256 90.7311 15.739L89.6521 16.0035C89.3658 16.073 89.1041 16.22 88.8957 16.4283C88.6874 16.6367 88.5404 16.8984 88.4708 17.1847L88.2066 18.2637C88.1932 18.3182 88.1619 18.3666 88.1177 18.4012C88.0735 18.4357 88.019 18.4544 87.9628 18.4542ZM86.3058 15.4962L86.3933 15.5177C86.7686 15.6089 87.1115 15.8015 87.3845 16.0745C87.6575 16.3476 87.8502 16.6905 87.9413 17.0657L87.9628 17.1535L87.9843 17.0657C88.0755 16.6905 88.2682 16.3476 88.5412 16.0746C88.8142 15.8015 89.1571 15.6089 89.5323 15.5177L89.6201 15.4962L89.5323 15.4747C89.1571 15.3835 88.8142 15.1909 88.5412 14.9179C88.2681 14.6448 88.0755 14.3019 87.9843 13.9267L87.9628 13.839L87.9413 13.9267C87.8503 14.302 87.6577 14.645 87.3846 14.9181C87.1116 15.1912 86.7686 15.3838 86.3933 15.475L86.3058 15.4962Z" fill="#3B5C91"/>
<path d="M9.15036 31.2602L10.0306 34.5454C10.0644 34.6714 10.1307 34.7862 10.2229 34.8784C10.3152 34.9706 10.43 35.0369 10.556 35.0707C10.682 35.1044 10.8146 35.1044 10.9406 35.0707C11.0665 35.0369 11.1814 34.9706 11.2736 34.8784L13.6786 32.4734C13.7708 32.3812 13.8371 32.2663 13.8709 32.1404C13.9046 32.0144 13.9046 31.8818 13.8709 31.7558C13.8371 31.6298 13.7708 31.515 13.6786 31.4227C13.5864 31.3305 13.4716 31.2642 13.3456 31.2304L10.0599 30.3499C9.93388 30.3162 9.80126 30.3163 9.67533 30.3501C9.54939 30.3839 9.43457 30.4503 9.3424 30.5425C9.25024 30.6348 9.18397 30.7497 9.15026 30.8756C9.11655 31.0016 9.11658 31.1342 9.15036 31.2602Z" fill="#FFD385"/>
<path d="M10.7519 35.3469C10.6636 35.3468 10.5757 35.3351 10.4904 35.3122C10.3216 35.2679 10.1676 35.1796 10.0442 35.0562C9.92076 34.9328 9.83241 34.7788 9.7882 34.6099L8.90795 31.3249C8.86275 31.1565 8.86272 30.9791 8.90786 30.8106C8.953 30.6421 9.04171 30.4885 9.16508 30.3652C9.28845 30.2419 9.44212 30.1533 9.61062 30.1083C9.77912 30.0632 9.95652 30.0634 10.1249 30.1087L13.4102 30.9889C13.5785 31.0341 13.732 31.1227 13.8553 31.246C13.9785 31.3692 14.0671 31.5227 14.1122 31.6911C14.1573 31.8595 14.1573 32.0367 14.1122 32.2051C14.0671 32.3734 13.9784 32.5269 13.8552 32.6502L11.4502 35.0552C11.3589 35.1475 11.2501 35.2209 11.1303 35.271C11.0104 35.3211 10.8818 35.3469 10.7519 35.3469ZM9.39095 31.1954L10.2712 34.4807C10.2936 34.5643 10.3376 34.6406 10.3988 34.7018C10.46 34.763 10.5362 34.807 10.6199 34.8294C10.7035 34.8518 10.7915 34.8518 10.8752 34.8294C10.9588 34.807 11.035 34.7629 11.0962 34.7017L13.5012 32.2967C13.5624 32.2355 13.6065 32.1592 13.6289 32.0756C13.6513 31.992 13.6514 31.904 13.629 31.8203C13.6066 31.7367 13.5625 31.6605 13.5013 31.5993C13.4401 31.5381 13.3638 31.494 13.2802 31.4717L9.99495 30.5914C9.91135 30.569 9.82332 30.5689 9.7397 30.5913C9.65609 30.6136 9.57984 30.6576 9.51863 30.7189C9.45743 30.7801 9.41343 30.8563 9.39105 30.9399C9.36868 31.0235 9.36873 31.1116 9.3912 31.1952L9.39095 31.1954Z" fill="#3B5C91"/>
<path d="M56.956 91.0612L57.5138 87.7062C57.5352 87.5775 57.5223 87.4455 57.4765 87.3234C57.4307 87.2012 57.3536 87.0933 57.2528 87.0105C57.1521 86.9276 57.0313 86.8727 56.9026 86.8514C56.7739 86.83 56.6419 86.8429 56.5198 86.8887L53.3355 88.0832C53.2134 88.129 53.1055 88.2061 53.0227 88.3069C52.9398 88.4076 52.885 88.5284 52.8636 88.657C52.8422 88.7857 52.855 88.9177 52.9009 89.0398C52.9467 89.1619 53.0238 89.2698 53.1245 89.3527L55.7503 91.5132C55.851 91.5962 55.9719 91.6513 56.1006 91.6728C56.2294 91.6943 56.3616 91.6815 56.4838 91.6357C56.6061 91.5898 56.7141 91.5126 56.797 91.4118C56.8799 91.3109 56.9347 91.19 56.956 91.0612Z" fill="#FF9494"/>
<path d="M56.2199 91.9337C55.9906 91.9332 55.7687 91.8528 55.5924 91.7062L52.9656 89.5457C52.831 89.4349 52.728 89.2907 52.6668 89.1275C52.6056 88.9644 52.5884 88.788 52.617 88.616C52.6455 88.4441 52.7189 88.2827 52.8296 88.1481C52.9403 88.0135 53.0844 87.9104 53.2476 87.8492L56.4321 86.6544C56.5953 86.5933 56.7718 86.5762 56.9437 86.6048C57.1156 86.6334 57.277 86.7068 57.4115 86.8175C57.5461 86.9283 57.6492 87.0725 57.7105 87.2356C57.7717 87.3988 57.7889 87.5752 57.7604 87.7472L57.2029 91.1022C57.1752 91.2744 57.1022 91.4363 56.9914 91.571C56.8805 91.7057 56.7358 91.8086 56.5721 91.8689C56.4596 91.9116 56.3402 91.9335 56.2199 91.9337ZM56.7826 87.0907C56.7228 87.0908 56.6636 87.1016 56.6076 87.1227L53.4234 88.3172C53.3423 88.3476 53.2707 88.3987 53.2157 88.4656C53.1607 88.5324 53.1243 88.6126 53.1101 88.698C53.0959 88.7834 53.1044 88.871 53.1348 88.9521C53.1653 89.0331 53.2165 89.1047 53.2834 89.1597L55.9101 91.3199C55.9769 91.375 56.0571 91.4115 56.1426 91.4258C56.228 91.4401 56.3157 91.4315 56.3968 91.4011C56.4779 91.3707 56.5496 91.3195 56.6046 91.2525C56.6596 91.1856 56.696 91.1054 56.7101 91.0199L57.2676 87.6649C57.2794 87.5944 57.2757 87.5221 57.2568 87.4532C57.2379 87.3842 57.2042 87.3202 57.1582 87.2655C57.1121 87.2108 57.0547 87.1668 56.9899 87.1365C56.9252 87.1062 56.8546 87.0903 56.7831 87.0899L56.7826 87.0907Z" fill="#3B5C91"/>
<path d="M11.5268 79.0232L12.4858 78.0644C12.591 77.9592 12.6501 77.8166 12.6501 77.6678C12.6502 77.519 12.5911 77.3763 12.4859 77.2711C12.3807 77.1658 12.238 77.1067 12.0892 77.1067C11.9404 77.1067 11.7977 77.1657 11.6925 77.2709L10.7335 78.2299L9.77501 77.2709C9.66978 77.1657 9.52708 77.1067 9.3783 77.1067C9.22951 77.1067 9.08683 77.1658 8.98163 77.2711C8.87644 77.3763 8.81736 77.519 8.81738 77.6678C8.81741 77.8166 8.87653 77.9592 8.98176 78.0644L9.94076 79.0232L8.98176 79.9822C8.8819 80.0884 8.82734 80.2294 8.82962 80.3752C8.83191 80.521 8.89086 80.6601 8.99399 80.7632C9.09712 80.8663 9.23633 80.9251 9.38212 80.9273C9.52791 80.9295 9.66882 80.8749 9.77501 80.7749L10.734 79.8162L11.6925 80.7749C11.7983 80.8771 11.94 80.9336 12.0871 80.9323C12.2341 80.931 12.3748 80.872 12.4788 80.768C12.5828 80.664 12.6418 80.5233 12.6431 80.3763C12.6444 80.2292 12.5879 80.0875 12.4858 79.9817L11.5268 79.0232Z" fill="#FF9494"/>
<path d="M44.7522 11.2562H43.5377V10.0417C43.5348 9.91041 43.4805 9.78548 43.3867 9.69365C43.2928 9.60183 43.1666 9.55042 43.0353 9.55042C42.904 9.55042 42.7779 9.60183 42.684 9.69365C42.5901 9.78548 42.5359 9.91041 42.5329 10.0417V11.2562H41.3184C41.1871 11.2591 41.0622 11.3134 40.9704 11.4072C40.8786 11.5011 40.8271 11.6273 40.8271 11.7586C40.8271 11.8899 40.8786 12.016 40.9704 12.1099C41.0622 12.2038 41.1871 12.258 41.3184 12.261H42.5329V13.475C42.5314 13.5419 42.5433 13.6084 42.5679 13.6707C42.5925 13.7329 42.6293 13.7896 42.6761 13.8375C42.7229 13.8854 42.7787 13.9234 42.8404 13.9493C42.9021 13.9753 42.9684 13.9887 43.0353 13.9887C43.1023 13.9887 43.1685 13.9753 43.2302 13.9493C43.2919 13.9234 43.3478 13.8854 43.3946 13.8375C43.4414 13.7896 43.4781 13.7329 43.5027 13.6707C43.5273 13.6084 43.5392 13.5419 43.5377 13.475V12.261H44.7522C44.8191 12.2625 44.8856 12.2506 44.9479 12.226C45.0102 12.2014 45.0669 12.1646 45.1147 12.1178C45.1626 12.071 45.2006 12.0152 45.2266 11.9535C45.2525 11.8918 45.2659 11.8255 45.2659 11.7586C45.2659 11.6916 45.2525 11.6254 45.2266 11.5637C45.2006 11.502 45.1626 11.4461 45.1147 11.3993C45.0669 11.3525 45.0102 11.3158 44.9479 11.2912C44.8856 11.2666 44.8191 11.2547 44.7522 11.2562Z" fill="#FF9494"/>
<path d="M32.5101 72.9668C30.0501 72.9668 28.0488 70.9668 28.0488 68.5056V42.1786H75.8816V59.3221L66.2908 68.9133L61.3698 63.9921L56.9686 68.3921L61.5436 72.9671L32.5101 72.9668Z" fill="#E5F5FA"/>
<path d="M54.7979 66.0672L59.0446 61.8207L63.9656 66.7417L75.6646 55.0425L79.9111 59.2892L63.9656 75.235L54.7979 66.0672Z" fill="#FF9494"/>
<path d="M74.5012 54.534L78.0937 58.1265L62.8022 73.418L54.2887 64.9045L57.8812 61.312L62.8022 66.2332L74.5022 54.5332M74.5022 53.225L73.8482 53.879L62.8022 64.925L58.5352 60.658L57.8812 60.0037L57.227 60.658L53.6345 64.25L52.9805 64.904L53.6345 65.558L62.1482 74.0717L62.8022 74.7257L63.4565 74.0717L78.7477 58.78L79.4017 58.126L78.7477 57.472L75.1552 53.8792L74.5012 53.225H74.5022Z" fill="#3B5C91"/>
<path d="M28.0488 42.1691V38.8856C28.0488 36.4256 30.0501 34.4243 32.5101 34.4243H71.4203C73.8801 34.4243 75.8816 36.4243 75.8816 38.8856V42.1691H28.0488Z" fill="#FFD385"/>
<path d="M67.9329 31.3984C70.1377 31.3984 71.9317 33.1922 71.9317 35.3984V38.2194H25.0237V35.3972C25.0237 33.1922 26.8177 31.3972 29.0237 31.3972H67.9329M67.9329 30.4722H29.0227C26.3077 30.4722 24.0977 32.6809 24.0977 35.3972V39.1432H72.8567V35.3972C72.8567 32.6822 70.6477 30.4722 67.9329 30.4722Z" fill="#3B5C91"/>
<path d="M71.9316 39.1528V55.6423L62.8034 64.7705L57.8824 59.85L52.8271 64.9053L56.9386 69.0168H29.0226C26.8176 69.0168 25.0226 67.223 25.0226 65.018V39.1528H71.9316ZM72.8566 38.2278H24.0986V65.0173C24.0986 67.7323 26.3076 69.941 29.0236 69.941H59.1736L57.5944 68.362L54.1371 64.9045L57.8841 61.1575L62.1494 65.425L62.8034 66.079L63.4576 65.425L72.5856 56.2968L72.8566 56.0258V38.2283V38.2278Z" fill="#3B5C91"/>
<g style="mix-blend-mode:multiply">
<path d="M35.9478 60.7119H31.9403C31.4749 60.7119 31.0286 60.8968 30.6995 61.2259C30.3704 61.5549 30.1855 62.0013 30.1855 62.4667C30.1855 62.9321 30.3704 63.3784 30.6995 63.7075C31.0286 64.0365 31.4749 64.2214 31.9403 64.2214H35.9478C36.4132 64.2214 36.8595 64.0365 37.1886 63.7075C37.5177 63.3784 37.7025 62.9321 37.7025 62.4667C37.7025 62.0013 37.5177 61.5549 37.1886 61.2259C36.8595 60.8968 36.4132 60.7119 35.9478 60.7119Z" fill="#C1D9E0"/>
</g>
<g style="mix-blend-mode:multiply">
<path d="M35.9482 53.2777H31.9407C31.7085 53.2749 31.4781 53.3183 31.2628 53.4052C31.0475 53.4921 30.8516 53.621 30.6864 53.7842C30.5213 53.9474 30.3901 54.1417 30.3006 54.356C30.2111 54.5702 30.165 54.8001 30.165 55.0323C30.165 55.2645 30.2111 55.4944 30.3006 55.7087C30.3901 55.9229 30.5213 56.1173 30.6864 56.2805C30.8516 56.4437 31.0475 56.5725 31.2628 56.6595C31.4781 56.7464 31.7085 56.7897 31.9407 56.787H35.9482C36.1804 56.7897 36.4108 56.7464 36.6262 56.6595C36.8415 56.5725 37.0374 56.4437 37.2025 56.2805C37.3677 56.1173 37.4988 55.9229 37.5883 55.7087C37.6778 55.4944 37.7239 55.2645 37.7239 55.0323C37.7239 54.8001 37.6778 54.5702 37.5883 54.356C37.4988 54.1417 37.3677 53.9474 37.2025 53.7842C37.0374 53.621 36.8415 53.4921 36.6262 53.4052C36.4108 53.3183 36.1804 53.2749 35.9482 53.2777Z" fill="#C1D9E0"/>
</g>
<g style="mix-blend-mode:multiply">
<path d="M35.9482 45.8434H31.9407C31.7085 45.8406 31.4781 45.884 31.2628 45.9709C31.0475 46.0578 30.8516 46.1866 30.6864 46.3498C30.5213 46.513 30.3901 46.7074 30.3006 46.9217C30.2111 47.1359 30.165 47.3658 30.165 47.598C30.165 47.8302 30.2111 48.0601 30.3006 48.2744C30.3901 48.4886 30.5213 48.683 30.6864 48.8462C30.8516 49.0094 31.0475 49.1382 31.2628 49.2251C31.4781 49.3121 31.7085 49.3554 31.9407 49.3526H35.9482C36.1804 49.3554 36.4108 49.3121 36.6262 49.2251C36.8415 49.1382 37.0374 49.0094 37.2025 48.8462C37.3677 48.683 37.4988 48.4886 37.5883 48.2744C37.6778 48.0601 37.7239 47.8302 37.7239 47.598C37.7239 47.3658 37.6778 47.1359 37.5883 46.9217C37.4988 46.7074 37.3677 46.513 37.2025 46.3498C37.0374 46.1866 36.8415 46.0578 36.6262 45.9709C36.4108 45.884 36.1804 45.8406 35.9482 45.8434Z" fill="#C1D9E0"/>
</g>
<g style="mix-blend-mode:multiply">
<path d="M46.3035 60.7119H42.2958C41.8304 60.7119 41.3841 60.8968 41.055 61.2259C40.7259 61.5549 40.541 62.0013 40.541 62.4667C40.541 62.9321 40.7259 63.3784 41.055 63.7075C41.3841 64.0365 41.8304 64.2214 42.2958 64.2214H46.3035C46.7689 64.2214 47.2152 64.0365 47.5443 63.7075C47.8734 63.3784 48.0583 62.9321 48.0583 62.4667C48.0583 62.0013 47.8734 61.5549 47.5443 61.2259C47.2152 60.8968 46.7689 60.7119 46.3035 60.7119Z" fill="#C1D9E0"/>
</g>
<g style="mix-blend-mode:multiply">
<path d="M46.3031 53.2777H42.2953C41.8336 53.2832 41.3927 53.4705 41.0681 53.799C40.7435 54.1274 40.5615 54.5706 40.5615 55.0323C40.5615 55.4941 40.7435 55.9372 41.0681 56.2657C41.3927 56.5942 41.8336 56.7814 42.2953 56.787H46.3031C46.5353 56.7897 46.7657 56.7464 46.981 56.6595C47.1963 56.5725 47.3922 56.4437 47.5574 56.2805C47.7226 56.1173 47.8537 55.9229 47.9432 55.7087C48.0327 55.4944 48.0788 55.2645 48.0788 55.0323C48.0788 54.8001 48.0327 54.5702 47.9432 54.356C47.8537 54.1417 47.7226 53.9474 47.5574 53.7842C47.3922 53.621 47.1963 53.4921 46.981 53.4052C46.7657 53.3183 46.5353 53.2749 46.3031 53.2777Z" fill="#C1D9E0"/>
</g>
<g style="mix-blend-mode:multiply">
<path d="M46.3031 45.8435H42.2953C41.8336 45.849 41.3927 46.0363 41.0681 46.3648C40.7435 46.6932 40.5615 47.1364 40.5615 47.5981C40.5615 48.0599 40.7435 48.503 41.0681 48.8315C41.3927 49.16 41.8336 49.3472 42.2953 49.3528H46.3031C46.5353 49.3555 46.7657 49.3122 46.981 49.2253C47.1963 49.1383 47.3922 49.0095 47.5574 48.8463C47.7226 48.6831 47.8537 48.4887 47.9432 48.2745C48.0327 48.0602 48.0788 47.8303 48.0788 47.5981C48.0788 47.3659 48.0327 47.136 47.9432 46.9218C47.8537 46.7075 47.7226 46.5132 47.5574 46.35C47.3922 46.1867 47.1963 46.0579 46.981 45.971C46.7657 45.8841 46.5353 45.8407 46.3031 45.8435Z" fill="#C1D9E0"/>
</g>
<g style="mix-blend-mode:multiply">
<path d="M56.658 53.2777H52.6497C52.4175 53.2749 52.1871 53.3183 51.9718 53.4052C51.7565 53.4921 51.5606 53.621 51.3954 53.7842C51.2302 53.9474 51.0991 54.1417 51.0096 54.356C50.9201 54.5702 50.874 54.8001 50.874 55.0323C50.874 55.2645 50.9201 55.4944 51.0096 55.7087C51.0991 55.9229 51.2302 56.1173 51.3954 56.2805C51.5606 56.4437 51.7565 56.5725 51.9718 56.6595C52.1871 56.7464 52.4175 56.7897 52.6497 56.787H56.6575C57.1192 56.7814 57.5601 56.5942 57.8847 56.2657C58.2093 55.9372 58.3913 55.4941 58.3913 55.0323C58.3913 54.5706 58.2093 54.1274 57.8847 53.799C57.5601 53.4705 57.1192 53.2832 56.6575 53.2777H56.658Z" fill="#C1D9E0"/>
</g>
<g style="mix-blend-mode:multiply">
<path d="M56.658 45.8434H52.6497C52.4175 45.8406 52.1871 45.884 51.9718 45.9709C51.7565 46.0578 51.5606 46.1866 51.3954 46.3498C51.2302 46.513 51.0991 46.7074 51.0096 46.9217C50.9201 47.1359 50.874 47.3658 50.874 47.598C50.874 47.8302 50.9201 48.0601 51.0096 48.2744C51.0991 48.4886 51.2302 48.683 51.3954 48.8462C51.5606 49.0094 51.7565 49.1382 51.9718 49.2251C52.1871 49.3121 52.4175 49.3554 52.6497 49.3526H56.6575C57.1192 49.3471 57.5601 49.1598 57.8847 48.8314C58.2093 48.5029 58.3913 48.0598 58.3913 47.598C58.3913 47.1363 58.2093 46.6931 57.8847 46.3646C57.5601 46.0362 57.1192 45.8489 56.6575 45.8434H56.658Z" fill="#C1D9E0"/>
</g>
<g style="mix-blend-mode:multiply">
<path d="M67.0137 53.2777H63.0062C62.774 53.2749 62.5436 53.3183 62.3282 53.4052C62.1129 53.4921 61.917 53.621 61.7518 53.7842C61.5867 53.9474 61.4556 54.1417 61.3661 54.356C61.2766 54.5702 61.2305 54.8001 61.2305 55.0323C61.2305 55.2645 61.2766 55.4944 61.3661 55.7087C61.4556 55.9229 61.5867 56.1173 61.7518 56.2805C61.917 56.4437 62.1129 56.5725 62.3282 56.6595C62.5436 56.7464 62.774 56.7897 63.0062 56.787H67.0137C67.2458 56.7897 67.4763 56.7464 67.6916 56.6595C67.9069 56.5725 68.1028 56.4437 68.268 56.2805C68.4331 56.1173 68.5643 55.9229 68.6538 55.7087C68.7433 55.4944 68.7894 55.2645 68.7894 55.0323C68.7894 54.8001 68.7433 54.5702 68.6538 54.356C68.5643 54.1417 68.4331 53.9474 68.268 53.7842C68.1028 53.621 67.9069 53.4921 67.6916 53.4052C67.4763 53.3183 67.2458 53.2749 67.0137 53.2777Z" fill="#C1D9E0"/>
</g>
<g style="mix-blend-mode:multiply">
<path d="M63.0062 49.3528H67.0137C67.2458 49.3555 67.4763 49.3122 67.6916 49.2253C67.9069 49.1383 68.1028 49.0095 68.268 48.8463C68.4331 48.6831 68.5643 48.4887 68.6538 48.2745C68.7433 48.0602 68.7894 47.8303 68.7894 47.5981C68.7894 47.3659 68.7433 47.136 68.6538 46.9218C68.5643 46.7075 68.4331 46.5132 68.268 46.35C68.1028 46.1867 67.9069 46.0579 67.6916 45.971C67.4763 45.8841 67.2458 45.8407 67.0137 45.8435H63.0062C62.774 45.8407 62.5436 45.8841 62.3282 45.971C62.1129 46.0579 61.917 46.1867 61.7518 46.35C61.5867 46.5132 61.4556 46.7075 61.3661 46.9218C61.2766 47.136 61.2305 47.3659 61.2305 47.5981C61.2305 47.8303 61.2766 48.0602 61.3661 48.2745C61.4556 48.4887 61.5867 48.6831 61.7518 48.8463C61.917 49.0095 62.1129 49.1383 62.3282 49.2253C62.5436 49.3122 62.774 49.3555 63.0062 49.3528Z" fill="#C1D9E0"/>
</g>
<path d="M30.9397 62.7589C30.597 62.7589 30.2683 62.6228 30.026 62.3805C29.7836 62.1381 29.6475 61.8094 29.6475 61.4667C29.6475 61.124 29.7836 60.7953 30.026 60.5529C30.2683 60.3106 30.597 60.1744 30.9397 60.1744H34.9472C35.2899 60.1744 35.6186 60.3106 35.861 60.5529C36.1033 60.7953 36.2395 61.124 36.2395 61.4667C36.2395 61.8094 36.1033 62.1381 35.861 62.3805C35.6186 62.6228 35.2899 62.7589 34.9472 62.7589H30.9397Z" fill="white"/>
<path d="M34.9478 60.6369C35.1679 60.6369 35.3789 60.7243 35.5345 60.8799C35.6901 61.0356 35.7775 61.2466 35.7775 61.4667C35.7775 61.6867 35.6901 61.8978 35.5345 62.0534C35.3789 62.209 35.1679 62.2964 34.9478 62.2964H30.9403C30.7202 62.2964 30.5092 62.209 30.3536 62.0534C30.198 61.8978 30.1105 61.6867 30.1105 61.4667C30.1105 61.2466 30.198 61.0356 30.3536 60.8799C30.5092 60.7243 30.7202 60.6369 30.9403 60.6369H34.9478ZM34.9478 59.7119H30.9403C30.4749 59.7119 30.0286 59.8968 29.6995 60.2259C29.3704 60.5549 29.1855 61.0013 29.1855 61.4667C29.1855 61.9321 29.3704 62.3784 29.6995 62.7075C30.0286 63.0365 30.4749 63.2214 30.9403 63.2214H34.9478C35.4132 63.2214 35.8595 63.0365 36.1886 62.7075C36.5177 62.3784 36.7025 61.9321 36.7025 61.4667C36.7025 61.0013 36.5177 60.5549 36.1886 60.2259C35.8595 59.8968 35.4132 59.7119 34.9478 59.7119Z" fill="#3B5C91"/>
<path d="M32.6701 36.6857C32.1618 36.6852 31.6746 36.483 31.3152 36.1236C30.9558 35.7642 30.7537 35.277 30.7531 34.7687V28.6535C30.7502 28.3999 30.7976 28.1482 30.8927 27.9131C30.9877 27.678 31.1285 27.464 31.3068 27.2837C31.4851 27.1033 31.6974 26.9601 31.9314 26.8624C32.1655 26.7647 32.4166 26.7144 32.6702 26.7144C32.9238 26.7144 33.1749 26.7647 33.4089 26.8624C33.643 26.9601 33.8553 27.1033 34.0336 27.2837C34.2119 27.464 34.3527 27.678 34.4477 27.9131C34.5428 28.1482 34.5902 28.3999 34.5873 28.6535V34.7687C34.5867 35.277 34.3845 35.7643 34.0251 36.1237C33.6657 36.4831 33.1783 36.6852 32.6701 36.6857Z" fill="white"/>
<path d="M32.6695 27.1999C33.0552 27.2003 33.425 27.3537 33.6978 27.6264C33.9705 27.8992 34.1239 28.2689 34.1243 28.6547V34.7699C34.1193 35.1524 33.9638 35.5175 33.6916 35.7862C33.4193 36.0549 33.0522 36.2056 32.6697 36.2056C32.2871 36.2056 31.92 36.0549 31.6478 35.7862C31.3755 35.5175 31.2201 35.1524 31.215 34.7699V28.6534C31.2158 28.268 31.3693 27.8985 31.6419 27.6261C31.9146 27.3536 32.2841 27.2004 32.6695 27.1999ZM32.6695 26.2749C32.0386 26.2756 31.4338 26.5266 30.9877 26.9727C30.5416 27.4189 30.2907 28.0237 30.29 28.6547V34.7699C30.2965 35.3968 30.55 35.9958 30.9956 36.4369C31.4411 36.8779 32.0427 37.1253 32.6697 37.1253C33.2966 37.1253 33.8982 36.8779 34.3438 36.4369C34.7893 35.9958 35.0429 35.3968 35.0493 34.7699V28.6534C35.0482 28.0227 34.7971 27.4181 34.351 26.9723C33.9049 26.5264 33.3002 26.2756 32.6695 26.2749Z" fill="#3B5C91"/>
<path d="M40.5736 36.6857C40.0653 36.6852 39.578 36.4831 39.2186 36.1237C38.8592 35.7643 38.657 35.277 38.6564 34.7687V28.6535C38.6535 28.3999 38.7009 28.1482 38.796 27.9131C38.891 27.678 39.0318 27.464 39.2101 27.2837C39.3884 27.1033 39.6007 26.9601 39.8347 26.8624C40.0688 26.7647 40.3199 26.7144 40.5735 26.7144C40.8271 26.7144 41.0782 26.7647 41.3123 26.8624C41.5463 26.9601 41.7586 27.1033 41.9369 27.2837C42.1152 27.464 42.256 27.678 42.351 27.9131C42.4461 28.1482 42.4935 28.3999 42.4906 28.6535V34.7687C42.49 35.277 42.2879 35.7642 41.9285 36.1236C41.5691 36.483 41.0819 36.6852 40.5736 36.6857Z" fill="white"/>
<path d="M40.5731 27.1999C40.9588 27.2004 41.3285 27.3538 41.6012 27.6265C41.8739 27.8993 42.0272 28.269 42.0276 28.6547V34.7699C42.0226 35.1524 41.8671 35.5175 41.5949 35.7862C41.3226 36.0549 40.9555 36.2056 40.573 36.2056C40.1905 36.2056 39.8233 36.0549 39.5511 35.7862C39.2788 35.5175 39.1234 35.1524 39.1184 34.7699V28.6534C39.1188 28.2677 39.2722 27.8979 39.5449 27.6252C39.8176 27.3525 40.1874 27.1991 40.5731 27.1987M40.5731 26.2737C39.9422 26.2744 39.3373 26.5254 38.8912 26.9715C38.445 27.4176 38.1941 28.0225 38.1934 28.6534V34.7687C38.1998 35.3956 38.4533 35.9946 38.8989 36.4356C39.3445 36.8767 39.9461 37.124 40.573 37.124C41.1999 37.124 41.8015 36.8767 42.2471 36.4356C42.6926 35.9946 42.9462 35.3956 42.9526 34.7687V28.6534C42.9519 28.0225 42.701 27.4177 42.255 26.9715C41.8089 26.5254 41.204 26.2744 40.5731 26.2737Z" fill="#3B5C91"/>
<path d="M48.4767 36.6857C47.9685 36.6852 47.4812 36.483 47.1218 36.1236C46.7625 35.7642 46.5603 35.277 46.5597 34.7687V28.6535C46.5568 28.3999 46.6042 28.1482 46.6993 27.9131C46.7943 27.678 46.9351 27.464 47.1134 27.2837C47.2917 27.1033 47.504 26.9601 47.7381 26.8624C47.9721 26.7647 48.2232 26.7144 48.4768 26.7144C48.7304 26.7144 48.9815 26.7647 49.2156 26.8624C49.4496 26.9601 49.6619 27.1033 49.8402 27.2837C50.0185 27.464 50.1593 27.678 50.2543 27.9131C50.3494 28.1482 50.3968 28.3999 50.3939 28.6535V34.7687C50.3933 35.277 50.1912 35.7643 49.8317 36.1237C49.4723 36.4831 48.985 36.6852 48.4767 36.6857Z" fill="white"/>
<path d="M48.4772 27.1999C48.8628 27.2004 49.2326 27.3538 49.5053 27.6265C49.778 27.8993 49.9314 28.269 49.9319 28.6547V34.7699C49.9269 35.1524 49.7714 35.5175 49.4992 35.7862C49.2269 36.0549 48.8598 36.2056 48.4773 36.2056C48.0948 36.2056 47.7276 36.0549 47.4554 35.7862C47.1831 35.5175 47.0277 35.1524 47.0227 34.7699V28.6534C47.0231 28.2678 47.1764 27.898 47.4491 27.6253C47.7218 27.3526 48.0915 27.1991 48.4772 27.1987M48.4772 26.2737C47.8463 26.2744 47.2414 26.5254 46.7953 26.9715C46.3492 27.4177 46.0983 28.0225 46.0977 28.6534V34.7687C46.1041 35.3956 46.3576 35.9946 46.8032 36.4356C47.2488 36.8767 47.8504 37.124 48.4773 37.124C49.1042 37.124 49.7058 36.8767 50.1514 36.4356C50.5969 35.9946 50.8505 35.3956 50.8569 34.7687V28.6534C50.8562 28.0225 50.6052 27.4176 50.1591 26.9715C49.713 26.5254 49.1081 26.2744 48.4772 26.2737Z" fill="#3B5C91"/>
<path d="M56.38 36.6857C55.8718 36.6852 55.3845 36.483 55.0251 36.1236C54.6658 35.7642 54.4636 35.277 54.463 34.7687V28.6535C54.4601 28.3999 54.5076 28.1482 54.6026 27.9131C54.6977 27.678 54.8384 27.464 55.0167 27.2837C55.195 27.1033 55.4073 26.9601 55.6414 26.8624C55.8754 26.7647 56.1265 26.7144 56.3801 26.7144C56.6338 26.7144 56.8849 26.7647 57.1189 26.8624C57.3529 26.9601 57.5652 27.1033 57.7436 27.2837C57.9219 27.464 58.0626 27.678 58.1577 27.9131C58.2527 28.1482 58.3002 28.3999 58.2973 28.6535V34.7687C58.2967 35.277 58.0945 35.7643 57.735 36.1237C57.3756 36.4831 56.8883 36.6852 56.38 36.6857Z" fill="white"/>
<path d="M56.3805 27.1999C56.7662 27.2003 57.136 27.3537 57.4087 27.6264C57.6814 27.8992 57.8348 28.2689 57.8352 28.6547V34.7699C57.8302 35.1524 57.6748 35.5175 57.4025 35.7862C57.1303 36.0549 56.7631 36.2056 56.3806 36.2056C55.9981 36.2056 55.631 36.0549 55.3587 35.7862C55.0865 35.5175 54.931 35.1524 54.926 34.7699V28.6534C54.9267 28.268 55.0802 27.8985 55.3529 27.6261C55.6255 27.3536 55.995 27.2004 56.3805 27.1999ZM56.3805 26.2749C55.7496 26.2756 55.1447 26.5266 54.6986 26.9727C54.2525 27.4189 54.0016 28.0237 54.001 28.6547V34.7699C54.0074 35.3968 54.2609 35.9958 54.7065 36.4369C55.1521 36.8779 55.7537 37.1253 56.3806 37.1253C57.0075 37.1253 57.6091 36.8779 58.0547 36.4369C58.5003 35.9958 58.7538 35.3968 58.7602 34.7699V28.6534C58.7592 28.0227 58.5081 27.4181 58.062 26.9723C57.6159 26.5264 57.0112 26.2756 56.3805 26.2749Z" fill="#3B5C91"/>
<path d="M64.2836 36.6857C63.7753 36.6852 63.288 36.4831 62.9286 36.1237C62.5691 35.7643 62.3669 35.277 62.3663 34.7687V28.6535C62.3634 28.3999 62.4109 28.1482 62.5059 27.9131C62.601 27.678 62.7417 27.464 62.92 27.2837C63.0984 27.1033 63.3107 26.9601 63.5447 26.8624C63.7787 26.7647 64.0298 26.7144 64.2835 26.7144C64.5371 26.7144 64.7882 26.7647 65.0222 26.8624C65.2563 26.9601 65.4686 27.1033 65.6469 27.2837C65.8252 27.464 65.9659 27.678 66.061 27.9131C66.156 28.1482 66.2035 28.3999 66.2006 28.6535V34.7687C66.2 35.277 65.9978 35.7642 65.6385 36.1236C65.2791 36.483 64.7918 36.6852 64.2836 36.6857Z" fill="white"/>
<path d="M64.2831 27.1999C64.6687 27.2004 65.0385 27.3538 65.3111 27.6265C65.5838 27.8993 65.7372 28.269 65.7376 28.6547V34.7699C65.7326 35.1524 65.5771 35.5175 65.3048 35.7862C65.0326 36.0549 64.6655 36.2056 64.2829 36.2056C63.9004 36.2056 63.5333 36.0549 63.261 35.7862C62.9888 35.5175 62.8333 35.1524 62.8283 34.7699V28.6534C62.8287 28.2677 62.9821 27.8979 63.2548 27.6252C63.5276 27.3525 63.8974 27.1991 64.2831 27.1987M64.2831 26.2737C63.6521 26.2744 63.0473 26.5254 62.6011 26.9715C62.155 27.4176 61.904 28.0225 61.9033 28.6534V34.7687C61.9097 35.3956 62.1633 35.9946 62.6089 36.4356C63.0544 36.8767 63.656 37.124 64.2829 37.124C64.9099 37.124 65.5115 36.8767 65.957 36.4356C66.4026 35.9946 66.6561 35.3956 66.6626 34.7687V28.6534C66.6619 28.0225 66.411 27.4177 65.9649 26.9715C65.5188 26.5254 64.914 26.2744 64.2831 26.2737Z" fill="#3B5C91"/>
<g style="mix-blend-mode:color-burn">
<path d="M32.1903 36.6689V30.5537C32.1903 30.204 32.2673 29.8587 32.416 29.5422C32.5646 29.2257 32.7812 28.9458 33.0502 28.7225C33.3193 28.4992 33.6343 28.3379 33.9727 28.2501C34.3112 28.1624 34.6649 28.1503 35.0085 28.2147C34.899 27.6321 34.5759 27.1114 34.1026 26.7544C33.6292 26.3975 33.0397 26.2301 32.4495 26.285C31.8592 26.3399 31.3107 26.6131 30.9112 27.0512C30.5118 27.4893 30.2903 28.0606 30.29 28.6534V34.7687C30.2908 35.3235 30.4851 35.8607 30.8394 36.2877C31.1937 36.7147 31.6859 37.0046 32.231 37.1077C32.2039 36.963 32.1902 36.8161 32.1903 36.6689Z" fill="#B3B3B3"/>
</g>
<g style="mix-blend-mode:color-burn">
<path d="M40.0936 36.6689V30.5537C40.0936 30.204 40.1707 29.8586 40.3194 29.5421C40.4681 29.2256 40.6846 28.9458 40.9537 28.7225C41.2228 28.4992 41.5378 28.3379 41.8763 28.2501C42.2148 28.1624 42.5684 28.1503 42.9121 28.2147C42.8028 27.6318 42.4798 27.1107 42.0064 26.7535C41.533 26.3963 40.9433 26.2288 40.3528 26.2837C39.7623 26.3386 39.2136 26.612 38.8141 27.0503C38.4147 27.4887 38.1933 28.0604 38.1934 28.6534V34.7687C38.1941 35.3235 38.3884 35.8607 38.7427 36.2877C39.097 36.7146 39.5892 37.0046 40.1344 37.1077C40.1072 36.963 40.0936 36.8161 40.0936 36.6689Z" fill="#B3B3B3"/>
</g>
<g style="mix-blend-mode:color-burn">
<path d="M47.9977 36.6689V30.5537C47.9977 30.204 48.0748 29.8586 48.2234 29.5421C48.3721 29.2256 48.5887 28.9458 48.8578 28.7225C49.1268 28.4992 49.4418 28.3379 49.7803 28.2501C50.1188 28.1624 50.4725 28.1503 50.8162 28.2147C50.7066 27.6321 50.3835 27.1114 49.9102 26.7544C49.4369 26.3975 48.8473 26.2301 48.2571 26.285C47.6668 26.3399 47.1183 26.6131 46.7189 27.0512C46.3195 27.4893 46.0979 28.0606 46.0977 28.6534V34.7687C46.0984 35.3235 46.2926 35.8607 46.6469 36.2877C47.0011 36.7146 47.4933 37.0046 48.0384 37.1077C48.0114 36.963 47.9977 36.8161 47.9977 36.6689Z" fill="#B3B3B3"/>
</g>
<g style="mix-blend-mode:color-burn">
<path d="M55.9 36.669V30.5537C55.9 30.2041 55.9771 29.8587 56.1257 29.5422C56.2743 29.2257 56.4909 28.9458 56.7599 28.7225C57.029 28.4992 57.344 28.3379 57.6824 28.2501C58.0209 28.1624 58.3746 28.1503 58.7182 28.2147C58.6084 27.6324 58.2852 27.112 57.812 26.7554C57.3387 26.3987 56.7494 26.2315 56.1594 26.2864C55.5694 26.3412 55.021 26.6143 54.6216 27.052C54.2223 27.4898 54.0006 28.0609 54 28.6535V34.7687C54.0007 35.3236 54.195 35.8608 54.5493 36.2877C54.9036 36.7147 55.3958 37.0047 55.941 37.1077C55.9138 36.9631 55.9 36.8162 55.9 36.669Z" fill="#B3B3B3"/>
</g>
<g style="mix-blend-mode:color-burn">
<path d="M63.8036 36.6689V30.5537C63.8036 30.204 63.8806 29.8587 64.0293 29.5422C64.1779 29.2257 64.3944 28.9458 64.6635 28.7225C64.9326 28.4992 65.2475 28.3379 65.586 28.2501C65.9245 28.1624 66.2781 28.1503 66.6218 28.2147C66.5123 27.6321 66.1892 27.1114 65.7159 26.7544C65.2425 26.3975 64.653 26.2301 64.0627 26.285C63.4725 26.3399 62.9239 26.6131 62.5245 27.0512C62.1251 27.4893 61.9036 28.0606 61.9033 28.6534V34.7687C61.9041 35.3235 62.0984 35.8607 62.4527 36.2877C62.807 36.7147 63.2991 37.0046 63.8443 37.1077C63.8172 36.963 63.8035 36.8161 63.8036 36.6689Z" fill="#B3B3B3"/>
</g>
<path d="M30.9401 55.325C30.7689 55.3274 30.5989 55.2957 30.4401 55.2318C30.2812 55.168 30.1367 55.0732 30.0148 54.9529C29.8928 54.8327 29.796 54.6895 29.73 54.5315C29.6639 54.3736 29.6299 54.2041 29.6299 54.0329C29.6299 53.8616 29.6639 53.6921 29.73 53.5342C29.796 53.3762 29.8928 53.233 30.0148 53.1128C30.1367 52.9925 30.2812 52.8977 30.4401 52.8339C30.5989 52.77 30.7689 52.7383 30.9401 52.7407H34.9476C35.1188 52.7383 35.2888 52.77 35.4476 52.8339C35.6065 52.8977 35.7511 52.9925 35.873 53.1128C35.9949 53.233 36.0917 53.3762 36.1577 53.5342C36.2238 53.6921 36.2578 53.8616 36.2578 54.0329C36.2578 54.2041 36.2238 54.3736 36.1577 54.5315C36.0917 54.6895 35.9949 54.8327 35.873 54.9529C35.7511 55.0732 35.6065 55.168 35.4476 55.2318C35.2888 55.2957 35.1188 55.3274 34.9476 55.325H30.9401Z" fill="white"/>
<path d="M34.9482 53.2027C35.0584 53.2008 35.1678 53.2208 35.2702 53.2617C35.3725 53.3025 35.4657 53.3633 35.5442 53.4405C35.6228 53.5178 35.6852 53.6099 35.7278 53.7115C35.7704 53.8131 35.7924 53.9222 35.7924 54.0323C35.7924 54.1425 35.7704 54.2516 35.7278 54.3532C35.6852 54.4548 35.6228 54.5469 35.5442 54.6241C35.4657 54.7014 35.3725 54.7622 35.2702 54.803C35.1678 54.8438 35.0584 54.8639 34.9482 54.862H30.9407C30.8306 54.8639 30.7211 54.8438 30.6188 54.803C30.5165 54.7622 30.4233 54.7014 30.3447 54.6241C30.2661 54.5469 30.2037 54.4548 30.1611 54.3532C30.1185 54.2516 30.0966 54.1425 30.0966 54.0323C30.0966 53.9222 30.1185 53.8131 30.1611 53.7115C30.2037 53.6099 30.2661 53.5178 30.3447 53.4405C30.4233 53.3633 30.5165 53.3025 30.6188 53.2617C30.7211 53.2208 30.8306 53.2008 30.9407 53.2027H34.9482ZM34.9482 52.2777H30.9407C30.7085 52.2749 30.4781 52.3183 30.2628 52.4052C30.0475 52.4921 29.8516 52.621 29.6864 52.7842C29.5213 52.9474 29.3901 53.1417 29.3006 53.356C29.2111 53.5702 29.165 53.8001 29.165 54.0323C29.165 54.2645 29.2111 54.4944 29.3006 54.7087C29.3901 54.9229 29.5213 55.1173 29.6864 55.2805C29.8516 55.4437 30.0475 55.5725 30.2628 55.6595C30.4781 55.7464 30.7085 55.7897 30.9407 55.787H34.9482C35.1804 55.7897 35.4108 55.7464 35.6262 55.6595C35.8415 55.5725 36.0374 55.4437 36.2025 55.2805C36.3677 55.1173 36.4988 54.9229 36.5883 54.7087C36.6778 54.4944 36.7239 54.2645 36.7239 54.0323C36.7239 53.8001 36.6778 53.5702 36.5883 53.356C36.4988 53.1417 36.3677 52.9474 36.2025 52.7842C36.0374 52.621 35.8415 52.4921 35.6262 52.4052C35.4108 52.3183 35.1804 52.2749 34.9482 52.2777Z" fill="#3B5C91"/>
<path d="M30.9401 47.8903C30.7689 47.8927 30.5989 47.861 30.4401 47.7971C30.2812 47.7333 30.1367 47.6385 30.0148 47.5182C29.8928 47.398 29.796 47.2548 29.73 47.0968C29.6639 46.9389 29.6299 46.7694 29.6299 46.5982C29.6299 46.4269 29.6639 46.2574 29.73 46.0995C29.796 45.9415 29.8928 45.7983 30.0148 45.6781C30.1367 45.5578 30.2812 45.463 30.4401 45.3992C30.5989 45.3353 30.7689 45.3037 30.9401 45.306H34.9476C35.1188 45.3037 35.2888 45.3353 35.4476 45.3992C35.6065 45.463 35.7511 45.5578 35.873 45.6781C35.9949 45.7983 36.0917 45.9415 36.1577 46.0995C36.2238 46.2574 36.2578 46.4269 36.2578 46.5982C36.2578 46.7694 36.2238 46.9389 36.1577 47.0968C36.0917 47.2548 35.9949 47.398 35.873 47.5182C35.7511 47.6385 35.6065 47.7333 35.4476 47.7971C35.2888 47.861 35.1188 47.8927 34.9476 47.8903H30.9401Z" fill="white"/>
<path d="M34.9482 45.7684C35.0584 45.7665 35.1678 45.7865 35.2702 45.8274C35.3725 45.8682 35.4657 45.929 35.5442 46.0062C35.6228 46.0834 35.6852 46.1756 35.7278 46.2772C35.7704 46.3788 35.7924 46.4878 35.7924 46.598C35.7924 46.7082 35.7704 46.8173 35.7278 46.9189C35.6852 47.0205 35.6228 47.1126 35.5442 47.1898C35.4657 47.267 35.3725 47.3278 35.2702 47.3687C35.1678 47.4095 35.0584 47.4295 34.9482 47.4276H30.9407C30.8306 47.4295 30.7211 47.4095 30.6188 47.3687C30.5165 47.3278 30.4233 47.267 30.3447 47.1898C30.2661 47.1126 30.2037 47.0205 30.1611 46.9189C30.1185 46.8173 30.0966 46.7082 30.0966 46.598C30.0966 46.4878 30.1185 46.3788 30.1611 46.2772C30.2037 46.1756 30.2661 46.0834 30.3447 46.0062C30.4233 45.929 30.5165 45.8682 30.6188 45.8274C30.7211 45.7865 30.8306 45.7665 30.9407 45.7684H34.9482ZM34.9482 44.8434H30.9407C30.7085 44.8406 30.4781 44.884 30.2628 44.9709C30.0475 45.0578 29.8516 45.1866 29.6864 45.3498C29.5213 45.513 29.3901 45.7074 29.3006 45.9217C29.2111 46.1359 29.165 46.3658 29.165 46.598C29.165 46.8302 29.2111 47.0601 29.3006 47.2744C29.3901 47.4886 29.5213 47.683 29.6864 47.8462C29.8516 48.0094 30.0475 48.1382 30.2628 48.2251C30.4781 48.3121 30.7085 48.3554 30.9407 48.3526H34.9482C35.1804 48.3554 35.4108 48.3121 35.6262 48.2251C35.8415 48.1382 36.0374 48.0094 36.2025 47.8462C36.3677 47.683 36.4988 47.4886 36.5883 47.2744C36.6778 47.0601 36.7239 46.8302 36.7239 46.598C36.7239 46.3658 36.6778 46.1359 36.5883 45.9217C36.4988 45.7074 36.3677 45.513 36.2025 45.3498C36.0374 45.1866 35.8415 45.0578 35.6262 44.9709C35.4108 44.884 35.1804 44.8406 34.9482 44.8434Z" fill="#3B5C91"/>
<path d="M41.2952 62.7589C40.9525 62.7589 40.6238 62.6228 40.3814 62.3805C40.1391 62.1381 40.0029 61.8094 40.0029 61.4667C40.0029 61.124 40.1391 60.7953 40.3814 60.5529C40.6238 60.3106 40.9525 60.1744 41.2952 60.1744H45.3029C45.6457 60.1744 45.9743 60.3106 46.2167 60.5529C46.459 60.7953 46.5952 61.124 46.5952 61.4667C46.5952 61.8094 46.459 62.1381 46.2167 62.3805C45.9743 62.6228 45.6457 62.7589 45.3029 62.7589H41.2952Z" fill="white"/>
<path d="M45.3025 60.6369C45.5226 60.6369 45.7337 60.7243 45.8893 60.8799C46.0449 61.0356 46.1323 61.2466 46.1323 61.4667C46.1323 61.6867 46.0449 61.8978 45.8893 62.0534C45.7337 62.209 45.5226 62.2964 45.3025 62.2964H41.2948C41.0747 62.2964 40.8637 62.209 40.7081 62.0534C40.5525 61.8978 40.465 61.6867 40.465 61.4667C40.465 61.2466 40.5525 61.0356 40.7081 60.8799C40.8637 60.7243 41.0747 60.6369 41.2948 60.6369H45.3025ZM45.3025 59.7119H41.2948C40.8294 59.7119 40.3831 59.8968 40.054 60.2259C39.7249 60.5549 39.54 61.0013 39.54 61.4667C39.54 61.9321 39.7249 62.3784 40.054 62.7075C40.3831 63.0365 40.8294 63.2214 41.2948 63.2214H45.3025C45.7679 63.2214 46.2143 63.0365 46.5433 62.7075C46.8724 62.3784 47.0573 61.9321 47.0573 61.4667C47.0573 61.0013 46.8724 60.5549 46.5433 60.2259C46.2143 59.8968 45.7679 59.7119 45.3025 59.7119Z" fill="#3B5C91"/>
<path d="M41.2948 55.325C40.9552 55.3203 40.6311 55.182 40.3927 54.9402C40.1542 54.6984 40.0205 54.3725 40.0205 54.0329C40.0205 53.6932 40.1542 53.3673 40.3927 53.1255C40.6311 52.8837 40.9552 52.7454 41.2948 52.7407H45.3025C45.4737 52.7383 45.6437 52.77 45.8025 52.8339C45.9614 52.8977 46.106 52.9925 46.2279 53.1128C46.3498 53.233 46.4466 53.3762 46.5127 53.5342C46.5787 53.6921 46.6128 53.8616 46.6128 54.0329C46.6128 54.2041 46.5787 54.3736 46.5127 54.5315C46.4466 54.6895 46.3498 54.8327 46.2279 54.9529C46.106 55.0732 45.9614 55.168 45.8025 55.2318C45.6437 55.2957 45.4737 55.3274 45.3025 55.325H41.2948Z" fill="white"/>
<path d="M45.3021 53.2027C45.4123 53.2008 45.5217 53.2208 45.624 53.2617C45.7264 53.3025 45.8195 53.3633 45.8981 53.4405C45.9767 53.5178 46.0391 53.6099 46.0817 53.7115C46.1243 53.8131 46.1463 53.9222 46.1463 54.0323C46.1463 54.1425 46.1243 54.2516 46.0817 54.3532C46.0391 54.4548 45.9767 54.5469 45.8981 54.6241C45.8195 54.7014 45.7264 54.7622 45.624 54.803C45.5217 54.8438 45.4123 54.8639 45.3021 54.862H41.2944C41.0768 54.8582 40.8695 54.7691 40.717 54.6139C40.5645 54.4588 40.479 54.2499 40.479 54.0323C40.479 53.8148 40.5645 53.6059 40.717 53.4507C40.8695 53.2956 41.0768 53.2065 41.2944 53.2027H45.3021ZM45.3021 52.2777H41.2944C40.8326 52.2832 40.3917 52.4705 40.0671 52.799C39.7426 53.1274 39.5605 53.5706 39.5605 54.0323C39.5605 54.4941 39.7426 54.9372 40.0671 55.2657C40.3917 55.5942 40.8326 55.7814 41.2944 55.787H45.3021C45.5343 55.7897 45.7647 55.7464 45.98 55.6595C46.1953 55.5725 46.3912 55.4437 46.5564 55.2805C46.7216 55.1173 46.8527 54.9229 46.9422 54.7087C47.0317 54.4944 47.0778 54.2645 47.0778 54.0323C47.0778 53.8001 47.0317 53.5702 46.9422 53.356C46.8527 53.1417 46.7216 52.9474 46.5564 52.7842C46.3912 52.621 46.1953 52.4921 45.98 52.4052C45.7647 52.3183 45.5343 52.2749 45.3021 52.2777Z" fill="#3B5C91"/>
<path d="M41.2948 47.8902C40.9552 47.8854 40.6311 47.7472 40.3927 47.5054C40.1542 47.2636 40.0205 46.9377 40.0205 46.598C40.0205 46.2584 40.1542 45.9325 40.3927 45.6907C40.6311 45.4488 40.9552 45.3106 41.2948 45.3059H45.3025C45.4737 45.3035 45.6437 45.3352 45.8025 45.3991C45.9614 45.4629 46.106 45.5577 46.2279 45.6779C46.3498 45.7982 46.4466 45.9414 46.5127 46.0994C46.5787 46.2573 46.6128 46.4268 46.6128 46.598C46.6128 46.7693 46.5787 46.9388 46.5127 47.0967C46.4466 47.2547 46.3498 47.3979 46.2279 47.5181C46.106 47.6383 45.9614 47.7331 45.8025 47.797C45.6437 47.8609 45.4737 47.8925 45.3025 47.8902H41.2948Z" fill="white"/>
<path d="M45.3021 45.7684C45.4123 45.7665 45.5217 45.7865 45.624 45.8274C45.7264 45.8682 45.8195 45.929 45.8981 46.0062C45.9767 46.0834 46.0391 46.1756 46.0817 46.2772C46.1243 46.3788 46.1463 46.4878 46.1463 46.598C46.1463 46.7082 46.1243 46.8173 46.0817 46.9189C46.0391 47.0205 45.9767 47.1126 45.8981 47.1898C45.8195 47.267 45.7264 47.3278 45.624 47.3687C45.5217 47.4095 45.4123 47.4295 45.3021 47.4276H41.2944C41.0768 47.4239 40.8695 47.3348 40.717 47.1796C40.5645 47.0244 40.479 46.8156 40.479 46.598C40.479 46.3804 40.5645 46.1716 40.717 46.0164C40.8695 45.8612 41.0768 45.7722 41.2944 45.7684H45.3021ZM45.3021 44.8434H41.2944C40.8326 44.8489 40.3917 45.0362 40.0671 45.3646C39.7426 45.6931 39.5605 46.1363 39.5605 46.598C39.5605 47.0598 39.7426 47.5029 40.0671 47.8314C40.3917 48.1598 40.8326 48.3471 41.2944 48.3526H45.3021C45.5343 48.3554 45.7647 48.3121 45.98 48.2251C46.1953 48.1382 46.3912 48.0094 46.5564 47.8462C46.7216 47.683 46.8527 47.4886 46.9422 47.2744C47.0317 47.0601 47.0778 46.8302 47.0778 46.598C47.0778 46.3658 47.0317 46.1359 46.9422 45.9217C46.8527 45.7074 46.7216 45.513 46.5564 45.3498C46.3912 45.1866 46.1953 45.0578 45.98 44.9709C45.7647 44.884 45.5343 44.8406 45.3021 44.8434Z" fill="#3B5C91"/>
<path d="M51.6503 55.325C51.3107 55.3203 50.9866 55.182 50.7481 54.9402C50.5097 54.6984 50.376 54.3725 50.376 54.0328C50.376 53.6932 50.5097 53.3673 50.7481 53.1255C50.9866 52.8837 51.3107 52.7454 51.6503 52.7407H55.658C55.9976 52.7454 56.3217 52.8837 56.5601 53.1255C56.7986 53.3673 56.9323 53.6932 56.9323 54.0328C56.9323 54.3725 56.7986 54.6984 56.5601 54.9402C56.3217 55.182 55.9976 55.3203 55.658 55.325H51.6503Z" fill="white"/>
<path d="M55.6581 53.2027C55.8756 53.2065 56.083 53.2956 56.2355 53.4507C56.388 53.6059 56.4734 53.8148 56.4734 54.0323C56.4734 54.2499 56.388 54.4588 56.2355 54.6139C56.083 54.7691 55.8756 54.8582 55.6581 54.862H51.6498C51.5397 54.8639 51.4302 54.8438 51.3279 54.803C51.2256 54.7622 51.1324 54.7014 51.0538 54.6241C50.9752 54.5469 50.9128 54.4548 50.8702 54.3532C50.8276 54.2516 50.8057 54.1425 50.8057 54.0323C50.8057 53.9222 50.8276 53.8131 50.8702 53.7115C50.9128 53.6099 50.9752 53.5178 51.0538 53.4405C51.1324 53.3633 51.2256 53.3025 51.3279 53.2617C51.4302 53.2208 51.5397 53.2008 51.6498 53.2027H55.6576M55.6576 52.2777H51.6498C51.1881 52.2832 50.7471 52.4705 50.4226 52.799C50.098 53.1274 49.916 53.5706 49.916 54.0323C49.916 54.4941 50.098 54.9372 50.4226 55.2657C50.7471 55.5942 51.1881 55.7814 51.6498 55.787H55.6576C56.1193 55.7814 56.5602 55.5942 56.8848 55.2657C57.2094 54.9372 57.3914 54.4941 57.3914 54.0323C57.3914 53.5706 57.2094 53.1274 56.8848 52.799C56.5602 52.4705 56.1193 52.2832 55.6576 52.2777Z" fill="#3B5C91"/>
<path d="M51.6503 47.8902C51.3107 47.8854 50.9866 47.7472 50.7481 47.5054C50.5097 47.2636 50.376 46.9376 50.376 46.598C50.376 46.2584 50.5097 45.9325 50.7481 45.6907C50.9866 45.4488 51.3107 45.3106 51.6503 45.3059H55.658C55.9976 45.3106 56.3217 45.4488 56.5601 45.6907C56.7986 45.9325 56.9323 46.2584 56.9323 46.598C56.9323 46.9376 56.7986 47.2636 56.5601 47.5054C56.3217 47.7472 55.9976 47.8854 55.658 47.8902H51.6503Z" fill="white"/>
<path d="M55.6581 45.7685C55.8756 45.7723 56.083 45.8613 56.2355 46.0165C56.388 46.1717 56.4734 46.3806 56.4734 46.5981C56.4734 46.8157 56.388 47.0246 56.2355 47.1797C56.083 47.3349 55.8756 47.424 55.6581 47.4278H51.6498C51.5397 47.4297 51.4302 47.4096 51.3279 47.3688C51.2256 47.328 51.1324 47.2672 51.0538 47.1899C50.9752 47.1127 50.9128 47.0206 50.8702 46.919C50.8276 46.8174 50.8057 46.7083 50.8057 46.5981C50.8057 46.488 50.8276 46.3789 50.8702 46.2773C50.9128 46.1757 50.9752 46.0836 51.0538 46.0063C51.1324 45.9291 51.2256 45.8683 51.3279 45.8275C51.4302 45.7866 51.5397 45.7666 51.6498 45.7685H55.6576M55.6576 44.8435H51.6498C51.1881 44.849 50.7471 45.0363 50.4226 45.3648C50.098 45.6932 49.916 46.1364 49.916 46.5981C49.916 47.0599 50.098 47.503 50.4226 47.8315C50.7471 48.16 51.1881 48.3472 51.6498 48.3528H55.6576C56.1193 48.3472 56.5602 48.16 56.8848 47.8315C57.2094 47.503 57.3914 47.0599 57.3914 46.5981C57.3914 46.1364 57.2094 45.6932 56.8848 45.3648C56.5602 45.0363 56.1193 44.849 55.6576 44.8435Z" fill="#3B5C91"/>
<path d="M62.0055 55.325C61.8343 55.3274 61.6644 55.2957 61.5055 55.2318C61.3467 55.168 61.2021 55.0732 61.0802 54.9529C60.9583 54.8327 60.8615 54.6895 60.7954 54.5315C60.7293 54.3736 60.6953 54.2041 60.6953 54.0329C60.6953 53.8616 60.7293 53.6921 60.7954 53.5342C60.8615 53.3762 60.9583 53.233 61.0802 53.1128C61.2021 52.9925 61.3467 52.8977 61.5055 52.8339C61.6644 52.77 61.8343 52.7383 62.0055 52.7407H66.013C66.1842 52.7383 66.3542 52.77 66.513 52.8339C66.6719 52.8977 66.8165 52.9925 66.9384 53.1128C67.0603 53.233 67.1571 53.3762 67.2232 53.5342C67.2892 53.6921 67.3233 53.8616 67.3233 54.0329C67.3233 54.2041 67.2892 54.3736 67.2232 54.5315C67.1571 54.6895 67.0603 54.8327 66.9384 54.9529C66.8165 55.0732 66.6719 55.168 66.513 55.2318C66.3542 55.2957 66.1842 55.3274 66.013 55.325H62.0055Z" fill="white"/>
<path d="M66.0137 53.2027C66.1238 53.2008 66.2333 53.2208 66.3356 53.2617C66.4379 53.3025 66.5311 53.3633 66.6097 53.4405C66.6883 53.5178 66.7507 53.6099 66.7933 53.7115C66.8359 53.8131 66.8578 53.9222 66.8578 54.0323C66.8578 54.1425 66.8359 54.2516 66.7933 54.3532C66.7507 54.4548 66.6883 54.5469 66.6097 54.6241C66.5311 54.7014 66.4379 54.7622 66.3356 54.803C66.2333 54.8438 66.1238 54.8639 66.0137 54.862H62.0062C61.896 54.8639 61.7866 54.8438 61.6842 54.803C61.5819 54.7622 61.4887 54.7014 61.4102 54.6241C61.3316 54.5469 61.2692 54.4548 61.2266 54.3532C61.184 54.2516 61.162 54.1425 61.162 54.0323C61.162 53.9222 61.184 53.8131 61.2266 53.7115C61.2692 53.6099 61.3316 53.5178 61.4102 53.4405C61.4887 53.3633 61.5819 53.3025 61.6842 53.2617C61.7866 53.2208 61.896 53.2008 62.0062 53.2027H66.0137ZM66.0137 52.2777H62.0062C61.774 52.2749 61.5436 52.3183 61.3282 52.4052C61.1129 52.4921 60.917 52.621 60.7518 52.7842C60.5867 52.9474 60.4556 53.1417 60.3661 53.356C60.2766 53.5702 60.2305 53.8001 60.2305 54.0323C60.2305 54.2645 60.2766 54.4944 60.3661 54.7087C60.4556 54.9229 60.5867 55.1173 60.7518 55.2805C60.917 55.4437 61.1129 55.5725 61.3282 55.6595C61.5436 55.7464 61.774 55.7897 62.0062 55.787H66.0137C66.2458 55.7897 66.4763 55.7464 66.6916 55.6595C66.9069 55.5725 67.1028 55.4437 67.268 55.2805C67.4331 55.1173 67.5643 54.9229 67.6538 54.7087C67.7433 54.4944 67.7894 54.2645 67.7894 54.0323C67.7894 53.8001 67.7433 53.5702 67.6538 53.356C67.5643 53.1417 67.4331 52.9474 67.268 52.7842C67.1028 52.621 66.9069 52.4921 66.6916 52.4052C66.4763 52.3183 66.2458 52.2749 66.0137 52.2777Z" fill="#3B5C91"/>
<path d="M62.0055 47.8902C61.8343 47.8925 61.6644 47.8609 61.5055 47.797C61.3467 47.7331 61.2021 47.6383 61.0802 47.5181C60.9583 47.3979 60.8615 47.2547 60.7954 47.0967C60.7293 46.9388 60.6953 46.7693 60.6953 46.598C60.6953 46.4268 60.7293 46.2573 60.7954 46.0994C60.8615 45.9414 60.9583 45.7982 61.0802 45.6779C61.2021 45.5577 61.3467 45.4629 61.5055 45.3991C61.6644 45.3352 61.8343 45.3035 62.0055 45.3059H66.013C66.1842 45.3035 66.3542 45.3352 66.513 45.3991C66.6719 45.4629 66.8165 45.5577 66.9384 45.6779C67.0603 45.7982 67.1571 45.9414 67.2232 46.0994C67.2892 46.2573 67.3233 46.4268 67.3233 46.598C67.3233 46.7693 67.2892 46.9388 67.2232 47.0967C67.1571 47.2547 67.0603 47.3979 66.9384 47.5181C66.8165 47.6383 66.6719 47.7331 66.513 47.797C66.3542 47.8609 66.1842 47.8925 66.013 47.8902H62.0055Z" fill="white"/>
<path d="M66.0137 45.7684C66.1238 45.7665 66.2333 45.7865 66.3356 45.8274C66.4379 45.8682 66.5311 45.929 66.6097 46.0062C66.6883 46.0834 66.7507 46.1756 66.7933 46.2772C66.8359 46.3788 66.8578 46.4878 66.8578 46.598C66.8578 46.7082 66.8359 46.8173 66.7933 46.9189C66.7507 47.0205 66.6883 47.1126 66.6097 47.1898C66.5311 47.267 66.4379 47.3278 66.3356 47.3687C66.2333 47.4095 66.1238 47.4295 66.0137 47.4276H62.0062C61.896 47.4295 61.7866 47.4095 61.6842 47.3687C61.5819 47.3278 61.4887 47.267 61.4102 47.1898C61.3316 47.1126 61.2692 47.0205 61.2266 46.9189C61.184 46.8173 61.162 46.7082 61.162 46.598C61.162 46.4878 61.184 46.3788 61.2266 46.2772C61.2692 46.1756 61.3316 46.0834 61.4102 46.0062C61.4887 45.929 61.5819 45.8682 61.6842 45.8274C61.7866 45.7865 61.896 45.7665 62.0062 45.7684H66.0137ZM66.0137 44.8434H62.0062C61.774 44.8406 61.5436 44.884 61.3282 44.9709C61.1129 45.0578 60.917 45.1866 60.7518 45.3498C60.5867 45.513 60.4556 45.7074 60.3661 45.9217C60.2766 46.1359 60.2305 46.3658 60.2305 46.598C60.2305 46.8302 60.2766 47.0601 60.3661 47.2744C60.4556 47.4886 60.5867 47.683 60.7518 47.8462C60.917 48.0094 61.1129 48.1382 61.3282 48.2251C61.5436 48.3121 61.774 48.3554 62.0062 48.3526H66.0137C66.2458 48.3554 66.4763 48.3121 66.6916 48.2251C66.9069 48.1382 67.1028 48.0094 67.268 47.8462C67.4331 47.683 67.5643 47.4886 67.6538 47.2744C67.7433 47.0601 67.7894 46.8302 67.7894 46.598C67.7894 46.3658 67.7433 46.1359 67.6538 45.9217C67.5643 45.7074 67.4331 45.513 67.268 45.3498C67.1028 45.1866 66.9069 45.0578 66.6916 44.9709C66.4763 44.884 66.2458 44.8406 66.0137 44.8434Z" fill="#3B5C91"/>
</svg>
