<svg width="14" height="14" viewBox="0 0 14 14" fill="none" xmlns="http://www.w3.org/2000/svg">
<path d="M13.5625 3.5H0.4375C0.321468 3.5 0.210188 3.45391 0.128141 3.37186C0.0460936 3.28981 0 3.17853 0 3.0625C0 2.94647 0.0460936 2.83519 0.128141 2.75314C0.210188 2.67109 0.321468 2.625 0.4375 2.625H13.5625C13.6785 2.625 13.7898 2.67109 13.8719 2.75314C13.9539 2.83519 14 2.94647 14 3.0625C14 3.17853 13.9539 3.28981 13.8719 3.37186C13.7898 3.45391 13.6785 3.5 13.5625 3.5Z" fill="#FF7132"/>
<path d="M13.5625 7.875H0.4375C0.321468 7.875 0.210188 7.82891 0.128141 7.74686C0.0460936 7.66481 0 7.55353 0 7.4375C0 7.32147 0.0460936 7.21019 0.128141 7.12814C0.210188 7.04609 0.321468 7 0.4375 7H13.5625C13.6785 7 13.7898 7.04609 13.8719 7.12814C13.9539 7.21019 14 7.32147 14 7.4375C14 7.55353 13.9539 7.66481 13.8719 7.74686C13.7898 7.82891 13.6785 7.875 13.5625 7.875Z" fill="#FF7132"/>
<path d="M13.5625 12.25H0.4375C0.321468 12.25 0.210188 12.2039 0.128141 12.1219C0.0460936 12.0398 0 11.9285 0 11.8125C0 11.6965 0.0460936 11.5852 0.128141 11.5031C0.210188 11.4211 0.321468 11.375 0.4375 11.375H13.5625C13.6785 11.375 13.7898 11.4211 13.8719 11.5031C13.9539 11.5852 14 11.6965 14 11.8125C14 11.9285 13.9539 12.0398 13.8719 12.1219C13.7898 12.2039 13.6785 12.25 13.5625 12.25Z" fill="#FF7132"/>
</svg>
