<svg width="51" height="50" viewBox="0 0 51 50" fill="none" xmlns="http://www.w3.org/2000/svg">
<path d="M41.4402 5.67813C37.5427 5.67813 34.0833 3.83066 31.9161 0.976562H18.7519C16.5848 3.83066 13.1254 5.67813 9.22783 5.67813C8.54258 5.67813 7.8708 5.621 7.21729 5.51133V31.3942C7.21729 31.5074 7.21855 31.6205 7.221 31.7334C7.35508 37.842 11.2035 43.2599 16.8783 45.5745L25.334 49.0234L33.7897 45.5745C39.4645 43.2599 43.313 37.842 43.4471 31.7334C43.4495 31.6205 43.4508 31.5074 43.4508 31.3942V5.51133C42.7972 5.621 42.1255 5.67813 41.4402 5.67813Z" stroke="#00A1DE" stroke-miterlimit="10" stroke-linecap="round" stroke-linejoin="round"/>
<path d="M34.1685 31.9332V15.6899H16.5005V31.9332C16.5005 33.8673 18.072 35.4353 20.0105 35.4353H30.6585C32.597 35.4353 34.1685 33.8673 34.1685 31.9332Z" fill="#C7E9F6"/>
<path d="M21.1851 19.2075V14.9841C21.1851 12.6976 23.0429 10.844 25.3347 10.844C27.6265 10.844 29.4843 12.6976 29.4843 14.9841V19.2075" stroke="#00A1DE" stroke-miterlimit="10" stroke-linecap="round" stroke-linejoin="round"/>
<path d="M21.1851 31.2139H29.4843" stroke="#00A1DE" stroke-miterlimit="10" stroke-linecap="round" stroke-linejoin="round"/>
</svg>
