<svg width="50" height="50" viewBox="0 0 50 50" fill="none" xmlns="http://www.w3.org/2000/svg">
<path fill-rule="evenodd" clip-rule="evenodd" d="M30.4956 12.8475C29.687 12.1407 28.7408 11.5872 27.7025 11.2325L27.3875 8.39844H22.6133L22.2984 11.2325C21.26 11.5872 20.314 12.1408 19.5052 12.8475L16.891 11.7022L14.5039 15.8368L16.8016 17.5271C16.6994 18.0492 16.6455 18.5885 16.6455 19.1406C16.6455 19.6925 16.6996 20.2319 16.8017 20.754L14.5039 22.4444L16.891 26.5789L19.5051 25.4336C20.3137 26.1406 21.26 26.694 22.2984 27.0488L22.6133 29.8827H27.3874L27.7024 27.0487C28.7408 26.694 29.6869 26.1404 30.4956 25.4336L33.1099 26.5789L35.497 22.4444L33.1993 20.7541C33.3015 20.232 33.3554 19.6926 33.3554 19.1406C33.3554 18.5885 33.3015 18.0492 33.1993 17.5271L35.497 15.8368L33.1099 11.7022L30.4956 12.8475ZM25.0004 16.1566C26.6484 16.1566 27.9843 17.4925 27.9843 19.1405C27.9843 20.7884 26.6484 22.1244 25.0004 22.1244C23.3525 22.1244 22.0166 20.7884 22.0166 19.1405C22.0166 17.4925 23.3524 16.1566 25.0004 16.1566Z" fill="#C7E9F6"/>
<path fill-rule="evenodd" clip-rule="evenodd" d="M24.9999 3.51562C16.3705 3.51562 9.375 10.5111 9.375 19.1406C9.375 23.8856 11.4902 28.1365 14.8291 31.0021C17.1658 33.0076 18.2129 34.526 18.2129 36.7185C18.2129 38.9972 18.2129 41.2758 18.2129 43.5545L21.1425 46.4842H28.8573L31.787 43.5545C31.787 41.2758 31.787 38.9972 31.787 36.7185C31.787 34.5259 32.8341 33.0076 35.1708 31.0021C38.5097 28.1365 40.6249 23.8857 40.6249 19.1406C40.6249 10.5111 33.6293 3.51562 24.9999 3.51562Z" stroke="#00A1DE" stroke-miterlimit="22.9256" stroke-linecap="round" stroke-linejoin="round"/>
<path d="M18.7012 41.113H31.2988" stroke="#00A1DE" stroke-miterlimit="22.9256" stroke-linecap="round" stroke-linejoin="round"/>
<path d="M18.7012 36.7185H31.2988" stroke="#00A1DE" stroke-miterlimit="22.9256" stroke-linecap="round" stroke-linejoin="round"/>
<path d="M45.8008 19.1406H49.0234" stroke="#00A1DE" stroke-miterlimit="22.9256" stroke-linecap="round" stroke-linejoin="round"/>
<path d="M45.092 13.7569L48.2048 12.9229" stroke="#00A1DE" stroke-miterlimit="22.9256" stroke-linecap="round" stroke-linejoin="round"/>
<path d="M45.092 24.5242L48.2048 25.3583" stroke="#00A1DE" stroke-miterlimit="22.9256" stroke-linecap="round" stroke-linejoin="round"/>
<path d="M4.19921 19.1406H0.976562" stroke="#00A1DE" stroke-miterlimit="22.9256" stroke-linecap="round" stroke-linejoin="round"/>
<path d="M4.90804 24.5242L1.79517 25.3583" stroke="#00A1DE" stroke-miterlimit="22.9256" stroke-linecap="round" stroke-linejoin="round"/>
<path d="M4.90804 13.7569L1.79517 12.9229" stroke="#00A1DE" stroke-miterlimit="22.9256" stroke-linecap="round" stroke-linejoin="round"/>
<path d="M25.4687 22.0871C27.096 21.8277 28.205 20.2982 27.9456 18.6708C27.6862 17.0435 26.1567 15.9345 24.5293 16.1939C22.902 16.4533 21.793 17.9828 22.0524 19.6102C22.3118 21.2375 23.8413 22.3465 25.4687 22.0871Z" stroke="#00A1DE" stroke-miterlimit="22.9256" stroke-linecap="round" stroke-linejoin="round"/>
</svg>
