<svg width="101" height="100" viewBox="0 0 101 100" fill="none" xmlns="http://www.w3.org/2000/svg">
<g clip-path="url(#clip0_134_2614)">
<path d="M83.6736 68.8173L84.6229 69.3948C84.9141 69.5712 85.248 69.6645 85.5884 69.6645C85.9288 69.6645 86.2627 69.5712 86.5538 69.3948L87.5031 68.8173L86.9271 69.7681C86.7507 70.059 86.6574 70.3926 86.6574 70.7328C86.6574 71.0729 86.7507 71.4066 86.9271 71.6974L87.5031 72.6483L86.5477 72.0692C86.2568 71.8922 85.9228 71.7985 85.5822 71.7985C85.2417 71.7985 84.9077 71.8922 84.6168 72.0692L83.6675 72.6452L84.2435 71.6944C84.4199 71.4035 84.5132 71.0699 84.5132 70.7297C84.5132 70.3895 84.4199 70.0559 84.2435 69.765L83.6736 68.8173Z" fill="#94E3FF"/>
<path d="M83.6739 72.894C83.6294 72.8943 83.5857 72.8827 83.5473 72.8604C83.5089 72.8381 83.4771 72.806 83.4553 72.7672C83.4335 72.7285 83.4225 72.6847 83.4234 72.6402C83.4243 72.5958 83.437 72.5524 83.4604 72.5146L84.0364 71.5653C84.1894 71.3134 84.2703 71.0244 84.2703 70.7297C84.2703 70.435 84.1894 70.1459 84.0364 69.894L83.4604 68.9447C83.4317 68.8969 83.4198 68.8409 83.4265 68.7856C83.4333 68.7303 83.4583 68.6788 83.4976 68.6393C83.537 68.5998 83.5883 68.5745 83.6436 68.5675C83.6989 68.5605 83.755 68.5722 83.8029 68.6006L84.7537 69.1767C85.0051 69.3303 85.294 69.4117 85.5886 69.4117C85.8832 69.4117 86.1721 69.3303 86.4235 69.1767L87.3743 68.6006C87.4223 68.5722 87.4783 68.5605 87.5336 68.5675C87.5889 68.5745 87.6403 68.5998 87.6796 68.6393C87.7189 68.6788 87.7439 68.7303 87.7507 68.7856C87.7574 68.8409 87.7455 68.8969 87.7169 68.9447L87.1408 69.8925C86.9879 70.1444 86.907 70.4334 86.907 70.7281C86.907 71.0228 86.9879 71.3119 87.1408 71.5638L87.7169 72.5131C87.7455 72.5609 87.7574 72.6169 87.7507 72.6722C87.7439 72.7275 87.7189 72.779 87.6796 72.8185C87.6403 72.858 87.5889 72.8833 87.5336 72.8903C87.4783 72.8973 87.4223 72.8856 87.3743 72.8572L86.4235 72.2811C86.1721 72.1275 85.8832 72.0462 85.5886 72.0462C85.294 72.0462 85.0051 72.1275 84.7537 72.2811L83.8029 72.8572C83.7642 72.8813 83.7195 72.894 83.6739 72.894ZM84.4158 69.5576L84.4634 69.6344C84.6647 69.9643 84.7712 70.3433 84.7712 70.7297C84.7712 71.1161 84.6647 71.495 84.4634 71.8249L84.4173 71.9017L84.4941 71.8541C84.824 71.6536 85.2026 71.5476 85.5886 71.5476C85.9746 71.5476 86.3532 71.6536 86.6831 71.8541L86.7599 71.9017L86.7138 71.8249C86.5126 71.495 86.4061 71.1161 86.4061 70.7297C86.4061 70.3433 86.5126 69.9643 86.7138 69.6344L86.7599 69.5576L86.6831 69.6052C86.3532 69.8057 85.9746 69.9117 85.5886 69.9117C85.2026 69.9117 84.824 69.8057 84.4941 69.6052L84.4158 69.5576Z" fill="#3B5C91"/>
<path d="M85.5874 15.4961L86.6627 15.2319C86.993 15.151 87.2948 14.981 87.5353 14.7405C87.7758 14.5 87.9458 14.1982 88.0267 13.8679L88.2909 12.7926L88.5551 13.8679C88.6369 14.1991 88.808 14.5015 89.0499 14.7421C89.2918 14.9826 89.5952 15.1521 89.9269 15.2319L91.0021 15.4961L89.9269 15.7603C89.5962 15.8415 89.2941 16.0117 89.0534 16.2524C88.8126 16.4932 88.6424 16.7953 88.5613 17.1259L88.2971 18.2012L88.0329 17.1259C87.952 16.7954 87.7821 16.4933 87.5416 16.2526C87.3011 16.0118 86.9993 15.8416 86.6688 15.7603L85.5874 15.4961Z" fill="#FFD385"/>
<path d="M88.2955 18.4547C88.2396 18.4546 88.1854 18.4358 88.1414 18.4012C88.0974 18.3667 88.0662 18.3185 88.0528 18.2642L87.7886 17.1889C87.719 16.9026 87.5719 16.641 87.3636 16.4327C87.1553 16.2244 86.8936 16.0773 86.6074 16.0077L85.5321 15.7434C85.4781 15.7298 85.4302 15.6985 85.396 15.6545C85.3618 15.6105 85.3433 15.5564 85.3433 15.5007C85.3433 15.4451 85.3618 15.3909 85.396 15.347C85.4302 15.303 85.4781 15.2717 85.5321 15.258L86.6074 14.9938C86.8938 14.9245 87.1556 14.7775 87.364 14.5692C87.5723 14.3608 87.7193 14.099 87.7886 13.8126L88.0528 12.7373C88.0665 12.6833 88.0978 12.6354 88.1418 12.6012C88.1857 12.567 88.2398 12.5485 88.2955 12.5485C88.3512 12.5485 88.4053 12.567 88.4493 12.6012C88.4933 12.6354 88.5246 12.6833 88.5383 12.7373L88.8025 13.8126C88.8721 14.0988 89.0192 14.3605 89.2275 14.5688C89.4358 14.7771 89.6974 14.9242 89.9837 14.9938L91.059 15.258C91.113 15.2717 91.1608 15.303 91.1951 15.347C91.2293 15.3909 91.2478 15.4451 91.2478 15.5007C91.2478 15.5564 91.2293 15.6105 91.1951 15.6545C91.1608 15.6985 91.113 15.7298 91.059 15.7434L89.9837 16.0077C89.6975 16.0775 89.436 16.2246 89.2277 16.4329C89.0194 16.6412 88.8723 16.9027 88.8025 17.1889L88.5383 18.2642C88.5251 18.3186 88.494 18.367 88.45 18.4016C88.4059 18.4361 88.3515 18.4548 88.2955 18.4547ZM86.6381 15.4961L86.7272 15.5176C87.1023 15.6089 87.4451 15.8016 87.7179 16.0747C87.9908 16.3479 88.1832 16.6908 88.274 17.066L88.2955 17.1536L88.3171 17.066C88.408 16.6903 88.6006 16.3468 88.8737 16.0732C89.1468 15.7995 89.4899 15.6063 89.8654 15.5146L89.953 15.4931L89.8654 15.4716C89.4901 15.3804 89.1471 15.1877 88.874 14.9146C88.6009 14.6415 88.4082 14.2985 88.3171 13.9232L88.2955 13.8356L88.274 13.9232C88.1833 14.2985 87.991 14.6415 87.7181 14.9146C87.4452 15.1878 87.1024 15.3805 86.7272 15.4716L86.6381 15.4961Z" fill="#3B5C91"/>
<path d="M9.48305 31.2596L10.3571 34.5453C10.391 34.6712 10.4573 34.7859 10.5495 34.878C10.6417 34.9701 10.7565 35.0364 10.8824 35.0701C11.0083 35.1039 11.1408 35.104 11.2667 35.0704C11.3926 35.0368 11.5075 34.9706 11.5998 34.8787L14.0115 32.4731C14.1035 32.3808 14.1696 32.266 14.2032 32.14C14.2368 32.0141 14.2367 31.8816 14.2029 31.7557C14.1692 31.6298 14.1029 31.5151 14.0108 31.4229C13.9187 31.3307 13.804 31.2643 13.6781 31.2304L10.3924 30.3502C10.2665 30.3163 10.1339 30.3162 10.0079 30.3499C9.88192 30.3835 9.76704 30.4498 9.67483 30.542C9.58262 30.6342 9.51634 30.7491 9.48267 30.8751C9.44901 31.0011 9.44914 31.1337 9.48305 31.2596Z" fill="#FFD385"/>
<path d="M11.0845 35.3472C10.9963 35.3468 10.9085 35.3349 10.8233 35.3119C10.6543 35.2681 10.5001 35.1799 10.3767 35.0565C10.2532 34.9331 10.1651 34.7789 10.1213 34.6099L9.24114 31.3257C9.19547 31.1573 9.19501 30.9798 9.2398 30.8112C9.2846 30.6425 9.37307 30.4887 9.4963 30.3651C9.61953 30.2416 9.77315 30.1527 9.94168 30.1075C10.1102 30.0623 10.2877 30.0623 10.4562 30.1076L13.7358 30.9893C13.9041 31.0342 14.0577 31.1228 14.181 31.2459C14.3043 31.3691 14.393 31.5225 14.4381 31.6909C14.4833 31.8592 14.4833 32.0364 14.4382 32.2048C14.3931 32.3731 14.3045 32.5266 14.1812 32.6498L11.7818 35.0553C11.6907 35.1477 11.5821 35.221 11.4624 35.2711C11.3427 35.3212 11.2142 35.3471 11.0845 35.3472ZM9.72348 31.1997L10.6037 34.4854C10.6263 34.5693 10.6708 34.6456 10.7324 34.7068C10.7941 34.768 10.8708 34.8118 10.9549 34.8337C11.0389 34.8557 11.1272 34.8551 11.2109 34.832C11.2947 34.8089 11.3708 34.764 11.4316 34.702L13.8372 32.2965C13.8983 32.2353 13.9423 32.159 13.9647 32.0754C13.9871 31.9918 13.9871 31.9038 13.9647 31.8202C13.9422 31.7366 13.8982 31.6604 13.837 31.5992C13.7758 31.538 13.6996 31.494 13.616 31.4716L10.3302 30.5914C10.2467 30.5691 10.1587 30.5691 10.0751 30.5915C9.9916 30.614 9.91542 30.658 9.85425 30.7191C9.79308 30.7803 9.74909 30.8565 9.72667 30.94C9.70426 31.0236 9.70421 31.1115 9.72655 31.1951L9.72348 31.1997Z" fill="#3B5C91"/>
<path d="M57.2893 91.0615L57.8469 87.7113C57.8686 87.5826 57.8559 87.4504 57.8102 87.3282C57.7644 87.206 57.6873 87.0979 57.5865 87.015C57.4857 86.9322 57.3648 86.8773 57.236 86.8561C57.1072 86.8348 56.9751 86.8479 56.853 86.8941L53.6749 88.083C53.5526 88.1288 53.4445 88.2059 53.3615 88.3066C53.2785 88.4074 53.2235 88.5282 53.202 88.657C53.1805 88.7857 53.1933 88.9179 53.2391 89.0401C53.2849 89.1624 53.3621 89.2704 53.4629 89.3534L56.0896 91.5131C56.1904 91.5945 56.3106 91.6481 56.4385 91.6687C56.5664 91.6893 56.6974 91.6761 56.8186 91.6305C56.9399 91.5849 57.047 91.5084 57.1296 91.4086C57.2122 91.3088 57.2672 91.1891 57.2893 91.0615Z" fill="#FF9494"/>
<path d="M56.5523 91.934C56.3233 91.9333 56.1017 91.8529 55.9255 91.7066L53.2988 89.5454C53.1657 89.4344 53.064 89.2906 53.0038 89.1281C52.9436 88.9657 52.9269 88.7903 52.9555 88.6194C52.9841 88.4486 53.0569 88.2881 53.1667 88.1542C53.2765 88.0202 53.4195 87.9172 53.5815 87.8557L56.7658 86.6606C56.9289 86.5994 57.1052 86.5823 57.2771 86.6109C57.4489 86.6395 57.6102 86.7128 57.7447 86.8235C57.8792 86.9342 57.9822 87.0783 58.0433 87.2415C58.1045 87.4046 58.1216 87.5809 58.093 87.7527L57.5354 91.1091C57.508 91.2815 57.4353 91.4435 57.3246 91.5785C57.2139 91.7135 57.0693 91.8166 56.9056 91.8772C56.7921 91.9168 56.6725 91.9361 56.5523 91.934ZM57.116 87.0968C57.0562 87.097 56.9969 87.1079 56.9409 87.1291L53.7566 88.3257C53.6754 88.3558 53.6036 88.4069 53.5484 88.4736C53.4933 88.5404 53.4568 88.6206 53.4426 88.7061C53.4284 88.7915 53.437 88.8792 53.4676 88.9602C53.4982 89.0412 53.5497 89.1127 53.6168 89.1675L56.2435 91.3272C56.3107 91.3826 56.3914 91.4191 56.4773 91.433C56.5632 91.447 56.6513 91.4379 56.7325 91.4066C56.8138 91.3754 56.8852 91.3231 56.9397 91.2552C56.9941 91.1873 57.0295 91.1061 57.0423 91.02L57.5999 87.6652C57.6102 87.5953 57.6054 87.5239 57.5859 87.456C57.5664 87.3881 57.5326 87.3251 57.4868 87.2713C57.441 87.2175 57.3842 87.1741 57.3203 87.144C57.2563 87.1139 57.1867 87.0978 57.116 87.0968Z" fill="#3B5C91"/>
<path d="M11.8597 79.023L12.8152 78.0645C12.9129 77.9581 12.966 77.8182 12.9634 77.6738C12.9608 77.5294 12.9027 77.3915 12.8011 77.2888C12.6996 77.1861 12.5624 77.1263 12.418 77.1221C12.2736 77.1178 12.1331 77.1692 12.0256 77.2657L11.0671 78.2258L10.1086 77.2657C10.0017 77.1686 9.86148 77.1164 9.71711 77.1199C9.57274 77.1234 9.43524 77.1823 9.33313 77.2844C9.23101 77.3865 9.1721 77.524 9.16862 77.6684C9.16514 77.8128 9.21734 77.953 9.31442 78.0599L10.2745 79.0184L9.31442 79.9769C9.21734 80.0838 9.16514 80.224 9.16862 80.3684C9.1721 80.5128 9.23101 80.6503 9.33313 80.7524C9.43524 80.8545 9.57274 80.9134 9.71711 80.9169C9.86148 80.9204 10.0017 80.8682 10.1086 80.7711L11.0671 79.8126L12.0256 80.7711C12.1337 80.8563 12.2694 80.8988 12.4068 80.8907C12.5442 80.8826 12.6738 80.8244 12.7711 80.727C12.8685 80.6297 12.9267 80.5001 12.9348 80.3627C12.9429 80.2253 12.9004 80.0896 12.8152 79.9815L11.8597 79.023Z" fill="#FF9494"/>
<path d="M45.0854 11.2565H43.8719V10.0415C43.8719 9.90827 43.8189 9.78051 43.7247 9.68631C43.6305 9.59211 43.5028 9.53918 43.3696 9.53918C43.2363 9.53918 43.1086 9.59211 43.0144 9.68631C42.9202 9.78051 42.8673 9.90827 42.8673 10.0415V11.2565H41.6522C41.519 11.2565 41.3912 11.3095 41.297 11.4037C41.2028 11.4979 41.1499 11.6256 41.1499 11.7588C41.1499 11.8921 41.2028 12.0198 41.297 12.114C41.3912 12.2082 41.519 12.2612 41.6522 12.2612H42.8673V13.4762C42.8673 13.6094 42.9202 13.7372 43.0144 13.8314C43.1086 13.9256 43.2363 13.9785 43.3696 13.9785C43.5028 13.9785 43.6305 13.9256 43.7247 13.8314C43.8189 13.7372 43.8719 13.6094 43.8719 13.4762V12.2612H45.0854C45.2186 12.2612 45.3464 12.2082 45.4406 12.114C45.5348 12.0198 45.5877 11.8921 45.5877 11.7588C45.5877 11.6256 45.5348 11.4979 45.4406 11.4037C45.3464 11.3095 45.2186 11.2565 45.0854 11.2565Z" fill="#FF9494"/>
<path d="M46.1794 75.7703C45.4103 75.7703 44.6496 75.6108 43.9453 75.3018C43.2411 74.9928 42.6087 74.541 42.0882 73.9751C41.5677 73.4092 41.1705 72.7414 40.9216 72.0141C40.6727 71.2868 40.5776 70.5158 40.6423 69.7498L43.0362 41.3881C43.1535 40.0011 43.7877 38.7086 44.8131 37.7667C45.8386 36.8248 47.1806 36.302 48.5734 36.302H71.4091C72.8019 36.302 74.1439 36.8248 75.1694 37.7667C76.1948 38.7086 76.829 40.0011 76.9463 41.3881L79.3402 69.7498C79.4049 70.5157 79.3097 71.2867 79.0608 72.014C78.8119 72.7413 78.4146 73.409 77.8941 73.9749C77.3736 74.5408 76.7413 74.9926 76.0371 75.3017C75.3329 75.6107 74.5722 75.7703 73.8031 75.7703H46.1794Z" fill="#E5F5FA"/>
<path d="M76.2621 66.227L73.8681 37.8658C73.7424 36.3758 73.0613 34.9873 71.9598 33.9755C70.8582 32.9636 69.4166 32.402 67.9205 32.4021H45.0848C43.5887 32.4022 42.1472 32.9637 41.0457 33.9756C39.9442 34.9874 39.263 36.3758 39.1372 37.8658L36.7432 66.227C36.6739 67.0496 36.7762 67.8777 37.0437 68.6587C37.3111 69.4398 37.7379 70.1569 38.2969 70.7647C38.856 71.3724 39.5351 71.8576 40.2915 72.1895C41.0478 72.5214 41.8648 72.6928 42.6908 72.6928H70.3145C71.1406 72.6928 71.9577 72.5213 72.714 72.1894C73.4704 71.8574 74.1496 71.3721 74.7087 70.7643C75.2677 70.1565 75.6944 69.4393 75.9618 68.6581C76.2292 67.8769 76.3315 67.0488 76.2621 66.2261V66.227ZM70.3145 71.8697H42.6908C41.9788 71.8697 41.2745 71.7219 40.6226 71.4358C39.9706 71.1497 39.3852 70.7315 38.9033 70.2076C38.4214 69.6838 38.0535 69.0656 37.823 68.3923C37.5924 67.7191 37.5042 67.0053 37.5639 66.2962L39.9579 37.9349C40.0663 36.6506 40.6534 35.4537 41.6029 34.5815C42.5524 33.7092 43.7951 33.2252 45.0848 33.2252H67.9205C69.2102 33.2252 70.4529 33.7092 71.4024 34.5815C72.3519 35.4537 72.939 36.6506 73.0474 37.9349L75.4414 66.2962C75.5011 67.0053 75.4128 67.719 75.1823 68.3923C74.9517 69.0656 74.5839 69.6837 74.102 70.2076C73.6201 70.7314 73.0346 71.1497 72.3827 71.4358C71.7307 71.7219 71.0265 71.8696 70.3145 71.8697Z" fill="#3B5C91"/>
<path d="M63.634 45.4032C61.1792 45.4032 59.1821 43.4072 59.1821 40.9539C59.1833 39.9955 59.4937 39.0631 60.0671 38.2949C60.6404 37.5267 61.4463 36.9638 62.3652 36.6895V32.8136H64.9027V36.6895C65.8216 36.9637 66.6275 37.5267 67.2009 38.2949C67.7743 39.0631 68.0846 39.9955 68.0858 40.9539C68.0858 43.4072 66.0896 45.4032 63.634 45.4032Z" fill="white"/>
<path d="M64.4907 33.2252V37.0084C66.3086 37.4022 67.6738 39.0212 67.6738 40.954C67.6738 43.1804 65.8614 44.9917 63.6337 44.9917C61.406 44.9917 59.5937 43.1804 59.5937 40.954C59.5937 39.0212 60.9597 37.4022 62.7768 37.0084V33.2252H64.4892M65.3127 32.4021H61.9547V36.3935C61.2909 36.6387 60.6884 37.0253 60.189 37.5265C59.6895 38.0277 59.3052 38.6315 59.0626 39.296C58.8691 39.8273 58.7704 40.3885 58.771 40.954C58.771 43.6342 60.9524 45.8148 63.6346 45.8148C66.3169 45.8148 68.4983 43.6346 68.4983 40.954C68.4991 39.8348 68.1118 38.7499 67.4022 37.884C66.8511 37.2106 66.1304 36.6961 65.3143 36.3935V32.4021H65.3127Z" fill="#3B5C91"/>
<path d="M63.6345 42.8686C63.1268 42.8676 62.6403 42.6655 62.2815 42.3066C61.9226 41.9477 61.7208 41.4613 61.7202 40.9539C61.7195 40.5659 61.838 40.1871 62.0597 39.8685C62.1482 39.741 62.2517 39.6245 62.368 39.5215V40.9539C62.362 41.1241 62.3904 41.2937 62.4514 41.4526C62.5124 41.6116 62.6049 41.7566 62.7232 41.8791C62.8415 42.0016 62.9833 42.099 63.1402 42.1656C63.297 42.2321 63.4656 42.2664 63.636 42.2664C63.8063 42.2664 63.9749 42.2321 64.1317 42.1656C64.2886 42.099 64.4304 42.0016 64.5487 41.8791C64.667 41.7566 64.7595 41.6116 64.8205 41.4526C64.8815 41.2937 64.9099 41.1241 64.9039 40.9539V39.5215C65.0203 39.6244 65.1239 39.7409 65.2125 39.8685C65.4341 40.1871 65.5526 40.5659 65.5519 40.9539C65.5513 41.4618 65.3491 41.9487 64.9896 42.3077C64.6301 42.6667 64.1427 42.8685 63.6345 42.8686Z" fill="#FFD385"/>
<path d="M49.3703 45.4032C46.9155 45.4032 44.9185 43.4072 44.9185 40.9539C44.9197 39.9956 45.2301 39.0631 45.8035 38.295C46.3769 37.5268 47.1827 36.9638 48.1015 36.6895V32.8136H50.6382V36.6895C51.557 36.9637 52.3629 37.5267 52.9363 38.2949C53.5097 39.0631 53.82 39.9955 53.8212 40.9539C53.8221 43.4072 51.825 45.4032 49.3703 45.4032Z" fill="white"/>
<path d="M50.227 33.2252V37.0084C52.0447 37.4022 53.4101 39.0212 53.4101 40.954C53.4101 43.1804 51.5978 44.9917 49.3701 44.9917C47.1424 44.9917 45.33 43.1804 45.33 40.954C45.33 39.0212 46.6961 37.4022 48.5131 37.0084V33.2252H50.227ZM51.0506 32.4021H47.6911V36.3935C46.875 36.6962 46.1544 37.2107 45.6034 37.884C44.8938 38.7499 44.5064 39.8348 44.5073 40.954C44.5073 43.6342 46.6887 45.8148 49.371 45.8148C52.0532 45.8148 54.2346 43.6346 54.2346 40.954C54.2352 39.8348 53.8478 38.7499 53.1383 37.884C52.5873 37.2106 51.8667 36.6961 51.0506 36.3935V32.4021Z" fill="#3B5C91"/>
<path d="M64.4912 38.7927V40.9539C64.4876 41.1785 64.3958 41.3926 64.2356 41.5502C64.0754 41.7077 63.8597 41.796 63.635 41.796C63.4103 41.796 63.1946 41.7077 63.0344 41.5502C62.8742 41.3926 62.7824 41.1785 62.7788 40.9539V38.7927C62.275 38.9919 61.8565 39.3604 61.5954 39.8348C61.3342 40.3092 61.2469 40.8598 61.3483 41.3917C61.4497 41.9236 61.7336 42.4035 62.151 42.7486C62.5684 43.0938 63.0932 43.2827 63.635 43.2827C64.1768 43.2827 64.7016 43.0938 65.119 42.7486C65.5364 42.4035 65.8203 41.9236 65.9217 41.3917C66.0231 40.8598 65.9358 40.3092 65.6746 39.8348C65.4135 39.3604 64.995 38.9919 64.4912 38.7927Z" fill="#3B5C91"/>
<path d="M49.3714 42.8686C48.8635 42.8681 48.3765 42.6661 48.0174 42.3072C47.6582 41.9482 47.4562 41.4616 47.4556 40.9539C47.4549 40.5659 47.5734 40.1871 47.795 39.8685C47.8834 39.7409 47.9869 39.6243 48.1033 39.5215V40.9539C48.0973 41.1241 48.1257 41.2937 48.1868 41.4526C48.2478 41.6116 48.3402 41.7566 48.4586 41.8791C48.5769 42.0016 48.7187 42.099 48.8755 42.1656C49.0323 42.2321 49.2009 42.2664 49.3713 42.2664C49.5417 42.2664 49.7103 42.2321 49.8671 42.1656C50.0239 42.099 50.1657 42.0016 50.284 41.8791C50.4024 41.7566 50.4948 41.6116 50.5559 41.4526C50.6169 41.2937 50.6453 41.1241 50.6393 40.9539V39.5215C50.7557 39.6243 50.8592 39.7409 50.9476 39.8685C51.1693 40.187 51.2879 40.5659 51.2873 40.9539C51.2867 41.4616 51.0846 41.9482 50.7255 42.3072C50.3663 42.6661 49.8793 42.8681 49.3714 42.8686Z" fill="#FFD385"/>
<path d="M50.2275 38.7927V40.9539C50.2239 41.1785 50.1321 41.3926 49.9719 41.5502C49.8118 41.7077 49.596 41.796 49.3713 41.796C49.1466 41.796 48.9309 41.7077 48.7707 41.5502C48.6105 41.3926 48.5187 41.1785 48.5151 40.9539V38.7927C48.0113 38.9919 47.5928 39.3604 47.3317 39.8348C47.0706 40.3092 46.9832 40.8598 47.0846 41.3917C47.186 41.9236 47.4699 42.4035 47.8873 42.7486C48.3047 43.0938 48.8296 43.2827 49.3713 43.2827C49.9131 43.2827 50.4379 43.0938 50.8553 42.7486C51.2727 42.4035 51.5566 41.9236 51.658 41.3917C51.7595 40.8598 51.6721 40.3092 51.411 39.8348C51.1498 39.3604 50.7313 38.9919 50.2275 38.7927Z" fill="#3B5C91"/>
<path d="M62.3657 33.6367V33.2251C62.3657 29.9936 59.7354 27.3646 56.502 27.3646C53.2686 27.3646 50.638 29.9936 50.638 33.2251V33.6367H48.1021V33.2251C48.1021 30.9811 48.9755 28.8724 50.5612 27.2876C52.147 25.7028 54.2567 24.8301 56.502 24.8301C58.7473 24.8301 60.857 25.7028 62.4427 27.2883C64.0285 28.8738 64.9017 30.9811 64.9017 33.2251V33.6367H62.3657Z" fill="white"/>
<path d="M56.5021 25.2417C58.6374 25.2417 60.6437 26.0717 62.1517 27.5789C63.6598 29.0861 64.4889 31.0911 64.4889 33.2252H62.7765C62.7765 29.7668 59.9614 26.9531 56.501 26.9531C53.0406 26.9531 50.2264 29.7668 50.2264 33.2252H48.514C48.514 31.0911 49.3445 29.0858 50.8525 27.5789C52.3606 26.0719 54.3668 25.2417 56.5021 25.2417ZM56.5021 24.4186C54.1469 24.4186 51.9337 25.3342 50.2696 26.9967C48.6055 28.6591 47.6899 30.8713 47.6899 33.2256V34.0487H51.05V33.2256C51.05 30.2211 53.4958 27.7766 56.5021 27.7766C59.5084 27.7766 61.9541 30.2211 61.9541 33.2256V34.0487H65.3136V33.2256C65.3136 30.8718 64.3977 28.6598 62.734 26.9967C61.0704 25.3336 58.8574 24.4186 56.5021 24.4186Z" fill="#3B5C91"/>
<circle cx="30.4995" cy="63.5" r="7.5" fill="#E5F5FA"/>
<circle cx="29.4995" cy="62.5" r="7.25" stroke="#3B5C91" stroke-width="0.5"/>
<path d="M28.2991 67.5841C28.2205 67.5841 28.145 67.5529 28.0894 67.4972C28.0337 67.4416 28.0025 67.3661 28.0025 67.2874V66.5478C27.3929 66.4446 26.8262 66.1671 26.3709 65.7488C25.9164 65.3102 25.6385 64.7202 25.5897 64.0905C25.5858 64.0493 25.5906 64.0077 25.6038 63.9684C25.617 63.9292 25.6382 63.8931 25.6661 63.8626C25.6941 63.832 25.7281 63.8077 25.766 63.7911C25.804 63.7744 25.8449 63.766 25.8863 63.7661H27.3755C27.4422 63.7661 27.507 63.7885 27.5594 63.8297C27.6118 63.871 27.6487 63.9287 27.6643 63.9936C27.8087 64.5928 28.2715 64.9093 29.0012 64.9093C29.4838 64.9093 30.0593 64.7876 30.0593 64.2101C30.0593 63.9016 30.0593 63.5832 28.6126 63.2213C27.5891 62.9612 26.9009 62.6428 26.447 62.2186C25.9931 61.7944 25.7815 61.2703 25.7815 60.5998C25.7776 60.3003 25.8328 60.0029 25.9442 59.7247C26.0555 59.4466 26.2207 59.1932 26.4302 58.9791C26.8372 58.5795 27.3533 58.3091 27.9135 58.2018V57.6392C27.9135 57.5605 27.9447 57.4851 28.0004 57.4294C28.056 57.3738 28.1315 57.3425 28.2101 57.3425H29.4848C29.5635 57.3425 29.6389 57.3738 29.6945 57.4294C29.7502 57.4851 29.7814 57.5605 29.7814 57.6392V58.1969C30.4548 58.3284 30.9908 58.6083 31.3774 59.0295C31.7383 59.4268 31.9553 59.9339 31.9935 60.4693C31.9971 60.5104 31.9921 60.5517 31.9788 60.5907C31.9655 60.6297 31.9442 60.6656 31.9163 60.6959C31.8883 60.7262 31.8544 60.7504 31.8166 60.7669C31.7789 60.7834 31.7381 60.7918 31.6968 60.7917H30.2096C30.144 60.7919 30.0802 60.7704 30.0281 60.7305C29.9761 60.6906 29.9387 60.6345 29.9219 60.5711C29.823 60.2112 29.6489 59.8265 28.7738 59.8265C28.4376 59.8265 28.1805 59.8997 28.0351 60.0362C27.9844 60.0855 27.9445 60.1448 27.918 60.2103C27.8914 60.2759 27.8788 60.3462 27.8809 60.4169C27.8809 60.6839 27.8809 60.936 29.3098 61.2841C30.3668 61.5373 31.1025 61.8843 31.5584 62.3461C31.9876 62.7812 32.1873 63.3162 32.1873 64.0272C32.1951 64.3479 32.1378 64.6669 32.0188 64.9648C31.8998 65.2628 31.7217 65.5335 31.4951 65.7607C31.0996 66.1562 30.5518 66.4153 29.8744 66.5399V67.2805C29.8744 67.3592 29.8431 67.4347 29.7875 67.4903C29.7319 67.5459 29.6564 67.5772 29.5777 67.5772L28.2991 67.5841Z" fill="#FF9494"/>
<path d="M43.2704 61.5807C43.9874 61.5893 44.6971 61.4366 45.347 61.1337C45.9403 60.8469 46.3764 60.4415 46.5851 59.9955C46.6739 59.8051 46.8151 59.6438 46.9921 59.5306C47.1691 59.4173 47.3746 59.3567 47.5848 59.3557H50.1519V46.8833L37.7803 46.8892C36.7311 46.8892 35.7205 47.3372 34.6901 48.2598C34.114 48.7797 33.6069 49.3712 33.1811 50.02L30.001 54.9712L30.9058 55.1412C32.0754 55.3601 33.1757 55.8558 34.1146 56.5869L34.6298 56.9894L33.8338 58.1365C33.7329 58.2745 33.6682 58.4356 33.6455 58.605C33.6229 58.7745 33.6431 58.9469 33.7042 59.1065C33.7594 59.2482 33.8491 59.3739 33.9651 59.4721C34.0812 59.5704 34.2199 59.6381 34.3687 59.6692C35.0906 59.9599 35.5771 60.0845 35.9944 60.0845C36.1428 60.085 36.2908 60.0684 36.4354 60.0351C36.6118 59.9944 36.7821 59.9306 36.9417 59.8452L36.5966 60.043L36.7222 60.5087C36.7726 60.6917 36.8161 60.8825 36.8517 61.0734L36.9506 61.5777H43.2704V61.5807Z" fill="white"/>
<path d="M44.4335 62.7435C45.1505 62.7522 45.8602 62.5994 46.5101 62.2965C47.1034 62.0098 47.5395 61.6043 47.7481 61.1584C47.837 60.9679 47.9782 60.8067 48.1552 60.6934C48.3322 60.5801 48.5377 60.5195 48.7479 60.5186H51.3149V48.0461L38.9434 48.0521C37.8942 48.0521 36.8836 48.5 35.8532 49.4226C35.2771 49.9425 34.77 50.5341 34.3442 51.1828L31.164 56.134L32.0688 56.3041C33.2385 56.523 34.3388 57.0187 35.2777 57.7498L35.7929 58.1522L34.9968 59.2993C34.896 59.4373 34.8312 59.5984 34.8086 59.7679C34.786 59.9373 34.8062 60.1097 34.8673 60.2694C34.9225 60.4111 35.0122 60.5367 35.1282 60.635C35.2443 60.7332 35.383 60.801 35.5318 60.832C36.2537 61.1228 36.7402 61.2474 37.1575 61.2474C37.3059 61.2479 37.4539 61.2313 37.5985 61.1979C37.7749 61.1573 37.9452 61.0934 38.1048 61.0081L37.7597 61.2058L37.8853 61.6716C37.9357 61.8545 37.9792 62.0454 38.0148 62.2362L38.1137 62.7405H44.4335V62.7435Z" fill="#FFD385"/>
<path d="M49.8564 47.177L37.7825 47.1829C36.8095 47.1829 35.8641 47.6062 34.8911 48.4773C34.3339 48.98 33.8437 49.5523 33.4325 50.1801L30.4927 54.7576L30.9634 54.8456C32.1795 55.075 33.3232 55.5921 34.2988 56.3536L34.5667 56.5632L38.448 50.9732C38.4928 50.9086 38.5615 50.8644 38.639 50.8504C38.7164 50.8364 38.7962 50.8537 38.8609 50.8986C38.9255 50.9434 38.9697 51.0121 38.9837 51.0895C38.9977 51.1669 38.9804 51.2468 38.9355 51.3114L34.0783 58.3076C34.0051 58.4054 33.9576 58.5201 33.9404 58.641C33.9231 58.762 33.9365 58.8853 33.9794 58.9998C34.0167 59.096 34.0775 59.1813 34.1563 59.248C34.235 59.3146 34.3292 59.3605 34.4303 59.3815C34.4465 59.3847 34.4624 59.3893 34.4777 59.3953C35.1512 59.6672 35.607 59.7908 35.9917 59.7908C36.1178 59.7908 36.2434 59.7769 36.3665 59.7493C36.9034 59.6277 37.4542 59.2035 38.1573 58.3728L38.1701 58.356C38.2087 58.3046 38.3244 58.1365 38.4717 57.9229L38.5627 57.7904C38.94 57.2383 39.4532 56.7928 40.0529 56.497C40.2098 56.4162 40.3758 56.3545 40.5473 56.313C41.2633 56.1518 41.8447 56.0006 42.3747 55.8334L42.5043 55.7929C43.8887 55.3766 44.6798 54.1118 45.2197 53.0488C45.2553 52.9789 45.3172 52.9259 45.3917 52.9015C45.4287 52.8893 45.4678 52.8845 45.5066 52.8874C45.5455 52.8902 45.5834 52.9008 45.6182 52.9183C45.6876 52.9539 45.7401 53.0153 45.7646 53.0893C45.789 53.1633 45.7833 53.244 45.7487 53.3138C45.2049 54.3867 44.2951 55.87 42.6773 56.3575L42.5567 56.3951C42.0099 56.5672 41.4136 56.7234 40.6779 56.8895C40.5531 56.9221 40.4324 56.9686 40.3179 57.028C39.8116 57.2782 39.3778 57.654 39.0581 58.1197L38.9672 58.2522C38.713 58.621 38.6557 58.7031 38.625 58.7387C38.0792 59.3864 37.6154 59.8067 37.1664 60.0598L36.9479 60.1834L37.0142 60.4247C37.0656 60.6155 37.113 60.8133 37.1486 61.0121L37.1981 61.2741H43.2697C43.9427 61.283 44.6092 61.1404 45.2197 60.8568C45.7477 60.5997 46.1383 60.2457 46.3173 59.861C46.4303 59.6193 46.6096 59.4147 46.8344 59.271C47.0592 59.1272 47.3202 59.0503 47.587 59.0492H49.8535V47.172M50.4468 46.5787V47.172V59.0492V59.6425H47.585C47.4316 59.6434 47.2816 59.6879 47.1524 59.7707C47.0232 59.8535 46.9202 59.9712 46.8553 60.1102C46.7204 60.3903 46.5307 60.6404 46.2975 60.8459C46.0511 61.065 45.7752 61.2485 45.4778 61.3908C44.7875 61.7165 44.0329 61.8828 43.2697 61.8773H36.7007L36.6097 61.3928L36.5603 61.1307C36.5247 60.9468 36.4831 60.7649 36.4357 60.5888L36.3724 60.3565C36.2476 60.3772 36.1212 60.3875 35.9947 60.3871C35.5418 60.3871 35.0276 60.2586 34.28 59.9589C34.0938 59.9141 33.9205 59.8268 33.7737 59.7038C33.6202 59.5736 33.5013 59.4075 33.4276 59.2203C33.3471 59.0141 33.3209 58.7908 33.3514 58.5716C33.3823 58.3559 33.4636 58.1506 33.5888 57.9723L34.2246 57.0557L34.1999 57.0369L33.9319 56.8272C33.0312 56.1218 31.9746 55.6424 30.8506 55.429L30.3809 55.342L29.5107 55.1788L29.9893 54.4342L32.9272 49.8617C33.3683 49.1873 33.8948 48.5727 34.4936 48.0333C34.9672 47.5948 35.5064 47.2328 36.0916 46.9604C36.6218 46.7179 37.1975 46.5908 37.7805 46.5876L49.8535 46.5817L50.4468 46.5787Z" fill="#3B5C91"/>
<g style="mix-blend-mode:color-burn">
<path d="M50.4517 48.866H49.8583L37.7854 48.872C37.201 48.8746 36.6239 49.0017 36.0925 49.2448C35.5065 49.5173 34.9667 49.8796 34.4925 50.3187C33.8974 50.8557 33.3736 51.4668 32.9341 52.1372L31.1759 54.8743L30.5826 54.7576L29.8192 54.7042L29.9982 54.4254L32.9281 49.8618C33.3692 49.1873 33.8957 48.5728 34.4945 48.0334C34.9681 47.5949 35.5073 47.2329 36.0925 46.9605C36.6227 46.718 37.1984 46.5909 37.7814 46.5877L49.8544 46.5818H50.4477V48.867L50.4517 48.866Z" fill="#B3B3B3"/>
</g>
<path d="M54.1205 61.55C54.3942 61.549 54.6564 61.4396 54.8497 61.2458C55.0429 61.0519 55.1516 60.7894 55.1519 60.5157V45.5978C55.1513 45.3248 55.0432 45.0631 54.8508 44.8694C54.6584 44.6758 54.3974 44.5658 54.1244 44.5635H54.1165L51.1796 44.5912C50.9056 44.5917 50.6431 44.7009 50.4495 44.8948C50.256 45.0887 50.1473 45.3515 50.1473 45.6255V60.5434C50.1462 60.8173 50.2539 61.0804 50.4468 61.2749C50.6396 61.4694 50.9018 61.5794 51.1757 61.5807H51.1806L54.1205 61.55Z" fill="#E5F5FA"/>
<path d="M54.1236 44.8611L51.1847 44.8888C50.9896 44.8893 50.8026 44.9672 50.6647 45.1052C50.5268 45.2433 50.4493 45.4304 50.449 45.6255V60.5434C50.4487 60.6402 50.4676 60.7361 50.5046 60.8256C50.5416 60.915 50.596 60.9962 50.6646 61.0645C50.8014 61.2018 50.987 61.2793 51.1808 61.2801L54.1196 61.2524C54.3147 61.2519 54.5016 61.174 54.6393 61.0359C54.777 60.8978 54.8544 60.7108 54.8544 60.5157V45.5978C54.8539 45.4035 54.7768 45.2171 54.6398 45.0792C54.5028 44.9413 54.317 44.863 54.1226 44.8611M54.1226 44.2678H54.1295C54.4812 44.2707 54.8175 44.4122 55.0654 44.6616C55.3133 44.911 55.4528 45.2481 55.4536 45.5998V60.5177C55.4531 60.8701 55.3131 61.208 55.0643 61.4576C54.8155 61.7071 54.478 61.8481 54.1256 61.8497L51.1887 61.8774H51.1778C50.8487 61.8773 50.5314 61.7546 50.2878 61.5332H50.2809L50.2394 61.4907C50.1154 61.3674 50.0171 61.2207 49.9503 61.0591C49.8834 60.8975 49.8492 60.7242 49.8498 60.5493V45.6315C49.8498 45.2789 49.9896 44.9407 50.2385 44.691C50.4874 44.4413 50.8252 44.3005 51.1778 44.2995L54.1137 44.2718L54.1226 44.2678Z" fill="#3B5C91"/>
</g>
<defs>
<clipPath id="clip0_134_2614">
<rect width="100" height="100" fill="white" transform="translate(0.833496)"/>
</clipPath>
</defs>
</svg>
