<svg width="18" height="18" viewBox="0 0 18 18" fill="none" xmlns="http://www.w3.org/2000/svg">
<g clip-path="url(#clip0_188_10248)">
<path d="M0.962965 12.9763L3.33537 10.6039C4.18265 9.7566 5.62304 10.0955 5.96195 11.197C6.21614 11.9596 7.06343 12.3832 7.82598 12.2137C9.52055 11.7901 11.8082 9.58714 12.2319 7.80784C12.4861 7.04525 11.9777 6.19796 11.2151 5.94381C10.1137 5.6049 9.77474 4.16451 10.622 3.31723L12.9944 0.944825C13.6723 0.351725 14.689 0.351725 15.2821 0.944825L16.8919 2.55467C18.5018 4.24924 16.7225 8.73986 12.7402 12.7221C8.758 16.7043 4.26738 18.5684 2.57281 16.8738L0.962965 15.264C0.369831 14.5861 0.369831 13.5694 0.962965 12.9763Z" fill="#525F64"/>
</g>
<defs>
<clipPath id="clip0_188_10248">
<rect width="17" height="17" fill="white" transform="matrix(-1 0 0 1 17.5 0.5)"/>
</clipPath>
</defs>
</svg>
