<svg width="17" height="17" viewBox="0 0 17 17" fill="none" xmlns="http://www.w3.org/2000/svg">
<g clip-path="url(#clip0_187_9831)">
<path d="M15.7 7.7H9.30005V1.29995C9.30005 0.858447 8.9416 0.5 8.49995 0.5C8.05845 0.5 7.7 0.858447 7.7 1.29995V7.7H1.29995C0.858447 7.7 0.5 8.05845 0.5 8.49995C0.5 8.9416 0.858447 9.30005 1.29995 9.30005H7.7V15.7C7.7 16.1416 8.05845 16.5 8.49995 16.5C8.9416 16.5 9.30005 16.1416 9.30005 15.7V9.30005H15.7C16.1416 9.30005 16.5 8.9416 16.5 8.49995C16.5 8.05845 16.1416 7.7 15.7 7.7Z" fill="#FF7132"/>
</g>
<defs>
<clipPath id="clip0_187_9831">
<rect width="16" height="16" fill="white" transform="translate(0.5 0.5)"/>
</clipPath>
</defs>
</svg>
