<svg width="296" height="594" viewBox="0 0 296 594" fill="none" xmlns="http://www.w3.org/2000/svg">
<path d="M194.467 468.782L219.721 452.761C222.152 451.016 224.9 449.759 227.81 449.058C227.887 445.271 227.498 441.491 226.651 437.801C231.902 431.373 238.165 425.838 245.195 421.412C244.979 417.813 244.432 414.243 243.563 410.744C260.417 400.491 274.764 386.611 285.55 370.121C283.533 360.453 280.736 350.965 277.187 341.749C273.961 334.007 269.603 326.476 268.976 318.037C268.648 313.923 269.216 309.786 270.642 305.908C272.068 302.031 274.319 298.506 277.238 295.575C275.417 290.51 273.766 285.178 271.944 280.114C268.062 279.602 264.33 278.296 260.981 276.277C259.65 275.583 258.587 274.468 257.958 273.108C253.607 261.354 250.088 249.309 247.427 237.062C239.238 234.222 232.683 228.057 227.085 221.58C221.486 215.103 216.309 208.328 210.344 202.005C208.038 199.568 203.667 200.721 201.538 203.309C199.408 205.897 198.776 209.361 197.858 212.587C195.559 221.083 190.834 228.734 184.259 234.61C181.57 236.882 178.751 238.997 175.816 240.944L164.285 248.92C158.726 252.778 153.09 256.695 148.784 261.902C144.477 267.109 141.619 273.909 142.644 280.575C143.301 285.174 146.059 289.229 147.949 293.442C150.203 298.39 152.317 303.228 154.372 308.193C158.568 318.31 162.359 328.578 165.746 338.998C172.77 361.04 178.565 383.455 183.105 406.14C185.44 417.49 187.58 428.873 189.629 440.262C190.624 445.844 191.561 451.423 192.568 456.983C192.865 458.644 196.307 467.679 194.467 468.782Z" fill="#C7E9F6" fill-opacity="0.19"/>
<path d="M189.305 176.992C186.866 167.891 185.991 156.725 180.976 148.611C178.945 145.145 175.753 142.508 171.96 141.162C166.555 139.426 160.598 141.245 155.716 144.163C151.359 146.756 147.34 150.609 146.389 155.583C145.628 159.674 147.058 163.696 148.493 167.457C149.928 171.219 150.669 175.092 151.826 178.928L155.755 193.589C148.948 192.303 143.322 187.666 139.176 182.243C137.167 179.527 135.41 176.634 133.926 173.6C133.082 171.975 132.082 170.392 131.221 168.772C130.763 167.895 127.887 163.261 128.37 162.429L126.148 166.263C120.634 156.636 115.346 146.744 110.777 136.622C108.27 131.149 105.699 125.712 102.981 120.351C101.435 117.286 99.5271 114.391 98.2448 111.2C98.753 110.879 99.5097 110.861 99.9081 110.476C100.854 109.779 100.78 108.392 100.452 107.24C99.7738 104.74 98.4709 102.453 96.6653 100.592C96.0193 99.9137 95.3178 99.3058 94.6937 98.6401C93.5335 97.3076 92.5212 95.8537 91.6747 94.3037L89.0927 84.6678L94.0137 83.3493L93.3705 80.9489L98.5687 79.5561L95.5472 68.2797L66.6973 76.01L69.6725 87.1137L75.1306 85.6512L76.0236 88.9841L79.7143 87.9952L81.5004 94.6608C81.2248 96.1968 79.3537 97.2535 78.7546 98.6911C78.3741 99.9412 78.4637 101.286 79.0066 102.473C79.7218 104.649 80.5829 106.774 81.5839 108.834C82.404 110.787 83.7685 112.464 85.5158 113.667C87.1844 114.626 89.6013 115.052 90.1011 116.917C91.2301 121.131 92.3637 125.361 93.4927 129.575C94.5061 133.357 95.5194 137.139 96.6714 140.883C97.5968 144.337 98.6781 147.749 99.8462 151.138C100.008 151.742 100.279 152.336 100.51 152.922C104.741 163.652 113.787 165.67 116.439 176.953C117.503 181.48 114.567 187.986 113.641 192.639C113.085 195.416 112.556 198.223 112.17 201.01C111.99 202.003 110.223 208.787 110.828 209.31C118.45 215.901 126.515 221.964 134.967 227.458C136.264 230.659 137.292 233.961 138.04 237.332C137.709 239.505 136.957 241.592 135.825 243.479C134.302 246.551 134.014 250.084 135.017 253.357C136.014 255.558 137.423 257.549 139.17 259.222C140.033 260.156 142.028 261.362 142.707 260.291C149.351 249.812 160.023 244.38 169.159 236.546C175.117 231.367 180.513 225.579 185.258 219.276C189.539 213.631 195.417 206.319 195.428 198.875C195.438 196.763 194.103 194.9 193.557 192.862L189.305 176.992Z" fill="#C7E9F6" fill-opacity="0.19"/>
<path d="M64.6969 64.386C65.5566 65.542 66.6412 66.5132 67.8861 67.2417C69.131 67.9702 70.5108 68.441 71.943 68.6262C75.2667 68.9972 78.625 68.3174 81.5437 66.683C85.5165 64.4866 88.7269 61.138 90.7483 57.0821C92.7698 53.0262 93.5065 48.455 92.8607 43.9761C90.8636 31.7404 80.2092 26.8402 69.1619 24.8401C70.8811 25.1568 72.4074 29.1898 72.7522 30.6151C73.2544 32.9864 73.1335 35.4478 72.4012 37.7609C71.1909 42.3236 68.1654 46.0031 65.8379 50.0694C63.5103 54.1356 61.9848 59.1159 64.0172 63.2355C64.2162 63.6345 64.4434 64.019 64.6969 64.386Z" fill="#C7E9F6" fill-opacity="0.19"/>
<path d="M194.267 153.859C201.598 151.895 207.407 149.808 207.244 149.198C207.08 148.587 201.005 149.685 193.675 151.649C186.345 153.613 180.535 155.7 180.698 156.311C180.862 156.921 186.937 155.823 194.267 153.859Z" fill="#C7E9F6" fill-opacity="0.19"/>
<path d="M189.86 145.058C196.672 141.714 201.968 138.544 201.688 137.977C201.409 137.411 195.661 139.661 188.849 143.005C182.038 146.348 176.742 149.518 177.021 150.085C177.3 150.652 183.049 148.401 189.86 145.058Z" fill="#C7E9F6" fill-opacity="0.19"/>
<path d="M180.389 133.541C183.944 126.872 186.374 121.227 185.816 120.931C185.257 120.636 181.922 125.803 178.367 132.471C174.811 139.14 172.381 144.785 172.94 145.081C173.498 145.376 176.833 140.209 180.389 133.541Z" fill="#C7E9F6" fill-opacity="0.19"/>
<path d="M136.516 169.334C143.847 167.37 149.656 165.283 149.493 164.672C149.329 164.062 143.254 165.159 135.924 167.123C128.594 169.088 122.784 171.175 122.948 171.785C123.111 172.395 129.186 171.298 136.516 169.334Z" fill="#C7E9F6" fill-opacity="0.19"/>
<path d="M148.908 157.113C148.864 156.483 142.703 156.408 135.148 156.945C127.592 157.482 121.503 158.427 121.546 159.057C121.59 159.686 127.751 159.761 135.307 159.224C142.862 158.687 148.952 157.742 148.908 157.113Z" fill="#C7E9F6" fill-opacity="0.19"/>
<path d="M150.145 151.104C150.481 150.567 145.543 146.884 139.115 142.876C132.687 138.868 127.203 136.054 126.867 136.59C126.53 137.126 131.468 140.81 137.896 144.817C144.324 148.825 149.808 151.64 150.145 151.104Z" fill="#C7E9F6" fill-opacity="0.19"/>
<path d="M162.696 147.549C163.308 147.385 162.218 141.33 160.26 134.024C158.303 126.719 156.219 120.93 155.607 121.094C154.995 121.258 156.085 127.313 158.042 134.619C160 141.924 162.083 147.713 162.696 147.549Z" fill="#C7E9F6" fill-opacity="0.19"/>
<path d="M251.477 232.423C251.964 231.145 252.5 229.891 253.087 228.66C254.029 226.69 255.108 224.787 256.315 222.965C257.495 221.131 258.499 219.196 259.697 217.357C263.974 218.677 268.142 220.326 272.162 222.291C275.367 223.857 280.359 225.647 281.649 229.281C281.868 229.995 281.939 230.746 281.859 231.489C281.778 232.231 281.548 232.95 281.181 233.602C280.814 234.254 280.318 234.826 279.724 235.281C279.13 235.737 278.449 236.069 277.723 236.255L279.552 243.983C280.545 243.664 281.597 243.579 282.628 243.733C283.658 243.887 284.638 244.277 285.492 244.871C286.32 245.453 286.999 246.221 287.473 247.113C287.948 248.005 288.205 248.996 288.224 250.007C288.227 252.652 286.676 254.974 285.574 257.306L281.733 265.498C280.56 268.051 279.173 270.774 276.666 272.093C274.16 273.413 270.567 272.895 267.627 271.905C266.002 271.373 264.409 270.75 262.855 270.038C262.026 269.725 261.236 269.315 260.504 268.817C259.959 268.26 259.443 267.675 258.958 267.066L250.495 235.481C250.356 234.963 251.254 233.186 251.433 232.676L251.477 232.423Z" fill="#C7E9F6" fill-opacity="0.19"/>
<path d="M194.223 494.556L308.323 463.983C306.382 460.894 304.62 457.924 302.678 454.835C299.643 450.462 297.239 445.687 295.533 440.647C295.002 437.944 294.206 435.299 293.158 432.751C292.376 431.221 291.289 429.865 290.559 428.321C290.147 427.568 289.918 426.729 289.892 425.871C289.865 425.013 290.041 424.161 290.406 423.383C291.392 421.657 293.135 421.023 294.672 419.76C294.938 419.57 295.152 419.315 295.291 419.02C295.376 418.724 295.375 418.409 295.29 418.113C294.28 412.197 292.724 406.387 290.64 400.759C289.716 401.048 288.749 401.169 287.783 401.117C286.857 397.663 285.796 394.116 284.77 390.634C283.983 387.698 288.297 385.987 289.649 383.2C288.992 380.748 288.268 378.462 287.606 375.993C283.107 381.381 278.294 386.706 273.813 392.089C271.884 394.457 269.941 396.699 267.897 398.912C261.902 405.042 255.397 410.654 248.454 415.69C249.085 417.943 249.587 420.231 249.956 422.543L236.577 436.862L234.388 439.3C235.316 442.887 236.042 446.523 236.564 450.192C224.378 459.258 211.694 467.638 198.57 475.29C198.027 475.621 197.597 478.105 197.411 478.729C197.094 479.832 196.816 480.943 196.559 482.066C195.924 484.83 195.433 487.624 195.088 490.438C194.849 491.001 194.864 494.384 194.223 494.556Z" fill="#C7E9F6" fill-opacity="0.19"/>
<path d="M169.603 506.706L333.242 462.859L337.407 478.4L326.976 481.195L330.64 494.872L341.071 492.077L365.136 552.223L401.142 542.575L404.311 554.404L155.682 621.024L152.513 609.195L185.175 600.443L174.998 535.78L188.358 532.201L184.79 518.887L172.921 522.067L169.603 506.706Z" fill="#C7E9F6" fill-opacity="0.19"/>
</svg>
