<svg width="193" height="21" viewBox="0 0 193 21" fill="none" xmlns="http://www.w3.org/2000/svg">
<path d="M1.40981 20.7256C1.12122 20.7256 0.873866 20.6234 0.678042 20.4136C0.482217 20.2038 0.37915 19.9509 0.37915 19.6496V16.2118C0.37915 15.8944 0.477064 15.6361 0.678042 15.4371C0.873866 15.238 1.12122 15.1358 1.40981 15.1358H15.37C15.6741 15.1358 15.9214 15.238 16.1121 15.4371C16.3028 15.6361 16.4007 15.8944 16.4007 16.2118V19.6496C16.4007 19.9509 16.3028 20.2091 16.1121 20.4136C15.9214 20.618 15.6741 20.7256 15.37 20.7256C15.0815 20.7256 14.8341 20.6234 14.6383 20.4136C14.4373 20.2091 14.3394 19.9509 14.3394 19.6496V17.0403H2.44046V19.6496C2.44046 19.9509 2.34255 20.2091 2.15188 20.4136C1.9612 20.618 1.71385 20.7256 1.40981 20.7256ZM3.63087 16.3786L1.86845 15.4909L7.43914 1.5996C7.63497 1.11539 7.95962 0.873291 8.41311 0.873291C8.88721 0.873291 9.21187 1.11539 9.38708 1.5996L14.9784 15.5339L13.3345 16.3839L8.29974 3.63325H8.57802L3.63087 16.3786Z" fill="black"/>
<path d="M26.0378 17.2447C24.8732 17.2447 23.8116 17.0402 22.8428 16.6367C21.8791 16.2278 21.0494 15.6575 20.3537 14.9205C19.658 14.1834 19.1221 13.3065 18.7356 12.2896C18.3543 11.2728 18.1584 10.1591 18.1584 8.94864C18.1584 7.73813 18.3491 6.62446 18.7356 5.61302C19.117 4.60695 19.658 3.73 20.3537 2.99294C21.0494 2.25587 21.8791 1.68021 22.8428 1.27671C23.8064 0.867824 24.8732 0.668762 26.0378 0.668762C27.2025 0.668762 28.264 0.873204 29.2225 1.27671C30.1811 1.68559 31.0107 2.25587 31.7116 2.99294C32.4124 3.73 32.9535 4.60695 33.34 5.61302C33.7214 6.61908 33.9172 7.73275 33.9172 8.94864C33.9172 10.1645 33.7265 11.2782 33.34 12.2896C32.9587 13.3011 32.4124 14.178 31.7116 14.9205C31.0107 15.6575 30.1811 16.2332 29.2225 16.6367C28.264 17.0402 27.2025 17.2447 26.0378 17.2447ZM26.0378 15.2971C26.8984 15.2971 27.6869 15.1357 28.4083 14.8129C29.1298 14.4901 29.7533 14.0382 30.2841 13.4679C30.8149 12.8976 31.2169 12.2197 31.5054 11.4504C31.7889 10.6756 31.9332 9.84172 31.9332 8.94326C31.9332 8.04479 31.7889 7.21089 31.5054 6.43616C31.222 5.66144 30.8149 4.98893 30.2841 4.41865C29.7533 3.84836 29.1298 3.40182 28.4083 3.0844C27.6869 2.76698 26.8984 2.61096 26.0378 2.61096C25.1772 2.61096 24.3888 2.76698 23.6673 3.0844C22.9458 3.40182 22.3274 3.84836 21.8018 4.41865C21.2813 4.98893 20.8742 5.66682 20.5805 6.43616C20.2919 7.21089 20.1425 8.04479 20.1425 8.94326C20.1425 9.84172 20.2868 10.6756 20.5805 11.4504C20.8691 12.2251 21.2762 12.8976 21.8018 13.4679C22.3223 14.0382 22.9458 14.4901 23.6673 14.8129C24.3888 15.1357 25.1824 15.2971 26.0378 15.2971Z" fill="black"/>
<path d="M43.6873 17.2448C42.6154 17.2448 41.6157 17.035 40.683 16.6154C39.7502 16.1957 38.936 15.6093 38.2455 14.8561C37.5549 14.1029 37.0087 13.226 36.617 12.2145C36.2254 11.2084 36.0295 10.1163 36.0295 8.94345C36.0295 7.78136 36.2254 6.70536 36.617 5.70467C37.0087 4.70398 37.5498 3.82704 38.2455 3.07383C38.9411 2.32063 39.7502 1.7342 40.6727 1.3038C41.6002 0.878776 42.6051 0.663574 43.6873 0.663574C44.7077 0.663574 45.5837 0.803455 46.3155 1.07784C47.0473 1.35222 47.7842 1.80952 48.5262 2.44437C48.6345 2.52507 48.7169 2.61653 48.7736 2.70261C48.8354 2.79407 48.8715 2.88015 48.8921 2.97161C48.9127 3.06307 48.923 3.17067 48.923 3.29441C48.923 3.55803 48.8354 3.77324 48.6551 3.9454C48.4747 4.11756 48.2634 4.2144 48.0109 4.23592C47.7584 4.25744 47.5162 4.17136 47.2791 3.97768C46.7896 3.53651 46.2846 3.19757 45.7641 2.96623C45.2436 2.72951 44.5531 2.61653 43.6925 2.61653C42.9143 2.61653 42.1774 2.78331 41.492 3.11149C40.8066 3.44505 40.1985 3.89698 39.6781 4.47802C39.1576 5.05906 38.7505 5.73157 38.4567 6.49553C38.1682 7.2595 38.0187 8.07726 38.0187 8.94883C38.0187 9.83116 38.163 10.6543 38.4567 11.4236C38.7453 12.1876 39.1524 12.8601 39.6781 13.4412C40.1985 14.0222 40.8066 14.4741 41.492 14.7969C42.1774 15.1197 42.9143 15.2811 43.6925 15.2811C44.3676 15.2811 45.0066 15.1628 45.6043 14.9207C46.2073 14.6786 46.7844 14.345 47.341 13.9146C47.578 13.7371 47.8151 13.6564 48.047 13.6779C48.2789 13.6994 48.4747 13.7962 48.6345 13.9684C48.7942 14.1406 48.8715 14.3773 48.8715 14.6839C48.8715 14.8238 48.8457 14.9583 48.7942 15.0875C48.7427 15.2166 48.6602 15.3403 48.5572 15.4479C47.8409 16.0397 47.0782 16.4916 46.2691 16.7929C45.4446 17.0942 44.5891 17.2448 43.6873 17.2448Z" fill="black"/>
<path d="M51.4224 2.85853C51.1441 2.85853 50.9173 2.76707 50.737 2.57877C50.5566 2.39047 50.469 2.15375 50.469 1.86323C50.469 1.5727 50.5566 1.33598 50.737 1.14768C50.9173 0.959381 51.1441 0.86792 51.4224 0.86792H62.033C62.3112 0.86792 62.538 0.959381 62.7183 1.14768C62.8987 1.33598 62.9863 1.5727 62.9863 1.86323C62.9863 2.15375 62.8987 2.39047 62.7183 2.57877C62.538 2.76707 62.3112 2.85853 62.033 2.85853H51.4224ZM56.7354 17.0403C56.4468 17.0403 56.1994 16.9381 56.0036 16.7283C55.8078 16.5184 55.7047 16.2656 55.7047 15.9643V0.86792H57.766V15.9589C57.766 16.2602 57.6681 16.5184 57.4672 16.7229C57.2662 16.9273 57.0291 17.0403 56.7354 17.0403Z" fill="black"/>
<path d="M63.0638 17.0403C62.6927 17.0403 62.4093 16.8735 62.2135 16.5453C62.0176 16.2118 61.997 15.8621 62.1516 15.4909L67.7223 1.5996C67.9181 1.11539 68.2428 0.873291 68.6963 0.873291C69.1704 0.873291 69.495 1.11539 69.6703 1.5996L75.2616 15.5339C75.4059 15.9213 75.3853 16.271 75.1946 16.5776C75.0039 16.8897 74.7153 17.0457 74.334 17.0457C74.1382 17.0457 73.9475 16.9865 73.7671 16.8681C73.5868 16.7498 73.4579 16.5884 73.3806 16.3839L68.4644 3.63325H69.021L64.0223 16.3839C63.9295 16.6045 63.7955 16.7713 63.6152 16.8789C63.4348 16.9865 63.2493 17.0403 63.0638 17.0403ZM64.115 13.4787L64.9086 11.6979H72.6798L73.4734 13.4787H64.115Z" fill="black"/>
<path d="M78.652 17.0403C78.3634 17.0403 78.1161 16.9381 77.9202 16.7283C77.7244 16.5184 77.6213 16.2656 77.6213 15.9643V1.94393C77.6213 1.62651 77.7193 1.36826 77.9202 1.1692C78.1161 0.970141 78.3634 0.86792 78.652 0.86792H83.393C84.2897 0.86792 85.0833 1.05084 85.7635 1.41668C86.4438 1.78253 86.9797 2.28825 87.3714 2.93923C87.763 3.59022 87.9588 4.33266 87.9588 5.17733C87.9588 5.85521 87.7836 6.46316 87.4332 7.01192C87.0828 7.55531 86.6035 7.99109 85.9954 8.30851C86.8663 8.52909 87.5672 8.96487 88.0979 9.61048C88.6287 10.2615 88.8916 11.1061 88.8916 12.1552C88.8916 13.1075 88.6751 13.9522 88.2474 14.6839C87.8197 15.4155 87.2167 15.9912 86.4541 16.4108C85.6862 16.8305 84.8102 17.0403 83.8156 17.0403H78.652ZM79.6826 7.51764H83.393C84.1454 7.51764 84.7638 7.32396 85.2482 6.9366C85.7326 6.54924 85.9696 5.96281 85.9696 5.17733C85.9696 4.39184 85.7274 3.80542 85.2482 3.42882C84.7638 3.04684 84.1454 2.85853 83.393 2.85853H79.6826V7.51764ZM79.6826 15.0497H83.8053C84.4134 15.0497 84.9493 14.9367 85.4131 14.7161C85.8769 14.4956 86.2376 14.1727 86.5056 13.7423C86.7684 13.3173 86.9024 12.7847 86.9024 12.1499C86.9024 11.5581 86.7684 11.0685 86.5056 10.6811C86.2428 10.2937 85.8769 10.0032 85.4131 9.79878C84.9493 9.59434 84.4134 9.4975 83.8053 9.4975H79.6826V15.0497Z" fill="black"/>
<path d="M92.9887 17.0403C92.7001 17.0403 92.4527 16.9381 92.2569 16.7283C92.0611 16.5185 91.958 16.2656 91.958 15.9643V1.94394C91.958 1.62651 92.0559 1.36827 92.2569 1.16921C92.4527 0.97015 92.7001 0.867929 92.9887 0.867929C93.2927 0.867929 93.5401 0.97015 93.7307 1.16921C93.9214 1.36827 94.0193 1.62651 94.0193 1.94394V7.8835H97.271V9.78803H94.0193V15.9589C94.0193 16.2602 93.9214 16.5185 93.7307 16.7229C93.5401 16.9327 93.2927 17.0403 92.9887 17.0403ZM103.336 16.7713C103.151 16.965 102.898 17.0565 102.584 17.0511C102.265 17.0457 102.017 16.9327 101.832 16.7121L95.3282 8.80348L101.399 1.22839C101.584 0.99167 101.827 0.873309 102.12 0.867929C102.419 0.862549 102.656 0.97015 102.842 1.19073C103.027 1.41131 103.115 1.64265 103.11 1.88476C103.105 2.12686 103.007 2.3582 102.821 2.57878L97.8018 8.6636L103.336 15.3725C103.522 15.5931 103.625 15.8244 103.646 16.0665C103.666 16.2979 103.563 16.5346 103.336 16.7713Z" fill="black"/>
<path d="M105.836 17.0403C105.465 17.0403 105.182 16.8735 104.986 16.5453C104.79 16.2118 104.769 15.8621 104.924 15.4909L110.495 1.5996C110.69 1.11539 111.015 0.873291 111.469 0.873291C111.943 0.873291 112.267 1.11539 112.442 1.5996L118.034 15.5339C118.178 15.9213 118.157 16.271 117.967 16.5776C117.776 16.8897 117.488 17.0457 117.106 17.0457C116.91 17.0457 116.72 16.9865 116.539 16.8681C116.359 16.7498 116.23 16.5884 116.153 16.3839L111.237 3.63325H111.793L106.794 16.3839C106.702 16.6045 106.568 16.7713 106.387 16.8789C106.207 16.9865 106.021 17.0403 105.836 17.0403ZM106.887 13.4787L107.681 11.6979H115.452L116.246 13.4787H106.887Z" fill="black"/>
<path d="M127.232 17.0403C126.944 17.0403 126.696 16.9381 126.501 16.7283C126.305 16.5184 126.202 16.2656 126.202 15.9643V1.94393C126.202 1.62651 126.3 1.36826 126.501 1.1692C126.696 0.970141 126.944 0.86792 127.232 0.86792H137.781C138.085 0.86792 138.332 0.970141 138.523 1.1692C138.714 1.36826 138.812 1.62651 138.812 1.94393V15.9589C138.812 16.2602 138.714 16.5184 138.523 16.7229C138.332 16.9273 138.085 17.0349 137.781 17.0349C137.493 17.0349 137.245 16.9327 137.049 16.7229C136.854 16.5131 136.75 16.2602 136.75 15.9589V2.77245H128.263V15.9589C128.263 16.2602 128.165 16.5184 127.974 16.7229C127.784 16.9327 127.536 17.0403 127.232 17.0403Z" fill="black"/>
<path d="M142.208 17.0403C141.837 17.0403 141.554 16.8735 141.358 16.5453C141.162 16.2118 141.141 15.8621 141.296 15.4909L146.867 1.5996C147.062 1.11539 147.387 0.873291 147.841 0.873291C148.315 0.873291 148.639 1.11539 148.815 1.5996L154.406 15.5339C154.55 15.9213 154.535 16.271 154.354 16.5776C154.174 16.8897 153.896 17.0457 153.509 17.0457C153.313 17.0457 153.123 16.9865 152.942 16.8681C152.762 16.7498 152.633 16.5884 152.556 16.3839L147.598 3.63325H148.232L143.156 16.3839C143.063 16.6045 142.93 16.7713 142.749 16.8789C142.574 16.9811 142.394 17.0403 142.208 17.0403Z" fill="black"/>
<path d="M157.91 17.0402C157.621 17.0402 157.374 16.938 157.178 16.7282C156.982 16.5183 156.879 16.2655 156.879 15.9642V1.94383C156.879 1.62641 156.977 1.36817 157.178 1.16911C157.374 0.970044 157.621 0.867823 157.91 0.867823C158.214 0.867823 158.461 0.970044 158.652 1.16911C158.843 1.36817 158.94 1.62641 158.94 1.94383V7.88339H163.383V9.78792H158.94V15.9588C158.94 16.2601 158.843 16.5183 158.652 16.7228C158.461 16.9326 158.214 17.0402 157.91 17.0402ZM169.592 17.2447C168.484 17.2447 167.469 17.0402 166.557 16.6367C165.645 16.2278 164.856 15.6575 164.197 14.9205C163.537 14.1834 163.022 13.3065 162.661 12.2896C162.295 11.2728 162.115 10.1591 162.115 8.94864C162.115 7.73813 162.295 6.62446 162.661 5.61302C163.027 4.60695 163.537 3.73 164.197 2.99294C164.856 2.25587 165.645 1.68021 166.557 1.27671C167.469 0.867824 168.479 0.668762 169.592 0.668762C170.731 0.668762 171.762 0.873204 172.695 1.27671C173.627 1.68559 174.436 2.25587 175.122 2.99294C175.807 3.73 176.338 4.60695 176.709 5.61302C177.08 6.61908 177.266 7.73275 177.266 8.94864C177.266 10.1645 177.08 11.2782 176.709 12.2896C176.338 13.3011 175.807 14.178 175.122 14.9205C174.436 15.6575 173.622 16.2332 172.695 16.6367C171.762 17.0402 170.731 17.2447 169.592 17.2447ZM169.592 15.2971C170.427 15.2971 171.19 15.1357 171.88 14.8129C172.576 14.4901 173.174 14.0382 173.684 13.4679C174.194 12.8976 174.586 12.2197 174.864 11.4504C175.142 10.6756 175.282 9.84172 175.282 8.94326C175.282 8.04479 175.142 7.21089 174.864 6.43616C174.586 5.66144 174.194 4.98893 173.684 4.41865C173.174 3.84836 172.576 3.40182 171.88 3.0844C171.185 2.76698 170.422 2.61096 169.592 2.61096C168.788 2.61096 168.046 2.76698 167.382 3.0844C166.712 3.40182 166.134 3.84836 165.645 4.41865C165.155 4.98893 164.774 5.66682 164.506 6.43616C164.238 7.20551 164.099 8.04479 164.099 8.94326C164.099 9.84172 164.233 10.6756 164.506 11.4504C164.779 12.2251 165.155 12.8976 165.645 13.4679C166.134 14.0382 166.712 14.4901 167.382 14.8129C168.046 15.1357 168.783 15.2971 169.592 15.2971Z" fill="black"/>
<path d="M187.041 17.2448C185.969 17.2448 184.969 17.035 184.036 16.6154C183.104 16.1957 182.29 15.6093 181.599 14.8561C180.908 14.1029 180.362 13.226 179.971 12.2145C179.579 11.2084 179.383 10.1163 179.383 8.94345C179.383 7.78136 179.579 6.70536 179.971 5.70467C180.362 4.70398 180.903 3.82704 181.599 3.07383C182.295 2.32063 183.104 1.7342 184.026 1.3038C184.954 0.878776 185.959 0.663574 187.041 0.663574C188.061 0.663574 188.937 0.803455 189.669 1.07784C190.401 1.35222 191.138 1.80952 191.88 2.44437C191.988 2.52507 192.07 2.61653 192.127 2.70261C192.189 2.79407 192.225 2.88015 192.246 2.97161C192.266 3.06307 192.277 3.17067 192.277 3.29441C192.277 3.55803 192.189 3.77324 192.009 3.9454C191.828 4.11756 191.617 4.2144 191.364 4.23592C191.112 4.25744 190.87 4.17136 190.633 3.97768C190.143 3.53651 189.638 3.19757 189.118 2.96623C188.597 2.72951 187.907 2.61653 187.046 2.61653C186.268 2.61653 185.531 2.78331 184.846 3.11149C184.16 3.44505 183.552 3.89698 183.032 4.47802C182.511 5.05906 182.104 5.73157 181.81 6.49553C181.522 7.2595 181.372 8.07726 181.372 8.94883C181.372 9.83116 181.517 10.6543 181.81 11.4236C182.099 12.1876 182.506 12.8601 183.032 13.4412C183.552 14.0222 184.16 14.4741 184.846 14.7969C185.531 15.1197 186.268 15.2811 187.046 15.2811C187.721 15.2811 188.36 15.1628 188.958 14.9207C189.561 14.6786 190.138 14.345 190.695 13.9146C190.932 13.7371 191.169 13.6564 191.401 13.6779C191.632 13.6994 191.828 13.7962 191.988 13.9684C192.148 14.1406 192.225 14.3773 192.225 14.6839C192.225 14.8238 192.199 14.9583 192.148 15.0875C192.096 15.2166 192.014 15.3403 191.911 15.4479C191.194 16.0397 190.432 16.4916 189.623 16.7929C188.798 17.0942 187.943 17.2448 187.041 17.2448Z" fill="black"/>
</svg>
