<svg width="18" height="18" viewBox="0 0 18 18" fill="none" xmlns="http://www.w3.org/2000/svg">
<g clip-path="url(#clip0_188_10216)">
<path d="M10.7818 0.5H7.72956C4.28894 0.5 1.5 3.53069 1.5 7.26789V9.11438C1.5 11.8992 3.04896 14.2907 5.26178 15.3294V18.5L8.01401 15.8823H10.7818C14.2222 15.8823 17.0117 12.8516 17.0117 9.11438V7.26789C17.0117 3.53069 14.2222 0.5 10.7818 0.5Z" fill="#525F64"/>
<path d="M14.0418 7.04118H13.4979C13.4979 5.10101 12.0497 3.52257 10.2695 3.52257V2.95459C12.3496 2.95459 14.0418 4.78779 14.0418 7.04118Z" fill="white"/>
<path d="M13.0117 6.80421H12.4678C12.4678 5.63016 11.5933 4.67504 10.5186 4.67504V4.10706C11.8933 4.10706 13.0117 5.31701 13.0117 6.80421Z" fill="white"/>
<path d="M12.0081 6.74469H11.4642C11.4642 6.2463 11.0957 5.84081 10.6426 5.84081V5.27283C11.3955 5.27289 12.0081 5.93314 12.0081 6.74469Z" fill="white"/>
<path d="M4.53694 4.69666C4.11721 5.31499 4.55707 6.06783 4.55707 6.06783C5.09054 7.30429 6.62622 9.15046 7.32643 9.95064C8.02706 10.7511 9.64963 12.5141 10.7812 13.1799C10.7812 13.1799 11.4595 13.7049 12.0866 13.3236C12.0866 13.3236 13.2028 12.641 13.8722 11.5365C13.8722 11.5365 14.1047 11.2117 13.8776 10.8613C13.3861 10.0889 12.7925 9.54132 12.4128 9.19142C12.278 9.06682 12.0696 8.91111 11.8636 9.01513C11.5618 9.16791 11.3177 9.4343 11.0987 9.6957C10.9193 9.90994 10.6946 10.2012 10.403 10.1895C9.75425 10.1627 9.2406 9.72055 8.83427 9.27455C8.41974 8.81846 7.97511 8.33437 7.67041 7.78684C7.50698 7.49272 7.3572 7.09254 7.37507 6.72935C7.38994 6.42494 7.68779 6.21773 7.90812 6.05032C8.17709 5.84578 8.45327 5.61569 8.62582 5.31538C8.7436 5.11071 8.61364 4.88011 8.50712 4.72855C8.20731 4.30242 7.73863 3.63585 7.0462 3.05502C6.73208 2.78742 6.40143 3.00033 6.40143 3.00033C5.28829 3.59706 4.53694 4.69666 4.53694 4.69666Z" fill="white"/>
</g>
<defs>
<clipPath id="clip0_188_10216">
<rect width="17" height="17" fill="white" transform="translate(0.5 0.5)"/>
</clipPath>
</defs>
</svg>
