<svg width="18" height="18" viewBox="0 0 18 18" fill="none" xmlns="http://www.w3.org/2000/svg">
<path d="M0.0950971 3.5084L3.39647 15.8297C3.52313 16.3021 3.77191 16.7329 4.11779 17.0787C4.46367 17.4245 4.89448 17.6732 5.36692 17.7998C5.83936 17.9263 6.3368 17.9263 6.80923 17.7997C7.28167 17.6731 7.71247 17.4245 8.05834 17.0786L17.0783 8.05868C17.4241 7.71281 17.6728 7.28201 17.7994 6.80957C17.926 6.33713 17.926 5.83971 17.7994 5.36726C17.6729 4.89482 17.4242 4.46401 17.0784 4.11813C16.7325 3.77224 16.3018 3.52347 15.8294 3.39681L3.50617 0.0945023C3.03371 -0.0317804 2.53632 -0.0314946 2.064 0.0953264C1.59167 0.222147 1.16104 0.471038 0.815369 0.816995C0.469698 1.16295 0.221162 1.59378 0.0947308 2.06621C-0.0317007 2.53864 -0.031575 3.03603 0.0950971 3.5084Z" fill="#FFD385"/>
</svg>
